%TF.GenerationSoftware,KiCad,Pcbnew,(6.0.1)*%
%TF.CreationDate,2022-02-05T18:26:11+11:00*%
%TF.ProjectId,ESP32_LED_Controller_v1,45535033-325f-44c4-9544-5f436f6e7472,rev?*%
%TF.SameCoordinates,Original*%
%TF.FileFunction,Copper,L3,Inr*%
%TF.FilePolarity,Positive*%
%FSLAX46Y46*%
G04 Gerber Fmt 4.6, Leading zero omitted, Abs format (unit mm)*
G04 Created by KiCad (PCBNEW (6.0.1)) date 2022-02-05 18:26:11*
%MOMM*%
%LPD*%
G01*
G04 APERTURE LIST*
%TA.AperFunction,ComponentPad*%
%ADD10R,1.700000X1.700000*%
%TD*%
%TA.AperFunction,ComponentPad*%
%ADD11O,1.700000X1.700000*%
%TD*%
%TA.AperFunction,ComponentPad*%
%ADD12R,2.500000X2.500000*%
%TD*%
%TA.AperFunction,ComponentPad*%
%ADD13R,2.000000X2.000000*%
%TD*%
%TA.AperFunction,ComponentPad*%
%ADD14C,2.000000*%
%TD*%
%TA.AperFunction,ComponentPad*%
%ADD15C,3.000000*%
%TD*%
%TA.AperFunction,ComponentPad*%
%ADD16C,1.524000*%
%TD*%
%TA.AperFunction,ComponentPad*%
%ADD17C,0.420000*%
%TD*%
%TA.AperFunction,ViaPad*%
%ADD18C,0.800000*%
%TD*%
%TA.AperFunction,ViaPad*%
%ADD19C,0.900000*%
%TD*%
G04 APERTURE END LIST*
D10*
%TO.N,GND*%
%TO.C,J4*%
X54225000Y-62080000D03*
D11*
%TO.N,ESP_Vcc*%
X54225000Y-59540000D03*
%TO.N,/SDA*%
X54225000Y-57000000D03*
%TO.N,/SCL*%
X54225000Y-54460000D03*
%TD*%
D12*
%TO.N,Vin*%
%TO.C,J3*%
X50975000Y-97380000D03*
%TO.N,GND*%
X50975000Y-103380000D03*
%TO.N,N/C*%
X55675000Y-100380000D03*
%TD*%
D13*
%TO.N,Vin*%
%TO.C,C4*%
X47007323Y-89780000D03*
D14*
%TO.N,Strip_-*%
X52007323Y-89780000D03*
%TD*%
D15*
%TO.N,Vin*%
%TO.C,J5*%
X60825000Y-116480000D03*
%TO.N,/Din_STRIP*%
X65825000Y-116480000D03*
%TO.N,Strip_-*%
X70825000Y-116480000D03*
%TD*%
D16*
%TO.N,unconnected-(LLC1-Pad1)*%
%TO.C,LLC1*%
X60745000Y-83890000D03*
%TO.N,/IO6*%
X63285000Y-83890000D03*
%TO.N,ESP_Vcc*%
X65825000Y-83890000D03*
%TO.N,GND*%
X68365000Y-83890000D03*
%TO.N,/3v3_Din_STRIP*%
X70905000Y-83890000D03*
%TO.N,unconnected-(LLC1-Pad6)*%
X73445000Y-83890000D03*
%TO.N,unconnected-(LLC1-Pad7)*%
X73445000Y-73730000D03*
%TO.N,/Hv_Din_STRIP*%
X70905000Y-73730000D03*
%TO.N,GND*%
X68365000Y-73730000D03*
%TO.N,Vin*%
X65825000Y-73730000D03*
%TO.N,/IO6_HV*%
X63285000Y-73730000D03*
%TO.N,unconnected-(LLC1-Pad12)*%
X60745000Y-73730000D03*
%TD*%
D17*
%TO.N,GND*%
%TO.C,ESP1*%
X61785000Y-34030000D03*
X59535000Y-34030000D03*
X59585000Y-35130000D03*
X60135000Y-33480000D03*
X60685000Y-35130000D03*
X61785000Y-35130000D03*
X60135000Y-34580000D03*
X61235000Y-33480000D03*
X61235000Y-34580000D03*
X61235000Y-35680000D03*
X60685000Y-34030000D03*
X60135000Y-35680000D03*
%TD*%
D10*
%TO.N,~{Reset}*%
%TO.C,J2*%
X69645000Y-44260000D03*
D11*
%TO.N,~{Flash}*%
X69645000Y-46800000D03*
%TD*%
D10*
%TO.N,GND*%
%TO.C,J1*%
X64565000Y-44260000D03*
D11*
%TO.N,/CTS*%
X64565000Y-46800000D03*
%TO.N,Vin*%
X64565000Y-49340000D03*
%TO.N,/TX_CON*%
X64565000Y-51880000D03*
%TO.N,/RX_CON*%
X64565000Y-54420000D03*
%TO.N,/DTR*%
X64565000Y-56960000D03*
%TD*%
D10*
%TO.N,GND*%
%TO.C,J7*%
X64575000Y-81405000D03*
D11*
%TO.N,Vin*%
X64575000Y-78865000D03*
%TO.N,/IO4*%
X64575000Y-76325000D03*
%TD*%
D10*
%TO.N,GND*%
%TO.C,J9*%
X68365000Y-81350000D03*
D11*
%TO.N,ESP_Vcc*%
X68365000Y-78810000D03*
%TO.N,/IO5*%
X68365000Y-76270000D03*
%TD*%
D18*
%TO.N,~{Flash}*%
X51499232Y-47648385D03*
%TO.N,/IO5*%
X70075000Y-41930000D03*
X74075000Y-71280000D03*
%TO.N,/3v3_Din_STRIP*%
X58877878Y-48732878D03*
%TO.N,Net-(FET1-Pad1)*%
X57725000Y-56380000D03*
X67625000Y-93380000D03*
%TO.N,/IO6_HV*%
X44325000Y-48980000D03*
X41825000Y-79080000D03*
%TO.N,/IO5*%
X53125000Y-33380000D03*
%TO.N,/IO6*%
X52525000Y-34780000D03*
%TO.N,/IO4*%
X53620980Y-31980000D03*
%TO.N,/3v3_Din_STRIP*%
X75725000Y-82180000D03*
%TO.N,GND*%
X64225000Y-70880000D03*
X63025000Y-70880000D03*
X65425000Y-70880000D03*
X44925000Y-64780000D03*
%TO.N,Vin*%
X55825000Y-57580000D03*
%TO.N,ESP_Vcc*%
X55525000Y-47180000D03*
X52312872Y-47067872D03*
%TO.N,GND*%
X54225000Y-51780000D03*
%TO.N,~{Reset}*%
X54320000Y-42380000D03*
%TO.N,/SCL*%
X51520000Y-56380000D03*
%TO.N,GND*%
X61235000Y-31920000D03*
X60135000Y-31940000D03*
X49720000Y-40380000D03*
X48120000Y-40380000D03*
%TO.N,/IO7*%
X48520000Y-37280000D03*
D19*
%TO.N,ESP_Vcc*%
X77420000Y-59680000D03*
D18*
X54920000Y-28380000D03*
X52920000Y-28380000D03*
X48920000Y-28380000D03*
X45920000Y-28380000D03*
D19*
X76320000Y-62080000D03*
X77420000Y-62880000D03*
D18*
X48320000Y-35280000D03*
D19*
X77420000Y-61280000D03*
X76320000Y-58880000D03*
X77420000Y-58080000D03*
D18*
X48320000Y-33280000D03*
%TO.N,GND*%
X45920000Y-31680000D03*
D19*
X68820000Y-86980000D03*
X54220000Y-107780000D03*
X68820000Y-88980000D03*
D18*
X45920000Y-29880000D03*
X45820000Y-42680000D03*
X45820000Y-40880000D03*
D19*
X67820000Y-87980000D03*
X53020000Y-105580000D03*
X69820000Y-87980000D03*
X67620000Y-89180000D03*
X53220000Y-106780000D03*
X54220000Y-105780000D03*
X55220000Y-106780000D03*
%TO.N,Vin*%
X44620000Y-75580000D03*
X77820000Y-67580000D03*
D18*
X48320000Y-46180000D03*
D19*
X44620000Y-77980000D03*
X43820000Y-76780000D03*
X45420000Y-76780000D03*
X76620000Y-66580000D03*
X75420000Y-67580000D03*
X76620000Y-68580000D03*
D18*
X48320000Y-44380000D03*
%TD*%
%TA.AperFunction,Conductor*%
%TO.N,ESP_Vcc*%
G36*
X75409173Y-27808002D02*
G01*
X75455666Y-27861658D01*
X75467052Y-27913990D01*
X75468646Y-47525162D01*
X75466901Y-47546069D01*
X75463579Y-47565811D01*
X75463426Y-47578350D01*
X75464116Y-47583168D01*
X75464226Y-47583937D01*
X75465377Y-47596295D01*
X75480630Y-47945641D01*
X75480812Y-47949813D01*
X75504714Y-48131364D01*
X75527065Y-48301134D01*
X75529344Y-48318448D01*
X75609820Y-48681451D01*
X75610648Y-48684076D01*
X75610649Y-48684081D01*
X75706023Y-48986565D01*
X75721628Y-49036059D01*
X75779679Y-49176206D01*
X75854682Y-49357279D01*
X75863916Y-49379573D01*
X76035601Y-49709378D01*
X76156631Y-49899357D01*
X76194641Y-49959020D01*
X76235378Y-50022965D01*
X76237042Y-50025133D01*
X76237050Y-50025145D01*
X76355746Y-50179832D01*
X76461726Y-50317947D01*
X76675386Y-50551114D01*
X76690719Y-50567847D01*
X76700465Y-50579894D01*
X76703338Y-50583930D01*
X76712096Y-50592904D01*
X76715988Y-50595821D01*
X76715995Y-50595827D01*
X76733678Y-50609079D01*
X76747458Y-50621059D01*
X84794059Y-58712926D01*
X84982277Y-58902203D01*
X84994674Y-58916721D01*
X85004041Y-58929543D01*
X85004044Y-58929546D01*
X85009339Y-58936794D01*
X85016456Y-58942265D01*
X85024783Y-58948666D01*
X85041352Y-58963945D01*
X85226947Y-59168717D01*
X85234791Y-59178276D01*
X85416933Y-59423867D01*
X85423803Y-59434148D01*
X85502810Y-59565962D01*
X85542114Y-59631536D01*
X85581005Y-59696422D01*
X85586834Y-59707327D01*
X85717573Y-59983754D01*
X85722303Y-59995174D01*
X85802311Y-60218778D01*
X85825313Y-60283064D01*
X85828901Y-60294891D01*
X85903205Y-60591527D01*
X85905612Y-60603633D01*
X85950480Y-60906105D01*
X85950480Y-60906106D01*
X85951691Y-60918407D01*
X85964468Y-61178469D01*
X85964890Y-61187068D01*
X85963541Y-61212637D01*
X85961814Y-61223730D01*
X85962978Y-61232632D01*
X85962978Y-61232635D01*
X85965936Y-61255251D01*
X85967000Y-61271589D01*
X85967000Y-80580672D01*
X85965500Y-80600056D01*
X85961814Y-80623730D01*
X85964274Y-80642539D01*
X85964341Y-80643050D01*
X85965253Y-80665570D01*
X85955324Y-80867685D01*
X85951693Y-80941590D01*
X85950482Y-80953890D01*
X85910654Y-81222389D01*
X85905615Y-81256358D01*
X85903206Y-81268473D01*
X85828905Y-81565100D01*
X85825315Y-81576933D01*
X85722304Y-81864826D01*
X85717573Y-81876249D01*
X85601412Y-82121854D01*
X85586835Y-82152674D01*
X85581009Y-82163574D01*
X85539124Y-82233454D01*
X85423804Y-82425852D01*
X85416934Y-82436133D01*
X85234787Y-82681731D01*
X85226943Y-82691289D01*
X85046313Y-82890584D01*
X85027279Y-82907711D01*
X85018206Y-82914339D01*
X84998274Y-82940268D01*
X84987733Y-82952311D01*
X82829610Y-85122575D01*
X82814425Y-85137845D01*
X82752208Y-85172045D01*
X82725003Y-85175000D01*
X74232001Y-85169692D01*
X74163894Y-85149647D01*
X74117435Y-85095963D01*
X74107375Y-85025682D01*
X74136908Y-84961120D01*
X74159810Y-84940479D01*
X74260270Y-84870136D01*
X74260273Y-84870134D01*
X74264781Y-84866977D01*
X74421977Y-84709781D01*
X74509894Y-84584223D01*
X74546331Y-84532185D01*
X74546332Y-84532183D01*
X74549488Y-84527676D01*
X74551811Y-84522694D01*
X74551814Y-84522689D01*
X74641117Y-84331178D01*
X74641118Y-84331177D01*
X74643440Y-84326196D01*
X74700978Y-84111463D01*
X74720353Y-83890000D01*
X74700978Y-83668537D01*
X74643440Y-83453804D01*
X74625148Y-83414577D01*
X74551814Y-83257311D01*
X74551811Y-83257306D01*
X74549488Y-83252324D01*
X74546331Y-83247815D01*
X74425136Y-83074730D01*
X74425134Y-83074727D01*
X74421977Y-83070219D01*
X74264781Y-82913023D01*
X74260273Y-82909866D01*
X74260270Y-82909864D01*
X74147959Y-82831223D01*
X74082677Y-82785512D01*
X74077695Y-82783189D01*
X74077690Y-82783186D01*
X73886178Y-82693883D01*
X73886177Y-82693882D01*
X73881196Y-82691560D01*
X73875888Y-82690138D01*
X73875886Y-82690137D01*
X73810051Y-82672497D01*
X73666463Y-82634022D01*
X73445000Y-82614647D01*
X73223537Y-82634022D01*
X73079949Y-82672497D01*
X73014114Y-82690137D01*
X73014112Y-82690138D01*
X73008804Y-82691560D01*
X73003823Y-82693882D01*
X73003822Y-82693883D01*
X72812311Y-82783186D01*
X72812306Y-82783189D01*
X72807324Y-82785512D01*
X72802817Y-82788668D01*
X72802815Y-82788669D01*
X72629730Y-82909864D01*
X72629727Y-82909866D01*
X72625219Y-82913023D01*
X72468023Y-83070219D01*
X72464866Y-83074727D01*
X72464864Y-83074730D01*
X72343669Y-83247815D01*
X72340512Y-83252324D01*
X72338189Y-83257306D01*
X72338186Y-83257311D01*
X72289195Y-83362373D01*
X72242277Y-83415658D01*
X72174000Y-83435119D01*
X72106040Y-83414577D01*
X72060805Y-83362373D01*
X72011814Y-83257311D01*
X72011811Y-83257306D01*
X72009488Y-83252324D01*
X72006331Y-83247815D01*
X71885136Y-83074730D01*
X71885134Y-83074727D01*
X71881977Y-83070219D01*
X71724781Y-82913023D01*
X71720273Y-82909866D01*
X71720270Y-82909864D01*
X71607959Y-82831223D01*
X71542677Y-82785512D01*
X71537695Y-82783189D01*
X71537690Y-82783186D01*
X71346178Y-82693883D01*
X71346177Y-82693882D01*
X71341196Y-82691560D01*
X71335888Y-82690138D01*
X71335886Y-82690137D01*
X71270051Y-82672497D01*
X71126463Y-82634022D01*
X70905000Y-82614647D01*
X70683537Y-82634022D01*
X70539949Y-82672497D01*
X70474114Y-82690137D01*
X70474112Y-82690138D01*
X70468804Y-82691560D01*
X70463823Y-82693882D01*
X70463822Y-82693883D01*
X70272311Y-82783186D01*
X70272306Y-82783189D01*
X70267324Y-82785512D01*
X70262817Y-82788668D01*
X70262815Y-82788669D01*
X70089730Y-82909864D01*
X70089727Y-82909866D01*
X70085219Y-82913023D01*
X69928023Y-83070219D01*
X69924866Y-83074727D01*
X69924864Y-83074730D01*
X69803669Y-83247815D01*
X69800512Y-83252324D01*
X69798189Y-83257306D01*
X69798186Y-83257311D01*
X69749195Y-83362373D01*
X69702277Y-83415658D01*
X69634000Y-83435119D01*
X69566040Y-83414577D01*
X69520805Y-83362373D01*
X69471814Y-83257311D01*
X69471811Y-83257306D01*
X69469488Y-83252324D01*
X69466331Y-83247815D01*
X69345136Y-83074730D01*
X69345134Y-83074727D01*
X69341977Y-83070219D01*
X69193933Y-82922175D01*
X69159907Y-82859863D01*
X69164972Y-82789048D01*
X69207519Y-82732212D01*
X69269421Y-82707817D01*
X69317460Y-82702599D01*
X69317464Y-82702598D01*
X69325316Y-82701745D01*
X69461705Y-82650615D01*
X69578261Y-82563261D01*
X69665615Y-82446705D01*
X69716745Y-82310316D01*
X69723500Y-82248134D01*
X69723500Y-82180000D01*
X74811496Y-82180000D01*
X74812186Y-82186565D01*
X74830148Y-82357460D01*
X74831458Y-82369928D01*
X74890473Y-82551556D01*
X74893776Y-82557278D01*
X74893777Y-82557279D01*
X74912576Y-82589839D01*
X74985960Y-82716944D01*
X74990378Y-82721851D01*
X74990379Y-82721852D01*
X75101683Y-82845468D01*
X75113747Y-82858866D01*
X75268248Y-82971118D01*
X75274276Y-82973802D01*
X75274278Y-82973803D01*
X75436681Y-83046109D01*
X75442712Y-83048794D01*
X75536113Y-83068647D01*
X75623056Y-83087128D01*
X75623061Y-83087128D01*
X75629513Y-83088500D01*
X75820487Y-83088500D01*
X75826939Y-83087128D01*
X75826944Y-83087128D01*
X75913887Y-83068647D01*
X76007288Y-83048794D01*
X76013319Y-83046109D01*
X76175722Y-82973803D01*
X76175724Y-82973802D01*
X76181752Y-82971118D01*
X76336253Y-82858866D01*
X76348317Y-82845468D01*
X76459621Y-82721852D01*
X76459622Y-82721851D01*
X76464040Y-82716944D01*
X76537424Y-82589839D01*
X76556223Y-82557279D01*
X76556224Y-82557278D01*
X76559527Y-82551556D01*
X76618542Y-82369928D01*
X76619853Y-82357460D01*
X76637814Y-82186565D01*
X76638504Y-82180000D01*
X76626520Y-82065977D01*
X76619232Y-81996635D01*
X76619232Y-81996633D01*
X76618542Y-81990072D01*
X76559527Y-81808444D01*
X76464040Y-81643056D01*
X76399253Y-81571102D01*
X76340675Y-81506045D01*
X76340674Y-81506044D01*
X76336253Y-81501134D01*
X76197257Y-81400147D01*
X76187094Y-81392763D01*
X76187093Y-81392762D01*
X76181752Y-81388882D01*
X76175724Y-81386198D01*
X76175722Y-81386197D01*
X76013319Y-81313891D01*
X76013318Y-81313891D01*
X76007288Y-81311206D01*
X75913888Y-81291353D01*
X75826944Y-81272872D01*
X75826939Y-81272872D01*
X75820487Y-81271500D01*
X75629513Y-81271500D01*
X75623061Y-81272872D01*
X75623056Y-81272872D01*
X75536112Y-81291353D01*
X75442712Y-81311206D01*
X75436682Y-81313891D01*
X75436681Y-81313891D01*
X75274278Y-81386197D01*
X75274276Y-81386198D01*
X75268248Y-81388882D01*
X75262907Y-81392762D01*
X75262906Y-81392763D01*
X75252743Y-81400147D01*
X75113747Y-81501134D01*
X75109326Y-81506044D01*
X75109325Y-81506045D01*
X75050748Y-81571102D01*
X74985960Y-81643056D01*
X74890473Y-81808444D01*
X74831458Y-81990072D01*
X74830768Y-81996633D01*
X74830768Y-81996635D01*
X74823480Y-82065977D01*
X74811496Y-82180000D01*
X69723500Y-82180000D01*
X69723500Y-80673415D01*
X80811888Y-80673415D01*
X80838193Y-80949130D01*
X80839278Y-80953564D01*
X80839279Y-80953570D01*
X80902939Y-81213725D01*
X80904024Y-81218159D01*
X80905736Y-81222385D01*
X80905737Y-81222389D01*
X80965566Y-81370098D01*
X81008002Y-81474868D01*
X81147948Y-81713878D01*
X81320931Y-81930182D01*
X81523327Y-82119250D01*
X81750896Y-82277120D01*
X81832495Y-82317715D01*
X81994784Y-82398453D01*
X81994787Y-82398454D01*
X81998871Y-82400486D01*
X82003210Y-82401908D01*
X82003209Y-82401908D01*
X82257724Y-82485343D01*
X82257730Y-82485344D01*
X82262057Y-82486763D01*
X82266548Y-82487543D01*
X82266549Y-82487543D01*
X82531160Y-82533487D01*
X82531168Y-82533488D01*
X82534941Y-82534143D01*
X82538778Y-82534334D01*
X82620887Y-82538422D01*
X82620895Y-82538422D01*
X82622458Y-82538500D01*
X82795356Y-82538500D01*
X82797624Y-82538335D01*
X82797636Y-82538335D01*
X82916791Y-82529689D01*
X83001241Y-82523561D01*
X83174348Y-82485343D01*
X83267235Y-82464836D01*
X83267239Y-82464835D01*
X83271695Y-82463851D01*
X83444310Y-82398453D01*
X83526426Y-82367342D01*
X83526429Y-82367341D01*
X83530696Y-82365724D01*
X83772820Y-82231236D01*
X83992993Y-82063205D01*
X84186604Y-81865151D01*
X84349596Y-81641222D01*
X84478556Y-81396110D01*
X84481109Y-81388882D01*
X84569261Y-81139256D01*
X84570782Y-81134949D01*
X84624341Y-80863210D01*
X84633563Y-80677971D01*
X84637885Y-80591154D01*
X84637885Y-80591148D01*
X84638112Y-80586585D01*
X84611807Y-80310870D01*
X84609419Y-80301109D01*
X84547061Y-80046275D01*
X84545976Y-80041841D01*
X84543851Y-80036593D01*
X84443711Y-79789361D01*
X84443711Y-79789360D01*
X84441998Y-79785132D01*
X84302052Y-79546122D01*
X84129069Y-79329818D01*
X83926673Y-79140750D01*
X83699104Y-78982880D01*
X83488199Y-78877956D01*
X83455216Y-78861547D01*
X83455213Y-78861546D01*
X83451129Y-78859514D01*
X83350610Y-78826562D01*
X83192276Y-78774657D01*
X83192270Y-78774656D01*
X83187943Y-78773237D01*
X83166069Y-78769439D01*
X82918840Y-78726513D01*
X82918832Y-78726512D01*
X82915059Y-78725857D01*
X82902996Y-78725256D01*
X82829113Y-78721578D01*
X82829105Y-78721578D01*
X82827542Y-78721500D01*
X82654644Y-78721500D01*
X82652376Y-78721665D01*
X82652364Y-78721665D01*
X82533209Y-78730311D01*
X82448759Y-78736439D01*
X82313532Y-78766294D01*
X82182765Y-78795164D01*
X82182761Y-78795165D01*
X82178305Y-78796149D01*
X82098032Y-78826562D01*
X81923574Y-78892658D01*
X81923571Y-78892659D01*
X81919304Y-78894276D01*
X81677180Y-79028764D01*
X81457007Y-79196795D01*
X81453814Y-79200061D01*
X81453812Y-79200063D01*
X81387794Y-79267596D01*
X81263396Y-79394849D01*
X81100404Y-79618778D01*
X80971444Y-79863890D01*
X80969926Y-79868188D01*
X80969924Y-79868193D01*
X80902204Y-80059960D01*
X80879218Y-80125051D01*
X80825659Y-80396790D01*
X80825432Y-80401347D01*
X80825432Y-80401348D01*
X80812552Y-80660080D01*
X80811888Y-80673415D01*
X69723500Y-80673415D01*
X69723500Y-80451866D01*
X69716745Y-80389684D01*
X69665615Y-80253295D01*
X69578261Y-80136739D01*
X69461705Y-80049385D01*
X69425723Y-80035896D01*
X69342687Y-80004767D01*
X69285923Y-79962125D01*
X69261223Y-79895564D01*
X69276430Y-79826215D01*
X69297977Y-79797535D01*
X69399052Y-79696812D01*
X69405730Y-79688965D01*
X69530003Y-79516020D01*
X69535313Y-79507183D01*
X69629670Y-79316267D01*
X69633469Y-79306672D01*
X69695377Y-79102910D01*
X69697555Y-79092837D01*
X69698986Y-79081962D01*
X69696775Y-79067778D01*
X69683617Y-79064000D01*
X67048225Y-79064000D01*
X67034694Y-79067973D01*
X67033257Y-79077966D01*
X67063565Y-79212446D01*
X67066645Y-79222275D01*
X67146770Y-79419603D01*
X67151413Y-79428794D01*
X67262694Y-79610388D01*
X67268777Y-79618699D01*
X67408213Y-79779667D01*
X67415577Y-79786879D01*
X67420522Y-79790985D01*
X67460156Y-79849889D01*
X67461653Y-79920870D01*
X67424537Y-79981392D01*
X67384264Y-80005910D01*
X67276705Y-80046232D01*
X67276704Y-80046233D01*
X67268295Y-80049385D01*
X67151739Y-80136739D01*
X67064385Y-80253295D01*
X67013255Y-80389684D01*
X67006500Y-80451866D01*
X67006500Y-82248134D01*
X67013255Y-82310316D01*
X67064385Y-82446705D01*
X67151739Y-82563261D01*
X67268295Y-82650615D01*
X67404684Y-82701745D01*
X67412536Y-82702598D01*
X67412540Y-82702599D01*
X67460579Y-82707817D01*
X67526142Y-82735059D01*
X67566568Y-82793422D01*
X67569024Y-82864376D01*
X67536067Y-82922175D01*
X67388023Y-83070219D01*
X67384866Y-83074727D01*
X67384864Y-83074730D01*
X67263669Y-83247815D01*
X67260512Y-83252324D01*
X67258189Y-83257306D01*
X67258186Y-83257311D01*
X67208919Y-83362965D01*
X67162001Y-83416250D01*
X67093724Y-83435711D01*
X67025764Y-83415169D01*
X66980529Y-83362965D01*
X66931377Y-83257559D01*
X66925897Y-83248068D01*
X66895206Y-83204235D01*
X66884729Y-83195860D01*
X66871282Y-83202928D01*
X66197022Y-83877188D01*
X66189408Y-83891132D01*
X66189539Y-83892965D01*
X66193790Y-83899580D01*
X66872003Y-84577793D01*
X66883777Y-84584223D01*
X66895793Y-84574926D01*
X66925897Y-84531932D01*
X66931377Y-84522441D01*
X66980529Y-84417035D01*
X67027447Y-84363750D01*
X67095724Y-84344289D01*
X67163684Y-84364831D01*
X67208919Y-84417035D01*
X67258186Y-84522689D01*
X67258189Y-84522694D01*
X67260512Y-84527676D01*
X67263668Y-84532183D01*
X67263669Y-84532185D01*
X67300107Y-84584223D01*
X67388023Y-84709781D01*
X67545219Y-84866977D01*
X67549727Y-84870134D01*
X67549730Y-84870136D01*
X67644245Y-84936316D01*
X67688573Y-84991773D01*
X67695882Y-85062393D01*
X67663851Y-85125753D01*
X67602650Y-85161738D01*
X67571895Y-85165529D01*
X66609067Y-85164927D01*
X66540959Y-85144882D01*
X66494500Y-85091198D01*
X66484440Y-85020917D01*
X66510725Y-84960254D01*
X66519139Y-84949728D01*
X66512071Y-84936281D01*
X65837812Y-84262022D01*
X65823868Y-84254408D01*
X65822035Y-84254539D01*
X65815420Y-84258790D01*
X65137207Y-84937003D01*
X65130777Y-84948778D01*
X65140114Y-84960847D01*
X65165978Y-85026965D01*
X65151989Y-85096570D01*
X65102590Y-85147562D01*
X65040378Y-85163947D01*
X64081063Y-85163347D01*
X64012955Y-85143302D01*
X63966496Y-85089618D01*
X63956436Y-85019337D01*
X63985969Y-84954775D01*
X64008871Y-84934134D01*
X64010294Y-84933138D01*
X64100264Y-84870140D01*
X64100273Y-84870134D01*
X64104781Y-84866977D01*
X64261977Y-84709781D01*
X64349894Y-84584223D01*
X64386331Y-84532185D01*
X64386332Y-84532183D01*
X64389488Y-84527676D01*
X64391811Y-84522694D01*
X64391814Y-84522689D01*
X64441081Y-84417035D01*
X64487999Y-84363750D01*
X64556276Y-84344289D01*
X64624236Y-84364831D01*
X64669471Y-84417035D01*
X64718623Y-84522441D01*
X64724103Y-84531932D01*
X64754794Y-84575765D01*
X64765271Y-84584140D01*
X64778718Y-84577072D01*
X65452978Y-83902812D01*
X65460592Y-83888868D01*
X65460461Y-83887035D01*
X65456210Y-83880420D01*
X64777997Y-83202207D01*
X64766223Y-83195777D01*
X64754207Y-83205074D01*
X64724103Y-83248068D01*
X64718623Y-83257559D01*
X64669471Y-83362965D01*
X64622553Y-83416250D01*
X64554276Y-83435711D01*
X64486316Y-83415169D01*
X64441081Y-83362965D01*
X64391814Y-83257311D01*
X64391811Y-83257306D01*
X64389488Y-83252324D01*
X64386331Y-83247815D01*
X64265136Y-83074730D01*
X64265134Y-83074727D01*
X64261977Y-83070219D01*
X64170353Y-82978595D01*
X64136327Y-82916283D01*
X64141392Y-82845468D01*
X64183939Y-82788632D01*
X64250459Y-82763821D01*
X64259448Y-82763500D01*
X65019647Y-82763500D01*
X65087768Y-82783502D01*
X65131179Y-82830877D01*
X65137929Y-82843719D01*
X65812188Y-83517978D01*
X65826132Y-83525592D01*
X65827965Y-83525461D01*
X65834580Y-83521210D01*
X66512793Y-82842997D01*
X66519223Y-82831223D01*
X66509926Y-82819207D01*
X66466931Y-82789102D01*
X66457445Y-82783624D01*
X66266007Y-82694355D01*
X66255715Y-82690609D01*
X66051691Y-82635941D01*
X66040895Y-82634037D01*
X65998049Y-82630289D01*
X65931930Y-82604426D01*
X65890291Y-82546922D01*
X65886350Y-82476035D01*
X65891048Y-82460539D01*
X65923971Y-82372718D01*
X65923973Y-82372712D01*
X65926745Y-82365316D01*
X65933500Y-82303134D01*
X65933500Y-80506866D01*
X65926745Y-80444684D01*
X65875615Y-80308295D01*
X65788261Y-80191739D01*
X65671705Y-80104385D01*
X65659132Y-80099672D01*
X65553203Y-80059960D01*
X65496439Y-80017318D01*
X65471739Y-79950756D01*
X65486947Y-79881408D01*
X65508493Y-79852727D01*
X65572081Y-79789361D01*
X65613096Y-79748489D01*
X65650230Y-79696812D01*
X65740435Y-79571277D01*
X65743453Y-79567077D01*
X65755573Y-79542555D01*
X65840136Y-79371453D01*
X65840137Y-79371451D01*
X65842430Y-79366811D01*
X65907370Y-79153069D01*
X65936529Y-78931590D01*
X65937480Y-78892658D01*
X65938074Y-78868365D01*
X65938074Y-78868361D01*
X65938156Y-78865000D01*
X65919852Y-78642361D01*
X65865431Y-78425702D01*
X65776354Y-78220840D01*
X65655014Y-78033277D01*
X65504670Y-77868051D01*
X65500619Y-77864852D01*
X65500615Y-77864848D01*
X65333414Y-77732800D01*
X65333410Y-77732798D01*
X65329359Y-77729598D01*
X65288053Y-77706796D01*
X65238084Y-77656364D01*
X65223312Y-77586921D01*
X65248428Y-77520516D01*
X65275780Y-77493909D01*
X65338667Y-77449052D01*
X65454860Y-77366173D01*
X65485958Y-77335184D01*
X65577523Y-77243938D01*
X65613096Y-77208489D01*
X65672594Y-77125689D01*
X65740435Y-77031277D01*
X65743453Y-77027077D01*
X65772929Y-76967438D01*
X65840136Y-76831453D01*
X65840137Y-76831451D01*
X65842430Y-76826811D01*
X65907370Y-76613069D01*
X65936529Y-76391590D01*
X65938156Y-76325000D01*
X65919852Y-76102361D01*
X65865431Y-75885702D01*
X65776354Y-75680840D01*
X65655014Y-75493277D01*
X65504670Y-75328051D01*
X65500619Y-75324852D01*
X65500615Y-75324848D01*
X65333414Y-75192800D01*
X65333410Y-75192798D01*
X65329359Y-75189598D01*
X65292260Y-75169118D01*
X65199309Y-75117807D01*
X65149338Y-75067374D01*
X65149317Y-75067277D01*
X65101626Y-75069549D01*
X65089274Y-75065874D01*
X64928091Y-75008796D01*
X64928083Y-75008794D01*
X64923212Y-75007069D01*
X64918119Y-75006162D01*
X64918116Y-75006161D01*
X64708373Y-74968800D01*
X64708367Y-74968799D01*
X64703284Y-74967894D01*
X64629452Y-74966992D01*
X64485081Y-74965228D01*
X64485079Y-74965228D01*
X64479911Y-74965165D01*
X64259091Y-74998955D01*
X64046756Y-75068357D01*
X63848607Y-75171507D01*
X63844474Y-75174610D01*
X63844471Y-75174612D01*
X63674100Y-75302530D01*
X63669965Y-75305635D01*
X63515629Y-75467138D01*
X63389743Y-75651680D01*
X63374003Y-75685590D01*
X63307460Y-75828945D01*
X63295688Y-75854305D01*
X63235989Y-76069570D01*
X63212251Y-76291695D01*
X63212548Y-76296848D01*
X63212548Y-76296851D01*
X63218011Y-76391590D01*
X63225110Y-76514715D01*
X63226247Y-76519761D01*
X63226248Y-76519767D01*
X63242736Y-76592926D01*
X63274222Y-76732639D01*
X63358266Y-76939616D01*
X63474987Y-77130088D01*
X63621250Y-77298938D01*
X63793126Y-77441632D01*
X63854468Y-77477477D01*
X63866445Y-77484476D01*
X63915169Y-77536114D01*
X63928240Y-77605897D01*
X63901509Y-77671669D01*
X63861055Y-77705027D01*
X63848607Y-77711507D01*
X63844474Y-77714610D01*
X63844471Y-77714612D01*
X63674100Y-77842530D01*
X63669965Y-77845635D01*
X63666393Y-77849373D01*
X63538767Y-77982926D01*
X63515629Y-78007138D01*
X63389743Y-78191680D01*
X63374003Y-78225590D01*
X63318821Y-78344470D01*
X63295688Y-78394305D01*
X63235989Y-78609570D01*
X63212251Y-78831695D01*
X63212548Y-78836848D01*
X63212548Y-78836851D01*
X63224812Y-79049547D01*
X63225110Y-79054715D01*
X63226247Y-79059761D01*
X63226248Y-79059767D01*
X63230808Y-79080000D01*
X63274222Y-79272639D01*
X63312461Y-79366811D01*
X63351054Y-79461854D01*
X63358266Y-79479616D01*
X63474987Y-79670088D01*
X63621250Y-79838938D01*
X63625230Y-79842242D01*
X63629981Y-79846187D01*
X63669616Y-79905090D01*
X63671113Y-79976071D01*
X63633997Y-80036593D01*
X63593724Y-80061112D01*
X63478295Y-80104385D01*
X63361739Y-80191739D01*
X63274385Y-80308295D01*
X63223255Y-80444684D01*
X63216500Y-80506866D01*
X63216500Y-82303134D01*
X63223255Y-82365316D01*
X63257500Y-82456665D01*
X63262683Y-82527470D01*
X63228763Y-82589839D01*
X63166507Y-82623968D01*
X63150499Y-82626414D01*
X63063537Y-82634022D01*
X62919949Y-82672497D01*
X62854114Y-82690137D01*
X62854112Y-82690138D01*
X62848804Y-82691560D01*
X62843823Y-82693882D01*
X62843822Y-82693883D01*
X62652311Y-82783186D01*
X62652306Y-82783189D01*
X62647324Y-82785512D01*
X62642817Y-82788668D01*
X62642815Y-82788669D01*
X62469730Y-82909864D01*
X62469727Y-82909866D01*
X62465219Y-82913023D01*
X62308023Y-83070219D01*
X62304866Y-83074727D01*
X62304864Y-83074730D01*
X62183669Y-83247815D01*
X62180512Y-83252324D01*
X62178189Y-83257306D01*
X62178186Y-83257311D01*
X62129195Y-83362373D01*
X62082277Y-83415658D01*
X62014000Y-83435119D01*
X61946040Y-83414577D01*
X61900805Y-83362373D01*
X61851814Y-83257311D01*
X61851811Y-83257306D01*
X61849488Y-83252324D01*
X61846331Y-83247815D01*
X61725136Y-83074730D01*
X61725134Y-83074727D01*
X61721977Y-83070219D01*
X61564781Y-82913023D01*
X61560273Y-82909866D01*
X61560270Y-82909864D01*
X61447959Y-82831223D01*
X61382677Y-82785512D01*
X61377695Y-82783189D01*
X61377690Y-82783186D01*
X61186178Y-82693883D01*
X61186177Y-82693882D01*
X61181196Y-82691560D01*
X61175888Y-82690138D01*
X61175886Y-82690137D01*
X61110051Y-82672497D01*
X60966463Y-82634022D01*
X60745000Y-82614647D01*
X60523537Y-82634022D01*
X60379949Y-82672497D01*
X60314114Y-82690137D01*
X60314112Y-82690138D01*
X60308804Y-82691560D01*
X60303823Y-82693882D01*
X60303822Y-82693883D01*
X60112311Y-82783186D01*
X60112306Y-82783189D01*
X60107324Y-82785512D01*
X60102817Y-82788668D01*
X60102815Y-82788669D01*
X59929730Y-82909864D01*
X59929727Y-82909866D01*
X59925219Y-82913023D01*
X59768023Y-83070219D01*
X59764866Y-83074727D01*
X59764864Y-83074730D01*
X59643669Y-83247815D01*
X59640512Y-83252324D01*
X59638189Y-83257306D01*
X59638186Y-83257311D01*
X59564852Y-83414577D01*
X59546560Y-83453804D01*
X59489022Y-83668537D01*
X59469647Y-83890000D01*
X59489022Y-84111463D01*
X59546560Y-84326196D01*
X59548882Y-84331177D01*
X59548883Y-84331178D01*
X59638186Y-84522689D01*
X59638189Y-84522694D01*
X59640512Y-84527676D01*
X59643668Y-84532183D01*
X59643669Y-84532185D01*
X59680107Y-84584223D01*
X59768023Y-84709781D01*
X59925219Y-84866977D01*
X59929727Y-84870134D01*
X59929730Y-84870136D01*
X60017438Y-84931550D01*
X60061766Y-84987007D01*
X60069075Y-85057627D01*
X60037044Y-85120987D01*
X59975843Y-85156972D01*
X59945092Y-85160763D01*
X58850920Y-85160079D01*
X58782813Y-85140034D01*
X58736354Y-85086350D01*
X58725000Y-85034079D01*
X58725000Y-73730000D01*
X59469647Y-73730000D01*
X59489022Y-73951463D01*
X59518898Y-74062960D01*
X59540420Y-74143280D01*
X59546560Y-74166196D01*
X59548882Y-74171177D01*
X59548883Y-74171178D01*
X59638186Y-74362689D01*
X59638189Y-74362694D01*
X59640512Y-74367676D01*
X59768023Y-74549781D01*
X59925219Y-74706977D01*
X59929727Y-74710134D01*
X59929730Y-74710136D01*
X60003174Y-74761562D01*
X60107323Y-74834488D01*
X60112305Y-74836811D01*
X60112310Y-74836814D01*
X60303822Y-74926117D01*
X60308804Y-74928440D01*
X60314112Y-74929862D01*
X60314114Y-74929863D01*
X60360567Y-74942310D01*
X60523537Y-74985978D01*
X60745000Y-75005353D01*
X60966463Y-74985978D01*
X61129433Y-74942310D01*
X61175886Y-74929863D01*
X61175888Y-74929862D01*
X61181196Y-74928440D01*
X61186178Y-74926117D01*
X61377690Y-74836814D01*
X61377695Y-74836811D01*
X61382677Y-74834488D01*
X61486826Y-74761562D01*
X61560270Y-74710136D01*
X61560273Y-74710134D01*
X61564781Y-74706977D01*
X61721977Y-74549781D01*
X61849488Y-74367676D01*
X61851811Y-74362694D01*
X61851814Y-74362689D01*
X61900805Y-74257627D01*
X61947723Y-74204342D01*
X62016000Y-74184881D01*
X62083960Y-74205423D01*
X62129195Y-74257627D01*
X62178186Y-74362689D01*
X62178189Y-74362694D01*
X62180512Y-74367676D01*
X62308023Y-74549781D01*
X62465219Y-74706977D01*
X62469727Y-74710134D01*
X62469730Y-74710136D01*
X62543174Y-74761562D01*
X62647323Y-74834488D01*
X62652305Y-74836811D01*
X62652310Y-74836814D01*
X62843822Y-74926117D01*
X62848804Y-74928440D01*
X62854112Y-74929862D01*
X62854114Y-74929863D01*
X62900567Y-74942310D01*
X63063537Y-74985978D01*
X63285000Y-75005353D01*
X63506463Y-74985978D01*
X63669433Y-74942310D01*
X63715886Y-74929863D01*
X63715888Y-74929862D01*
X63721196Y-74928440D01*
X63726178Y-74926117D01*
X63917690Y-74836814D01*
X63917695Y-74836811D01*
X63922677Y-74834488D01*
X64026826Y-74761562D01*
X64100270Y-74710136D01*
X64100273Y-74710134D01*
X64104781Y-74706977D01*
X64261977Y-74549781D01*
X64389488Y-74367676D01*
X64391811Y-74362694D01*
X64391814Y-74362689D01*
X64440805Y-74257627D01*
X64487723Y-74204342D01*
X64556000Y-74184881D01*
X64623960Y-74205423D01*
X64669195Y-74257627D01*
X64718186Y-74362689D01*
X64718189Y-74362694D01*
X64720512Y-74367676D01*
X64848023Y-74549781D01*
X65005219Y-74706977D01*
X65009727Y-74710134D01*
X65009730Y-74710136D01*
X65111680Y-74781522D01*
X65187323Y-74834488D01*
X65192310Y-74836814D01*
X65194334Y-74837982D01*
X65241620Y-74887575D01*
X65287551Y-74884502D01*
X65313452Y-74893303D01*
X65383822Y-74926117D01*
X65388804Y-74928440D01*
X65394112Y-74929862D01*
X65394114Y-74929863D01*
X65440567Y-74942310D01*
X65603537Y-74985978D01*
X65825000Y-75005353D01*
X66046463Y-74985978D01*
X66209433Y-74942310D01*
X66255886Y-74929863D01*
X66255888Y-74929862D01*
X66261196Y-74928440D01*
X66266178Y-74926117D01*
X66457690Y-74836814D01*
X66457695Y-74836811D01*
X66462677Y-74834488D01*
X66566826Y-74761562D01*
X66640270Y-74710136D01*
X66640273Y-74710134D01*
X66644781Y-74706977D01*
X66801977Y-74549781D01*
X66929488Y-74367676D01*
X66931811Y-74362694D01*
X66931814Y-74362689D01*
X66980805Y-74257627D01*
X67027723Y-74204342D01*
X67096000Y-74184881D01*
X67163960Y-74205423D01*
X67209195Y-74257627D01*
X67258186Y-74362689D01*
X67258189Y-74362694D01*
X67260512Y-74367676D01*
X67388023Y-74549781D01*
X67545219Y-74706977D01*
X67549727Y-74710134D01*
X67549730Y-74710136D01*
X67623174Y-74761562D01*
X67727323Y-74834488D01*
X67733937Y-74837572D01*
X67734734Y-74837944D01*
X67735621Y-74838725D01*
X67737074Y-74839564D01*
X67736905Y-74839856D01*
X67788018Y-74884862D01*
X67807478Y-74953139D01*
X67786935Y-75021099D01*
X67739662Y-75063901D01*
X67638607Y-75116507D01*
X67634474Y-75119610D01*
X67634471Y-75119612D01*
X67464100Y-75247530D01*
X67459965Y-75250635D01*
X67305629Y-75412138D01*
X67302715Y-75416410D01*
X67302714Y-75416411D01*
X67250280Y-75493277D01*
X67179743Y-75596680D01*
X67164003Y-75630590D01*
X67089747Y-75790561D01*
X67085688Y-75799305D01*
X67025989Y-76014570D01*
X67002251Y-76236695D01*
X67002548Y-76241848D01*
X67002548Y-76241851D01*
X67008011Y-76336590D01*
X67015110Y-76459715D01*
X67016247Y-76464761D01*
X67016248Y-76464767D01*
X67026340Y-76509547D01*
X67064222Y-76677639D01*
X67148266Y-76884616D01*
X67181970Y-76939616D01*
X67238140Y-77031277D01*
X67264987Y-77075088D01*
X67411250Y-77243938D01*
X67583126Y-77386632D01*
X67656955Y-77429774D01*
X67705679Y-77481412D01*
X67718750Y-77551195D01*
X67692019Y-77616967D01*
X67651562Y-77650327D01*
X67643457Y-77654546D01*
X67634738Y-77660036D01*
X67464433Y-77787905D01*
X67456726Y-77794748D01*
X67309590Y-77948717D01*
X67303104Y-77956727D01*
X67183098Y-78132649D01*
X67178000Y-78141623D01*
X67088338Y-78334783D01*
X67084775Y-78344470D01*
X67029389Y-78544183D01*
X67030912Y-78552607D01*
X67043292Y-78556000D01*
X69683344Y-78556000D01*
X69696875Y-78552027D01*
X69698180Y-78542947D01*
X69656214Y-78375875D01*
X69652894Y-78366124D01*
X69567972Y-78170814D01*
X69563105Y-78161739D01*
X69447426Y-77982926D01*
X69441136Y-77974757D01*
X69297806Y-77817240D01*
X69290273Y-77810215D01*
X69123139Y-77678222D01*
X69114556Y-77672520D01*
X69077602Y-77652120D01*
X69027631Y-77601687D01*
X69012859Y-77532245D01*
X69037975Y-77465839D01*
X69065327Y-77439232D01*
X69088797Y-77422491D01*
X69244860Y-77311173D01*
X69403096Y-77153489D01*
X69416702Y-77134555D01*
X69530435Y-76976277D01*
X69533453Y-76972077D01*
X69605248Y-76826811D01*
X69630136Y-76776453D01*
X69630137Y-76776451D01*
X69632430Y-76771811D01*
X69697370Y-76558069D01*
X69726529Y-76336590D01*
X69727626Y-76291695D01*
X69728074Y-76273365D01*
X69728074Y-76273361D01*
X69728156Y-76270000D01*
X69709852Y-76047361D01*
X69655431Y-75830702D01*
X69566354Y-75625840D01*
X69478124Y-75489457D01*
X69447822Y-75442617D01*
X69447820Y-75442614D01*
X69445014Y-75438277D01*
X69294670Y-75273051D01*
X69290619Y-75269852D01*
X69290615Y-75269848D01*
X69123414Y-75137800D01*
X69123410Y-75137798D01*
X69119359Y-75134598D01*
X69082260Y-75114118D01*
X69023422Y-75081638D01*
X68988184Y-75062186D01*
X68938213Y-75011753D01*
X68923441Y-74942310D01*
X68948557Y-74875905D01*
X68993109Y-74839881D01*
X68992926Y-74839564D01*
X68994938Y-74838403D01*
X68995830Y-74837681D01*
X68997688Y-74836815D01*
X68997693Y-74836812D01*
X69002677Y-74834488D01*
X69106826Y-74761562D01*
X69180270Y-74710136D01*
X69180273Y-74710134D01*
X69184781Y-74706977D01*
X69341977Y-74549781D01*
X69469488Y-74367676D01*
X69471811Y-74362694D01*
X69471814Y-74362689D01*
X69520805Y-74257627D01*
X69567723Y-74204342D01*
X69636000Y-74184881D01*
X69703960Y-74205423D01*
X69749195Y-74257627D01*
X69798186Y-74362689D01*
X69798189Y-74362694D01*
X69800512Y-74367676D01*
X69928023Y-74549781D01*
X70085219Y-74706977D01*
X70089727Y-74710134D01*
X70089730Y-74710136D01*
X70163174Y-74761562D01*
X70267323Y-74834488D01*
X70272305Y-74836811D01*
X70272310Y-74836814D01*
X70463822Y-74926117D01*
X70468804Y-74928440D01*
X70474112Y-74929862D01*
X70474114Y-74929863D01*
X70520567Y-74942310D01*
X70683537Y-74985978D01*
X70905000Y-75005353D01*
X71126463Y-74985978D01*
X71289433Y-74942310D01*
X71335886Y-74929863D01*
X71335888Y-74929862D01*
X71341196Y-74928440D01*
X71346178Y-74926117D01*
X71537690Y-74836814D01*
X71537695Y-74836811D01*
X71542677Y-74834488D01*
X71646826Y-74761562D01*
X71720270Y-74710136D01*
X71720273Y-74710134D01*
X71724781Y-74706977D01*
X71881977Y-74549781D01*
X72009488Y-74367676D01*
X72011811Y-74362694D01*
X72011814Y-74362689D01*
X72060805Y-74257627D01*
X72107723Y-74204342D01*
X72176000Y-74184881D01*
X72243960Y-74205423D01*
X72289195Y-74257627D01*
X72338186Y-74362689D01*
X72338189Y-74362694D01*
X72340512Y-74367676D01*
X72468023Y-74549781D01*
X72625219Y-74706977D01*
X72629727Y-74710134D01*
X72629730Y-74710136D01*
X72703174Y-74761562D01*
X72807323Y-74834488D01*
X72812305Y-74836811D01*
X72812310Y-74836814D01*
X73003822Y-74926117D01*
X73008804Y-74928440D01*
X73014112Y-74929862D01*
X73014114Y-74929863D01*
X73060567Y-74942310D01*
X73223537Y-74985978D01*
X73445000Y-75005353D01*
X73666463Y-74985978D01*
X73829433Y-74942310D01*
X73875886Y-74929863D01*
X73875888Y-74929862D01*
X73881196Y-74928440D01*
X73886178Y-74926117D01*
X74077690Y-74836814D01*
X74077695Y-74836811D01*
X74082677Y-74834488D01*
X74186826Y-74761562D01*
X74260270Y-74710136D01*
X74260273Y-74710134D01*
X74264781Y-74706977D01*
X74421977Y-74549781D01*
X74549488Y-74367676D01*
X74551811Y-74362694D01*
X74551814Y-74362689D01*
X74641117Y-74171178D01*
X74641118Y-74171177D01*
X74643440Y-74166196D01*
X74649581Y-74143280D01*
X74671102Y-74062960D01*
X74700978Y-73951463D01*
X74720353Y-73730000D01*
X74700978Y-73508537D01*
X74643440Y-73293804D01*
X74625148Y-73254577D01*
X74551814Y-73097311D01*
X74551811Y-73097306D01*
X74549488Y-73092324D01*
X74421977Y-72910219D01*
X74264781Y-72753023D01*
X74260273Y-72749866D01*
X74260270Y-72749864D01*
X74175706Y-72690652D01*
X74082677Y-72625512D01*
X74077695Y-72623189D01*
X74077690Y-72623186D01*
X73886178Y-72533883D01*
X73886177Y-72533882D01*
X73881196Y-72531560D01*
X73875888Y-72530138D01*
X73875886Y-72530137D01*
X73810051Y-72512497D01*
X73749806Y-72496354D01*
X81466500Y-72496354D01*
X81466673Y-72498679D01*
X81466673Y-72498685D01*
X81469011Y-72530137D01*
X81480939Y-72690652D01*
X81481968Y-72695200D01*
X81481969Y-72695206D01*
X81494337Y-72749864D01*
X81538623Y-72945577D01*
X81540315Y-72949929D01*
X81540316Y-72949931D01*
X81597629Y-73097311D01*
X81633353Y-73189177D01*
X81763049Y-73416098D01*
X81924862Y-73621357D01*
X82115237Y-73800443D01*
X82329991Y-73949424D01*
X82334181Y-73951490D01*
X82334184Y-73951492D01*
X82560219Y-74062960D01*
X82560222Y-74062961D01*
X82564407Y-74065025D01*
X82568850Y-74066447D01*
X82568852Y-74066448D01*
X82808877Y-74143280D01*
X82813335Y-74144707D01*
X83071307Y-74186721D01*
X83185058Y-74188210D01*
X83327978Y-74190081D01*
X83327981Y-74190081D01*
X83332655Y-74190142D01*
X83591638Y-74154896D01*
X83842567Y-74081757D01*
X83878862Y-74065025D01*
X83897112Y-74056611D01*
X84079928Y-73972332D01*
X84129976Y-73939519D01*
X84294596Y-73831590D01*
X84294601Y-73831586D01*
X84298509Y-73829024D01*
X84493506Y-73654982D01*
X84660637Y-73454030D01*
X84754642Y-73299114D01*
X84793804Y-73234578D01*
X84793806Y-73234574D01*
X84796229Y-73230581D01*
X84897303Y-72989545D01*
X84961641Y-72736217D01*
X84972471Y-72628669D01*
X84983184Y-72522271D01*
X84983500Y-72519133D01*
X84983500Y-69363646D01*
X84981574Y-69337729D01*
X84969407Y-69174000D01*
X84969406Y-69173996D01*
X84969061Y-69169348D01*
X84961331Y-69135184D01*
X84912408Y-68918980D01*
X84911377Y-68914423D01*
X84816647Y-68670823D01*
X84774836Y-68597668D01*
X84764737Y-68580000D01*
X84686951Y-68443902D01*
X84525138Y-68238643D01*
X84334763Y-68059557D01*
X84162474Y-67940035D01*
X84123851Y-67913241D01*
X84123848Y-67913239D01*
X84120009Y-67910576D01*
X84115816Y-67908508D01*
X83889781Y-67797040D01*
X83889778Y-67797039D01*
X83885593Y-67794975D01*
X83880617Y-67793382D01*
X83641123Y-67716720D01*
X83636665Y-67715293D01*
X83378693Y-67673279D01*
X83264942Y-67671790D01*
X83122022Y-67669919D01*
X83122019Y-67669919D01*
X83117345Y-67669858D01*
X82858362Y-67705104D01*
X82607433Y-67778243D01*
X82603180Y-67780203D01*
X82603179Y-67780204D01*
X82566659Y-67797040D01*
X82370072Y-67887668D01*
X82331067Y-67913241D01*
X82155404Y-68028410D01*
X82155399Y-68028414D01*
X82151491Y-68030976D01*
X81956494Y-68205018D01*
X81789363Y-68405970D01*
X81786934Y-68409973D01*
X81667441Y-68606892D01*
X81653771Y-68629419D01*
X81552697Y-68870455D01*
X81488359Y-69123783D01*
X81487891Y-69128434D01*
X81487890Y-69128438D01*
X81487211Y-69135184D01*
X81466500Y-69340867D01*
X81466500Y-72496354D01*
X73749806Y-72496354D01*
X73666463Y-72474022D01*
X73445000Y-72454647D01*
X73223537Y-72474022D01*
X73079949Y-72512497D01*
X73014114Y-72530137D01*
X73014112Y-72530138D01*
X73008804Y-72531560D01*
X73003823Y-72533882D01*
X73003822Y-72533883D01*
X72812311Y-72623186D01*
X72812306Y-72623189D01*
X72807324Y-72625512D01*
X72802817Y-72628668D01*
X72802815Y-72628669D01*
X72629730Y-72749864D01*
X72629727Y-72749866D01*
X72625219Y-72753023D01*
X72468023Y-72910219D01*
X72340512Y-73092324D01*
X72338189Y-73097306D01*
X72338186Y-73097311D01*
X72289195Y-73202373D01*
X72242277Y-73255658D01*
X72174000Y-73275119D01*
X72106040Y-73254577D01*
X72060805Y-73202373D01*
X72011814Y-73097311D01*
X72011811Y-73097306D01*
X72009488Y-73092324D01*
X71881977Y-72910219D01*
X71724781Y-72753023D01*
X71720273Y-72749866D01*
X71720270Y-72749864D01*
X71635706Y-72690652D01*
X71542677Y-72625512D01*
X71537695Y-72623189D01*
X71537690Y-72623186D01*
X71346178Y-72533883D01*
X71346177Y-72533882D01*
X71341196Y-72531560D01*
X71335888Y-72530138D01*
X71335886Y-72530137D01*
X71270051Y-72512497D01*
X71126463Y-72474022D01*
X70905000Y-72454647D01*
X70683537Y-72474022D01*
X70539949Y-72512497D01*
X70474114Y-72530137D01*
X70474112Y-72530138D01*
X70468804Y-72531560D01*
X70463823Y-72533882D01*
X70463822Y-72533883D01*
X70272311Y-72623186D01*
X70272306Y-72623189D01*
X70267324Y-72625512D01*
X70262817Y-72628668D01*
X70262815Y-72628669D01*
X70089730Y-72749864D01*
X70089727Y-72749866D01*
X70085219Y-72753023D01*
X69928023Y-72910219D01*
X69800512Y-73092324D01*
X69798189Y-73097306D01*
X69798186Y-73097311D01*
X69749195Y-73202373D01*
X69702277Y-73255658D01*
X69634000Y-73275119D01*
X69566040Y-73254577D01*
X69520805Y-73202373D01*
X69471814Y-73097311D01*
X69471811Y-73097306D01*
X69469488Y-73092324D01*
X69341977Y-72910219D01*
X69184781Y-72753023D01*
X69180273Y-72749866D01*
X69180270Y-72749864D01*
X69095706Y-72690652D01*
X69002677Y-72625512D01*
X68997695Y-72623189D01*
X68997690Y-72623186D01*
X68806178Y-72533883D01*
X68806177Y-72533882D01*
X68801196Y-72531560D01*
X68795888Y-72530138D01*
X68795886Y-72530137D01*
X68730051Y-72512497D01*
X68586463Y-72474022D01*
X68365000Y-72454647D01*
X68143537Y-72474022D01*
X67999949Y-72512497D01*
X67934114Y-72530137D01*
X67934112Y-72530138D01*
X67928804Y-72531560D01*
X67923823Y-72533882D01*
X67923822Y-72533883D01*
X67732311Y-72623186D01*
X67732306Y-72623189D01*
X67727324Y-72625512D01*
X67722817Y-72628668D01*
X67722815Y-72628669D01*
X67549730Y-72749864D01*
X67549727Y-72749866D01*
X67545219Y-72753023D01*
X67388023Y-72910219D01*
X67260512Y-73092324D01*
X67258189Y-73097306D01*
X67258186Y-73097311D01*
X67209195Y-73202373D01*
X67162277Y-73255658D01*
X67094000Y-73275119D01*
X67026040Y-73254577D01*
X66980805Y-73202373D01*
X66931814Y-73097311D01*
X66931811Y-73097306D01*
X66929488Y-73092324D01*
X66801977Y-72910219D01*
X66644781Y-72753023D01*
X66640273Y-72749866D01*
X66640270Y-72749864D01*
X66555706Y-72690652D01*
X66462677Y-72625512D01*
X66457695Y-72623189D01*
X66457690Y-72623186D01*
X66266178Y-72533883D01*
X66266177Y-72533882D01*
X66261196Y-72531560D01*
X66255888Y-72530138D01*
X66255886Y-72530137D01*
X66190051Y-72512497D01*
X66046463Y-72474022D01*
X65825000Y-72454647D01*
X65603537Y-72474022D01*
X65459949Y-72512497D01*
X65394114Y-72530137D01*
X65394112Y-72530138D01*
X65388804Y-72531560D01*
X65383823Y-72533882D01*
X65383822Y-72533883D01*
X65192311Y-72623186D01*
X65192306Y-72623189D01*
X65187324Y-72625512D01*
X65182817Y-72628668D01*
X65182815Y-72628669D01*
X65009730Y-72749864D01*
X65009727Y-72749866D01*
X65005219Y-72753023D01*
X64848023Y-72910219D01*
X64720512Y-73092324D01*
X64718189Y-73097306D01*
X64718186Y-73097311D01*
X64669195Y-73202373D01*
X64622277Y-73255658D01*
X64554000Y-73275119D01*
X64486040Y-73254577D01*
X64440805Y-73202373D01*
X64391814Y-73097311D01*
X64391811Y-73097306D01*
X64389488Y-73092324D01*
X64261977Y-72910219D01*
X64104781Y-72753023D01*
X64100273Y-72749866D01*
X64100270Y-72749864D01*
X64015706Y-72690652D01*
X63922677Y-72625512D01*
X63917695Y-72623189D01*
X63917690Y-72623186D01*
X63726178Y-72533883D01*
X63726177Y-72533882D01*
X63721196Y-72531560D01*
X63715888Y-72530138D01*
X63715886Y-72530137D01*
X63650051Y-72512497D01*
X63506463Y-72474022D01*
X63285000Y-72454647D01*
X63063537Y-72474022D01*
X62919949Y-72512497D01*
X62854114Y-72530137D01*
X62854112Y-72530138D01*
X62848804Y-72531560D01*
X62843823Y-72533882D01*
X62843822Y-72533883D01*
X62652311Y-72623186D01*
X62652306Y-72623189D01*
X62647324Y-72625512D01*
X62642817Y-72628668D01*
X62642815Y-72628669D01*
X62469730Y-72749864D01*
X62469727Y-72749866D01*
X62465219Y-72753023D01*
X62308023Y-72910219D01*
X62180512Y-73092324D01*
X62178189Y-73097306D01*
X62178186Y-73097311D01*
X62129195Y-73202373D01*
X62082277Y-73255658D01*
X62014000Y-73275119D01*
X61946040Y-73254577D01*
X61900805Y-73202373D01*
X61851814Y-73097311D01*
X61851811Y-73097306D01*
X61849488Y-73092324D01*
X61721977Y-72910219D01*
X61564781Y-72753023D01*
X61560273Y-72749866D01*
X61560270Y-72749864D01*
X61475706Y-72690652D01*
X61382677Y-72625512D01*
X61377695Y-72623189D01*
X61377690Y-72623186D01*
X61186178Y-72533883D01*
X61186177Y-72533882D01*
X61181196Y-72531560D01*
X61175888Y-72530138D01*
X61175886Y-72530137D01*
X61110051Y-72512497D01*
X60966463Y-72474022D01*
X60745000Y-72454647D01*
X60523537Y-72474022D01*
X60379949Y-72512497D01*
X60314114Y-72530137D01*
X60314112Y-72530138D01*
X60308804Y-72531560D01*
X60303823Y-72533882D01*
X60303822Y-72533883D01*
X60112311Y-72623186D01*
X60112306Y-72623189D01*
X60107324Y-72625512D01*
X60102817Y-72628668D01*
X60102815Y-72628669D01*
X59929730Y-72749864D01*
X59929727Y-72749866D01*
X59925219Y-72753023D01*
X59768023Y-72910219D01*
X59640512Y-73092324D01*
X59638189Y-73097306D01*
X59638186Y-73097311D01*
X59564852Y-73254577D01*
X59546560Y-73293804D01*
X59489022Y-73508537D01*
X59469647Y-73730000D01*
X58725000Y-73730000D01*
X58725000Y-70880000D01*
X62111496Y-70880000D01*
X62131458Y-71069928D01*
X62190473Y-71251556D01*
X62285960Y-71416944D01*
X62290378Y-71421851D01*
X62290379Y-71421852D01*
X62333667Y-71469928D01*
X62413747Y-71558866D01*
X62568248Y-71671118D01*
X62574276Y-71673802D01*
X62574278Y-71673803D01*
X62736681Y-71746109D01*
X62742712Y-71748794D01*
X62836113Y-71768647D01*
X62923056Y-71787128D01*
X62923061Y-71787128D01*
X62929513Y-71788500D01*
X63120487Y-71788500D01*
X63126939Y-71787128D01*
X63126944Y-71787128D01*
X63213887Y-71768647D01*
X63307288Y-71748794D01*
X63313319Y-71746109D01*
X63475722Y-71673803D01*
X63475724Y-71673802D01*
X63481752Y-71671118D01*
X63508677Y-71651556D01*
X63550939Y-71620851D01*
X63617807Y-71596992D01*
X63686959Y-71613073D01*
X63699061Y-71620851D01*
X63741323Y-71651556D01*
X63768248Y-71671118D01*
X63774276Y-71673802D01*
X63774278Y-71673803D01*
X63936681Y-71746109D01*
X63942712Y-71748794D01*
X64036113Y-71768647D01*
X64123056Y-71787128D01*
X64123061Y-71787128D01*
X64129513Y-71788500D01*
X64320487Y-71788500D01*
X64326939Y-71787128D01*
X64326944Y-71787128D01*
X64413887Y-71768647D01*
X64507288Y-71748794D01*
X64513319Y-71746109D01*
X64675722Y-71673803D01*
X64675724Y-71673802D01*
X64681752Y-71671118D01*
X64708677Y-71651556D01*
X64750939Y-71620851D01*
X64817807Y-71596992D01*
X64886959Y-71613073D01*
X64899061Y-71620851D01*
X64941323Y-71651556D01*
X64968248Y-71671118D01*
X64974276Y-71673802D01*
X64974278Y-71673803D01*
X65136681Y-71746109D01*
X65142712Y-71748794D01*
X65236113Y-71768647D01*
X65323056Y-71787128D01*
X65323061Y-71787128D01*
X65329513Y-71788500D01*
X65520487Y-71788500D01*
X65526939Y-71787128D01*
X65526944Y-71787128D01*
X65613887Y-71768647D01*
X65707288Y-71748794D01*
X65713319Y-71746109D01*
X65875722Y-71673803D01*
X65875724Y-71673802D01*
X65881752Y-71671118D01*
X66036253Y-71558866D01*
X66116333Y-71469928D01*
X66159621Y-71421852D01*
X66159622Y-71421851D01*
X66164040Y-71416944D01*
X66243105Y-71280000D01*
X73161496Y-71280000D01*
X73181458Y-71469928D01*
X73240473Y-71651556D01*
X73335960Y-71816944D01*
X73463747Y-71958866D01*
X73618248Y-72071118D01*
X73624276Y-72073802D01*
X73624278Y-72073803D01*
X73786681Y-72146109D01*
X73792712Y-72148794D01*
X73886112Y-72168647D01*
X73973056Y-72187128D01*
X73973061Y-72187128D01*
X73979513Y-72188500D01*
X74170487Y-72188500D01*
X74176939Y-72187128D01*
X74176944Y-72187128D01*
X74263888Y-72168647D01*
X74357288Y-72148794D01*
X74363319Y-72146109D01*
X74525722Y-72073803D01*
X74525724Y-72073802D01*
X74531752Y-72071118D01*
X74686253Y-71958866D01*
X74814040Y-71816944D01*
X74909527Y-71651556D01*
X74968542Y-71469928D01*
X74988504Y-71280000D01*
X74968542Y-71090072D01*
X74909527Y-70908444D01*
X74814040Y-70743056D01*
X74772243Y-70696635D01*
X74690675Y-70606045D01*
X74690674Y-70606044D01*
X74686253Y-70601134D01*
X74531752Y-70488882D01*
X74525724Y-70486198D01*
X74525722Y-70486197D01*
X74363319Y-70413891D01*
X74363318Y-70413891D01*
X74357288Y-70411206D01*
X74263888Y-70391353D01*
X74176944Y-70372872D01*
X74176939Y-70372872D01*
X74170487Y-70371500D01*
X73979513Y-70371500D01*
X73973061Y-70372872D01*
X73973056Y-70372872D01*
X73886112Y-70391353D01*
X73792712Y-70411206D01*
X73786682Y-70413891D01*
X73786681Y-70413891D01*
X73624278Y-70486197D01*
X73624276Y-70486198D01*
X73618248Y-70488882D01*
X73463747Y-70601134D01*
X73459326Y-70606044D01*
X73459325Y-70606045D01*
X73377758Y-70696635D01*
X73335960Y-70743056D01*
X73240473Y-70908444D01*
X73181458Y-71090072D01*
X73161496Y-71280000D01*
X66243105Y-71280000D01*
X66259527Y-71251556D01*
X66318542Y-71069928D01*
X66338504Y-70880000D01*
X66318542Y-70690072D01*
X66259527Y-70508444D01*
X66164040Y-70343056D01*
X66036253Y-70201134D01*
X65881752Y-70088882D01*
X65875724Y-70086198D01*
X65875722Y-70086197D01*
X65713319Y-70013891D01*
X65713318Y-70013891D01*
X65707288Y-70011206D01*
X65613887Y-69991353D01*
X65526944Y-69972872D01*
X65526939Y-69972872D01*
X65520487Y-69971500D01*
X65329513Y-69971500D01*
X65323061Y-69972872D01*
X65323056Y-69972872D01*
X65236113Y-69991353D01*
X65142712Y-70011206D01*
X65136682Y-70013891D01*
X65136681Y-70013891D01*
X64974278Y-70086197D01*
X64974276Y-70086198D01*
X64968248Y-70088882D01*
X64962907Y-70092762D01*
X64962906Y-70092763D01*
X64899061Y-70139149D01*
X64832193Y-70163008D01*
X64763041Y-70146927D01*
X64750939Y-70139149D01*
X64687094Y-70092763D01*
X64687093Y-70092762D01*
X64681752Y-70088882D01*
X64675724Y-70086198D01*
X64675722Y-70086197D01*
X64513319Y-70013891D01*
X64513318Y-70013891D01*
X64507288Y-70011206D01*
X64413887Y-69991353D01*
X64326944Y-69972872D01*
X64326939Y-69972872D01*
X64320487Y-69971500D01*
X64129513Y-69971500D01*
X64123061Y-69972872D01*
X64123056Y-69972872D01*
X64036113Y-69991353D01*
X63942712Y-70011206D01*
X63936682Y-70013891D01*
X63936681Y-70013891D01*
X63774278Y-70086197D01*
X63774276Y-70086198D01*
X63768248Y-70088882D01*
X63762907Y-70092762D01*
X63762906Y-70092763D01*
X63699061Y-70139149D01*
X63632193Y-70163008D01*
X63563041Y-70146927D01*
X63550939Y-70139149D01*
X63487094Y-70092763D01*
X63487093Y-70092762D01*
X63481752Y-70088882D01*
X63475724Y-70086198D01*
X63475722Y-70086197D01*
X63313319Y-70013891D01*
X63313318Y-70013891D01*
X63307288Y-70011206D01*
X63213887Y-69991353D01*
X63126944Y-69972872D01*
X63126939Y-69972872D01*
X63120487Y-69971500D01*
X62929513Y-69971500D01*
X62923061Y-69972872D01*
X62923056Y-69972872D01*
X62836113Y-69991353D01*
X62742712Y-70011206D01*
X62736682Y-70013891D01*
X62736681Y-70013891D01*
X62574278Y-70086197D01*
X62574276Y-70086198D01*
X62568248Y-70088882D01*
X62413747Y-70201134D01*
X62285960Y-70343056D01*
X62190473Y-70508444D01*
X62131458Y-70690072D01*
X62111496Y-70880000D01*
X58725000Y-70880000D01*
X58725000Y-67566552D01*
X74456956Y-67566552D01*
X74457472Y-67572696D01*
X74468538Y-67704474D01*
X74472685Y-67753865D01*
X74524497Y-67934555D01*
X74527312Y-67940032D01*
X74527313Y-67940035D01*
X74607603Y-68096263D01*
X74610418Y-68101740D01*
X74614241Y-68106564D01*
X74614244Y-68106568D01*
X74716391Y-68235443D01*
X74727177Y-68249052D01*
X74870324Y-68370880D01*
X74875702Y-68373886D01*
X74875704Y-68373887D01*
X74926674Y-68402373D01*
X75034409Y-68462584D01*
X75213180Y-68520670D01*
X75399830Y-68542927D01*
X75405965Y-68542455D01*
X75405967Y-68542455D01*
X75463394Y-68538036D01*
X75528580Y-68533020D01*
X75598034Y-68547737D01*
X75648506Y-68597668D01*
X75663804Y-68648105D01*
X75672685Y-68753865D01*
X75724497Y-68934555D01*
X75727312Y-68940032D01*
X75727313Y-68940035D01*
X75807603Y-69096263D01*
X75810418Y-69101740D01*
X75814241Y-69106564D01*
X75814244Y-69106568D01*
X75840625Y-69139852D01*
X75927177Y-69249052D01*
X76070324Y-69370880D01*
X76075702Y-69373886D01*
X76075704Y-69373887D01*
X76152367Y-69416732D01*
X76234409Y-69462584D01*
X76413180Y-69520670D01*
X76599830Y-69542927D01*
X76605965Y-69542455D01*
X76605967Y-69542455D01*
X76781105Y-69528979D01*
X76781109Y-69528978D01*
X76787247Y-69528506D01*
X76872378Y-69504737D01*
X76962350Y-69479616D01*
X76962353Y-69479615D01*
X76968294Y-69477956D01*
X76973798Y-69475176D01*
X76973800Y-69475175D01*
X77130574Y-69395983D01*
X77130576Y-69395982D01*
X77136075Y-69393204D01*
X77284199Y-69277477D01*
X77288225Y-69272813D01*
X77402994Y-69139852D01*
X77402995Y-69139850D01*
X77407023Y-69135184D01*
X77499870Y-68971744D01*
X77559203Y-68793382D01*
X77578262Y-68642514D01*
X77606644Y-68577437D01*
X77665703Y-68538036D01*
X77718186Y-68533192D01*
X77787110Y-68541410D01*
X77799830Y-68542927D01*
X77805965Y-68542455D01*
X77805967Y-68542455D01*
X77981105Y-68528979D01*
X77981109Y-68528978D01*
X77987247Y-68528506D01*
X78072378Y-68504737D01*
X78162350Y-68479616D01*
X78162353Y-68479615D01*
X78168294Y-68477956D01*
X78173798Y-68475176D01*
X78173800Y-68475175D01*
X78330574Y-68395983D01*
X78330576Y-68395982D01*
X78336075Y-68393204D01*
X78484199Y-68277477D01*
X78488225Y-68272813D01*
X78602994Y-68139852D01*
X78602995Y-68139850D01*
X78607023Y-68135184D01*
X78699870Y-67971744D01*
X78759203Y-67793382D01*
X78782762Y-67606892D01*
X78783138Y-67580000D01*
X78764795Y-67392926D01*
X78710465Y-67212977D01*
X78622218Y-67047008D01*
X78503415Y-66901340D01*
X78449603Y-66856823D01*
X78363329Y-66785450D01*
X78363324Y-66785447D01*
X78358580Y-66781522D01*
X78353161Y-66778592D01*
X78353158Y-66778590D01*
X78283671Y-66741019D01*
X78193231Y-66692119D01*
X78013666Y-66636534D01*
X78007541Y-66635890D01*
X78007540Y-66635890D01*
X77832852Y-66617529D01*
X77832851Y-66617529D01*
X77826724Y-66616885D01*
X77713486Y-66627191D01*
X77643833Y-66613446D01*
X77592668Y-66564225D01*
X77576667Y-66514005D01*
X77565397Y-66399061D01*
X77565396Y-66399056D01*
X77564795Y-66392926D01*
X77510465Y-66212977D01*
X77422218Y-66047008D01*
X77303415Y-65901340D01*
X77249603Y-65856823D01*
X77163329Y-65785450D01*
X77163324Y-65785447D01*
X77158580Y-65781522D01*
X77153161Y-65778592D01*
X77153158Y-65778590D01*
X77083671Y-65741019D01*
X76993231Y-65692119D01*
X76813666Y-65636534D01*
X76807541Y-65635890D01*
X76807540Y-65635890D01*
X76632852Y-65617529D01*
X76632851Y-65617529D01*
X76626724Y-65616885D01*
X76549673Y-65623897D01*
X76445665Y-65633363D01*
X76445662Y-65633364D01*
X76439526Y-65633922D01*
X76433620Y-65635660D01*
X76433616Y-65635661D01*
X76300278Y-65674905D01*
X76259202Y-65686994D01*
X76092621Y-65774080D01*
X75946128Y-65891864D01*
X75942170Y-65896582D01*
X75942167Y-65896584D01*
X75854797Y-66000708D01*
X75825302Y-66035859D01*
X75822338Y-66041251D01*
X75822335Y-66041255D01*
X75816176Y-66052459D01*
X75734746Y-66200580D01*
X75677909Y-66379752D01*
X75675743Y-66399061D01*
X75662641Y-66515871D01*
X75635170Y-66581338D01*
X75576666Y-66621560D01*
X75524255Y-66627136D01*
X75432852Y-66617529D01*
X75432851Y-66617529D01*
X75426724Y-66616885D01*
X75349673Y-66623897D01*
X75245665Y-66633363D01*
X75245662Y-66633364D01*
X75239526Y-66633922D01*
X75233620Y-66635660D01*
X75233616Y-66635661D01*
X75100278Y-66674905D01*
X75059202Y-66686994D01*
X74892621Y-66774080D01*
X74746128Y-66891864D01*
X74742170Y-66896582D01*
X74742167Y-66896584D01*
X74654797Y-67000708D01*
X74625302Y-67035859D01*
X74622338Y-67041251D01*
X74622335Y-67041255D01*
X74616176Y-67052459D01*
X74534746Y-67200580D01*
X74477909Y-67379752D01*
X74456956Y-67566552D01*
X58725000Y-67566552D01*
X58725000Y-64180000D01*
X45663362Y-64180000D01*
X45595241Y-64159998D01*
X45569731Y-64138315D01*
X45536253Y-64101134D01*
X45381752Y-63988882D01*
X45375724Y-63986198D01*
X45375722Y-63986197D01*
X45213319Y-63913891D01*
X45213318Y-63913891D01*
X45207288Y-63911206D01*
X45113887Y-63891353D01*
X45026944Y-63872872D01*
X45026939Y-63872872D01*
X45020487Y-63871500D01*
X44829513Y-63871500D01*
X44823061Y-63872872D01*
X44823056Y-63872872D01*
X44736113Y-63891353D01*
X44642712Y-63911206D01*
X44636682Y-63913891D01*
X44636681Y-63913891D01*
X44474278Y-63986197D01*
X44474276Y-63986198D01*
X44468248Y-63988882D01*
X44313747Y-64101134D01*
X44280272Y-64138312D01*
X44219829Y-64175550D01*
X44186638Y-64180000D01*
X33609000Y-64180000D01*
X33540879Y-64159998D01*
X33494386Y-64106342D01*
X33483000Y-64054000D01*
X33483000Y-61283207D01*
X33483818Y-61273415D01*
X34811888Y-61273415D01*
X34838193Y-61549130D01*
X34839278Y-61553564D01*
X34839279Y-61553570D01*
X34902939Y-61813725D01*
X34904024Y-61818159D01*
X35008002Y-62074868D01*
X35147948Y-62313878D01*
X35320931Y-62530182D01*
X35523327Y-62719250D01*
X35750896Y-62877120D01*
X35879385Y-62941043D01*
X35994784Y-62998453D01*
X35994787Y-62998454D01*
X35998871Y-63000486D01*
X36003210Y-63001908D01*
X36003209Y-63001908D01*
X36257724Y-63085343D01*
X36257730Y-63085344D01*
X36262057Y-63086763D01*
X36266548Y-63087543D01*
X36266549Y-63087543D01*
X36531160Y-63133487D01*
X36531168Y-63133488D01*
X36534941Y-63134143D01*
X36538778Y-63134334D01*
X36620887Y-63138422D01*
X36620895Y-63138422D01*
X36622458Y-63138500D01*
X36795356Y-63138500D01*
X36797624Y-63138335D01*
X36797636Y-63138335D01*
X36916791Y-63129689D01*
X37001241Y-63123561D01*
X37174348Y-63085343D01*
X37267235Y-63064836D01*
X37267239Y-63064835D01*
X37271695Y-63063851D01*
X37444310Y-62998453D01*
X37497941Y-62978134D01*
X52866500Y-62978134D01*
X52873255Y-63040316D01*
X52924385Y-63176705D01*
X53011739Y-63293261D01*
X53128295Y-63380615D01*
X53264684Y-63431745D01*
X53326866Y-63438500D01*
X55123134Y-63438500D01*
X55185316Y-63431745D01*
X55321705Y-63380615D01*
X55438261Y-63293261D01*
X55525615Y-63176705D01*
X55576745Y-63040316D01*
X55583500Y-62978134D01*
X55583500Y-61273415D01*
X80811888Y-61273415D01*
X80838193Y-61549130D01*
X80839278Y-61553564D01*
X80839279Y-61553570D01*
X80902939Y-61813725D01*
X80904024Y-61818159D01*
X81008002Y-62074868D01*
X81147948Y-62313878D01*
X81320931Y-62530182D01*
X81523327Y-62719250D01*
X81750896Y-62877120D01*
X81879385Y-62941043D01*
X81994784Y-62998453D01*
X81994787Y-62998454D01*
X81998871Y-63000486D01*
X82003210Y-63001908D01*
X82003209Y-63001908D01*
X82257724Y-63085343D01*
X82257730Y-63085344D01*
X82262057Y-63086763D01*
X82266548Y-63087543D01*
X82266549Y-63087543D01*
X82531160Y-63133487D01*
X82531168Y-63133488D01*
X82534941Y-63134143D01*
X82538778Y-63134334D01*
X82620887Y-63138422D01*
X82620895Y-63138422D01*
X82622458Y-63138500D01*
X82795356Y-63138500D01*
X82797624Y-63138335D01*
X82797636Y-63138335D01*
X82916791Y-63129689D01*
X83001241Y-63123561D01*
X83174348Y-63085343D01*
X83267235Y-63064836D01*
X83267239Y-63064835D01*
X83271695Y-63063851D01*
X83444310Y-62998453D01*
X83526426Y-62967342D01*
X83526429Y-62967341D01*
X83530696Y-62965724D01*
X83772820Y-62831236D01*
X83992993Y-62663205D01*
X84186604Y-62465151D01*
X84349596Y-62241222D01*
X84478556Y-61996110D01*
X84570782Y-61734949D01*
X84624341Y-61463210D01*
X84633563Y-61277971D01*
X84637885Y-61191154D01*
X84637885Y-61191148D01*
X84638112Y-61186585D01*
X84611807Y-60910870D01*
X84610642Y-60906106D01*
X84547061Y-60646275D01*
X84545976Y-60641841D01*
X84525592Y-60591514D01*
X84443711Y-60389361D01*
X84443711Y-60389360D01*
X84441998Y-60385132D01*
X84302052Y-60146122D01*
X84129069Y-59929818D01*
X83926673Y-59740750D01*
X83699104Y-59582880D01*
X83517751Y-59492658D01*
X83455216Y-59461547D01*
X83455213Y-59461546D01*
X83451129Y-59459514D01*
X83357565Y-59428842D01*
X83192276Y-59374657D01*
X83192270Y-59374656D01*
X83187943Y-59373237D01*
X83183451Y-59372457D01*
X82918840Y-59326513D01*
X82918832Y-59326512D01*
X82915059Y-59325857D01*
X82902996Y-59325256D01*
X82829113Y-59321578D01*
X82829105Y-59321578D01*
X82827542Y-59321500D01*
X82654644Y-59321500D01*
X82652376Y-59321665D01*
X82652364Y-59321665D01*
X82533209Y-59330311D01*
X82448759Y-59336439D01*
X82313532Y-59366294D01*
X82182765Y-59395164D01*
X82182761Y-59395165D01*
X82178305Y-59396149D01*
X82105145Y-59423867D01*
X81923574Y-59492658D01*
X81923571Y-59492659D01*
X81919304Y-59494276D01*
X81677180Y-59628764D01*
X81457007Y-59796795D01*
X81453814Y-59800061D01*
X81453812Y-59800063D01*
X81442180Y-59811962D01*
X81263396Y-59994849D01*
X81100404Y-60218778D01*
X80971444Y-60463890D01*
X80969926Y-60468188D01*
X80969924Y-60468193D01*
X80938840Y-60556215D01*
X80879218Y-60725051D01*
X80825659Y-60996790D01*
X80825432Y-61001347D01*
X80825432Y-61001348D01*
X80814289Y-61225193D01*
X80811888Y-61273415D01*
X55583500Y-61273415D01*
X55583500Y-61181866D01*
X55576745Y-61119684D01*
X55525615Y-60983295D01*
X55438261Y-60866739D01*
X55321705Y-60779385D01*
X55202687Y-60734767D01*
X55145923Y-60692125D01*
X55121223Y-60625564D01*
X55136430Y-60556215D01*
X55157977Y-60527535D01*
X55259052Y-60426812D01*
X55265730Y-60418965D01*
X55390003Y-60246020D01*
X55395313Y-60237183D01*
X55489670Y-60046267D01*
X55493469Y-60036672D01*
X55555377Y-59832910D01*
X55557555Y-59822837D01*
X55558986Y-59811962D01*
X55556775Y-59797778D01*
X55543617Y-59794000D01*
X52908225Y-59794000D01*
X52894694Y-59797973D01*
X52893257Y-59807966D01*
X52923565Y-59942446D01*
X52926645Y-59952275D01*
X53006770Y-60149603D01*
X53011413Y-60158794D01*
X53122694Y-60340388D01*
X53128777Y-60348699D01*
X53268213Y-60509667D01*
X53275577Y-60516879D01*
X53280522Y-60520985D01*
X53320156Y-60579889D01*
X53321653Y-60650870D01*
X53284537Y-60711392D01*
X53244264Y-60735910D01*
X53136705Y-60776232D01*
X53136704Y-60776233D01*
X53128295Y-60779385D01*
X53011739Y-60866739D01*
X52924385Y-60983295D01*
X52873255Y-61119684D01*
X52866500Y-61181866D01*
X52866500Y-62978134D01*
X37497941Y-62978134D01*
X37526426Y-62967342D01*
X37526429Y-62967341D01*
X37530696Y-62965724D01*
X37772820Y-62831236D01*
X37992993Y-62663205D01*
X38186604Y-62465151D01*
X38349596Y-62241222D01*
X38478556Y-61996110D01*
X38570782Y-61734949D01*
X38624341Y-61463210D01*
X38633563Y-61277971D01*
X38637885Y-61191154D01*
X38637885Y-61191148D01*
X38638112Y-61186585D01*
X38611807Y-60910870D01*
X38610642Y-60906106D01*
X38547061Y-60646275D01*
X38545976Y-60641841D01*
X38525592Y-60591514D01*
X38443711Y-60389361D01*
X38443711Y-60389360D01*
X38441998Y-60385132D01*
X38302052Y-60146122D01*
X38129069Y-59929818D01*
X37926673Y-59740750D01*
X37699104Y-59582880D01*
X37517751Y-59492658D01*
X37455216Y-59461547D01*
X37455213Y-59461546D01*
X37451129Y-59459514D01*
X37357565Y-59428842D01*
X37192276Y-59374657D01*
X37192270Y-59374656D01*
X37187943Y-59373237D01*
X37183451Y-59372457D01*
X36918840Y-59326513D01*
X36918832Y-59326512D01*
X36915059Y-59325857D01*
X36902996Y-59325256D01*
X36829113Y-59321578D01*
X36829105Y-59321578D01*
X36827542Y-59321500D01*
X36654644Y-59321500D01*
X36652376Y-59321665D01*
X36652364Y-59321665D01*
X36533209Y-59330311D01*
X36448759Y-59336439D01*
X36313532Y-59366294D01*
X36182765Y-59395164D01*
X36182761Y-59395165D01*
X36178305Y-59396149D01*
X36105145Y-59423867D01*
X35923574Y-59492658D01*
X35923571Y-59492659D01*
X35919304Y-59494276D01*
X35677180Y-59628764D01*
X35457007Y-59796795D01*
X35453814Y-59800061D01*
X35453812Y-59800063D01*
X35442180Y-59811962D01*
X35263396Y-59994849D01*
X35100404Y-60218778D01*
X34971444Y-60463890D01*
X34969926Y-60468188D01*
X34969924Y-60468193D01*
X34938840Y-60556215D01*
X34879218Y-60725051D01*
X34825659Y-60996790D01*
X34825432Y-61001347D01*
X34825432Y-61001348D01*
X34814289Y-61225193D01*
X34811888Y-61273415D01*
X33483818Y-61273415D01*
X33484746Y-61262303D01*
X33487264Y-61247335D01*
X33488071Y-61242539D01*
X33488224Y-61230000D01*
X33486048Y-61214804D01*
X33484927Y-61190763D01*
X33485133Y-61186585D01*
X33498308Y-60918404D01*
X33499519Y-60906105D01*
X33544387Y-60603633D01*
X33546794Y-60591527D01*
X33621097Y-60294894D01*
X33624685Y-60283067D01*
X33727696Y-59995174D01*
X33732427Y-59983751D01*
X33847357Y-59740750D01*
X33863167Y-59707322D01*
X33868991Y-59696426D01*
X33991126Y-59492658D01*
X34026196Y-59434148D01*
X34033066Y-59423867D01*
X34215213Y-59178269D01*
X34223057Y-59168711D01*
X34403687Y-58969416D01*
X34422721Y-58952289D01*
X34424543Y-58950958D01*
X34431794Y-58945661D01*
X34451726Y-58919732D01*
X34462268Y-58907688D01*
X34827686Y-58540215D01*
X36786951Y-56569928D01*
X36975817Y-56380000D01*
X50606496Y-56380000D01*
X50607186Y-56386565D01*
X50621812Y-56525720D01*
X50626458Y-56569928D01*
X50685473Y-56751556D01*
X50688776Y-56757278D01*
X50688777Y-56757279D01*
X50691386Y-56761798D01*
X50780960Y-56916944D01*
X50785378Y-56921851D01*
X50785379Y-56921852D01*
X50882673Y-57029908D01*
X50908747Y-57058866D01*
X51063248Y-57171118D01*
X51069276Y-57173802D01*
X51069278Y-57173803D01*
X51161200Y-57214729D01*
X51237712Y-57248794D01*
X51327118Y-57267798D01*
X51418056Y-57287128D01*
X51418061Y-57287128D01*
X51424513Y-57288500D01*
X51615487Y-57288500D01*
X51621939Y-57287128D01*
X51621944Y-57287128D01*
X51712882Y-57267798D01*
X51802288Y-57248794D01*
X51878800Y-57214729D01*
X51970722Y-57173803D01*
X51970724Y-57173802D01*
X51976752Y-57171118D01*
X52131253Y-57058866D01*
X52157327Y-57029908D01*
X52214244Y-56966695D01*
X52862251Y-56966695D01*
X52862548Y-56971848D01*
X52862548Y-56971851D01*
X52872506Y-57144547D01*
X52875110Y-57189715D01*
X52876247Y-57194761D01*
X52876248Y-57194767D01*
X52887819Y-57246109D01*
X52924222Y-57407639D01*
X53008266Y-57614616D01*
X53124987Y-57805088D01*
X53271250Y-57973938D01*
X53443126Y-58116632D01*
X53490507Y-58144319D01*
X53516955Y-58159774D01*
X53565679Y-58211412D01*
X53578750Y-58281195D01*
X53552019Y-58346967D01*
X53511562Y-58380327D01*
X53503457Y-58384546D01*
X53494738Y-58390036D01*
X53324433Y-58517905D01*
X53316726Y-58524748D01*
X53169590Y-58678717D01*
X53163104Y-58686727D01*
X53043098Y-58862649D01*
X53038000Y-58871623D01*
X52948338Y-59064783D01*
X52944775Y-59074470D01*
X52889389Y-59274183D01*
X52890912Y-59282607D01*
X52903292Y-59286000D01*
X55543344Y-59286000D01*
X55556875Y-59282027D01*
X55558180Y-59272947D01*
X55516214Y-59105875D01*
X55512894Y-59096124D01*
X55427972Y-58900814D01*
X55423105Y-58891739D01*
X55307426Y-58712926D01*
X55301136Y-58704757D01*
X55157806Y-58547240D01*
X55150273Y-58540215D01*
X54983139Y-58408222D01*
X54974556Y-58402520D01*
X54937602Y-58382120D01*
X54887631Y-58331687D01*
X54872859Y-58262245D01*
X54897975Y-58195839D01*
X54925327Y-58169232D01*
X54960254Y-58144319D01*
X55027327Y-58121045D01*
X55096336Y-58137729D01*
X55127058Y-58162588D01*
X55192063Y-58234783D01*
X55213747Y-58258866D01*
X55368248Y-58371118D01*
X55374276Y-58373802D01*
X55374278Y-58373803D01*
X55438778Y-58402520D01*
X55542712Y-58448794D01*
X55636113Y-58468647D01*
X55723056Y-58487128D01*
X55723061Y-58487128D01*
X55729513Y-58488500D01*
X55920487Y-58488500D01*
X55926939Y-58487128D01*
X55926944Y-58487128D01*
X56013887Y-58468647D01*
X56107288Y-58448794D01*
X56211222Y-58402520D01*
X56275722Y-58373803D01*
X56275724Y-58373802D01*
X56281752Y-58371118D01*
X56436253Y-58258866D01*
X56440675Y-58253955D01*
X56559621Y-58121852D01*
X56559622Y-58121851D01*
X56564040Y-58116944D01*
X56646605Y-57973938D01*
X56656223Y-57957279D01*
X56656224Y-57957278D01*
X56659527Y-57951556D01*
X56718542Y-57769928D01*
X56729878Y-57662077D01*
X56737814Y-57586565D01*
X56738504Y-57580000D01*
X56722076Y-57423698D01*
X56719232Y-57396635D01*
X56719232Y-57396633D01*
X56718542Y-57390072D01*
X56659527Y-57208444D01*
X56564040Y-57043056D01*
X56539447Y-57015742D01*
X56440675Y-56906045D01*
X56440674Y-56906044D01*
X56436253Y-56901134D01*
X56281752Y-56788882D01*
X56275724Y-56786198D01*
X56275722Y-56786197D01*
X56113319Y-56713891D01*
X56113318Y-56713891D01*
X56107288Y-56711206D01*
X56013888Y-56691353D01*
X55926944Y-56672872D01*
X55926939Y-56672872D01*
X55920487Y-56671500D01*
X55729513Y-56671500D01*
X55723058Y-56672872D01*
X55723049Y-56672873D01*
X55671513Y-56683828D01*
X55600722Y-56678427D01*
X55544089Y-56635611D01*
X55523111Y-56591277D01*
X55516692Y-56565722D01*
X55516692Y-56565721D01*
X55515431Y-56560702D01*
X55436859Y-56380000D01*
X56811496Y-56380000D01*
X56812186Y-56386565D01*
X56826812Y-56525720D01*
X56831458Y-56569928D01*
X56890473Y-56751556D01*
X56893776Y-56757278D01*
X56893777Y-56757279D01*
X56896386Y-56761798D01*
X56985960Y-56916944D01*
X56990378Y-56921851D01*
X56990379Y-56921852D01*
X57087673Y-57029908D01*
X57113747Y-57058866D01*
X57268248Y-57171118D01*
X57274276Y-57173802D01*
X57274278Y-57173803D01*
X57366200Y-57214729D01*
X57442712Y-57248794D01*
X57532118Y-57267798D01*
X57623056Y-57287128D01*
X57623061Y-57287128D01*
X57629513Y-57288500D01*
X57820487Y-57288500D01*
X57826939Y-57287128D01*
X57826944Y-57287128D01*
X57917882Y-57267798D01*
X58007288Y-57248794D01*
X58083800Y-57214729D01*
X58175722Y-57173803D01*
X58175724Y-57173802D01*
X58181752Y-57171118D01*
X58336253Y-57058866D01*
X58362327Y-57029908D01*
X58455260Y-56926695D01*
X63202251Y-56926695D01*
X63202548Y-56931848D01*
X63202548Y-56931851D01*
X63209872Y-57058866D01*
X63215110Y-57149715D01*
X63216247Y-57154761D01*
X63216248Y-57154767D01*
X63228345Y-57208444D01*
X63264222Y-57367639D01*
X63348266Y-57574616D01*
X63464987Y-57765088D01*
X63611250Y-57933938D01*
X63783126Y-58076632D01*
X63976000Y-58189338D01*
X64184692Y-58269030D01*
X64189760Y-58270061D01*
X64189763Y-58270062D01*
X64297017Y-58291883D01*
X64403597Y-58313567D01*
X64408772Y-58313757D01*
X64408774Y-58313757D01*
X64621673Y-58321564D01*
X64621677Y-58321564D01*
X64626837Y-58321753D01*
X64631957Y-58321097D01*
X64631959Y-58321097D01*
X64843288Y-58294025D01*
X64843289Y-58294025D01*
X64848416Y-58293368D01*
X64853366Y-58291883D01*
X65057429Y-58230661D01*
X65057434Y-58230659D01*
X65062384Y-58229174D01*
X65262994Y-58130896D01*
X65444860Y-58001173D01*
X65472191Y-57973938D01*
X65599435Y-57847137D01*
X65603096Y-57843489D01*
X65651444Y-57776206D01*
X65730435Y-57666277D01*
X65733453Y-57662077D01*
X65759276Y-57609829D01*
X65830136Y-57466453D01*
X65830137Y-57466451D01*
X65832430Y-57461811D01*
X65897370Y-57248069D01*
X65926529Y-57026590D01*
X65926794Y-57015742D01*
X65928074Y-56963365D01*
X65928074Y-56963361D01*
X65928156Y-56960000D01*
X65909852Y-56737361D01*
X65855431Y-56520702D01*
X65766354Y-56315840D01*
X65668420Y-56164457D01*
X65647822Y-56132617D01*
X65647820Y-56132614D01*
X65645014Y-56128277D01*
X65494670Y-55963051D01*
X65490619Y-55959852D01*
X65490615Y-55959848D01*
X65323414Y-55827800D01*
X65323410Y-55827798D01*
X65319359Y-55824598D01*
X65278053Y-55801796D01*
X65228084Y-55751364D01*
X65213312Y-55681921D01*
X65238428Y-55615516D01*
X65265780Y-55588909D01*
X65309603Y-55557650D01*
X65444860Y-55461173D01*
X65472191Y-55433938D01*
X65599435Y-55307137D01*
X65603096Y-55303489D01*
X65662594Y-55220689D01*
X65730435Y-55126277D01*
X65733453Y-55122077D01*
X65759276Y-55069829D01*
X65830136Y-54926453D01*
X65830137Y-54926451D01*
X65832430Y-54921811D01*
X65861392Y-54826485D01*
X68311854Y-54826485D01*
X68319356Y-54921811D01*
X68334753Y-55117438D01*
X68337370Y-55150695D01*
X68402206Y-55469378D01*
X68505398Y-55777784D01*
X68507052Y-55781253D01*
X68507053Y-55781254D01*
X68536531Y-55843056D01*
X68645405Y-56071316D01*
X68647467Y-56074553D01*
X68647470Y-56074558D01*
X68693246Y-56146411D01*
X68820141Y-56345597D01*
X68822584Y-56348560D01*
X68822585Y-56348562D01*
X69010241Y-56576206D01*
X69027001Y-56596538D01*
X69262902Y-56820399D01*
X69524326Y-57013843D01*
X69595224Y-57053955D01*
X69804019Y-57172086D01*
X69804023Y-57172088D01*
X69807376Y-57173985D01*
X69810937Y-57175460D01*
X69810939Y-57175461D01*
X69857548Y-57194767D01*
X70107832Y-57298438D01*
X70211288Y-57327129D01*
X70417500Y-57384317D01*
X70417508Y-57384319D01*
X70421216Y-57385347D01*
X70742856Y-57433416D01*
X70746154Y-57433560D01*
X70857918Y-57438440D01*
X70857922Y-57438440D01*
X70859294Y-57438500D01*
X71057598Y-57438500D01*
X71299605Y-57423698D01*
X71303388Y-57422997D01*
X71303395Y-57422996D01*
X71459488Y-57394066D01*
X71619372Y-57364433D01*
X71828682Y-57298438D01*
X71925860Y-57267798D01*
X71925863Y-57267797D01*
X71929532Y-57266640D01*
X71933029Y-57265046D01*
X71933035Y-57265044D01*
X72221954Y-57133376D01*
X72221958Y-57133374D01*
X72225462Y-57131777D01*
X72228744Y-57129766D01*
X72499473Y-56963863D01*
X72499476Y-56963861D01*
X72502751Y-56961854D01*
X72505755Y-56959464D01*
X72505760Y-56959461D01*
X72630008Y-56860629D01*
X72757264Y-56759405D01*
X72759958Y-56756664D01*
X72759962Y-56756660D01*
X72982513Y-56530190D01*
X72982517Y-56530185D01*
X72985208Y-56527447D01*
X73166353Y-56291375D01*
X73180835Y-56272502D01*
X73180837Y-56272498D01*
X73183185Y-56269439D01*
X73333220Y-56014729D01*
X73346289Y-55992543D01*
X73346291Y-55992540D01*
X73348242Y-55989227D01*
X73477920Y-55690988D01*
X73488428Y-55655516D01*
X73524621Y-55533327D01*
X73570285Y-55379169D01*
X73623961Y-55058417D01*
X73638146Y-54733515D01*
X73621597Y-54523240D01*
X73612932Y-54413140D01*
X73612932Y-54413137D01*
X73612630Y-54409305D01*
X73547794Y-54090622D01*
X73444602Y-53782216D01*
X73304595Y-53488684D01*
X73286225Y-53459848D01*
X73198470Y-53322101D01*
X73129859Y-53214403D01*
X73122724Y-53205747D01*
X72925442Y-52966425D01*
X72925438Y-52966420D01*
X72922999Y-52963462D01*
X72687098Y-52739601D01*
X72425674Y-52546157D01*
X72220781Y-52430234D01*
X72145981Y-52387914D01*
X72145977Y-52387912D01*
X72142624Y-52386015D01*
X71842168Y-52261562D01*
X71738712Y-52232871D01*
X71532500Y-52175683D01*
X71532492Y-52175681D01*
X71528784Y-52174653D01*
X71207144Y-52126584D01*
X71203846Y-52126440D01*
X71092082Y-52121560D01*
X71092078Y-52121560D01*
X71090706Y-52121500D01*
X70892402Y-52121500D01*
X70650395Y-52136302D01*
X70646612Y-52137003D01*
X70646605Y-52137004D01*
X70506674Y-52162939D01*
X70330628Y-52195567D01*
X70146058Y-52253762D01*
X70024140Y-52292202D01*
X70024137Y-52292203D01*
X70020468Y-52293360D01*
X70016971Y-52294954D01*
X70016965Y-52294956D01*
X69728046Y-52426624D01*
X69728042Y-52426626D01*
X69724538Y-52428223D01*
X69721259Y-52430233D01*
X69721256Y-52430234D01*
X69491355Y-52571118D01*
X69447249Y-52598146D01*
X69444245Y-52600536D01*
X69444240Y-52600539D01*
X69386951Y-52646109D01*
X69192736Y-52800595D01*
X69190042Y-52803336D01*
X69190038Y-52803340D01*
X68967487Y-53029810D01*
X68967483Y-53029815D01*
X68964792Y-53032553D01*
X68834962Y-53201750D01*
X68771391Y-53284598D01*
X68766815Y-53290561D01*
X68688773Y-53423051D01*
X68609046Y-53558401D01*
X68601758Y-53570773D01*
X68472080Y-53869012D01*
X68470986Y-53872706D01*
X68470984Y-53872711D01*
X68436448Y-53989305D01*
X68379715Y-54180831D01*
X68326039Y-54501583D01*
X68311854Y-54826485D01*
X65861392Y-54826485D01*
X65897370Y-54708069D01*
X65926529Y-54486590D01*
X65926611Y-54483240D01*
X65928074Y-54423365D01*
X65928074Y-54423361D01*
X65928156Y-54420000D01*
X65909852Y-54197361D01*
X65855431Y-53980702D01*
X65766354Y-53775840D01*
X65668420Y-53624457D01*
X65647822Y-53592617D01*
X65647820Y-53592614D01*
X65645014Y-53588277D01*
X65494670Y-53423051D01*
X65490619Y-53419852D01*
X65490615Y-53419848D01*
X65323414Y-53287800D01*
X65323410Y-53287798D01*
X65319359Y-53284598D01*
X65278053Y-53261796D01*
X65228084Y-53211364D01*
X65213312Y-53141921D01*
X65238428Y-53075516D01*
X65265780Y-53048909D01*
X65309603Y-53017650D01*
X65444860Y-52921173D01*
X65603096Y-52763489D01*
X65662594Y-52680689D01*
X65730435Y-52586277D01*
X65733453Y-52582077D01*
X65737543Y-52573803D01*
X65830136Y-52386453D01*
X65830137Y-52386451D01*
X65832430Y-52381811D01*
X65868965Y-52261562D01*
X65895865Y-52173023D01*
X65895865Y-52173021D01*
X65897370Y-52168069D01*
X65926529Y-51946590D01*
X65928156Y-51880000D01*
X65909852Y-51657361D01*
X65855431Y-51440702D01*
X65766354Y-51235840D01*
X65645014Y-51048277D01*
X65494670Y-50883051D01*
X65490619Y-50879852D01*
X65490615Y-50879848D01*
X65323414Y-50747800D01*
X65323410Y-50747798D01*
X65319359Y-50744598D01*
X65278053Y-50721796D01*
X65228084Y-50671364D01*
X65213312Y-50601921D01*
X65238428Y-50535516D01*
X65265780Y-50508909D01*
X65309603Y-50477650D01*
X65444860Y-50381173D01*
X65603096Y-50223489D01*
X65662594Y-50140689D01*
X65730435Y-50046277D01*
X65733453Y-50042077D01*
X65741822Y-50025145D01*
X65830136Y-49846453D01*
X65830137Y-49846451D01*
X65832430Y-49841811D01*
X65889505Y-49653955D01*
X65895865Y-49633023D01*
X65895865Y-49633021D01*
X65897370Y-49628069D01*
X65926529Y-49406590D01*
X65928156Y-49340000D01*
X65909852Y-49117361D01*
X65855431Y-48900702D01*
X65766354Y-48695840D01*
X65676460Y-48556885D01*
X65647822Y-48512617D01*
X65647820Y-48512614D01*
X65645014Y-48508277D01*
X65494670Y-48343051D01*
X65490619Y-48339852D01*
X65490615Y-48339848D01*
X65323414Y-48207800D01*
X65323410Y-48207798D01*
X65319359Y-48204598D01*
X65278053Y-48181796D01*
X65228084Y-48131364D01*
X65213312Y-48061921D01*
X65238428Y-47995516D01*
X65265780Y-47968909D01*
X65309603Y-47937650D01*
X65444860Y-47841173D01*
X65603096Y-47683489D01*
X65662594Y-47600689D01*
X65730435Y-47506277D01*
X65733453Y-47502077D01*
X65832430Y-47301811D01*
X65897370Y-47088069D01*
X65926529Y-46866590D01*
X65926757Y-46857267D01*
X65928074Y-46803365D01*
X65928074Y-46803361D01*
X65928156Y-46800000D01*
X65925418Y-46766695D01*
X68282251Y-46766695D01*
X68282548Y-46771848D01*
X68282548Y-46771851D01*
X68294038Y-46971118D01*
X68295110Y-46989715D01*
X68296247Y-46994761D01*
X68296248Y-46994767D01*
X68307819Y-47046109D01*
X68344222Y-47207639D01*
X68428266Y-47414616D01*
X68430965Y-47419020D01*
X68539599Y-47596295D01*
X68544987Y-47605088D01*
X68691250Y-47773938D01*
X68863126Y-47916632D01*
X69056000Y-48029338D01*
X69264692Y-48109030D01*
X69269760Y-48110061D01*
X69269763Y-48110062D01*
X69374466Y-48131364D01*
X69483597Y-48153567D01*
X69488772Y-48153757D01*
X69488774Y-48153757D01*
X69701673Y-48161564D01*
X69701677Y-48161564D01*
X69706837Y-48161753D01*
X69711957Y-48161097D01*
X69711959Y-48161097D01*
X69923288Y-48134025D01*
X69923289Y-48134025D01*
X69928416Y-48133368D01*
X69993336Y-48113891D01*
X70137429Y-48070661D01*
X70137434Y-48070659D01*
X70142384Y-48069174D01*
X70342994Y-47970896D01*
X70524860Y-47841173D01*
X70683096Y-47683489D01*
X70742594Y-47600689D01*
X70810435Y-47506277D01*
X70813453Y-47502077D01*
X70912430Y-47301811D01*
X70977370Y-47088069D01*
X71006529Y-46866590D01*
X71006757Y-46857267D01*
X71008074Y-46803365D01*
X71008074Y-46803361D01*
X71008156Y-46800000D01*
X70989852Y-46577361D01*
X70935431Y-46360702D01*
X70846354Y-46155840D01*
X70739114Y-45990072D01*
X70727822Y-45972617D01*
X70727820Y-45972614D01*
X70725014Y-45968277D01*
X70721532Y-45964450D01*
X70577798Y-45806488D01*
X70546746Y-45742642D01*
X70555141Y-45672143D01*
X70600317Y-45617375D01*
X70626761Y-45603706D01*
X70733297Y-45563767D01*
X70741705Y-45560615D01*
X70858261Y-45473261D01*
X70945615Y-45356705D01*
X70996745Y-45220316D01*
X71003500Y-45158134D01*
X71003500Y-43361866D01*
X70996745Y-43299684D01*
X70945615Y-43163295D01*
X70858261Y-43046739D01*
X70741705Y-42959385D01*
X70733296Y-42956233D01*
X70733295Y-42956232D01*
X70606231Y-42908598D01*
X70549466Y-42865957D01*
X70524766Y-42799395D01*
X70539973Y-42730046D01*
X70576399Y-42688680D01*
X70597382Y-42673435D01*
X70686253Y-42608866D01*
X70787306Y-42496635D01*
X70809621Y-42471852D01*
X70809622Y-42471851D01*
X70814040Y-42466944D01*
X70909527Y-42301556D01*
X70968542Y-42119928D01*
X70980512Y-42006045D01*
X70987814Y-41936565D01*
X70988504Y-41930000D01*
X70978850Y-41838148D01*
X70969232Y-41746635D01*
X70969232Y-41746633D01*
X70968542Y-41740072D01*
X70909527Y-41558444D01*
X70814040Y-41393056D01*
X70719898Y-41288500D01*
X70690675Y-41256045D01*
X70690674Y-41256044D01*
X70686253Y-41251134D01*
X70531752Y-41138882D01*
X70525724Y-41136198D01*
X70525722Y-41136197D01*
X70363319Y-41063891D01*
X70363318Y-41063891D01*
X70357288Y-41061206D01*
X70263888Y-41041353D01*
X70176944Y-41022872D01*
X70176939Y-41022872D01*
X70170487Y-41021500D01*
X69979513Y-41021500D01*
X69973061Y-41022872D01*
X69973056Y-41022872D01*
X69886112Y-41041353D01*
X69792712Y-41061206D01*
X69786682Y-41063891D01*
X69786681Y-41063891D01*
X69624278Y-41136197D01*
X69624276Y-41136198D01*
X69618248Y-41138882D01*
X69463747Y-41251134D01*
X69459326Y-41256044D01*
X69459325Y-41256045D01*
X69430103Y-41288500D01*
X69335960Y-41393056D01*
X69240473Y-41558444D01*
X69181458Y-41740072D01*
X69180768Y-41746633D01*
X69180768Y-41746635D01*
X69171150Y-41838148D01*
X69161496Y-41930000D01*
X69162186Y-41936565D01*
X69169489Y-42006045D01*
X69181458Y-42119928D01*
X69240473Y-42301556D01*
X69335960Y-42466944D01*
X69340378Y-42471851D01*
X69340379Y-42471852D01*
X69362694Y-42496635D01*
X69463747Y-42608866D01*
X69469089Y-42612747D01*
X69469091Y-42612749D01*
X69552796Y-42673564D01*
X69596150Y-42729786D01*
X69602225Y-42800523D01*
X69569094Y-42863314D01*
X69507273Y-42898226D01*
X69478735Y-42901500D01*
X68746866Y-42901500D01*
X68684684Y-42908255D01*
X68548295Y-42959385D01*
X68431739Y-43046739D01*
X68344385Y-43163295D01*
X68293255Y-43299684D01*
X68286500Y-43361866D01*
X68286500Y-45158134D01*
X68293255Y-45220316D01*
X68344385Y-45356705D01*
X68431739Y-45473261D01*
X68548295Y-45560615D01*
X68556704Y-45563767D01*
X68556705Y-45563768D01*
X68665451Y-45604535D01*
X68722216Y-45647176D01*
X68746916Y-45713738D01*
X68731709Y-45783087D01*
X68712316Y-45809568D01*
X68585629Y-45942138D01*
X68459743Y-46126680D01*
X68365688Y-46329305D01*
X68305989Y-46544570D01*
X68282251Y-46766695D01*
X65925418Y-46766695D01*
X65909852Y-46577361D01*
X65855431Y-46360702D01*
X65766354Y-46155840D01*
X65659114Y-45990072D01*
X65647822Y-45972617D01*
X65647820Y-45972614D01*
X65645014Y-45968277D01*
X65641532Y-45964450D01*
X65497798Y-45806488D01*
X65466746Y-45742642D01*
X65475141Y-45672143D01*
X65520317Y-45617375D01*
X65546761Y-45603706D01*
X65653297Y-45563767D01*
X65661705Y-45560615D01*
X65778261Y-45473261D01*
X65865615Y-45356705D01*
X65916745Y-45220316D01*
X65923500Y-45158134D01*
X65923500Y-43361866D01*
X65916745Y-43299684D01*
X65865615Y-43163295D01*
X65778261Y-43046739D01*
X65661705Y-42959385D01*
X65525316Y-42908255D01*
X65463134Y-42901500D01*
X63666866Y-42901500D01*
X63604684Y-42908255D01*
X63468295Y-42959385D01*
X63351739Y-43046739D01*
X63264385Y-43163295D01*
X63213255Y-43299684D01*
X63206500Y-43361866D01*
X63206500Y-45158134D01*
X63213255Y-45220316D01*
X63264385Y-45356705D01*
X63351739Y-45473261D01*
X63468295Y-45560615D01*
X63476704Y-45563767D01*
X63476705Y-45563768D01*
X63585451Y-45604535D01*
X63642216Y-45647176D01*
X63666916Y-45713738D01*
X63651709Y-45783087D01*
X63632316Y-45809568D01*
X63505629Y-45942138D01*
X63379743Y-46126680D01*
X63285688Y-46329305D01*
X63225989Y-46544570D01*
X63202251Y-46766695D01*
X63202548Y-46771848D01*
X63202548Y-46771851D01*
X63214038Y-46971118D01*
X63215110Y-46989715D01*
X63216247Y-46994761D01*
X63216248Y-46994767D01*
X63227819Y-47046109D01*
X63264222Y-47207639D01*
X63348266Y-47414616D01*
X63350965Y-47419020D01*
X63459599Y-47596295D01*
X63464987Y-47605088D01*
X63611250Y-47773938D01*
X63783126Y-47916632D01*
X63821533Y-47939075D01*
X63856445Y-47959476D01*
X63905169Y-48011114D01*
X63918240Y-48080897D01*
X63891509Y-48146669D01*
X63851055Y-48180027D01*
X63838607Y-48186507D01*
X63834474Y-48189610D01*
X63834471Y-48189612D01*
X63679397Y-48306045D01*
X63659965Y-48320635D01*
X63505629Y-48482138D01*
X63379743Y-48666680D01*
X63349015Y-48732878D01*
X63309035Y-48819009D01*
X63285688Y-48869305D01*
X63225989Y-49084570D01*
X63202251Y-49306695D01*
X63202548Y-49311848D01*
X63202548Y-49311851D01*
X63208011Y-49406590D01*
X63215110Y-49529715D01*
X63216247Y-49534761D01*
X63216248Y-49534767D01*
X63240275Y-49641378D01*
X63264222Y-49747639D01*
X63348266Y-49954616D01*
X63464987Y-50145088D01*
X63611250Y-50313938D01*
X63783126Y-50456632D01*
X63853595Y-50497811D01*
X63856445Y-50499476D01*
X63905169Y-50551114D01*
X63918240Y-50620897D01*
X63891509Y-50686669D01*
X63851055Y-50720027D01*
X63838607Y-50726507D01*
X63834474Y-50729610D01*
X63834471Y-50729612D01*
X63810247Y-50747800D01*
X63659965Y-50860635D01*
X63505629Y-51022138D01*
X63502715Y-51026410D01*
X63502714Y-51026411D01*
X63417556Y-51151249D01*
X63379743Y-51206680D01*
X63285688Y-51409305D01*
X63225989Y-51624570D01*
X63202251Y-51846695D01*
X63202548Y-51851848D01*
X63202548Y-51851851D01*
X63208011Y-51946590D01*
X63215110Y-52069715D01*
X63216247Y-52074761D01*
X63216248Y-52074767D01*
X63233554Y-52151556D01*
X63264222Y-52287639D01*
X63302461Y-52381811D01*
X63333750Y-52458866D01*
X63348266Y-52494616D01*
X63464987Y-52685088D01*
X63611250Y-52853938D01*
X63783126Y-52996632D01*
X63839904Y-53029810D01*
X63856445Y-53039476D01*
X63905169Y-53091114D01*
X63918240Y-53160897D01*
X63891509Y-53226669D01*
X63851055Y-53260027D01*
X63838607Y-53266507D01*
X63834474Y-53269610D01*
X63834471Y-53269612D01*
X63756972Y-53327800D01*
X63659965Y-53400635D01*
X63505629Y-53562138D01*
X63502715Y-53566410D01*
X63502714Y-53566411D01*
X63497333Y-53574299D01*
X63379743Y-53746680D01*
X63285688Y-53949305D01*
X63225989Y-54164570D01*
X63202251Y-54386695D01*
X63202548Y-54391848D01*
X63202548Y-54391851D01*
X63208011Y-54486590D01*
X63215110Y-54609715D01*
X63216247Y-54614761D01*
X63216248Y-54614767D01*
X63225263Y-54654767D01*
X63264222Y-54827639D01*
X63348266Y-55034616D01*
X63464987Y-55225088D01*
X63611250Y-55393938D01*
X63783126Y-55536632D01*
X63845922Y-55573327D01*
X63856445Y-55579476D01*
X63905169Y-55631114D01*
X63918240Y-55700897D01*
X63891509Y-55766669D01*
X63851055Y-55800027D01*
X63838607Y-55806507D01*
X63834474Y-55809610D01*
X63834471Y-55809612D01*
X63756972Y-55867800D01*
X63659965Y-55940635D01*
X63505629Y-56102138D01*
X63502715Y-56106410D01*
X63502714Y-56106411D01*
X63417556Y-56231249D01*
X63379743Y-56286680D01*
X63285688Y-56489305D01*
X63225989Y-56704570D01*
X63202251Y-56926695D01*
X58455260Y-56926695D01*
X58459621Y-56921852D01*
X58459622Y-56921851D01*
X58464040Y-56916944D01*
X58553614Y-56761798D01*
X58556223Y-56757279D01*
X58556224Y-56757278D01*
X58559527Y-56751556D01*
X58618542Y-56569928D01*
X58623189Y-56525720D01*
X58637814Y-56386565D01*
X58638504Y-56380000D01*
X58618542Y-56190072D01*
X58559527Y-56008444D01*
X58543472Y-55980635D01*
X58467341Y-55848774D01*
X58464040Y-55843056D01*
X58450304Y-55827800D01*
X58340675Y-55706045D01*
X58340674Y-55706044D01*
X58336253Y-55701134D01*
X58223861Y-55619476D01*
X58187094Y-55592763D01*
X58187093Y-55592762D01*
X58181752Y-55588882D01*
X58175724Y-55586198D01*
X58175722Y-55586197D01*
X58013319Y-55513891D01*
X58013318Y-55513891D01*
X58007288Y-55511206D01*
X57913888Y-55491353D01*
X57826944Y-55472872D01*
X57826939Y-55472872D01*
X57820487Y-55471500D01*
X57629513Y-55471500D01*
X57623061Y-55472872D01*
X57623056Y-55472872D01*
X57536112Y-55491353D01*
X57442712Y-55511206D01*
X57436682Y-55513891D01*
X57436681Y-55513891D01*
X57274278Y-55586197D01*
X57274276Y-55586198D01*
X57268248Y-55588882D01*
X57262907Y-55592762D01*
X57262906Y-55592763D01*
X57226139Y-55619476D01*
X57113747Y-55701134D01*
X57109326Y-55706044D01*
X57109325Y-55706045D01*
X56999697Y-55827800D01*
X56985960Y-55843056D01*
X56982659Y-55848774D01*
X56906529Y-55980635D01*
X56890473Y-56008444D01*
X56831458Y-56190072D01*
X56811496Y-56380000D01*
X55436859Y-56380000D01*
X55426354Y-56355840D01*
X55319114Y-56190072D01*
X55307822Y-56172617D01*
X55307820Y-56172614D01*
X55305014Y-56168277D01*
X55154670Y-56003051D01*
X55150619Y-55999852D01*
X55150615Y-55999848D01*
X54983414Y-55867800D01*
X54983410Y-55867798D01*
X54979359Y-55864598D01*
X54938053Y-55841796D01*
X54888084Y-55791364D01*
X54873312Y-55721921D01*
X54898428Y-55655516D01*
X54925780Y-55628909D01*
X54985660Y-55586197D01*
X55104860Y-55501173D01*
X55263096Y-55343489D01*
X55289218Y-55307137D01*
X55390435Y-55166277D01*
X55393453Y-55162077D01*
X55399079Y-55150695D01*
X55490136Y-54966453D01*
X55490137Y-54966451D01*
X55492430Y-54961811D01*
X55557370Y-54748069D01*
X55586529Y-54526590D01*
X55587425Y-54489908D01*
X55588074Y-54463365D01*
X55588074Y-54463361D01*
X55588156Y-54460000D01*
X55569852Y-54237361D01*
X55515431Y-54020702D01*
X55426354Y-53815840D01*
X55305014Y-53628277D01*
X55154670Y-53463051D01*
X55150619Y-53459852D01*
X55150615Y-53459848D01*
X54983414Y-53327800D01*
X54983410Y-53327798D01*
X54979359Y-53324598D01*
X54783789Y-53216638D01*
X54778920Y-53214914D01*
X54778916Y-53214912D01*
X54578087Y-53143795D01*
X54578083Y-53143794D01*
X54573212Y-53142069D01*
X54568119Y-53141162D01*
X54568116Y-53141161D01*
X54358373Y-53103800D01*
X54358367Y-53103799D01*
X54353284Y-53102894D01*
X54279452Y-53101992D01*
X54135081Y-53100228D01*
X54135079Y-53100228D01*
X54129911Y-53100165D01*
X53909091Y-53133955D01*
X53696756Y-53203357D01*
X53669305Y-53217647D01*
X53522852Y-53293886D01*
X53498607Y-53306507D01*
X53494474Y-53309610D01*
X53494471Y-53309612D01*
X53338298Y-53426870D01*
X53319965Y-53440635D01*
X53316393Y-53444373D01*
X53192233Y-53574299D01*
X53165629Y-53602138D01*
X53039743Y-53786680D01*
X53024003Y-53820590D01*
X52966435Y-53944610D01*
X52945688Y-53989305D01*
X52885989Y-54204570D01*
X52862251Y-54426695D01*
X52862548Y-54431848D01*
X52862548Y-54431851D01*
X52868011Y-54526590D01*
X52875110Y-54649715D01*
X52876247Y-54654761D01*
X52876248Y-54654767D01*
X52888261Y-54708069D01*
X52924222Y-54867639D01*
X53008266Y-55074616D01*
X53124987Y-55265088D01*
X53271250Y-55433938D01*
X53443126Y-55576632D01*
X53464136Y-55588909D01*
X53516445Y-55619476D01*
X53565169Y-55671114D01*
X53578240Y-55740897D01*
X53551509Y-55806669D01*
X53511055Y-55840027D01*
X53498607Y-55846507D01*
X53494474Y-55849610D01*
X53494471Y-55849612D01*
X53338298Y-55966870D01*
X53319965Y-55980635D01*
X53301605Y-55999848D01*
X53199771Y-56106411D01*
X53165629Y-56142138D01*
X53039743Y-56326680D01*
X52992715Y-56427993D01*
X52947968Y-56524394D01*
X52945688Y-56529305D01*
X52885989Y-56744570D01*
X52862251Y-56966695D01*
X52214244Y-56966695D01*
X52254621Y-56921852D01*
X52254622Y-56921851D01*
X52259040Y-56916944D01*
X52348614Y-56761798D01*
X52351223Y-56757279D01*
X52351224Y-56757278D01*
X52354527Y-56751556D01*
X52413542Y-56569928D01*
X52418189Y-56525720D01*
X52432814Y-56386565D01*
X52433504Y-56380000D01*
X52413542Y-56190072D01*
X52354527Y-56008444D01*
X52338472Y-55980635D01*
X52262341Y-55848774D01*
X52259040Y-55843056D01*
X52245304Y-55827800D01*
X52135675Y-55706045D01*
X52135674Y-55706044D01*
X52131253Y-55701134D01*
X52018861Y-55619476D01*
X51982094Y-55592763D01*
X51982093Y-55592762D01*
X51976752Y-55588882D01*
X51970724Y-55586198D01*
X51970722Y-55586197D01*
X51808319Y-55513891D01*
X51808318Y-55513891D01*
X51802288Y-55511206D01*
X51708888Y-55491353D01*
X51621944Y-55472872D01*
X51621939Y-55472872D01*
X51615487Y-55471500D01*
X51424513Y-55471500D01*
X51418061Y-55472872D01*
X51418056Y-55472872D01*
X51331112Y-55491353D01*
X51237712Y-55511206D01*
X51231682Y-55513891D01*
X51231681Y-55513891D01*
X51069278Y-55586197D01*
X51069276Y-55586198D01*
X51063248Y-55588882D01*
X51057907Y-55592762D01*
X51057906Y-55592763D01*
X51021139Y-55619476D01*
X50908747Y-55701134D01*
X50904326Y-55706044D01*
X50904325Y-55706045D01*
X50794697Y-55827800D01*
X50780960Y-55843056D01*
X50777659Y-55848774D01*
X50701529Y-55980635D01*
X50685473Y-56008444D01*
X50626458Y-56190072D01*
X50606496Y-56380000D01*
X36975817Y-56380000D01*
X41550085Y-51780000D01*
X53311496Y-51780000D01*
X53331458Y-51969928D01*
X53390473Y-52151556D01*
X53393776Y-52157278D01*
X53393777Y-52157279D01*
X53427686Y-52216010D01*
X53485960Y-52316944D01*
X53490378Y-52321851D01*
X53490379Y-52321852D01*
X53584716Y-52426624D01*
X53613747Y-52458866D01*
X53669014Y-52499020D01*
X53731279Y-52544258D01*
X53768248Y-52571118D01*
X53774276Y-52573802D01*
X53774278Y-52573803D01*
X53936681Y-52646109D01*
X53942712Y-52648794D01*
X54036112Y-52668647D01*
X54123056Y-52687128D01*
X54123061Y-52687128D01*
X54129513Y-52688500D01*
X54320487Y-52688500D01*
X54326939Y-52687128D01*
X54326944Y-52687128D01*
X54413888Y-52668647D01*
X54507288Y-52648794D01*
X54513319Y-52646109D01*
X54675722Y-52573803D01*
X54675724Y-52573802D01*
X54681752Y-52571118D01*
X54718722Y-52544258D01*
X54780986Y-52499020D01*
X54836253Y-52458866D01*
X54865284Y-52426624D01*
X54959621Y-52321852D01*
X54959622Y-52321851D01*
X54964040Y-52316944D01*
X55022314Y-52216010D01*
X55056223Y-52157279D01*
X55056224Y-52157278D01*
X55059527Y-52151556D01*
X55118542Y-51969928D01*
X55138504Y-51780000D01*
X55118542Y-51590072D01*
X55059527Y-51408444D01*
X54964040Y-51243056D01*
X54836253Y-51101134D01*
X54681752Y-50988882D01*
X54675724Y-50986198D01*
X54675722Y-50986197D01*
X54513319Y-50913891D01*
X54513318Y-50913891D01*
X54507288Y-50911206D01*
X54392797Y-50886870D01*
X54326944Y-50872872D01*
X54326939Y-50872872D01*
X54320487Y-50871500D01*
X54129513Y-50871500D01*
X54123061Y-50872872D01*
X54123056Y-50872872D01*
X54057203Y-50886870D01*
X53942712Y-50911206D01*
X53936682Y-50913891D01*
X53936681Y-50913891D01*
X53774278Y-50986197D01*
X53774276Y-50986198D01*
X53768248Y-50988882D01*
X53613747Y-51101134D01*
X53485960Y-51243056D01*
X53390473Y-51408444D01*
X53331458Y-51590072D01*
X53311496Y-51780000D01*
X41550085Y-51780000D01*
X42697072Y-50626561D01*
X42713336Y-50612765D01*
X42724959Y-50604490D01*
X42724962Y-50604487D01*
X42728929Y-50601663D01*
X42737904Y-50592904D01*
X42741282Y-50588397D01*
X42749198Y-50578853D01*
X42988275Y-50317947D01*
X42991352Y-50313938D01*
X43199957Y-50042077D01*
X43214622Y-50022965D01*
X43414399Y-49709378D01*
X43456861Y-49627810D01*
X43506057Y-49576624D01*
X43575118Y-49560160D01*
X43642117Y-49583646D01*
X43662249Y-49601672D01*
X43713747Y-49658866D01*
X43868248Y-49771118D01*
X43874276Y-49773802D01*
X43874278Y-49773803D01*
X44036681Y-49846109D01*
X44042712Y-49848794D01*
X44136113Y-49868647D01*
X44223056Y-49887128D01*
X44223061Y-49887128D01*
X44229513Y-49888500D01*
X44420487Y-49888500D01*
X44426939Y-49887128D01*
X44426944Y-49887128D01*
X44513887Y-49868647D01*
X44607288Y-49848794D01*
X44613319Y-49846109D01*
X44775722Y-49773803D01*
X44775724Y-49773802D01*
X44781752Y-49771118D01*
X44936253Y-49658866D01*
X45057194Y-49524547D01*
X45059621Y-49521852D01*
X45059622Y-49521851D01*
X45064040Y-49516944D01*
X45159527Y-49351556D01*
X45218542Y-49169928D01*
X45224595Y-49112342D01*
X45237814Y-48986565D01*
X45238504Y-48980000D01*
X45226376Y-48864610D01*
X45219232Y-48796635D01*
X45219232Y-48796633D01*
X45218542Y-48790072D01*
X45199958Y-48732878D01*
X57964374Y-48732878D01*
X57965064Y-48739443D01*
X57979238Y-48874297D01*
X57984336Y-48922806D01*
X58043351Y-49104434D01*
X58138838Y-49269822D01*
X58143256Y-49274729D01*
X58143257Y-49274730D01*
X58237658Y-49379573D01*
X58266625Y-49411744D01*
X58321929Y-49451925D01*
X58403550Y-49511226D01*
X58421126Y-49523996D01*
X58427154Y-49526680D01*
X58427156Y-49526681D01*
X58589559Y-49598987D01*
X58595590Y-49601672D01*
X58688991Y-49621525D01*
X58775934Y-49640006D01*
X58775939Y-49640006D01*
X58782391Y-49641378D01*
X58973365Y-49641378D01*
X58979817Y-49640006D01*
X58979822Y-49640006D01*
X59066765Y-49621525D01*
X59160166Y-49601672D01*
X59166197Y-49598987D01*
X59328600Y-49526681D01*
X59328602Y-49526680D01*
X59334630Y-49523996D01*
X59352207Y-49511226D01*
X59433827Y-49451925D01*
X59489131Y-49411744D01*
X59518098Y-49379573D01*
X59612499Y-49274730D01*
X59612500Y-49274729D01*
X59616918Y-49269822D01*
X59712405Y-49104434D01*
X59771420Y-48922806D01*
X59776519Y-48874297D01*
X59790692Y-48739443D01*
X59791382Y-48732878D01*
X59772885Y-48556885D01*
X59772110Y-48549513D01*
X59772110Y-48549511D01*
X59771420Y-48542950D01*
X59712405Y-48361322D01*
X59691073Y-48324373D01*
X59620219Y-48201652D01*
X59616918Y-48195934D01*
X59611789Y-48190237D01*
X59493553Y-48058923D01*
X59493552Y-48058922D01*
X59489131Y-48054012D01*
X59371997Y-47968909D01*
X59339972Y-47945641D01*
X59339971Y-47945640D01*
X59334630Y-47941760D01*
X59328602Y-47939076D01*
X59328600Y-47939075D01*
X59166197Y-47866769D01*
X59166196Y-47866769D01*
X59160166Y-47864084D01*
X59038924Y-47838313D01*
X58979822Y-47825750D01*
X58979817Y-47825750D01*
X58973365Y-47824378D01*
X58782391Y-47824378D01*
X58775939Y-47825750D01*
X58775934Y-47825750D01*
X58716832Y-47838313D01*
X58595590Y-47864084D01*
X58589560Y-47866769D01*
X58589559Y-47866769D01*
X58427156Y-47939075D01*
X58427154Y-47939076D01*
X58421126Y-47941760D01*
X58415785Y-47945640D01*
X58415784Y-47945641D01*
X58383759Y-47968909D01*
X58266625Y-48054012D01*
X58262204Y-48058922D01*
X58262203Y-48058923D01*
X58143968Y-48190237D01*
X58138838Y-48195934D01*
X58135537Y-48201652D01*
X58064684Y-48324373D01*
X58043351Y-48361322D01*
X57984336Y-48542950D01*
X57983646Y-48549511D01*
X57983646Y-48549513D01*
X57982871Y-48556885D01*
X57964374Y-48732878D01*
X45199958Y-48732878D01*
X45159527Y-48608444D01*
X45064040Y-48443056D01*
X45057347Y-48435622D01*
X44940675Y-48306045D01*
X44940674Y-48306044D01*
X44936253Y-48301134D01*
X44803383Y-48204598D01*
X44787094Y-48192763D01*
X44787093Y-48192762D01*
X44781752Y-48188882D01*
X44775724Y-48186198D01*
X44775722Y-48186197D01*
X44613319Y-48113891D01*
X44613318Y-48113891D01*
X44607288Y-48111206D01*
X44504982Y-48089460D01*
X44426944Y-48072872D01*
X44426939Y-48072872D01*
X44420487Y-48071500D01*
X44229513Y-48071500D01*
X44223061Y-48072872D01*
X44223056Y-48072872D01*
X44119603Y-48094862D01*
X44048812Y-48089460D01*
X43992179Y-48046643D01*
X43967686Y-47980005D01*
X43968484Y-47955172D01*
X43968827Y-47952562D01*
X43968828Y-47952552D01*
X43969189Y-47949813D01*
X43982349Y-47648385D01*
X50585728Y-47648385D01*
X50586418Y-47654950D01*
X50604370Y-47825750D01*
X50605690Y-47838313D01*
X50664705Y-48019941D01*
X50760192Y-48185329D01*
X50764610Y-48190236D01*
X50764611Y-48190237D01*
X50769741Y-48195934D01*
X50887979Y-48327251D01*
X51042480Y-48439503D01*
X51048508Y-48442187D01*
X51048510Y-48442188D01*
X51210913Y-48514494D01*
X51216944Y-48517179D01*
X51308651Y-48536672D01*
X51397288Y-48555513D01*
X51397293Y-48555513D01*
X51403745Y-48556885D01*
X51594719Y-48556885D01*
X51601171Y-48555513D01*
X51601176Y-48555513D01*
X51689813Y-48536672D01*
X51781520Y-48517179D01*
X51787551Y-48514494D01*
X51949954Y-48442188D01*
X51949956Y-48442187D01*
X51955984Y-48439503D01*
X52110485Y-48327251D01*
X52228723Y-48195934D01*
X52233853Y-48190237D01*
X52233854Y-48190236D01*
X52238272Y-48185329D01*
X52333759Y-48019941D01*
X52392774Y-47838313D01*
X52394095Y-47825750D01*
X52412046Y-47654950D01*
X52412736Y-47648385D01*
X52408825Y-47611176D01*
X52393464Y-47465020D01*
X52393464Y-47465018D01*
X52392774Y-47458457D01*
X52333759Y-47276829D01*
X52238272Y-47111441D01*
X52221689Y-47093023D01*
X52114907Y-46974430D01*
X52114906Y-46974429D01*
X52110485Y-46969519D01*
X51964205Y-46863240D01*
X51961326Y-46861148D01*
X51961325Y-46861147D01*
X51955984Y-46857267D01*
X51949956Y-46854583D01*
X51949954Y-46854582D01*
X51787551Y-46782276D01*
X51787550Y-46782276D01*
X51781520Y-46779591D01*
X51688120Y-46759738D01*
X51601176Y-46741257D01*
X51601171Y-46741257D01*
X51594719Y-46739885D01*
X51403745Y-46739885D01*
X51397293Y-46741257D01*
X51397288Y-46741257D01*
X51310345Y-46759738D01*
X51216944Y-46779591D01*
X51210914Y-46782276D01*
X51210913Y-46782276D01*
X51048510Y-46854582D01*
X51048508Y-46854583D01*
X51042480Y-46857267D01*
X51037139Y-46861147D01*
X51037138Y-46861148D01*
X51034259Y-46863240D01*
X50887979Y-46969519D01*
X50883558Y-46974429D01*
X50883557Y-46974430D01*
X50776776Y-47093023D01*
X50760192Y-47111441D01*
X50664705Y-47276829D01*
X50605690Y-47458457D01*
X50605000Y-47465018D01*
X50605000Y-47465020D01*
X50589639Y-47611176D01*
X50585728Y-47648385D01*
X43982349Y-47648385D01*
X43983974Y-47611168D01*
X43985600Y-47595766D01*
X43986421Y-47590889D01*
X43986574Y-47578350D01*
X43982627Y-47550788D01*
X43981354Y-47532916D01*
X43981464Y-46180000D01*
X47406496Y-46180000D01*
X47426458Y-46369928D01*
X47485473Y-46551556D01*
X47488776Y-46557278D01*
X47488777Y-46557279D01*
X47503351Y-46582522D01*
X47580960Y-46716944D01*
X47585378Y-46721851D01*
X47585379Y-46721852D01*
X47639785Y-46782276D01*
X47708747Y-46858866D01*
X47723945Y-46869908D01*
X47855703Y-46965636D01*
X47863248Y-46971118D01*
X47869276Y-46973802D01*
X47869278Y-46973803D01*
X48031681Y-47046109D01*
X48037712Y-47048794D01*
X48131112Y-47068647D01*
X48218056Y-47087128D01*
X48218061Y-47087128D01*
X48224513Y-47088500D01*
X48415487Y-47088500D01*
X48421939Y-47087128D01*
X48421944Y-47087128D01*
X48508888Y-47068647D01*
X48602288Y-47048794D01*
X48608319Y-47046109D01*
X48770722Y-46973803D01*
X48770724Y-46973802D01*
X48776752Y-46971118D01*
X48784298Y-46965636D01*
X48916055Y-46869908D01*
X48931253Y-46858866D01*
X49000215Y-46782276D01*
X49054621Y-46721852D01*
X49054622Y-46721851D01*
X49059040Y-46716944D01*
X49136649Y-46582522D01*
X49151223Y-46557279D01*
X49151224Y-46557278D01*
X49154527Y-46551556D01*
X49213542Y-46369928D01*
X49233504Y-46180000D01*
X49213542Y-45990072D01*
X49154527Y-45808444D01*
X49138472Y-45780635D01*
X49062341Y-45648774D01*
X49059040Y-45643056D01*
X49030848Y-45611745D01*
X48935675Y-45506045D01*
X48935674Y-45506044D01*
X48931253Y-45501134D01*
X48776752Y-45388882D01*
X48774674Y-45387957D01*
X48726788Y-45337733D01*
X48713354Y-45268019D01*
X48739743Y-45202109D01*
X48774195Y-45172256D01*
X48776752Y-45171118D01*
X48789948Y-45161531D01*
X48844992Y-45121539D01*
X48931253Y-45058866D01*
X49059040Y-44916944D01*
X49154527Y-44751556D01*
X49213542Y-44569928D01*
X49233504Y-44380000D01*
X49213542Y-44190072D01*
X49154527Y-44008444D01*
X49059040Y-43843056D01*
X48931253Y-43701134D01*
X48776752Y-43588882D01*
X48770724Y-43586198D01*
X48770722Y-43586197D01*
X48608319Y-43513891D01*
X48608318Y-43513891D01*
X48602288Y-43511206D01*
X48508887Y-43491353D01*
X48421944Y-43472872D01*
X48421939Y-43472872D01*
X48415487Y-43471500D01*
X48224513Y-43471500D01*
X48218061Y-43472872D01*
X48218056Y-43472872D01*
X48131113Y-43491353D01*
X48037712Y-43511206D01*
X48031682Y-43513891D01*
X48031681Y-43513891D01*
X47869278Y-43586197D01*
X47869276Y-43586198D01*
X47863248Y-43588882D01*
X47708747Y-43701134D01*
X47580960Y-43843056D01*
X47485473Y-44008444D01*
X47426458Y-44190072D01*
X47406496Y-44380000D01*
X47426458Y-44569928D01*
X47485473Y-44751556D01*
X47580960Y-44916944D01*
X47708747Y-45058866D01*
X47795008Y-45121539D01*
X47850053Y-45161531D01*
X47863248Y-45171118D01*
X47865326Y-45172043D01*
X47913212Y-45222267D01*
X47926646Y-45291981D01*
X47900257Y-45357891D01*
X47865805Y-45387744D01*
X47863248Y-45388882D01*
X47708747Y-45501134D01*
X47704326Y-45506044D01*
X47704325Y-45506045D01*
X47609153Y-45611745D01*
X47580960Y-45643056D01*
X47577659Y-45648774D01*
X47501529Y-45780635D01*
X47485473Y-45808444D01*
X47426458Y-45990072D01*
X47406496Y-46180000D01*
X43981464Y-46180000D01*
X43981749Y-42680000D01*
X44906496Y-42680000D01*
X44907186Y-42686565D01*
X44918982Y-42798794D01*
X44926458Y-42869928D01*
X44985473Y-43051556D01*
X45080960Y-43216944D01*
X45208747Y-43358866D01*
X45363248Y-43471118D01*
X45369276Y-43473802D01*
X45369278Y-43473803D01*
X45459318Y-43513891D01*
X45537712Y-43548794D01*
X45631112Y-43568647D01*
X45718056Y-43587128D01*
X45718061Y-43587128D01*
X45724513Y-43588500D01*
X45915487Y-43588500D01*
X45921939Y-43587128D01*
X45921944Y-43587128D01*
X46008888Y-43568647D01*
X46102288Y-43548794D01*
X46180682Y-43513891D01*
X46270722Y-43473803D01*
X46270724Y-43473802D01*
X46276752Y-43471118D01*
X46431253Y-43358866D01*
X46559040Y-43216944D01*
X46654527Y-43051556D01*
X46713542Y-42869928D01*
X46721019Y-42798794D01*
X46732814Y-42686565D01*
X46733504Y-42680000D01*
X46726028Y-42608866D01*
X46714232Y-42496635D01*
X46714232Y-42496633D01*
X46713542Y-42490072D01*
X46677777Y-42380000D01*
X53406496Y-42380000D01*
X53426458Y-42569928D01*
X53485473Y-42751556D01*
X53580960Y-42916944D01*
X53585378Y-42921851D01*
X53585379Y-42921852D01*
X53692983Y-43041358D01*
X53708747Y-43058866D01*
X53807843Y-43130864D01*
X53852481Y-43163295D01*
X53863248Y-43171118D01*
X53869276Y-43173802D01*
X53869278Y-43173803D01*
X53953332Y-43211226D01*
X54037712Y-43248794D01*
X54131113Y-43268647D01*
X54218056Y-43287128D01*
X54218061Y-43287128D01*
X54224513Y-43288500D01*
X54415487Y-43288500D01*
X54421939Y-43287128D01*
X54421944Y-43287128D01*
X54508887Y-43268647D01*
X54602288Y-43248794D01*
X54686668Y-43211226D01*
X54770722Y-43173803D01*
X54770724Y-43173802D01*
X54776752Y-43171118D01*
X54787520Y-43163295D01*
X54832157Y-43130864D01*
X54931253Y-43058866D01*
X54947017Y-43041358D01*
X55054621Y-42921852D01*
X55054622Y-42921851D01*
X55059040Y-42916944D01*
X55154527Y-42751556D01*
X55213542Y-42569928D01*
X55233504Y-42380000D01*
X55213542Y-42190072D01*
X55154527Y-42008444D01*
X55059040Y-41843056D01*
X54991477Y-41768019D01*
X54935675Y-41706045D01*
X54935674Y-41706044D01*
X54931253Y-41701134D01*
X54776752Y-41588882D01*
X54770724Y-41586198D01*
X54770722Y-41586197D01*
X54608319Y-41513891D01*
X54608318Y-41513891D01*
X54602288Y-41511206D01*
X54508887Y-41491353D01*
X54421944Y-41472872D01*
X54421939Y-41472872D01*
X54415487Y-41471500D01*
X54224513Y-41471500D01*
X54218061Y-41472872D01*
X54218056Y-41472872D01*
X54131113Y-41491353D01*
X54037712Y-41511206D01*
X54031682Y-41513891D01*
X54031681Y-41513891D01*
X53869278Y-41586197D01*
X53869276Y-41586198D01*
X53863248Y-41588882D01*
X53708747Y-41701134D01*
X53704326Y-41706044D01*
X53704325Y-41706045D01*
X53648524Y-41768019D01*
X53580960Y-41843056D01*
X53485473Y-42008444D01*
X53426458Y-42190072D01*
X53406496Y-42380000D01*
X46677777Y-42380000D01*
X46654527Y-42308444D01*
X46559040Y-42143056D01*
X46538216Y-42119928D01*
X46435675Y-42006045D01*
X46435674Y-42006044D01*
X46431253Y-42001134D01*
X46276752Y-41888882D01*
X46274674Y-41887957D01*
X46226788Y-41837733D01*
X46213354Y-41768019D01*
X46239743Y-41702109D01*
X46274195Y-41672256D01*
X46276752Y-41671118D01*
X46431253Y-41558866D01*
X46559040Y-41416944D01*
X46633197Y-41288500D01*
X46651223Y-41257279D01*
X46651224Y-41257278D01*
X46654527Y-41251556D01*
X46713542Y-41069928D01*
X46733504Y-40880000D01*
X46713542Y-40690072D01*
X46654527Y-40508444D01*
X46580370Y-40380000D01*
X47206496Y-40380000D01*
X47226458Y-40569928D01*
X47285473Y-40751556D01*
X47380960Y-40916944D01*
X47385378Y-40921851D01*
X47385379Y-40921852D01*
X47476338Y-41022872D01*
X47508747Y-41058866D01*
X47663248Y-41171118D01*
X47669276Y-41173802D01*
X47669278Y-41173803D01*
X47829799Y-41245271D01*
X47837712Y-41248794D01*
X47931113Y-41268647D01*
X48018056Y-41287128D01*
X48018061Y-41287128D01*
X48024513Y-41288500D01*
X48215487Y-41288500D01*
X48221939Y-41287128D01*
X48221944Y-41287128D01*
X48308887Y-41268647D01*
X48402288Y-41248794D01*
X48410201Y-41245271D01*
X48570722Y-41173803D01*
X48570724Y-41173802D01*
X48576752Y-41171118D01*
X48731253Y-41058866D01*
X48826365Y-40953233D01*
X48886810Y-40915994D01*
X48957793Y-40917346D01*
X49013635Y-40953233D01*
X49108747Y-41058866D01*
X49263248Y-41171118D01*
X49269276Y-41173802D01*
X49269278Y-41173803D01*
X49429799Y-41245271D01*
X49437712Y-41248794D01*
X49531113Y-41268647D01*
X49618056Y-41287128D01*
X49618061Y-41287128D01*
X49624513Y-41288500D01*
X49815487Y-41288500D01*
X49821939Y-41287128D01*
X49821944Y-41287128D01*
X49908887Y-41268647D01*
X50002288Y-41248794D01*
X50010201Y-41245271D01*
X50170722Y-41173803D01*
X50170724Y-41173802D01*
X50176752Y-41171118D01*
X50331253Y-41058866D01*
X50363662Y-41022872D01*
X50454621Y-40921852D01*
X50454622Y-40921851D01*
X50459040Y-40916944D01*
X50554527Y-40751556D01*
X50613542Y-40569928D01*
X50633504Y-40380000D01*
X50613542Y-40190072D01*
X50554527Y-40008444D01*
X50533990Y-39972872D01*
X50462341Y-39848774D01*
X50459040Y-39843056D01*
X50426365Y-39806766D01*
X50335675Y-39706045D01*
X50335674Y-39706044D01*
X50331253Y-39701134D01*
X50176752Y-39588882D01*
X50170724Y-39586198D01*
X50170722Y-39586197D01*
X50008319Y-39513891D01*
X50008318Y-39513891D01*
X50002288Y-39511206D01*
X49908888Y-39491353D01*
X49821944Y-39472872D01*
X49821939Y-39472872D01*
X49815487Y-39471500D01*
X49624513Y-39471500D01*
X49618061Y-39472872D01*
X49618056Y-39472872D01*
X49531112Y-39491353D01*
X49437712Y-39511206D01*
X49431682Y-39513891D01*
X49431681Y-39513891D01*
X49269278Y-39586197D01*
X49269276Y-39586198D01*
X49263248Y-39588882D01*
X49108747Y-39701134D01*
X49104326Y-39706044D01*
X49104325Y-39706045D01*
X49013636Y-39806766D01*
X48953190Y-39844006D01*
X48882207Y-39842654D01*
X48826364Y-39806766D01*
X48735675Y-39706045D01*
X48735674Y-39706044D01*
X48731253Y-39701134D01*
X48576752Y-39588882D01*
X48570724Y-39586198D01*
X48570722Y-39586197D01*
X48408319Y-39513891D01*
X48408318Y-39513891D01*
X48402288Y-39511206D01*
X48308888Y-39491353D01*
X48221944Y-39472872D01*
X48221939Y-39472872D01*
X48215487Y-39471500D01*
X48024513Y-39471500D01*
X48018061Y-39472872D01*
X48018056Y-39472872D01*
X47931112Y-39491353D01*
X47837712Y-39511206D01*
X47831682Y-39513891D01*
X47831681Y-39513891D01*
X47669278Y-39586197D01*
X47669276Y-39586198D01*
X47663248Y-39588882D01*
X47508747Y-39701134D01*
X47504326Y-39706044D01*
X47504325Y-39706045D01*
X47413636Y-39806766D01*
X47380960Y-39843056D01*
X47377659Y-39848774D01*
X47306011Y-39972872D01*
X47285473Y-40008444D01*
X47226458Y-40190072D01*
X47206496Y-40380000D01*
X46580370Y-40380000D01*
X46559040Y-40343056D01*
X46431253Y-40201134D01*
X46276752Y-40088882D01*
X46270724Y-40086198D01*
X46270722Y-40086197D01*
X46108319Y-40013891D01*
X46108318Y-40013891D01*
X46102288Y-40011206D01*
X46008888Y-39991353D01*
X45921944Y-39972872D01*
X45921939Y-39972872D01*
X45915487Y-39971500D01*
X45724513Y-39971500D01*
X45718061Y-39972872D01*
X45718056Y-39972872D01*
X45631112Y-39991353D01*
X45537712Y-40011206D01*
X45531682Y-40013891D01*
X45531681Y-40013891D01*
X45369278Y-40086197D01*
X45369276Y-40086198D01*
X45363248Y-40088882D01*
X45208747Y-40201134D01*
X45080960Y-40343056D01*
X44985473Y-40508444D01*
X44926458Y-40690072D01*
X44906496Y-40880000D01*
X44926458Y-41069928D01*
X44985473Y-41251556D01*
X44988776Y-41257278D01*
X44988777Y-41257279D01*
X45006803Y-41288500D01*
X45080960Y-41416944D01*
X45208747Y-41558866D01*
X45363248Y-41671118D01*
X45365326Y-41672043D01*
X45413212Y-41722267D01*
X45426646Y-41791981D01*
X45400257Y-41857891D01*
X45365805Y-41887744D01*
X45363248Y-41888882D01*
X45208747Y-42001134D01*
X45204326Y-42006044D01*
X45204325Y-42006045D01*
X45101785Y-42119928D01*
X45080960Y-42143056D01*
X44985473Y-42308444D01*
X44926458Y-42490072D01*
X44925768Y-42496633D01*
X44925768Y-42496635D01*
X44913972Y-42608866D01*
X44906496Y-42680000D01*
X43981749Y-42680000D01*
X43982188Y-37280000D01*
X47606496Y-37280000D01*
X47626458Y-37469928D01*
X47685473Y-37651556D01*
X47780960Y-37816944D01*
X47908747Y-37958866D01*
X48063248Y-38071118D01*
X48069276Y-38073802D01*
X48069278Y-38073803D01*
X48231681Y-38146109D01*
X48237712Y-38148794D01*
X48331112Y-38168647D01*
X48418056Y-38187128D01*
X48418061Y-38187128D01*
X48424513Y-38188500D01*
X48615487Y-38188500D01*
X48621939Y-38187128D01*
X48621944Y-38187128D01*
X48708888Y-38168647D01*
X48802288Y-38148794D01*
X48808319Y-38146109D01*
X48970722Y-38073803D01*
X48970724Y-38073802D01*
X48976752Y-38071118D01*
X49131253Y-37958866D01*
X49259040Y-37816944D01*
X49354527Y-37651556D01*
X49413542Y-37469928D01*
X49433504Y-37280000D01*
X49413542Y-37090072D01*
X49354527Y-36908444D01*
X49259040Y-36743056D01*
X49131253Y-36601134D01*
X48976752Y-36488882D01*
X48970724Y-36486198D01*
X48970722Y-36486197D01*
X48808319Y-36413891D01*
X48808318Y-36413891D01*
X48802288Y-36411206D01*
X48694421Y-36388278D01*
X48621944Y-36372872D01*
X48621939Y-36372872D01*
X48615487Y-36371500D01*
X48424513Y-36371500D01*
X48418061Y-36372872D01*
X48418056Y-36372872D01*
X48345579Y-36388278D01*
X48237712Y-36411206D01*
X48231682Y-36413891D01*
X48231681Y-36413891D01*
X48069278Y-36486197D01*
X48069276Y-36486198D01*
X48063248Y-36488882D01*
X47908747Y-36601134D01*
X47780960Y-36743056D01*
X47685473Y-36908444D01*
X47626458Y-37090072D01*
X47606496Y-37280000D01*
X43982188Y-37280000D01*
X43982391Y-34780000D01*
X51611496Y-34780000D01*
X51612186Y-34786565D01*
X51630747Y-34963160D01*
X51631458Y-34969928D01*
X51690473Y-35151556D01*
X51785960Y-35316944D01*
X51790378Y-35321851D01*
X51790379Y-35321852D01*
X51890712Y-35433283D01*
X51913747Y-35458866D01*
X52068248Y-35571118D01*
X52074276Y-35573802D01*
X52074278Y-35573803D01*
X52236681Y-35646109D01*
X52242712Y-35648794D01*
X52336113Y-35668647D01*
X52423056Y-35687128D01*
X52423061Y-35687128D01*
X52429513Y-35688500D01*
X52620487Y-35688500D01*
X52626939Y-35687128D01*
X52626944Y-35687128D01*
X52713887Y-35668647D01*
X52807288Y-35648794D01*
X52813319Y-35646109D01*
X52975722Y-35573803D01*
X52975724Y-35573802D01*
X52981752Y-35571118D01*
X53136253Y-35458866D01*
X53159288Y-35433283D01*
X53259621Y-35321852D01*
X53259622Y-35321851D01*
X53264040Y-35316944D01*
X53359527Y-35151556D01*
X53418542Y-34969928D01*
X53419254Y-34963160D01*
X53437814Y-34786565D01*
X53438504Y-34780000D01*
X53428714Y-34686856D01*
X53419232Y-34596635D01*
X53419232Y-34596633D01*
X53418542Y-34590072D01*
X53401145Y-34536531D01*
X53361568Y-34414724D01*
X53361566Y-34414720D01*
X53359527Y-34408444D01*
X53358500Y-34406665D01*
X53349291Y-34337969D01*
X53379400Y-34273673D01*
X53422584Y-34241984D01*
X53575719Y-34173805D01*
X53575726Y-34173801D01*
X53581752Y-34171118D01*
X53736253Y-34058866D01*
X53771334Y-34019905D01*
X58812024Y-34019905D01*
X58827754Y-34180330D01*
X58878635Y-34333283D01*
X58962138Y-34471163D01*
X59008293Y-34518958D01*
X59041225Y-34581855D01*
X59034925Y-34652571D01*
X59023568Y-34674737D01*
X58937359Y-34808508D01*
X58882227Y-34959981D01*
X58862024Y-35119905D01*
X58877754Y-35280330D01*
X58928635Y-35433283D01*
X58932282Y-35439305D01*
X58932283Y-35439307D01*
X58944129Y-35458866D01*
X59012138Y-35571163D01*
X59124113Y-35687117D01*
X59258995Y-35775381D01*
X59265599Y-35777837D01*
X59374137Y-35818202D01*
X59431013Y-35860695D01*
X59449775Y-35896528D01*
X59478635Y-35983283D01*
X59562138Y-36121163D01*
X59674113Y-36237117D01*
X59808995Y-36325381D01*
X59960079Y-36381568D01*
X59967060Y-36382499D01*
X59967062Y-36382500D01*
X60112877Y-36401956D01*
X60112881Y-36401956D01*
X60119858Y-36402887D01*
X60126869Y-36402249D01*
X60126873Y-36402249D01*
X60273368Y-36388917D01*
X60273369Y-36388917D01*
X60280389Y-36388278D01*
X60332026Y-36371500D01*
X60426995Y-36340643D01*
X60426998Y-36340642D01*
X60433694Y-36338466D01*
X60518667Y-36287812D01*
X60566101Y-36259536D01*
X60566103Y-36259535D01*
X60572153Y-36255928D01*
X60596214Y-36233015D01*
X60659339Y-36200523D01*
X60730010Y-36207316D01*
X60762474Y-36229149D01*
X60763790Y-36227558D01*
X60769219Y-36232049D01*
X60774113Y-36237117D01*
X60908995Y-36325381D01*
X61060079Y-36381568D01*
X61067060Y-36382499D01*
X61067062Y-36382500D01*
X61212877Y-36401956D01*
X61212881Y-36401956D01*
X61219858Y-36402887D01*
X61226869Y-36402249D01*
X61226873Y-36402249D01*
X61373368Y-36388917D01*
X61373369Y-36388917D01*
X61380389Y-36388278D01*
X61432026Y-36371500D01*
X61526995Y-36340643D01*
X61526998Y-36340642D01*
X61533694Y-36338466D01*
X61601674Y-36297942D01*
X61666098Y-36259538D01*
X61666101Y-36259536D01*
X61672153Y-36255928D01*
X61788885Y-36144765D01*
X61878089Y-36010503D01*
X61888429Y-35983283D01*
X61923921Y-35889849D01*
X61966809Y-35833270D01*
X62002773Y-35814759D01*
X62076995Y-35790643D01*
X62076998Y-35790642D01*
X62083694Y-35788466D01*
X62151674Y-35747942D01*
X62216098Y-35709538D01*
X62216101Y-35709536D01*
X62222153Y-35705928D01*
X62338885Y-35594765D01*
X62428089Y-35460503D01*
X62440968Y-35426600D01*
X62480757Y-35321852D01*
X62485330Y-35309814D01*
X62507764Y-35150189D01*
X62508046Y-35130000D01*
X62490078Y-34969810D01*
X62437066Y-34817582D01*
X62351646Y-34680882D01*
X62340600Y-34669758D01*
X62306791Y-34607329D01*
X62312102Y-34536531D01*
X62333484Y-34499980D01*
X62333783Y-34499623D01*
X62338885Y-34494765D01*
X62428089Y-34360503D01*
X62440968Y-34326600D01*
X62470523Y-34248794D01*
X62485330Y-34209814D01*
X62507764Y-34050189D01*
X62508046Y-34030000D01*
X62490078Y-33869810D01*
X62437066Y-33717582D01*
X62351646Y-33580882D01*
X62238063Y-33466503D01*
X62228182Y-33460232D01*
X62107917Y-33383909D01*
X62107913Y-33383907D01*
X62101963Y-33380131D01*
X61998013Y-33343116D01*
X61940549Y-33301422D01*
X61921289Y-33265855D01*
X61894898Y-33190072D01*
X61887066Y-33167582D01*
X61801646Y-33030882D01*
X61785606Y-33014729D01*
X61693027Y-32921502D01*
X61688063Y-32916503D01*
X61682838Y-32913187D01*
X61642474Y-32855194D01*
X61639860Y-32784245D01*
X61676018Y-32723146D01*
X61691931Y-32711365D01*
X61691752Y-32711118D01*
X61710838Y-32697251D01*
X61846253Y-32598866D01*
X61958860Y-32473803D01*
X61969621Y-32461852D01*
X61969622Y-32461851D01*
X61974040Y-32456944D01*
X62069527Y-32291556D01*
X62128542Y-32109928D01*
X62148504Y-31920000D01*
X62143241Y-31869928D01*
X62129232Y-31736635D01*
X62129232Y-31736633D01*
X62128542Y-31730072D01*
X62069527Y-31548444D01*
X61974040Y-31383056D01*
X61846253Y-31241134D01*
X61724704Y-31152823D01*
X61697094Y-31132763D01*
X61697093Y-31132762D01*
X61691752Y-31128882D01*
X61685724Y-31126198D01*
X61685722Y-31126197D01*
X61523319Y-31053891D01*
X61523318Y-31053891D01*
X61517288Y-31051206D01*
X61423887Y-31031353D01*
X61336944Y-31012872D01*
X61336939Y-31012872D01*
X61330487Y-31011500D01*
X61139513Y-31011500D01*
X61133061Y-31012872D01*
X61133056Y-31012872D01*
X61046113Y-31031353D01*
X60952712Y-31051206D01*
X60946682Y-31053891D01*
X60946681Y-31053891D01*
X60784278Y-31126197D01*
X60784276Y-31126198D01*
X60778248Y-31128882D01*
X60758739Y-31143056D01*
X60745296Y-31152823D01*
X60678428Y-31176681D01*
X60609277Y-31160600D01*
X60597176Y-31152822D01*
X60597099Y-31152766D01*
X60597093Y-31152763D01*
X60591752Y-31148882D01*
X60585724Y-31146198D01*
X60585722Y-31146197D01*
X60423319Y-31073891D01*
X60423318Y-31073891D01*
X60417288Y-31071206D01*
X60316741Y-31049834D01*
X60236944Y-31032872D01*
X60236939Y-31032872D01*
X60230487Y-31031500D01*
X60039513Y-31031500D01*
X60033061Y-31032872D01*
X60033056Y-31032872D01*
X59953259Y-31049834D01*
X59852712Y-31071206D01*
X59846682Y-31073891D01*
X59846681Y-31073891D01*
X59684278Y-31146197D01*
X59684276Y-31146198D01*
X59678248Y-31148882D01*
X59672907Y-31152762D01*
X59672906Y-31152763D01*
X59623193Y-31188882D01*
X59523747Y-31261134D01*
X59519326Y-31266044D01*
X59519325Y-31266045D01*
X59408820Y-31388774D01*
X59395960Y-31403056D01*
X59300473Y-31568444D01*
X59241458Y-31750072D01*
X59240768Y-31756633D01*
X59240768Y-31756635D01*
X59228861Y-31869928D01*
X59221496Y-31940000D01*
X59241458Y-32129928D01*
X59300473Y-32311556D01*
X59395960Y-32476944D01*
X59400378Y-32481851D01*
X59400379Y-32481852D01*
X59428770Y-32513383D01*
X59523747Y-32618866D01*
X59571236Y-32653369D01*
X59669284Y-32724606D01*
X59712638Y-32780829D01*
X59718713Y-32851565D01*
X59683382Y-32916564D01*
X59574679Y-33023014D01*
X59487359Y-33158508D01*
X59484950Y-33165128D01*
X59484948Y-33165131D01*
X59454548Y-33248654D01*
X59412453Y-33305825D01*
X59376753Y-33324837D01*
X59373165Y-33326058D01*
X59233812Y-33373497D01*
X59233809Y-33373498D01*
X59227142Y-33375768D01*
X59221144Y-33379458D01*
X59221142Y-33379459D01*
X59095847Y-33456541D01*
X59095845Y-33456543D01*
X59089848Y-33460232D01*
X58974679Y-33573014D01*
X58887359Y-33708508D01*
X58884950Y-33715128D01*
X58884948Y-33715131D01*
X58846040Y-33822031D01*
X58832227Y-33859981D01*
X58812024Y-34019905D01*
X53771334Y-34019905D01*
X53864040Y-33916944D01*
X53959527Y-33751556D01*
X54018542Y-33569928D01*
X54038504Y-33380000D01*
X54018542Y-33190072D01*
X53959527Y-33008444D01*
X53944666Y-32982704D01*
X53927928Y-32913709D01*
X53951148Y-32846617D01*
X54002537Y-32804597D01*
X54071699Y-32773805D01*
X54071706Y-32773801D01*
X54077732Y-32771118D01*
X54232233Y-32658866D01*
X54297666Y-32586195D01*
X54355601Y-32521852D01*
X54355602Y-32521851D01*
X54360020Y-32516944D01*
X54455507Y-32351556D01*
X54514522Y-32169928D01*
X54534484Y-31980000D01*
X54514522Y-31790072D01*
X54455507Y-31608444D01*
X54360020Y-31443056D01*
X54329153Y-31408774D01*
X54236655Y-31306045D01*
X54236654Y-31306044D01*
X54232233Y-31301134D01*
X54077732Y-31188882D01*
X54071704Y-31186198D01*
X54071702Y-31186197D01*
X53909299Y-31113891D01*
X53909298Y-31113891D01*
X53903268Y-31111206D01*
X53809868Y-31091353D01*
X53722924Y-31072872D01*
X53722919Y-31072872D01*
X53716467Y-31071500D01*
X53525493Y-31071500D01*
X53519041Y-31072872D01*
X53519036Y-31072872D01*
X53432092Y-31091353D01*
X53338692Y-31111206D01*
X53332662Y-31113891D01*
X53332661Y-31113891D01*
X53170258Y-31186197D01*
X53170256Y-31186198D01*
X53164228Y-31188882D01*
X53009727Y-31301134D01*
X53005306Y-31306044D01*
X53005305Y-31306045D01*
X52912808Y-31408774D01*
X52881940Y-31443056D01*
X52786453Y-31608444D01*
X52727438Y-31790072D01*
X52707476Y-31980000D01*
X52727438Y-32169928D01*
X52786453Y-32351556D01*
X52789756Y-32357278D01*
X52789757Y-32357279D01*
X52801314Y-32377296D01*
X52818052Y-32446291D01*
X52794832Y-32513383D01*
X52743443Y-32555403D01*
X52674281Y-32586195D01*
X52674274Y-32586199D01*
X52668248Y-32588882D01*
X52662907Y-32592762D01*
X52662906Y-32592763D01*
X52654506Y-32598866D01*
X52513747Y-32701134D01*
X52509326Y-32706044D01*
X52509325Y-32706045D01*
X52416810Y-32808794D01*
X52385960Y-32843056D01*
X52290473Y-33008444D01*
X52231458Y-33190072D01*
X52211496Y-33380000D01*
X52231458Y-33569928D01*
X52233498Y-33576206D01*
X52288431Y-33745271D01*
X52290473Y-33751556D01*
X52291500Y-33753335D01*
X52300709Y-33822031D01*
X52270600Y-33886327D01*
X52227416Y-33918016D01*
X52074281Y-33986195D01*
X52074274Y-33986199D01*
X52068248Y-33988882D01*
X51913747Y-34101134D01*
X51909326Y-34106044D01*
X51909325Y-34106045D01*
X51822172Y-34202839D01*
X51785960Y-34243056D01*
X51690473Y-34408444D01*
X51631458Y-34590072D01*
X51630768Y-34596633D01*
X51630768Y-34596635D01*
X51621286Y-34686856D01*
X51611496Y-34780000D01*
X43982391Y-34780000D01*
X43982643Y-31680000D01*
X45006496Y-31680000D01*
X45007186Y-31686565D01*
X45014551Y-31756635D01*
X45026458Y-31869928D01*
X45085473Y-32051556D01*
X45180960Y-32216944D01*
X45308747Y-32358866D01*
X45463248Y-32471118D01*
X45469276Y-32473802D01*
X45469278Y-32473803D01*
X45553332Y-32511226D01*
X45637712Y-32548794D01*
X45731113Y-32568647D01*
X45818056Y-32587128D01*
X45818061Y-32587128D01*
X45824513Y-32588500D01*
X46015487Y-32588500D01*
X46021939Y-32587128D01*
X46021944Y-32587128D01*
X46108887Y-32568647D01*
X46202288Y-32548794D01*
X46286668Y-32511226D01*
X46370722Y-32473803D01*
X46370724Y-32473802D01*
X46376752Y-32471118D01*
X46531253Y-32358866D01*
X46659040Y-32216944D01*
X46754527Y-32051556D01*
X46813542Y-31869928D01*
X46825450Y-31756635D01*
X46832814Y-31686565D01*
X46833504Y-31680000D01*
X46813542Y-31490072D01*
X46754527Y-31308444D01*
X46659040Y-31143056D01*
X46531253Y-31001134D01*
X46376752Y-30888882D01*
X46374674Y-30887957D01*
X46326788Y-30837733D01*
X46313354Y-30768019D01*
X46339743Y-30702109D01*
X46374195Y-30672256D01*
X46376752Y-30671118D01*
X46531253Y-30558866D01*
X46659040Y-30416944D01*
X46754527Y-30251556D01*
X46813542Y-30069928D01*
X46833504Y-29880000D01*
X46813542Y-29690072D01*
X46754527Y-29508444D01*
X46659040Y-29343056D01*
X46531253Y-29201134D01*
X46376752Y-29088882D01*
X46370724Y-29086198D01*
X46370722Y-29086197D01*
X46208319Y-29013891D01*
X46208318Y-29013891D01*
X46202288Y-29011206D01*
X46108888Y-28991353D01*
X46021944Y-28972872D01*
X46021939Y-28972872D01*
X46015487Y-28971500D01*
X45824513Y-28971500D01*
X45818061Y-28972872D01*
X45818056Y-28972872D01*
X45731112Y-28991353D01*
X45637712Y-29011206D01*
X45631682Y-29013891D01*
X45631681Y-29013891D01*
X45469278Y-29086197D01*
X45469276Y-29086198D01*
X45463248Y-29088882D01*
X45308747Y-29201134D01*
X45180960Y-29343056D01*
X45085473Y-29508444D01*
X45026458Y-29690072D01*
X45006496Y-29880000D01*
X45026458Y-30069928D01*
X45085473Y-30251556D01*
X45180960Y-30416944D01*
X45308747Y-30558866D01*
X45463248Y-30671118D01*
X45465326Y-30672043D01*
X45513212Y-30722267D01*
X45526646Y-30791981D01*
X45500257Y-30857891D01*
X45465805Y-30887744D01*
X45463248Y-30888882D01*
X45308747Y-31001134D01*
X45180960Y-31143056D01*
X45085473Y-31308444D01*
X45026458Y-31490072D01*
X45006496Y-31680000D01*
X43982643Y-31680000D01*
X43982949Y-27913990D01*
X44002957Y-27845871D01*
X44056616Y-27799382D01*
X44108949Y-27788000D01*
X75341052Y-27788000D01*
X75409173Y-27808002D01*
G37*
%TD.AperFunction*%
%TD*%
M02*
