%TF.GenerationSoftware,KiCad,Pcbnew,(6.0.1)*%
%TF.CreationDate,2022-02-05T18:26:11+11:00*%
%TF.ProjectId,ESP32_LED_Controller_v1,45535033-325f-44c4-9544-5f436f6e7472,rev?*%
%TF.SameCoordinates,Original*%
%TF.FileFunction,Legend,Bot*%
%TF.FilePolarity,Positive*%
%FSLAX46Y46*%
G04 Gerber Fmt 4.6, Leading zero omitted, Abs format (unit mm)*
G04 Created by KiCad (PCBNEW (6.0.1)) date 2022-02-05 18:26:11*
%MOMM*%
%LPD*%
G01*
G04 APERTURE LIST*
%ADD10C,0.100000*%
%ADD11C,4.050000*%
%ADD12C,0.150000*%
%ADD13C,0.070000*%
%ADD14C,0.120000*%
G04 APERTURE END LIST*
D10*
X50725000Y-72180000D02*
X70725000Y-72180000D01*
X70725000Y-72180000D02*
X72725000Y-70180000D01*
X72725000Y-70180000D02*
X72725000Y-64180000D01*
X72725000Y-64180000D02*
X50725000Y-64180000D01*
X50725000Y-64180000D02*
X50725000Y-72180000D01*
G36*
X72725000Y-70180000D02*
G01*
X70725000Y-72180000D01*
X50725000Y-72180000D01*
X50725000Y-64180000D01*
X72725000Y-64180000D01*
X72725000Y-70180000D01*
G37*
X72725000Y-70180000D02*
X70725000Y-72180000D01*
X50725000Y-72180000D01*
X50725000Y-64180000D01*
X72725000Y-64180000D01*
X72725000Y-70180000D01*
D11*
X52750000Y-68180000D02*
G75*
G03*
X52750000Y-68180000I-2025000J0D01*
G01*
D12*
X61527380Y-75115833D02*
X60527380Y-75115833D01*
X61003571Y-75115833D02*
X61003571Y-75687261D01*
X61527380Y-75687261D02*
X60527380Y-75687261D01*
X60527380Y-76020595D02*
X61527380Y-76353928D01*
X60527380Y-76687261D01*
X70105952Y-31467380D02*
X70582142Y-31467380D01*
X70582142Y-30467380D01*
X69772619Y-31467380D02*
X69772619Y-30800714D01*
X69772619Y-30467380D02*
X69820238Y-30515000D01*
X69772619Y-30562619D01*
X69725000Y-30515000D01*
X69772619Y-30467380D01*
X69772619Y-30562619D01*
X68867857Y-31467380D02*
X68867857Y-30943571D01*
X68915476Y-30848333D01*
X69010714Y-30800714D01*
X69201190Y-30800714D01*
X69296428Y-30848333D01*
X68867857Y-31419761D02*
X68963095Y-31467380D01*
X69201190Y-31467380D01*
X69296428Y-31419761D01*
X69344047Y-31324523D01*
X69344047Y-31229285D01*
X69296428Y-31134047D01*
X69201190Y-31086428D01*
X68963095Y-31086428D01*
X68867857Y-31038809D01*
X68391666Y-31467380D02*
X68391666Y-30800714D01*
X68391666Y-30895952D02*
X68344047Y-30848333D01*
X68248809Y-30800714D01*
X68105952Y-30800714D01*
X68010714Y-30848333D01*
X67963095Y-30943571D01*
X67963095Y-31467380D01*
X67963095Y-30943571D02*
X67915476Y-30848333D01*
X67820238Y-30800714D01*
X67677380Y-30800714D01*
X67582142Y-30848333D01*
X67534523Y-30943571D01*
X67534523Y-31467380D01*
X66296428Y-31467380D02*
X66296428Y-30467380D01*
X66296428Y-30943571D02*
X65725000Y-30943571D01*
X65725000Y-31467380D02*
X65725000Y-30467380D01*
X65105952Y-31467380D02*
X65201190Y-31419761D01*
X65248809Y-31372142D01*
X65296428Y-31276904D01*
X65296428Y-30991190D01*
X65248809Y-30895952D01*
X65201190Y-30848333D01*
X65105952Y-30800714D01*
X64963095Y-30800714D01*
X64867857Y-30848333D01*
X64820238Y-30895952D01*
X64772619Y-30991190D01*
X64772619Y-31276904D01*
X64820238Y-31372142D01*
X64867857Y-31419761D01*
X64963095Y-31467380D01*
X65105952Y-31467380D01*
X64439285Y-30800714D02*
X64248809Y-31467380D01*
X64058333Y-30991190D01*
X63867857Y-31467380D01*
X63677380Y-30800714D01*
X62915476Y-31419761D02*
X63010714Y-31467380D01*
X63201190Y-31467380D01*
X63296428Y-31419761D01*
X63344047Y-31324523D01*
X63344047Y-30943571D01*
X63296428Y-30848333D01*
X63201190Y-30800714D01*
X63010714Y-30800714D01*
X62915476Y-30848333D01*
X62867857Y-30943571D01*
X62867857Y-31038809D01*
X63344047Y-31134047D01*
X62296428Y-31467380D02*
X62391666Y-31419761D01*
X62439285Y-31324523D01*
X62439285Y-30467380D01*
X61772619Y-31467380D02*
X61867857Y-31419761D01*
X61915476Y-31324523D01*
X61915476Y-30467380D01*
X71010714Y-31795000D02*
X69867857Y-31795000D01*
X70867857Y-32077380D02*
X70629761Y-33077380D01*
X70439285Y-32363095D01*
X70248809Y-33077380D01*
X70010714Y-32077380D01*
X69867857Y-31795000D02*
X69391666Y-31795000D01*
X69629761Y-33077380D02*
X69629761Y-32410714D01*
X69629761Y-32077380D02*
X69677380Y-32125000D01*
X69629761Y-32172619D01*
X69582142Y-32125000D01*
X69629761Y-32077380D01*
X69629761Y-32172619D01*
X69391666Y-31795000D02*
X68772619Y-31795000D01*
X69153571Y-33077380D02*
X69153571Y-32410714D01*
X69153571Y-32601190D02*
X69105952Y-32505952D01*
X69058333Y-32458333D01*
X68963095Y-32410714D01*
X68867857Y-32410714D01*
X68772619Y-31795000D02*
X67915476Y-31795000D01*
X68153571Y-33029761D02*
X68248809Y-33077380D01*
X68439285Y-33077380D01*
X68534523Y-33029761D01*
X68582142Y-32934523D01*
X68582142Y-32553571D01*
X68534523Y-32458333D01*
X68439285Y-32410714D01*
X68248809Y-32410714D01*
X68153571Y-32458333D01*
X68105952Y-32553571D01*
X68105952Y-32648809D01*
X68582142Y-32744047D01*
X67915476Y-31795000D02*
X67391666Y-31795000D01*
X67534523Y-33077380D02*
X67629761Y-33029761D01*
X67677380Y-32934523D01*
X67677380Y-32077380D01*
X67391666Y-31795000D02*
X66534523Y-31795000D01*
X66772619Y-33029761D02*
X66867857Y-33077380D01*
X67058333Y-33077380D01*
X67153571Y-33029761D01*
X67201190Y-32934523D01*
X67201190Y-32553571D01*
X67153571Y-32458333D01*
X67058333Y-32410714D01*
X66867857Y-32410714D01*
X66772619Y-32458333D01*
X66725000Y-32553571D01*
X66725000Y-32648809D01*
X67201190Y-32744047D01*
X66534523Y-31795000D02*
X65725000Y-31795000D01*
X66344047Y-33029761D02*
X66248809Y-33077380D01*
X66058333Y-33077380D01*
X65963095Y-33029761D01*
X65915476Y-32934523D01*
X65915476Y-32886904D01*
X65963095Y-32791666D01*
X66058333Y-32744047D01*
X66201190Y-32744047D01*
X66296428Y-32696428D01*
X66344047Y-32601190D01*
X66344047Y-32553571D01*
X66296428Y-32458333D01*
X66201190Y-32410714D01*
X66058333Y-32410714D01*
X65963095Y-32458333D01*
X65725000Y-31795000D02*
X64915476Y-31795000D01*
X65534523Y-33029761D02*
X65439285Y-33077380D01*
X65248809Y-33077380D01*
X65153571Y-33029761D01*
X65105952Y-32934523D01*
X65105952Y-32886904D01*
X65153571Y-32791666D01*
X65248809Y-32744047D01*
X65391666Y-32744047D01*
X65486904Y-32696428D01*
X65534523Y-32601190D01*
X65534523Y-32553571D01*
X65486904Y-32458333D01*
X65391666Y-32410714D01*
X65248809Y-32410714D01*
X65153571Y-32458333D01*
X64915476Y-31795000D02*
X64153571Y-31795000D01*
X64153571Y-31795000D02*
X63344047Y-31795000D01*
X63439285Y-33077380D02*
X63915476Y-33077380D01*
X63915476Y-32077380D01*
X63344047Y-31795000D02*
X62439285Y-31795000D01*
X63105952Y-32553571D02*
X62772619Y-32553571D01*
X62629761Y-33077380D02*
X63105952Y-33077380D01*
X63105952Y-32077380D01*
X62629761Y-32077380D01*
X62439285Y-31795000D02*
X61439285Y-31795000D01*
X62201190Y-33077380D02*
X62201190Y-32077380D01*
X61963095Y-32077380D01*
X61820238Y-32125000D01*
X61725000Y-32220238D01*
X61677380Y-32315476D01*
X61629761Y-32505952D01*
X61629761Y-32648809D01*
X61677380Y-32839285D01*
X61725000Y-32934523D01*
X61820238Y-33029761D01*
X61963095Y-33077380D01*
X62201190Y-33077380D01*
X69129761Y-34592142D02*
X69177380Y-34639761D01*
X69320238Y-34687380D01*
X69415476Y-34687380D01*
X69558333Y-34639761D01*
X69653571Y-34544523D01*
X69701190Y-34449285D01*
X69748809Y-34258809D01*
X69748809Y-34115952D01*
X69701190Y-33925476D01*
X69653571Y-33830238D01*
X69558333Y-33735000D01*
X69415476Y-33687380D01*
X69320238Y-33687380D01*
X69177380Y-33735000D01*
X69129761Y-33782619D01*
X68558333Y-34687380D02*
X68653571Y-34639761D01*
X68701190Y-34592142D01*
X68748809Y-34496904D01*
X68748809Y-34211190D01*
X68701190Y-34115952D01*
X68653571Y-34068333D01*
X68558333Y-34020714D01*
X68415476Y-34020714D01*
X68320238Y-34068333D01*
X68272619Y-34115952D01*
X68225000Y-34211190D01*
X68225000Y-34496904D01*
X68272619Y-34592142D01*
X68320238Y-34639761D01*
X68415476Y-34687380D01*
X68558333Y-34687380D01*
X67796428Y-34020714D02*
X67796428Y-34687380D01*
X67796428Y-34115952D02*
X67748809Y-34068333D01*
X67653571Y-34020714D01*
X67510714Y-34020714D01*
X67415476Y-34068333D01*
X67367857Y-34163571D01*
X67367857Y-34687380D01*
X67034523Y-34020714D02*
X66653571Y-34020714D01*
X66891666Y-33687380D02*
X66891666Y-34544523D01*
X66844047Y-34639761D01*
X66748809Y-34687380D01*
X66653571Y-34687380D01*
X66320238Y-34687380D02*
X66320238Y-34020714D01*
X66320238Y-34211190D02*
X66272619Y-34115952D01*
X66225000Y-34068333D01*
X66129761Y-34020714D01*
X66034523Y-34020714D01*
X65558333Y-34687380D02*
X65653571Y-34639761D01*
X65701190Y-34592142D01*
X65748809Y-34496904D01*
X65748809Y-34211190D01*
X65701190Y-34115952D01*
X65653571Y-34068333D01*
X65558333Y-34020714D01*
X65415476Y-34020714D01*
X65320238Y-34068333D01*
X65272619Y-34115952D01*
X65225000Y-34211190D01*
X65225000Y-34496904D01*
X65272619Y-34592142D01*
X65320238Y-34639761D01*
X65415476Y-34687380D01*
X65558333Y-34687380D01*
X64653571Y-34687380D02*
X64748809Y-34639761D01*
X64796428Y-34544523D01*
X64796428Y-33687380D01*
X64129761Y-34687380D02*
X64225000Y-34639761D01*
X64272619Y-34544523D01*
X64272619Y-33687380D01*
X63367857Y-34639761D02*
X63463095Y-34687380D01*
X63653571Y-34687380D01*
X63748809Y-34639761D01*
X63796428Y-34544523D01*
X63796428Y-34163571D01*
X63748809Y-34068333D01*
X63653571Y-34020714D01*
X63463095Y-34020714D01*
X63367857Y-34068333D01*
X63320238Y-34163571D01*
X63320238Y-34258809D01*
X63796428Y-34354047D01*
X62891666Y-34687380D02*
X62891666Y-34020714D01*
X62891666Y-34211190D02*
X62844047Y-34115952D01*
X62796428Y-34068333D01*
X62701190Y-34020714D01*
X62605952Y-34020714D01*
X70129761Y-35015000D02*
X69177380Y-35015000D01*
X69701190Y-35297380D02*
X69605952Y-35297380D01*
X69510714Y-35345000D01*
X69463095Y-35392619D01*
X69415476Y-35487857D01*
X69367857Y-35678333D01*
X69367857Y-35916428D01*
X69415476Y-36106904D01*
X69463095Y-36202142D01*
X69510714Y-36249761D01*
X69605952Y-36297380D01*
X69701190Y-36297380D01*
X69796428Y-36249761D01*
X69844047Y-36202142D01*
X69891666Y-36106904D01*
X69939285Y-35916428D01*
X69939285Y-35678333D01*
X69891666Y-35487857D01*
X69844047Y-35392619D01*
X69796428Y-35345000D01*
X69701190Y-35297380D01*
X69177380Y-35015000D02*
X68225000Y-35015000D01*
X69034523Y-35297380D02*
X68415476Y-35297380D01*
X68748809Y-35678333D01*
X68605952Y-35678333D01*
X68510714Y-35725952D01*
X68463095Y-35773571D01*
X68415476Y-35868809D01*
X68415476Y-36106904D01*
X68463095Y-36202142D01*
X68510714Y-36249761D01*
X68605952Y-36297380D01*
X68891666Y-36297380D01*
X68986904Y-36249761D01*
X69034523Y-36202142D01*
X68225000Y-35015000D02*
X67177380Y-35015000D01*
X67272619Y-35249761D02*
X68129761Y-36535476D01*
X67177380Y-35015000D02*
X66225000Y-35015000D01*
X66748809Y-35297380D02*
X66653571Y-35297380D01*
X66558333Y-35345000D01*
X66510714Y-35392619D01*
X66463095Y-35487857D01*
X66415476Y-35678333D01*
X66415476Y-35916428D01*
X66463095Y-36106904D01*
X66510714Y-36202142D01*
X66558333Y-36249761D01*
X66653571Y-36297380D01*
X66748809Y-36297380D01*
X66844047Y-36249761D01*
X66891666Y-36202142D01*
X66939285Y-36106904D01*
X66986904Y-35916428D01*
X66986904Y-35678333D01*
X66939285Y-35487857D01*
X66891666Y-35392619D01*
X66844047Y-35345000D01*
X66748809Y-35297380D01*
X66225000Y-35015000D02*
X65272619Y-35015000D01*
X66034523Y-35392619D02*
X65986904Y-35345000D01*
X65891666Y-35297380D01*
X65653571Y-35297380D01*
X65558333Y-35345000D01*
X65510714Y-35392619D01*
X65463095Y-35487857D01*
X65463095Y-35583095D01*
X65510714Y-35725952D01*
X66082142Y-36297380D01*
X65463095Y-36297380D01*
X65272619Y-35015000D02*
X64225000Y-35015000D01*
X64320238Y-35249761D02*
X65177380Y-36535476D01*
X64225000Y-35015000D02*
X63272619Y-35015000D01*
X64034523Y-35392619D02*
X63986904Y-35345000D01*
X63891666Y-35297380D01*
X63653571Y-35297380D01*
X63558333Y-35345000D01*
X63510714Y-35392619D01*
X63463095Y-35487857D01*
X63463095Y-35583095D01*
X63510714Y-35725952D01*
X64082142Y-36297380D01*
X63463095Y-36297380D01*
X63272619Y-35015000D02*
X62320238Y-35015000D01*
X63082142Y-35392619D02*
X63034523Y-35345000D01*
X62939285Y-35297380D01*
X62701190Y-35297380D01*
X62605952Y-35345000D01*
X62558333Y-35392619D01*
X62510714Y-35487857D01*
X62510714Y-35583095D01*
X62558333Y-35725952D01*
X63129761Y-36297380D01*
X62510714Y-36297380D01*
D10*
X73736904Y-76122857D02*
X73736904Y-76275238D01*
X73775000Y-76351428D01*
X73851190Y-76427619D01*
X74003571Y-76465714D01*
X74270238Y-76465714D01*
X74422619Y-76427619D01*
X74498809Y-76351428D01*
X74536904Y-76275238D01*
X74536904Y-76122857D01*
X74498809Y-76046666D01*
X74422619Y-75970476D01*
X74270238Y-75932380D01*
X74003571Y-75932380D01*
X73851190Y-75970476D01*
X73775000Y-76046666D01*
X73736904Y-76122857D01*
X74536904Y-76808571D02*
X73736904Y-76808571D01*
X74536904Y-77265714D01*
X73736904Y-77265714D01*
X74117857Y-77646666D02*
X74117857Y-77913333D01*
X74536904Y-78027619D02*
X74536904Y-77646666D01*
X73736904Y-77646666D01*
X73736904Y-78027619D01*
X73736904Y-79132380D02*
X73736904Y-79284761D01*
X73775000Y-79360952D01*
X73851190Y-79437142D01*
X74003571Y-79475238D01*
X74270238Y-79475238D01*
X74422619Y-79437142D01*
X74498809Y-79360952D01*
X74536904Y-79284761D01*
X74536904Y-79132380D01*
X74498809Y-79056190D01*
X74422619Y-78980000D01*
X74270238Y-78941904D01*
X74003571Y-78941904D01*
X73851190Y-78980000D01*
X73775000Y-79056190D01*
X73736904Y-79132380D01*
X74536904Y-79818095D02*
X73736904Y-79818095D01*
X74536904Y-80275238D01*
X73736904Y-80275238D01*
X74536904Y-81037142D02*
X74536904Y-80656190D01*
X73736904Y-80656190D01*
X74155952Y-81456190D02*
X74536904Y-81456190D01*
X73736904Y-81189523D02*
X74155952Y-81456190D01*
X73736904Y-81722857D01*
X74460714Y-81989523D02*
X74498809Y-82027619D01*
X74536904Y-81989523D01*
X74498809Y-81951428D01*
X74460714Y-81989523D01*
X74536904Y-81989523D01*
X74232142Y-81989523D02*
X73775000Y-81951428D01*
X73736904Y-81989523D01*
X73775000Y-82027619D01*
X74232142Y-81989523D01*
X73736904Y-81989523D01*
D12*
X50796428Y-46280000D02*
X52296428Y-46280000D01*
X52296428Y-45280000D02*
X52296428Y-44994285D01*
X52225000Y-44851428D01*
X52082142Y-44708571D01*
X51796428Y-44637142D01*
X51296428Y-44637142D01*
X51010714Y-44708571D01*
X50867857Y-44851428D01*
X50796428Y-44994285D01*
X50796428Y-45280000D01*
X50867857Y-45422857D01*
X51010714Y-45565714D01*
X51296428Y-45637142D01*
X51796428Y-45637142D01*
X52082142Y-45565714D01*
X52225000Y-45422857D01*
X52296428Y-45280000D01*
X52296428Y-43351428D02*
X52296428Y-43637142D01*
X52225000Y-43780000D01*
X52153571Y-43851428D01*
X51939285Y-43994285D01*
X51653571Y-44065714D01*
X51082142Y-44065714D01*
X50939285Y-43994285D01*
X50867857Y-43922857D01*
X50796428Y-43780000D01*
X50796428Y-43494285D01*
X50867857Y-43351428D01*
X50939285Y-43280000D01*
X51082142Y-43208571D01*
X51439285Y-43208571D01*
X51582142Y-43280000D01*
X51653571Y-43351428D01*
X51725000Y-43494285D01*
X51725000Y-43780000D01*
X51653571Y-43922857D01*
X51582142Y-43994285D01*
X51439285Y-44065714D01*
D13*
X77948809Y-80430000D02*
X78448809Y-80430000D01*
X78448809Y-80310952D01*
X78425000Y-80239523D01*
X78377380Y-80191904D01*
X78329761Y-80168095D01*
X78234523Y-80144285D01*
X78163095Y-80144285D01*
X78067857Y-80168095D01*
X78020238Y-80191904D01*
X77972619Y-80239523D01*
X77948809Y-80310952D01*
X77948809Y-80430000D01*
X77948809Y-79930000D02*
X78282142Y-79930000D01*
X78448809Y-79930000D02*
X78425000Y-79953809D01*
X78401190Y-79930000D01*
X78425000Y-79906190D01*
X78448809Y-79930000D01*
X78401190Y-79930000D01*
X78282142Y-79691904D02*
X77948809Y-79691904D01*
X78234523Y-79691904D02*
X78258333Y-79668095D01*
X78282142Y-79620476D01*
X78282142Y-79549047D01*
X78258333Y-79501428D01*
X78210714Y-79477619D01*
X77948809Y-79477619D01*
X77972619Y-78882380D02*
X77948809Y-78810952D01*
X77948809Y-78691904D01*
X77972619Y-78644285D01*
X77996428Y-78620476D01*
X78044047Y-78596666D01*
X78091666Y-78596666D01*
X78139285Y-78620476D01*
X78163095Y-78644285D01*
X78186904Y-78691904D01*
X78210714Y-78787142D01*
X78234523Y-78834761D01*
X78258333Y-78858571D01*
X78305952Y-78882380D01*
X78353571Y-78882380D01*
X78401190Y-78858571D01*
X78425000Y-78834761D01*
X78448809Y-78787142D01*
X78448809Y-78668095D01*
X78425000Y-78596666D01*
X77972619Y-78191904D02*
X77948809Y-78239523D01*
X77948809Y-78334761D01*
X77972619Y-78382380D01*
X78020238Y-78406190D01*
X78210714Y-78406190D01*
X78258333Y-78382380D01*
X78282142Y-78334761D01*
X78282142Y-78239523D01*
X78258333Y-78191904D01*
X78210714Y-78168095D01*
X78163095Y-78168095D01*
X78115476Y-78406190D01*
X77948809Y-77882380D02*
X77972619Y-77930000D01*
X78020238Y-77953809D01*
X78448809Y-77953809D01*
X75927380Y-75953809D02*
X75689285Y-75953809D01*
X75689285Y-76453809D01*
X76332142Y-75953809D02*
X76094047Y-75953809D01*
X76094047Y-76453809D01*
X76784523Y-76001428D02*
X76760714Y-75977619D01*
X76689285Y-75953809D01*
X76641666Y-75953809D01*
X76570238Y-75977619D01*
X76522619Y-76025238D01*
X76498809Y-76072857D01*
X76475000Y-76168095D01*
X76475000Y-76239523D01*
X76498809Y-76334761D01*
X76522619Y-76382380D01*
X76570238Y-76430000D01*
X76641666Y-76453809D01*
X76689285Y-76453809D01*
X76760714Y-76430000D01*
X76784523Y-76406190D01*
X74522619Y-37322857D02*
X74522619Y-37727619D01*
X74546428Y-37775238D01*
X74570238Y-37799047D01*
X74617857Y-37822857D01*
X74689285Y-37822857D01*
X74736904Y-37799047D01*
X74522619Y-37632380D02*
X74570238Y-37656190D01*
X74665476Y-37656190D01*
X74713095Y-37632380D01*
X74736904Y-37608571D01*
X74760714Y-37560952D01*
X74760714Y-37418095D01*
X74736904Y-37370476D01*
X74713095Y-37346666D01*
X74665476Y-37322857D01*
X74570238Y-37322857D01*
X74522619Y-37346666D01*
X74284523Y-37656190D02*
X74284523Y-37322857D01*
X74284523Y-37156190D02*
X74308333Y-37180000D01*
X74284523Y-37203809D01*
X74260714Y-37180000D01*
X74284523Y-37156190D01*
X74284523Y-37203809D01*
X74117857Y-37322857D02*
X73927380Y-37322857D01*
X74046428Y-37156190D02*
X74046428Y-37584761D01*
X74022619Y-37632380D01*
X73975000Y-37656190D01*
X73927380Y-37656190D01*
X73760714Y-37656190D02*
X73760714Y-37156190D01*
X73546428Y-37656190D02*
X73546428Y-37394285D01*
X73570238Y-37346666D01*
X73617857Y-37322857D01*
X73689285Y-37322857D01*
X73736904Y-37346666D01*
X73760714Y-37370476D01*
X73094047Y-37322857D02*
X73094047Y-37656190D01*
X73308333Y-37322857D02*
X73308333Y-37584761D01*
X73284523Y-37632380D01*
X73236904Y-37656190D01*
X73165476Y-37656190D01*
X73117857Y-37632380D01*
X73094047Y-37608571D01*
X72855952Y-37656190D02*
X72855952Y-37156190D01*
X72855952Y-37346666D02*
X72808333Y-37322857D01*
X72713095Y-37322857D01*
X72665476Y-37346666D01*
X72641666Y-37370476D01*
X72617857Y-37418095D01*
X72617857Y-37560952D01*
X72641666Y-37608571D01*
X72665476Y-37632380D01*
X72713095Y-37656190D01*
X72808333Y-37656190D01*
X72855952Y-37632380D01*
X72403571Y-37608571D02*
X72379761Y-37632380D01*
X72403571Y-37656190D01*
X72427380Y-37632380D01*
X72403571Y-37608571D01*
X72403571Y-37656190D01*
X71951190Y-37632380D02*
X71998809Y-37656190D01*
X72094047Y-37656190D01*
X72141666Y-37632380D01*
X72165476Y-37608571D01*
X72189285Y-37560952D01*
X72189285Y-37418095D01*
X72165476Y-37370476D01*
X72141666Y-37346666D01*
X72094047Y-37322857D01*
X71998809Y-37322857D01*
X71951190Y-37346666D01*
X71665476Y-37656190D02*
X71713095Y-37632380D01*
X71736904Y-37608571D01*
X71760714Y-37560952D01*
X71760714Y-37418095D01*
X71736904Y-37370476D01*
X71713095Y-37346666D01*
X71665476Y-37322857D01*
X71594047Y-37322857D01*
X71546428Y-37346666D01*
X71522619Y-37370476D01*
X71498809Y-37418095D01*
X71498809Y-37560952D01*
X71522619Y-37608571D01*
X71546428Y-37632380D01*
X71594047Y-37656190D01*
X71665476Y-37656190D01*
X71284523Y-37656190D02*
X71284523Y-37322857D01*
X71284523Y-37370476D02*
X71260714Y-37346666D01*
X71213095Y-37322857D01*
X71141666Y-37322857D01*
X71094047Y-37346666D01*
X71070238Y-37394285D01*
X71070238Y-37656190D01*
X71070238Y-37394285D02*
X71046428Y-37346666D01*
X70998809Y-37322857D01*
X70927380Y-37322857D01*
X70879761Y-37346666D01*
X70855952Y-37394285D01*
X70855952Y-37656190D01*
X70260714Y-37132380D02*
X70689285Y-37775238D01*
X69855952Y-37656190D02*
X70094047Y-37656190D01*
X70094047Y-37156190D01*
X69689285Y-37656190D02*
X69689285Y-37322857D01*
X69689285Y-37156190D02*
X69713095Y-37180000D01*
X69689285Y-37203809D01*
X69665476Y-37180000D01*
X69689285Y-37156190D01*
X69689285Y-37203809D01*
X69236904Y-37656190D02*
X69236904Y-37394285D01*
X69260714Y-37346666D01*
X69308333Y-37322857D01*
X69403571Y-37322857D01*
X69451190Y-37346666D01*
X69236904Y-37632380D02*
X69284523Y-37656190D01*
X69403571Y-37656190D01*
X69451190Y-37632380D01*
X69475000Y-37584761D01*
X69475000Y-37537142D01*
X69451190Y-37489523D01*
X69403571Y-37465714D01*
X69284523Y-37465714D01*
X69236904Y-37441904D01*
X68998809Y-37656190D02*
X68998809Y-37322857D01*
X68998809Y-37370476D02*
X68975000Y-37346666D01*
X68927380Y-37322857D01*
X68855952Y-37322857D01*
X68808333Y-37346666D01*
X68784523Y-37394285D01*
X68784523Y-37656190D01*
X68784523Y-37394285D02*
X68760714Y-37346666D01*
X68713095Y-37322857D01*
X68641666Y-37322857D01*
X68594047Y-37346666D01*
X68570238Y-37394285D01*
X68570238Y-37656190D01*
X68332142Y-37656190D02*
X68332142Y-37156190D01*
X68332142Y-37394285D02*
X68046428Y-37394285D01*
X68046428Y-37656190D02*
X68046428Y-37156190D01*
X67736904Y-37656190D02*
X67784523Y-37632380D01*
X67808333Y-37608571D01*
X67832142Y-37560952D01*
X67832142Y-37418095D01*
X67808333Y-37370476D01*
X67784523Y-37346666D01*
X67736904Y-37322857D01*
X67665476Y-37322857D01*
X67617857Y-37346666D01*
X67594047Y-37370476D01*
X67570238Y-37418095D01*
X67570238Y-37560952D01*
X67594047Y-37608571D01*
X67617857Y-37632380D01*
X67665476Y-37656190D01*
X67736904Y-37656190D01*
X67403571Y-37322857D02*
X67308333Y-37656190D01*
X67213095Y-37418095D01*
X67117857Y-37656190D01*
X67022619Y-37322857D01*
X66641666Y-37632380D02*
X66689285Y-37656190D01*
X66784523Y-37656190D01*
X66832142Y-37632380D01*
X66855952Y-37584761D01*
X66855952Y-37394285D01*
X66832142Y-37346666D01*
X66784523Y-37322857D01*
X66689285Y-37322857D01*
X66641666Y-37346666D01*
X66617857Y-37394285D01*
X66617857Y-37441904D01*
X66855952Y-37489523D01*
X66332142Y-37656190D02*
X66379761Y-37632380D01*
X66403571Y-37584761D01*
X66403571Y-37156190D01*
X66070238Y-37656190D02*
X66117857Y-37632380D01*
X66141666Y-37584761D01*
X66141666Y-37156190D01*
X65522619Y-37132380D02*
X65951190Y-37775238D01*
X65403571Y-37156190D02*
X65284523Y-37656190D01*
X65189285Y-37299047D01*
X65094047Y-37656190D01*
X64975000Y-37156190D01*
X64784523Y-37656190D02*
X64784523Y-37322857D01*
X64784523Y-37156190D02*
X64808333Y-37180000D01*
X64784523Y-37203809D01*
X64760714Y-37180000D01*
X64784523Y-37156190D01*
X64784523Y-37203809D01*
X64546428Y-37656190D02*
X64546428Y-37322857D01*
X64546428Y-37418095D02*
X64522619Y-37370476D01*
X64498809Y-37346666D01*
X64451190Y-37322857D01*
X64403571Y-37322857D01*
X64046428Y-37632380D02*
X64094047Y-37656190D01*
X64189285Y-37656190D01*
X64236904Y-37632380D01*
X64260714Y-37584761D01*
X64260714Y-37394285D01*
X64236904Y-37346666D01*
X64189285Y-37322857D01*
X64094047Y-37322857D01*
X64046428Y-37346666D01*
X64022619Y-37394285D01*
X64022619Y-37441904D01*
X64260714Y-37489523D01*
X63736904Y-37656190D02*
X63784523Y-37632380D01*
X63808333Y-37584761D01*
X63808333Y-37156190D01*
X63355952Y-37632380D02*
X63403571Y-37656190D01*
X63498809Y-37656190D01*
X63546428Y-37632380D01*
X63570238Y-37584761D01*
X63570238Y-37394285D01*
X63546428Y-37346666D01*
X63498809Y-37322857D01*
X63403571Y-37322857D01*
X63355952Y-37346666D01*
X63332142Y-37394285D01*
X63332142Y-37441904D01*
X63570238Y-37489523D01*
X63141666Y-37632380D02*
X63094047Y-37656190D01*
X62998809Y-37656190D01*
X62951190Y-37632380D01*
X62927380Y-37584761D01*
X62927380Y-37560952D01*
X62951190Y-37513333D01*
X62998809Y-37489523D01*
X63070238Y-37489523D01*
X63117857Y-37465714D01*
X63141666Y-37418095D01*
X63141666Y-37394285D01*
X63117857Y-37346666D01*
X63070238Y-37322857D01*
X62998809Y-37322857D01*
X62951190Y-37346666D01*
X62736904Y-37632380D02*
X62689285Y-37656190D01*
X62594047Y-37656190D01*
X62546428Y-37632380D01*
X62522619Y-37584761D01*
X62522619Y-37560952D01*
X62546428Y-37513333D01*
X62594047Y-37489523D01*
X62665476Y-37489523D01*
X62713095Y-37465714D01*
X62736904Y-37418095D01*
X62736904Y-37394285D01*
X62713095Y-37346666D01*
X62665476Y-37322857D01*
X62594047Y-37322857D01*
X62546428Y-37346666D01*
X62427380Y-37703809D02*
X62046428Y-37703809D01*
X61689285Y-37656190D02*
X61927380Y-37656190D01*
X61927380Y-37156190D01*
X61522619Y-37394285D02*
X61355952Y-37394285D01*
X61284523Y-37656190D02*
X61522619Y-37656190D01*
X61522619Y-37156190D01*
X61284523Y-37156190D01*
X61070238Y-37656190D02*
X61070238Y-37156190D01*
X60951190Y-37156190D01*
X60879761Y-37180000D01*
X60832142Y-37227619D01*
X60808333Y-37275238D01*
X60784523Y-37370476D01*
X60784523Y-37441904D01*
X60808333Y-37537142D01*
X60832142Y-37584761D01*
X60879761Y-37632380D01*
X60951190Y-37656190D01*
X61070238Y-37656190D01*
X60689285Y-37703809D02*
X60308333Y-37703809D01*
X59903571Y-37608571D02*
X59927380Y-37632380D01*
X59998809Y-37656190D01*
X60046428Y-37656190D01*
X60117857Y-37632380D01*
X60165476Y-37584761D01*
X60189285Y-37537142D01*
X60213095Y-37441904D01*
X60213095Y-37370476D01*
X60189285Y-37275238D01*
X60165476Y-37227619D01*
X60117857Y-37180000D01*
X60046428Y-37156190D01*
X59998809Y-37156190D01*
X59927380Y-37180000D01*
X59903571Y-37203809D01*
X59617857Y-37656190D02*
X59665476Y-37632380D01*
X59689285Y-37608571D01*
X59713095Y-37560952D01*
X59713095Y-37418095D01*
X59689285Y-37370476D01*
X59665476Y-37346666D01*
X59617857Y-37322857D01*
X59546428Y-37322857D01*
X59498809Y-37346666D01*
X59475000Y-37370476D01*
X59451190Y-37418095D01*
X59451190Y-37560952D01*
X59475000Y-37608571D01*
X59498809Y-37632380D01*
X59546428Y-37656190D01*
X59617857Y-37656190D01*
X59236904Y-37322857D02*
X59236904Y-37656190D01*
X59236904Y-37370476D02*
X59213095Y-37346666D01*
X59165476Y-37322857D01*
X59094047Y-37322857D01*
X59046428Y-37346666D01*
X59022619Y-37394285D01*
X59022619Y-37656190D01*
X58855952Y-37322857D02*
X58665476Y-37322857D01*
X58784523Y-37156190D02*
X58784523Y-37584761D01*
X58760714Y-37632380D01*
X58713095Y-37656190D01*
X58665476Y-37656190D01*
X58498809Y-37656190D02*
X58498809Y-37322857D01*
X58498809Y-37418095D02*
X58475000Y-37370476D01*
X58451190Y-37346666D01*
X58403571Y-37322857D01*
X58355952Y-37322857D01*
X58117857Y-37656190D02*
X58165476Y-37632380D01*
X58189285Y-37608571D01*
X58213095Y-37560952D01*
X58213095Y-37418095D01*
X58189285Y-37370476D01*
X58165476Y-37346666D01*
X58117857Y-37322857D01*
X58046428Y-37322857D01*
X57998809Y-37346666D01*
X57975000Y-37370476D01*
X57951190Y-37418095D01*
X57951190Y-37560952D01*
X57975000Y-37608571D01*
X57998809Y-37632380D01*
X58046428Y-37656190D01*
X58117857Y-37656190D01*
X57665476Y-37656190D02*
X57713095Y-37632380D01*
X57736904Y-37584761D01*
X57736904Y-37156190D01*
X57403571Y-37656190D02*
X57451190Y-37632380D01*
X57475000Y-37584761D01*
X57475000Y-37156190D01*
X57022619Y-37632380D02*
X57070238Y-37656190D01*
X57165476Y-37656190D01*
X57213095Y-37632380D01*
X57236904Y-37584761D01*
X57236904Y-37394285D01*
X57213095Y-37346666D01*
X57165476Y-37322857D01*
X57070238Y-37322857D01*
X57022619Y-37346666D01*
X56998809Y-37394285D01*
X56998809Y-37441904D01*
X57236904Y-37489523D01*
X56784523Y-37656190D02*
X56784523Y-37322857D01*
X56784523Y-37418095D02*
X56760714Y-37370476D01*
X56736904Y-37346666D01*
X56689285Y-37322857D01*
X56641666Y-37322857D01*
D12*
X61527380Y-81191785D02*
X61527380Y-80715595D01*
X60527380Y-80715595D01*
X60527380Y-81382261D02*
X61527380Y-81715595D01*
X60527380Y-82048928D01*
X71820238Y-63632380D02*
X71820238Y-62632380D01*
X71248809Y-63632380D01*
X71248809Y-62632380D01*
X70629761Y-63632380D02*
X70725000Y-63584761D01*
X70772619Y-63537142D01*
X70820238Y-63441904D01*
X70820238Y-63156190D01*
X70772619Y-63060952D01*
X70725000Y-63013333D01*
X70629761Y-62965714D01*
X70486904Y-62965714D01*
X70391666Y-63013333D01*
X70344047Y-63060952D01*
X70296428Y-63156190D01*
X70296428Y-63441904D01*
X70344047Y-63537142D01*
X70391666Y-63584761D01*
X70486904Y-63632380D01*
X70629761Y-63632380D01*
X70010714Y-62965714D02*
X69629761Y-62965714D01*
X69867857Y-62632380D02*
X69867857Y-63489523D01*
X69820238Y-63584761D01*
X69725000Y-63632380D01*
X69629761Y-63632380D01*
X68915476Y-63584761D02*
X69010714Y-63632380D01*
X69201190Y-63632380D01*
X69296428Y-63584761D01*
X69344047Y-63489523D01*
X69344047Y-63108571D01*
X69296428Y-63013333D01*
X69201190Y-62965714D01*
X69010714Y-62965714D01*
X68915476Y-63013333D01*
X68867857Y-63108571D01*
X68867857Y-63203809D01*
X69344047Y-63299047D01*
X68486904Y-63584761D02*
X68391666Y-63632380D01*
X68201190Y-63632380D01*
X68105952Y-63584761D01*
X68058333Y-63489523D01*
X68058333Y-63441904D01*
X68105952Y-63346666D01*
X68201190Y-63299047D01*
X68344047Y-63299047D01*
X68439285Y-63251428D01*
X68486904Y-63156190D01*
X68486904Y-63108571D01*
X68439285Y-63013333D01*
X68344047Y-62965714D01*
X68201190Y-62965714D01*
X68105952Y-63013333D01*
X67629761Y-63537142D02*
X67582142Y-63584761D01*
X67629761Y-63632380D01*
X67677380Y-63584761D01*
X67629761Y-63537142D01*
X67629761Y-63632380D01*
X67629761Y-63013333D02*
X67582142Y-63060952D01*
X67629761Y-63108571D01*
X67677380Y-63060952D01*
X67629761Y-63013333D01*
X67629761Y-63108571D01*
X50796428Y-35030000D02*
X52296428Y-35030000D01*
X52296428Y-34030000D02*
X52296428Y-33744285D01*
X52225000Y-33601428D01*
X52082142Y-33458571D01*
X51796428Y-33387142D01*
X51296428Y-33387142D01*
X51010714Y-33458571D01*
X50867857Y-33601428D01*
X50796428Y-33744285D01*
X50796428Y-34030000D01*
X50867857Y-34172857D01*
X51010714Y-34315714D01*
X51296428Y-34387142D01*
X51796428Y-34387142D01*
X52082142Y-34315714D01*
X52225000Y-34172857D01*
X52296428Y-34030000D01*
X52296428Y-32887142D02*
X52296428Y-31887142D01*
X50796428Y-32530000D01*
D13*
X75546428Y-81553809D02*
X75546428Y-82053809D01*
X75713095Y-81696666D01*
X75879761Y-82053809D01*
X75879761Y-81553809D01*
X76403571Y-81601428D02*
X76379761Y-81577619D01*
X76308333Y-81553809D01*
X76260714Y-81553809D01*
X76189285Y-81577619D01*
X76141666Y-81625238D01*
X76117857Y-81672857D01*
X76094047Y-81768095D01*
X76094047Y-81839523D01*
X76117857Y-81934761D01*
X76141666Y-81982380D01*
X76189285Y-82030000D01*
X76260714Y-82053809D01*
X76308333Y-82053809D01*
X76379761Y-82030000D01*
X76403571Y-82006190D01*
X76617857Y-82053809D02*
X76617857Y-81649047D01*
X76641666Y-81601428D01*
X76665476Y-81577619D01*
X76713095Y-81553809D01*
X76808333Y-81553809D01*
X76855952Y-81577619D01*
X76879761Y-81601428D01*
X76903571Y-81649047D01*
X76903571Y-82053809D01*
D12*
X71177380Y-75727619D02*
X70177380Y-75727619D01*
X70177380Y-76394285D02*
X70177380Y-76584761D01*
X70225000Y-76680000D01*
X70320238Y-76775238D01*
X70510714Y-76822857D01*
X70844047Y-76822857D01*
X71034523Y-76775238D01*
X71129761Y-76680000D01*
X71177380Y-76584761D01*
X71177380Y-76394285D01*
X71129761Y-76299047D01*
X71034523Y-76203809D01*
X70844047Y-76156190D01*
X70510714Y-76156190D01*
X70320238Y-76203809D01*
X70225000Y-76299047D01*
X70177380Y-76394285D01*
X70177380Y-77727619D02*
X70177380Y-77251428D01*
X70653571Y-77203809D01*
X70605952Y-77251428D01*
X70558333Y-77346666D01*
X70558333Y-77584761D01*
X70605952Y-77680000D01*
X70653571Y-77727619D01*
X70748809Y-77775238D01*
X70986904Y-77775238D01*
X71082142Y-77727619D01*
X71129761Y-77680000D01*
X71177380Y-77584761D01*
X71177380Y-77346666D01*
X71129761Y-77251428D01*
X71082142Y-77203809D01*
X70796428Y-78203809D02*
X70796428Y-78965714D01*
X70177380Y-79346666D02*
X70177380Y-79965714D01*
X70558333Y-79632380D01*
X70558333Y-79775238D01*
X70605952Y-79870476D01*
X70653571Y-79918095D01*
X70748809Y-79965714D01*
X70986904Y-79965714D01*
X71082142Y-79918095D01*
X71129761Y-79870476D01*
X71177380Y-79775238D01*
X71177380Y-79489523D01*
X71129761Y-79394285D01*
X71082142Y-79346666D01*
X70510714Y-80299047D02*
X71177380Y-80537142D01*
X70510714Y-80775238D01*
X70177380Y-81060952D02*
X70177380Y-81680000D01*
X70558333Y-81346666D01*
X70558333Y-81489523D01*
X70605952Y-81584761D01*
X70653571Y-81632380D01*
X70748809Y-81680000D01*
X70986904Y-81680000D01*
X71082142Y-81632380D01*
X71129761Y-81584761D01*
X71177380Y-81489523D01*
X71177380Y-81203809D01*
X71129761Y-81108571D01*
X71082142Y-81060952D01*
X62927380Y-75691904D02*
X61927380Y-75691904D01*
X61927380Y-76358571D02*
X61927380Y-76549047D01*
X61975000Y-76644285D01*
X62070238Y-76739523D01*
X62260714Y-76787142D01*
X62594047Y-76787142D01*
X62784523Y-76739523D01*
X62879761Y-76644285D01*
X62927380Y-76549047D01*
X62927380Y-76358571D01*
X62879761Y-76263333D01*
X62784523Y-76168095D01*
X62594047Y-76120476D01*
X62260714Y-76120476D01*
X62070238Y-76168095D01*
X61975000Y-76263333D01*
X61927380Y-76358571D01*
X62260714Y-77644285D02*
X62927380Y-77644285D01*
X61879761Y-77406190D02*
X62594047Y-77168095D01*
X62594047Y-77787142D01*
X62546428Y-78168095D02*
X62546428Y-78930000D01*
X61927380Y-79263333D02*
X62927380Y-79596666D01*
X61927380Y-79930000D01*
X62927380Y-80263333D02*
X62260714Y-80263333D01*
X61927380Y-80263333D02*
X61975000Y-80215714D01*
X62022619Y-80263333D01*
X61975000Y-80310952D01*
X61927380Y-80263333D01*
X62022619Y-80263333D01*
X62260714Y-80739523D02*
X62927380Y-80739523D01*
X62355952Y-80739523D02*
X62308333Y-80787142D01*
X62260714Y-80882380D01*
X62260714Y-81025238D01*
X62308333Y-81120476D01*
X62403571Y-81168095D01*
X62927380Y-81168095D01*
%TO.C,J10*%
X50405595Y-37732380D02*
X50405595Y-36732380D01*
X50167500Y-36732380D01*
X50024642Y-36780000D01*
X49929404Y-36875238D01*
X49881785Y-36970476D01*
X49834166Y-37160952D01*
X49834166Y-37303809D01*
X49881785Y-37494285D01*
X49929404Y-37589523D01*
X50024642Y-37684761D01*
X50167500Y-37732380D01*
X50405595Y-37732380D01*
X48977023Y-37732380D02*
X48977023Y-37208571D01*
X49024642Y-37113333D01*
X49119880Y-37065714D01*
X49310357Y-37065714D01*
X49405595Y-37113333D01*
X48977023Y-37684761D02*
X49072261Y-37732380D01*
X49310357Y-37732380D01*
X49405595Y-37684761D01*
X49453214Y-37589523D01*
X49453214Y-37494285D01*
X49405595Y-37399047D01*
X49310357Y-37351428D01*
X49072261Y-37351428D01*
X48977023Y-37303809D01*
X48643690Y-37065714D02*
X48262738Y-37065714D01*
X48500833Y-36732380D02*
X48500833Y-37589523D01*
X48453214Y-37684761D01*
X48357976Y-37732380D01*
X48262738Y-37732380D01*
X50310357Y-33732380D02*
X49977023Y-34732380D01*
X49643690Y-33732380D01*
X49310357Y-34732380D02*
X49310357Y-34065714D01*
X49310357Y-33732380D02*
X49357976Y-33780000D01*
X49310357Y-33827619D01*
X49262738Y-33780000D01*
X49310357Y-33732380D01*
X49310357Y-33827619D01*
X48834166Y-34065714D02*
X48834166Y-34732380D01*
X48834166Y-34160952D02*
X48786547Y-34113333D01*
X48691309Y-34065714D01*
X48548452Y-34065714D01*
X48453214Y-34113333D01*
X48405595Y-34208571D01*
X48405595Y-34732380D01*
X50453214Y-30280000D02*
X50548452Y-30232380D01*
X50691309Y-30232380D01*
X50834166Y-30280000D01*
X50929404Y-30375238D01*
X50977023Y-30470476D01*
X51024642Y-30660952D01*
X51024642Y-30803809D01*
X50977023Y-30994285D01*
X50929404Y-31089523D01*
X50834166Y-31184761D01*
X50691309Y-31232380D01*
X50596071Y-31232380D01*
X50453214Y-31184761D01*
X50405595Y-31137142D01*
X50405595Y-30803809D01*
X50596071Y-30803809D01*
X49977023Y-31232380D02*
X49977023Y-30232380D01*
X49405595Y-31232380D01*
X49405595Y-30232380D01*
X48929404Y-31232380D02*
X48929404Y-30232380D01*
X48691309Y-30232380D01*
X48548452Y-30280000D01*
X48453214Y-30375238D01*
X48405595Y-30470476D01*
X48357976Y-30660952D01*
X48357976Y-30803809D01*
X48405595Y-30994285D01*
X48453214Y-31089523D01*
X48548452Y-31184761D01*
X48691309Y-31232380D01*
X48929404Y-31232380D01*
%TO.C,J8*%
X50453214Y-41280000D02*
X50548452Y-41232380D01*
X50691309Y-41232380D01*
X50834166Y-41280000D01*
X50929404Y-41375238D01*
X50977023Y-41470476D01*
X51024642Y-41660952D01*
X51024642Y-41803809D01*
X50977023Y-41994285D01*
X50929404Y-42089523D01*
X50834166Y-42184761D01*
X50691309Y-42232380D01*
X50596071Y-42232380D01*
X50453214Y-42184761D01*
X50405595Y-42137142D01*
X50405595Y-41803809D01*
X50596071Y-41803809D01*
X49977023Y-42232380D02*
X49977023Y-41232380D01*
X49405595Y-42232380D01*
X49405595Y-41232380D01*
X48929404Y-42232380D02*
X48929404Y-41232380D01*
X48691309Y-41232380D01*
X48548452Y-41280000D01*
X48453214Y-41375238D01*
X48405595Y-41470476D01*
X48357976Y-41660952D01*
X48357976Y-41803809D01*
X48405595Y-41994285D01*
X48453214Y-42089523D01*
X48548452Y-42184761D01*
X48691309Y-42232380D01*
X48929404Y-42232380D01*
X50405595Y-48732380D02*
X50405595Y-47732380D01*
X50167500Y-47732380D01*
X50024642Y-47780000D01*
X49929404Y-47875238D01*
X49881785Y-47970476D01*
X49834166Y-48160952D01*
X49834166Y-48303809D01*
X49881785Y-48494285D01*
X49929404Y-48589523D01*
X50024642Y-48684761D01*
X50167500Y-48732380D01*
X50405595Y-48732380D01*
X48977023Y-48732380D02*
X48977023Y-48208571D01*
X49024642Y-48113333D01*
X49119880Y-48065714D01*
X49310357Y-48065714D01*
X49405595Y-48113333D01*
X48977023Y-48684761D02*
X49072261Y-48732380D01*
X49310357Y-48732380D01*
X49405595Y-48684761D01*
X49453214Y-48589523D01*
X49453214Y-48494285D01*
X49405595Y-48399047D01*
X49310357Y-48351428D01*
X49072261Y-48351428D01*
X48977023Y-48303809D01*
X48643690Y-48065714D02*
X48262738Y-48065714D01*
X48500833Y-47732380D02*
X48500833Y-48589523D01*
X48453214Y-48684761D01*
X48357976Y-48732380D01*
X48262738Y-48732380D01*
X50310357Y-44732380D02*
X49977023Y-45732380D01*
X49643690Y-44732380D01*
X49310357Y-45732380D02*
X49310357Y-45065714D01*
X49310357Y-44732380D02*
X49357976Y-44780000D01*
X49310357Y-44827619D01*
X49262738Y-44780000D01*
X49310357Y-44732380D01*
X49310357Y-44827619D01*
X48834166Y-45065714D02*
X48834166Y-45732380D01*
X48834166Y-45160952D02*
X48786547Y-45113333D01*
X48691309Y-45065714D01*
X48548452Y-45065714D01*
X48453214Y-45113333D01*
X48405595Y-45208571D01*
X48405595Y-45732380D01*
D14*
%TO.C,J10*%
X51570000Y-38780000D02*
X45820000Y-38780000D01*
X45820000Y-28780000D02*
X51570000Y-28780000D01*
X51570000Y-36280000D02*
X51570000Y-38780000D01*
X51570000Y-28780000D02*
X51570000Y-31280000D01*
%TO.C,J8*%
X51570000Y-39780000D02*
X51570000Y-42280000D01*
X45820000Y-39780000D02*
X51570000Y-39780000D01*
X51570000Y-47280000D02*
X51570000Y-49780000D01*
X51570000Y-49780000D02*
X45820000Y-49780000D01*
%TO.C,J7*%
X63245000Y-80135000D02*
X63245000Y-74995000D01*
X63245000Y-81405000D02*
X63245000Y-82735000D01*
X63245000Y-80135000D02*
X65905000Y-80135000D01*
X63245000Y-82735000D02*
X64575000Y-82735000D01*
X63245000Y-74995000D02*
X65905000Y-74995000D01*
X65905000Y-80135000D02*
X65905000Y-74995000D01*
%TO.C,J9*%
X67035000Y-82680000D02*
X68365000Y-82680000D01*
X67035000Y-80080000D02*
X67035000Y-74940000D01*
X67035000Y-80080000D02*
X69695000Y-80080000D01*
X67035000Y-74940000D02*
X69695000Y-74940000D01*
X69695000Y-80080000D02*
X69695000Y-74940000D01*
X67035000Y-81350000D02*
X67035000Y-82680000D01*
%TO.C,DinSel1*%
X77425000Y-77680000D02*
X77725000Y-77980000D01*
X77725000Y-77380000D02*
X77725000Y-77980000D01*
X77225000Y-76930000D02*
X75225000Y-76930000D01*
X75225000Y-81030000D02*
X77225000Y-81030000D01*
X75225000Y-76930000D02*
X75225000Y-81030000D01*
X77225000Y-81030000D02*
X77225000Y-76930000D01*
X77425000Y-77680000D02*
X77725000Y-77380000D01*
%TD*%
M02*
