%TF.GenerationSoftware,KiCad,Pcbnew,(6.0.1)*%
%TF.CreationDate,2022-02-05T18:26:11+11:00*%
%TF.ProjectId,ESP32_LED_Controller_v1,45535033-325f-44c4-9544-5f436f6e7472,rev?*%
%TF.SameCoordinates,Original*%
%TF.FileFunction,Copper,L1,Top*%
%TF.FilePolarity,Positive*%
%FSLAX46Y46*%
G04 Gerber Fmt 4.6, Leading zero omitted, Abs format (unit mm)*
G04 Created by KiCad (PCBNEW (6.0.1)) date 2022-02-05 18:26:11*
%MOMM*%
%LPD*%
G01*
G04 APERTURE LIST*
G04 Aperture macros list*
%AMRoundRect*
0 Rectangle with rounded corners*
0 $1 Rounding radius*
0 $2 $3 $4 $5 $6 $7 $8 $9 X,Y pos of 4 corners*
0 Add a 4 corners polygon primitive as box body*
4,1,4,$2,$3,$4,$5,$6,$7,$8,$9,$2,$3,0*
0 Add four circle primitives for the rounded corners*
1,1,$1+$1,$2,$3*
1,1,$1+$1,$4,$5*
1,1,$1+$1,$6,$7*
1,1,$1+$1,$8,$9*
0 Add four rect primitives between the rounded corners*
20,1,$1+$1,$2,$3,$4,$5,0*
20,1,$1+$1,$4,$5,$6,$7,0*
20,1,$1+$1,$6,$7,$8,$9,0*
20,1,$1+$1,$8,$9,$2,$3,0*%
%AMFreePoly0*
4,1,22,0.500000,-0.750000,0.000000,-0.750000,0.000000,-0.745033,-0.079941,-0.743568,-0.215256,-0.701293,-0.333266,-0.622738,-0.424486,-0.514219,-0.481581,-0.384460,-0.499164,-0.250000,-0.500000,-0.250000,-0.500000,0.250000,-0.499164,0.250000,-0.499963,0.256109,-0.478152,0.396186,-0.417904,0.524511,-0.324060,0.630769,-0.204165,0.706417,-0.067858,0.745374,0.000000,0.744959,0.000000,0.750000,
0.500000,0.750000,0.500000,-0.750000,0.500000,-0.750000,$1*%
%AMFreePoly1*
4,1,20,0.000000,0.744959,0.073905,0.744508,0.209726,0.703889,0.328688,0.626782,0.421226,0.519385,0.479903,0.390333,0.500000,0.250000,0.500000,-0.250000,0.499851,-0.262216,0.476331,-0.402017,0.414519,-0.529596,0.319384,-0.634700,0.198574,-0.708877,0.061801,-0.746166,0.000000,-0.745033,0.000000,-0.750000,-0.500000,-0.750000,-0.500000,0.750000,0.000000,0.750000,0.000000,0.744959,
0.000000,0.744959,$1*%
G04 Aperture macros list end*
%TA.AperFunction,SMDPad,CuDef*%
%ADD10R,3.000000X4.000000*%
%TD*%
%TA.AperFunction,SMDPad,CuDef*%
%ADD11RoundRect,0.237500X-0.237500X0.300000X-0.237500X-0.300000X0.237500X-0.300000X0.237500X0.300000X0*%
%TD*%
%TA.AperFunction,ComponentPad*%
%ADD12R,1.700000X1.700000*%
%TD*%
%TA.AperFunction,ComponentPad*%
%ADD13O,1.700000X1.700000*%
%TD*%
%TA.AperFunction,SMDPad,CuDef*%
%ADD14RoundRect,0.237500X0.237500X-0.250000X0.237500X0.250000X-0.237500X0.250000X-0.237500X-0.250000X0*%
%TD*%
%TA.AperFunction,ComponentPad*%
%ADD15R,2.500000X2.500000*%
%TD*%
%TA.AperFunction,SMDPad,CuDef*%
%ADD16RoundRect,0.237500X-0.237500X0.250000X-0.237500X-0.250000X0.237500X-0.250000X0.237500X0.250000X0*%
%TD*%
%TA.AperFunction,SMDPad,CuDef*%
%ADD17R,1.500000X2.000000*%
%TD*%
%TA.AperFunction,SMDPad,CuDef*%
%ADD18R,3.800000X2.000000*%
%TD*%
%TA.AperFunction,SMDPad,CuDef*%
%ADD19C,0.750000*%
%TD*%
%TA.AperFunction,SMDPad,CuDef*%
%ADD20RoundRect,0.237500X-0.237500X0.287500X-0.237500X-0.287500X0.237500X-0.287500X0.237500X0.287500X0*%
%TD*%
%TA.AperFunction,SMDPad,CuDef*%
%ADD21FreePoly0,270.000000*%
%TD*%
%TA.AperFunction,SMDPad,CuDef*%
%ADD22FreePoly1,270.000000*%
%TD*%
%TA.AperFunction,SMDPad,CuDef*%
%ADD23R,2.200000X1.200000*%
%TD*%
%TA.AperFunction,SMDPad,CuDef*%
%ADD24R,6.400000X5.800000*%
%TD*%
%TA.AperFunction,SMDPad,CuDef*%
%ADD25RoundRect,0.237500X0.237500X-0.287500X0.237500X0.287500X-0.237500X0.287500X-0.237500X-0.287500X0*%
%TD*%
%TA.AperFunction,ComponentPad*%
%ADD26R,2.000000X2.000000*%
%TD*%
%TA.AperFunction,ComponentPad*%
%ADD27C,2.000000*%
%TD*%
%TA.AperFunction,ComponentPad*%
%ADD28C,3.000000*%
%TD*%
%TA.AperFunction,ComponentPad*%
%ADD29C,1.524000*%
%TD*%
%TA.AperFunction,SMDPad,CuDef*%
%ADD30RoundRect,0.237500X0.300000X0.237500X-0.300000X0.237500X-0.300000X-0.237500X0.300000X-0.237500X0*%
%TD*%
%TA.AperFunction,SMDPad,CuDef*%
%ADD31R,0.750000X1.000000*%
%TD*%
%TA.AperFunction,SMDPad,CuDef*%
%ADD32R,1.500000X0.900000*%
%TD*%
%TA.AperFunction,ComponentPad*%
%ADD33C,0.420000*%
%TD*%
%TA.AperFunction,SMDPad,CuDef*%
%ADD34R,0.700000X0.700000*%
%TD*%
%TA.AperFunction,WasherPad*%
%ADD35C,3.400000*%
%TD*%
%TA.AperFunction,SMDPad,CuDef*%
%ADD36RoundRect,0.150000X0.625000X-0.150000X0.625000X0.150000X-0.625000X0.150000X-0.625000X-0.150000X0*%
%TD*%
%TA.AperFunction,SMDPad,CuDef*%
%ADD37RoundRect,0.250000X0.650000X-0.350000X0.650000X0.350000X-0.650000X0.350000X-0.650000X-0.350000X0*%
%TD*%
%TA.AperFunction,ViaPad*%
%ADD38C,0.800000*%
%TD*%
%TA.AperFunction,ViaPad*%
%ADD39C,0.900000*%
%TD*%
%TA.AperFunction,Conductor*%
%ADD40C,0.250000*%
%TD*%
%TA.AperFunction,Conductor*%
%ADD41C,0.200000*%
%TD*%
%TA.AperFunction,Conductor*%
%ADD42C,1.000000*%
%TD*%
%TA.AperFunction,Conductor*%
%ADD43C,0.750000*%
%TD*%
%TA.AperFunction,Conductor*%
%ADD44C,2.000000*%
%TD*%
%TA.AperFunction,Conductor*%
%ADD45C,4.000000*%
%TD*%
G04 APERTURE END LIST*
%TO.C,JP1*%
G36*
X60125000Y-69350000D02*
G01*
X59525000Y-69350000D01*
X59525000Y-68850000D01*
X60125000Y-68850000D01*
X60125000Y-69350000D01*
G37*
%TD*%
D10*
%TO.P,J11,1,Pin_1*%
%TO.N,/IO10*%
X72920000Y-38980000D03*
%TD*%
D11*
%TO.P,C2,1*%
%TO.N,ESP_Vcc*%
X62825000Y-62817500D03*
%TO.P,C2,2*%
%TO.N,GND*%
X62825000Y-64542500D03*
%TD*%
D12*
%TO.P,J4,1,Pin_1*%
%TO.N,GND*%
X54225000Y-62080000D03*
D13*
%TO.P,J4,2,Pin_2*%
%TO.N,ESP_Vcc*%
X54225000Y-59540000D03*
%TO.P,J4,3,Pin_3*%
%TO.N,/SDA*%
X54225000Y-57000000D03*
%TO.P,J4,4,Pin_4*%
%TO.N,/SCL*%
X54225000Y-54460000D03*
%TD*%
D14*
%TO.P,R7,1*%
%TO.N,Net-(FET1-Pad1)*%
X69420000Y-94292500D03*
%TO.P,R7,2*%
%TO.N,GND*%
X69420000Y-92467500D03*
%TD*%
D15*
%TO.P,J3,1*%
%TO.N,Vin*%
X50975000Y-97380000D03*
%TO.P,J3,2*%
%TO.N,GND*%
X50975000Y-103380000D03*
%TO.P,J3,3*%
%TO.N,N/C*%
X55675000Y-100380000D03*
%TD*%
D16*
%TO.P,R1,1*%
%TO.N,ESP_Vcc*%
X47620000Y-29667500D03*
%TO.P,R1,2*%
%TO.N,~{Reset}*%
X47620000Y-31492500D03*
%TD*%
D17*
%TO.P,U1,1,GND*%
%TO.N,GND*%
X67725000Y-67630000D03*
%TO.P,U1,2,VO*%
%TO.N,ESP_Vcc*%
X70025000Y-67630000D03*
D18*
X70025000Y-61330000D03*
D17*
%TO.P,U1,3,VI*%
%TO.N,Vin*%
X72325000Y-67630000D03*
%TD*%
D19*
%TO.P,FID3,*%
%TO.N,*%
X73125000Y-96880000D03*
%TD*%
D20*
%TO.P,D1,1,K*%
%TO.N,GND*%
X59825000Y-60605000D03*
%TO.P,D1,2,A*%
%TO.N,Net-(D1-Pad2)*%
X59825000Y-62355000D03*
%TD*%
D21*
%TO.P,JP1,1,A*%
%TO.N,Net-(JP1-Pad1)*%
X59825000Y-68450000D03*
D22*
%TO.P,JP1,2,B*%
%TO.N,ESP_Vcc*%
X59825000Y-69750000D03*
%TD*%
D16*
%TO.P,R6,1*%
%TO.N,/PWR_STRIP*%
X58420000Y-53267500D03*
%TO.P,R6,2*%
%TO.N,Net-(FET1-Pad1)*%
X58420000Y-55092500D03*
%TD*%
D23*
%TO.P,FET1,1,G*%
%TO.N,Net-(FET1-Pad1)*%
X65675000Y-94265000D03*
D24*
%TO.P,FET1,2,D*%
%TO.N,Strip_-*%
X59375000Y-91985000D03*
D23*
%TO.P,FET1,3,S*%
%TO.N,GND*%
X65675000Y-89705000D03*
%TD*%
D25*
%TO.P,D2,1,K*%
%TO.N,GND*%
X54225000Y-50655000D03*
%TO.P,D2,2,A*%
%TO.N,Net-(D2-Pad2)*%
X54225000Y-48905000D03*
%TD*%
D14*
%TO.P,R2,1*%
%TO.N,Net-(JP1-Pad1)*%
X59825000Y-66353000D03*
%TO.P,R2,2*%
%TO.N,Net-(D1-Pad2)*%
X59825000Y-64528000D03*
%TD*%
D26*
%TO.P,C4,1*%
%TO.N,Vin*%
X47007323Y-89780000D03*
D27*
%TO.P,C4,2*%
%TO.N,Strip_-*%
X52007323Y-89780000D03*
%TD*%
D28*
%TO.P,J5,1,Pin_1*%
%TO.N,Vin*%
X60825000Y-116480000D03*
%TO.P,J5,2,Pin_2*%
%TO.N,/Din_STRIP*%
X65825000Y-116480000D03*
%TO.P,J5,3,Pin_3*%
%TO.N,Strip_-*%
X70825000Y-116480000D03*
%TD*%
D16*
%TO.P,R8,1*%
%TO.N,/LED*%
X57225000Y-48867500D03*
%TO.P,R8,2*%
%TO.N,Net-(D2-Pad2)*%
X57225000Y-50692500D03*
%TD*%
D11*
%TO.P,C1,1*%
%TO.N,ESP_Vcc*%
X65225000Y-62817500D03*
%TO.P,C1,2*%
%TO.N,GND*%
X65225000Y-64542500D03*
%TD*%
D14*
%TO.P,R3,1*%
%TO.N,ESP_Vcc*%
X56120000Y-45942500D03*
%TO.P,R3,2*%
%TO.N,Net-(ESP1-Pad16)*%
X56120000Y-44117500D03*
%TD*%
D29*
%TO.P,LLC1,1,LV1*%
%TO.N,unconnected-(LLC1-Pad1)*%
X60745000Y-83890000D03*
%TO.P,LLC1,2,LV2*%
%TO.N,/IO6*%
X63285000Y-83890000D03*
%TO.P,LLC1,3,LV*%
%TO.N,ESP_Vcc*%
X65825000Y-83890000D03*
%TO.P,LLC1,4,GND*%
%TO.N,GND*%
X68365000Y-83890000D03*
%TO.P,LLC1,5,LV3*%
%TO.N,/3v3_Din_STRIP*%
X70905000Y-83890000D03*
%TO.P,LLC1,6,LV4*%
%TO.N,unconnected-(LLC1-Pad6)*%
X73445000Y-83890000D03*
%TO.P,LLC1,7,HV4*%
%TO.N,unconnected-(LLC1-Pad7)*%
X73445000Y-73730000D03*
%TO.P,LLC1,8,HV3*%
%TO.N,/Hv_Din_STRIP*%
X70905000Y-73730000D03*
%TO.P,LLC1,9,GND*%
%TO.N,GND*%
X68365000Y-73730000D03*
%TO.P,LLC1,10,HV*%
%TO.N,Vin*%
X65825000Y-73730000D03*
%TO.P,LLC1,11,HV2*%
%TO.N,/IO6_HV*%
X63285000Y-73730000D03*
%TO.P,LLC1,12,HV1*%
%TO.N,unconnected-(LLC1-Pad12)*%
X60745000Y-73730000D03*
%TD*%
D30*
%TO.P,C3,1*%
%TO.N,Vin*%
X70887500Y-70480000D03*
%TO.P,C3,2*%
%TO.N,GND*%
X69162500Y-70480000D03*
%TD*%
D31*
%TO.P,SW2,1,1*%
%TO.N,GND*%
X52050000Y-70780000D03*
X52050000Y-64780000D03*
%TO.P,SW2,2,2*%
%TO.N,~{Reset}*%
X55800000Y-70780000D03*
X55800000Y-64780000D03*
%TD*%
D14*
%TO.P,R5,1*%
%TO.N,ESP_Vcc*%
X52725000Y-45942500D03*
%TO.P,R5,2*%
%TO.N,Net-(ESP1-Pad7)*%
X52725000Y-44117500D03*
%TD*%
D31*
%TO.P,SW1,1,1*%
%TO.N,GND*%
X46250000Y-64780000D03*
X46250000Y-70780000D03*
%TO.P,SW1,2,2*%
%TO.N,~{Flash}*%
X50000000Y-70780000D03*
X50000000Y-64780000D03*
%TD*%
D19*
%TO.P,FID2,*%
%TO.N,*%
X34820000Y-66030000D03*
%TD*%
%TO.P,FID1,*%
%TO.N,*%
X72425000Y-30280000D03*
%TD*%
D32*
%TO.P,ESP1,1,3v3*%
%TO.N,ESP_Vcc*%
X50975000Y-28380000D03*
%TO.P,ESP1,2,EN*%
%TO.N,~{Reset}*%
X50975000Y-29880000D03*
%TO.P,ESP1,3,IO4*%
%TO.N,/IO4*%
X50975000Y-31380000D03*
%TO.P,ESP1,4,IO5*%
%TO.N,/IO5*%
X50975000Y-32880000D03*
%TO.P,ESP1,5,IO6*%
%TO.N,/IO6*%
X50975000Y-34380000D03*
%TO.P,ESP1,6,IO7*%
%TO.N,/IO7*%
X50975000Y-35880000D03*
%TO.P,ESP1,7,IO8*%
%TO.N,Net-(ESP1-Pad7)*%
X50975000Y-37380000D03*
%TO.P,ESP1,8,IO9*%
%TO.N,~{Flash}*%
X50975000Y-38880000D03*
%TO.P,ESP1,9,GND*%
%TO.N,GND*%
X50975000Y-40380000D03*
%TO.P,ESP1,10,IO10*%
%TO.N,/IO10*%
X68475000Y-40380000D03*
%TO.P,ESP1,11,RXD*%
%TO.N,/RX_CON*%
X68475000Y-38880000D03*
%TO.P,ESP1,12,TXD*%
%TO.N,/TX_CON*%
X68475000Y-37380000D03*
%TO.P,ESP1,13,IO18*%
%TO.N,/PWR_STRIP*%
X68475000Y-35880000D03*
%TO.P,ESP1,14,IO19*%
%TO.N,Net-(ESP1-Pad14)*%
X68475000Y-34380000D03*
%TO.P,ESP1,15,IO3*%
%TO.N,/LED*%
X68475000Y-32880000D03*
%TO.P,ESP1,16,IO2*%
%TO.N,Net-(ESP1-Pad16)*%
X68475000Y-31380000D03*
%TO.P,ESP1,17,IO1*%
%TO.N,/SCL*%
X68475000Y-29880000D03*
%TO.P,ESP1,18,IO0*%
%TO.N,/SDA*%
X68475000Y-28380000D03*
D33*
%TO.P,ESP1,19,GND*%
%TO.N,GND*%
X61785000Y-34030000D03*
D34*
X61785000Y-33480000D03*
D33*
X59535000Y-34030000D03*
X59585000Y-35130000D03*
X60135000Y-33480000D03*
X60685000Y-35130000D03*
D34*
X60685000Y-34580000D03*
X60685000Y-33480000D03*
D33*
X61785000Y-35130000D03*
D34*
X59585000Y-33480000D03*
D33*
X60135000Y-34580000D03*
X61235000Y-33480000D03*
X61235000Y-34580000D03*
D34*
X61785000Y-34580000D03*
X60685000Y-35680000D03*
D33*
X61235000Y-35680000D03*
D34*
X59585000Y-35680000D03*
D33*
X60685000Y-34030000D03*
D34*
X59585000Y-34580000D03*
X61785000Y-35680000D03*
D33*
X60135000Y-35680000D03*
%TD*%
D35*
%TO.P,SenMount1,*%
%TO.N,*%
X36725000Y-61230000D03*
X82725000Y-80630000D03*
X36725000Y-80630000D03*
X82725000Y-61230000D03*
%TD*%
D12*
%TO.P,J2,1,Pin_1*%
%TO.N,~{Reset}*%
X69645000Y-44260000D03*
D13*
%TO.P,J2,2,Pin_2*%
%TO.N,~{Flash}*%
X69645000Y-46800000D03*
%TD*%
D14*
%TO.P,R4,2*%
%TO.N,Net-(ESP1-Pad14)*%
X58620000Y-44055000D03*
%TO.P,R4,1*%
%TO.N,/3v3_Din_STRIP*%
X58620000Y-45880000D03*
%TD*%
D12*
%TO.P,J1,1,Pin_1*%
%TO.N,GND*%
X64565000Y-44260000D03*
D13*
%TO.P,J1,2,Pin_2*%
%TO.N,/CTS*%
X64565000Y-46800000D03*
%TO.P,J1,3,Pin_3*%
%TO.N,Vin*%
X64565000Y-49340000D03*
%TO.P,J1,4,Pin_4*%
%TO.N,/TX_CON*%
X64565000Y-51880000D03*
%TO.P,J1,5,Pin_5*%
%TO.N,/RX_CON*%
X64565000Y-54420000D03*
%TO.P,J1,6,Pin_6*%
%TO.N,/DTR*%
X64565000Y-56960000D03*
%TD*%
D36*
%TO.P,J6,1,Pin_1*%
%TO.N,GND*%
X49550000Y-59780000D03*
%TO.P,J6,2,Pin_2*%
%TO.N,ESP_Vcc*%
X49550000Y-58780000D03*
%TO.P,J6,3,Pin_3*%
%TO.N,/SDA*%
X49550000Y-57780000D03*
%TO.P,J6,4,Pin_4*%
%TO.N,/SCL*%
X49550000Y-56780000D03*
D37*
%TO.P,J6,MP*%
%TO.N,N/C*%
X47025000Y-55480000D03*
X47025000Y-61080000D03*
%TD*%
D12*
%TO.P,J7,1,Pin_1*%
%TO.N,GND*%
X64575000Y-81405000D03*
D13*
%TO.P,J7,2,Pin_2*%
%TO.N,Vin*%
X64575000Y-78865000D03*
%TO.P,J7,3,Pin_3*%
%TO.N,/IO4*%
X64575000Y-76325000D03*
%TD*%
D12*
%TO.P,J9,1,Pin_1*%
%TO.N,GND*%
X68365000Y-81350000D03*
D13*
%TO.P,J9,2,Pin_2*%
%TO.N,ESP_Vcc*%
X68365000Y-78810000D03*
%TO.P,J9,3,Pin_3*%
%TO.N,/IO5*%
X68365000Y-76270000D03*
%TD*%
D38*
%TO.N,~{Flash}*%
X51499232Y-47648385D03*
%TO.N,/IO5*%
X70075000Y-41930000D03*
X74075000Y-71280000D03*
%TO.N,/3v3_Din_STRIP*%
X58877878Y-48732878D03*
%TO.N,Net-(FET1-Pad1)*%
X57725000Y-56380000D03*
X67625000Y-93380000D03*
%TO.N,/IO6_HV*%
X44325000Y-48980000D03*
X41825000Y-79080000D03*
%TO.N,/IO5*%
X53125000Y-33380000D03*
%TO.N,/IO6*%
X52525000Y-34780000D03*
%TO.N,/IO4*%
X53620980Y-31980000D03*
%TO.N,/3v3_Din_STRIP*%
X75725000Y-82180000D03*
%TO.N,GND*%
X64225000Y-70880000D03*
X63025000Y-70880000D03*
X65425000Y-70880000D03*
X44925000Y-64780000D03*
%TO.N,Vin*%
X55825000Y-57580000D03*
%TO.N,ESP_Vcc*%
X55525000Y-47180000D03*
X52312872Y-47067872D03*
%TO.N,GND*%
X54225000Y-51780000D03*
%TO.N,~{Reset}*%
X54320000Y-42380000D03*
%TO.N,/SCL*%
X51520000Y-56380000D03*
%TO.N,GND*%
X61235000Y-31920000D03*
X60135000Y-31940000D03*
X49720000Y-40380000D03*
X48120000Y-40380000D03*
%TO.N,/IO7*%
X48520000Y-37280000D03*
D39*
%TO.N,ESP_Vcc*%
X77420000Y-59680000D03*
D38*
X54920000Y-28380000D03*
X52920000Y-28380000D03*
X48920000Y-28380000D03*
X45920000Y-28380000D03*
D39*
X76320000Y-62080000D03*
X77420000Y-62880000D03*
D38*
X48320000Y-35280000D03*
D39*
X77420000Y-61280000D03*
X76320000Y-58880000D03*
X77420000Y-58080000D03*
D38*
X48320000Y-33280000D03*
%TO.N,GND*%
X45920000Y-31680000D03*
D39*
X68820000Y-86980000D03*
X54220000Y-107780000D03*
X68820000Y-88980000D03*
D38*
X45920000Y-29880000D03*
X45820000Y-42680000D03*
X45820000Y-40880000D03*
D39*
X67820000Y-87980000D03*
X53020000Y-105580000D03*
X69820000Y-87980000D03*
X67620000Y-89180000D03*
X53220000Y-106780000D03*
X54220000Y-105780000D03*
X55220000Y-106780000D03*
%TO.N,Vin*%
X44620000Y-75580000D03*
X77820000Y-67580000D03*
D38*
X48320000Y-46180000D03*
D39*
X44620000Y-77980000D03*
X43820000Y-76780000D03*
X45420000Y-76780000D03*
X76620000Y-66580000D03*
X75420000Y-67580000D03*
X76620000Y-68580000D03*
D38*
X48320000Y-44380000D03*
%TD*%
D40*
%TO.N,/IO5*%
X72425000Y-44280000D02*
X70075000Y-41930000D01*
X72425000Y-49230000D02*
X72425000Y-44280000D01*
X80375000Y-68730000D02*
X80375000Y-57180000D01*
X74075000Y-71280000D02*
X77825000Y-71280000D01*
X80375000Y-57180000D02*
X72425000Y-49230000D01*
X77825000Y-71280000D02*
X80375000Y-68730000D01*
%TO.N,/3v3_Din_STRIP*%
X58620000Y-48475000D02*
X58877878Y-48732878D01*
X58620000Y-45880000D02*
X58620000Y-48475000D01*
D41*
%TO.N,Net-(FET1-Pad1)*%
X58425000Y-56080000D02*
X58425000Y-55180000D01*
X58125000Y-56380000D02*
X58425000Y-56080000D01*
X57725000Y-56380000D02*
X58125000Y-56380000D01*
D42*
X67625000Y-93380000D02*
X68425000Y-94180000D01*
D41*
X66925000Y-94080000D02*
X66225000Y-94080000D01*
D42*
X67625000Y-93380000D02*
X66925000Y-94080000D01*
D41*
X67737500Y-93492500D02*
X67625000Y-93380000D01*
X67737500Y-94292500D02*
X67737500Y-93492500D01*
D42*
X67737500Y-94292500D02*
X65732500Y-94292500D01*
X69420000Y-94292500D02*
X67737500Y-94292500D01*
D40*
%TO.N,/IO6_HV*%
X44325000Y-49580000D02*
X44325000Y-48980000D01*
X44225000Y-49680000D02*
X44325000Y-49580000D01*
X40225000Y-53680000D02*
X44225000Y-49680000D01*
X40225000Y-77480000D02*
X40225000Y-53680000D01*
X41825000Y-79080000D02*
X40225000Y-77480000D01*
%TO.N,/IO5*%
X52625000Y-32880000D02*
X53125000Y-33380000D01*
X50975000Y-32880000D02*
X52625000Y-32880000D01*
%TO.N,/IO6*%
X52125000Y-34380000D02*
X52525000Y-34780000D01*
X50975000Y-34380000D02*
X52125000Y-34380000D01*
%TO.N,/IO4*%
X53020980Y-31380000D02*
X53620980Y-31980000D01*
X50975000Y-31380000D02*
X53020980Y-31380000D01*
D41*
%TO.N,/3v3_Din_STRIP*%
X75725000Y-82180000D02*
X72625000Y-82180000D01*
X72625000Y-82180000D02*
X70925000Y-83880000D01*
D42*
%TO.N,Vin*%
X65025000Y-78880000D02*
X64525000Y-78880000D01*
X66425000Y-77480000D02*
X65025000Y-78880000D01*
X65825000Y-74480000D02*
X66425000Y-75080000D01*
X65825000Y-73730000D02*
X65825000Y-74480000D01*
X66425000Y-75080000D02*
X66425000Y-77480000D01*
D43*
X67625000Y-71980000D02*
X65825000Y-73780000D01*
X70887500Y-71017500D02*
X69925000Y-71980000D01*
X69925000Y-71980000D02*
X67625000Y-71980000D01*
X70887500Y-70480000D02*
X70887500Y-71017500D01*
D41*
%TO.N,/LED*%
X57225000Y-48867500D02*
X57225000Y-43680000D01*
D43*
%TO.N,ESP_Vcc*%
X54225000Y-59780000D02*
X54225000Y-59580000D01*
X54325000Y-59780000D02*
X54225000Y-59780000D01*
X55325000Y-58780000D02*
X54325000Y-59780000D01*
X55325000Y-58780000D02*
X62520000Y-58780000D01*
X53520000Y-58780000D02*
X55325000Y-58780000D01*
D44*
%TO.N,GND*%
X64225000Y-70880000D02*
X63025000Y-70880000D01*
X65325000Y-70880000D02*
X64225000Y-70880000D01*
X65425000Y-70780000D02*
X65325000Y-70880000D01*
D43*
X65672500Y-66932500D02*
X65725000Y-66985000D01*
X65672500Y-66932500D02*
X66320000Y-67580000D01*
X65725000Y-66985000D02*
X65725000Y-69580000D01*
X65225000Y-66485000D02*
X65672500Y-66932500D01*
D44*
X66425000Y-69180000D02*
X66425000Y-68280000D01*
X66725000Y-69480000D02*
X66425000Y-69180000D01*
X66725000Y-69480000D02*
X65425000Y-70780000D01*
X67725000Y-68480000D02*
X66725000Y-69480000D01*
D43*
X69162500Y-70480000D02*
X66425000Y-70480000D01*
X66425000Y-70480000D02*
X65925000Y-70980000D01*
D44*
X67725000Y-67630000D02*
X67725000Y-68480000D01*
D41*
X47025000Y-71580000D02*
X46325000Y-70880000D01*
X51250000Y-71580000D02*
X47025000Y-71580000D01*
X52050000Y-70780000D02*
X51250000Y-71580000D01*
%TO.N,~{Reset}*%
X55800000Y-70780000D02*
X55800000Y-64905000D01*
%TO.N,~{Flash}*%
X50000000Y-70780000D02*
X50000000Y-64705000D01*
%TO.N,GND*%
X46250000Y-64955000D02*
X46425000Y-64780000D01*
X46250000Y-70780000D02*
X46250000Y-64955000D01*
X51625000Y-65480000D02*
X51625000Y-65780000D01*
X51575000Y-65430000D02*
X51625000Y-65480000D01*
X51425489Y-65579511D02*
X51575000Y-65430000D01*
X51575000Y-65430000D02*
X52125000Y-64880000D01*
X52050000Y-66205000D02*
X51425000Y-65580000D01*
X52050000Y-70780000D02*
X52050000Y-66205000D01*
X46250000Y-64780000D02*
X44925000Y-64780000D01*
D43*
%TO.N,Vin*%
X59125000Y-56580000D02*
X58125000Y-57580000D01*
X59925000Y-55780000D02*
X59125000Y-56580000D01*
X59925000Y-51080000D02*
X59925000Y-55780000D01*
X61665000Y-49340000D02*
X59925000Y-51080000D01*
X58125000Y-57580000D02*
X55825000Y-57580000D01*
X64565000Y-49340000D02*
X61665000Y-49340000D01*
D41*
%TO.N,ESP_Vcc*%
X56120000Y-46585000D02*
X55525000Y-47180000D01*
X56120000Y-45942500D02*
X56120000Y-46585000D01*
X52725000Y-46655744D02*
X52312872Y-47067872D01*
X52725000Y-45942500D02*
X52725000Y-46655744D01*
%TO.N,GND*%
X54225000Y-50367500D02*
X54225000Y-51792500D01*
%TO.N,/IO10*%
X71320000Y-40380000D02*
X71520000Y-40580000D01*
X71320000Y-40380000D02*
X71520000Y-40180000D01*
X68475000Y-40380000D02*
X71320000Y-40380000D01*
X71320000Y-40380000D02*
X72120000Y-40380000D01*
%TO.N,/TX_CON*%
X65620000Y-51880000D02*
X64620000Y-51880000D01*
X66020000Y-51480000D02*
X65620000Y-51880000D01*
X66020000Y-38480000D02*
X66020000Y-51480000D01*
X67120000Y-37380000D02*
X66020000Y-38480000D01*
X68475000Y-37380000D02*
X67120000Y-37380000D01*
%TO.N,/RX_CON*%
X65820000Y-54380000D02*
X64520000Y-54380000D01*
X66420000Y-53780000D02*
X65820000Y-54380000D01*
X66420000Y-39780000D02*
X66420000Y-53780000D01*
X67320000Y-38880000D02*
X66420000Y-39780000D01*
X68475000Y-38880000D02*
X67320000Y-38880000D01*
%TO.N,~{Flash}*%
X49120000Y-64780000D02*
X50020000Y-64780000D01*
X48120000Y-63780000D02*
X49120000Y-64780000D01*
X46620000Y-63780000D02*
X48120000Y-63780000D01*
X45020000Y-62180000D02*
X46620000Y-63780000D01*
X45020000Y-54439994D02*
X45020000Y-62180000D01*
X51520000Y-47939994D02*
X45020000Y-54439994D01*
X51520000Y-43480000D02*
X51520000Y-47939994D01*
X52320000Y-42680000D02*
X51520000Y-43480000D01*
X52320000Y-38980000D02*
X52320000Y-42680000D01*
X52220000Y-38880000D02*
X52320000Y-38980000D01*
X50975000Y-38880000D02*
X52220000Y-38880000D01*
%TO.N,~{Reset}*%
X53720000Y-29880000D02*
X51020000Y-29880000D01*
X54320480Y-30480480D02*
X53720000Y-29880000D01*
X54320480Y-46049508D02*
X54320480Y-30480480D01*
X50364988Y-50005000D02*
X54320480Y-46049508D01*
X50020000Y-50005000D02*
X50364988Y-50005000D01*
X45470000Y-54555000D02*
X50020000Y-50005000D01*
X45470000Y-61980000D02*
X45470000Y-54555000D01*
X46795000Y-63305000D02*
X45470000Y-61980000D01*
X54325000Y-63305000D02*
X46795000Y-63305000D01*
X55800000Y-64780000D02*
X54325000Y-63305000D01*
%TO.N,ESP_Vcc*%
X58775489Y-59374511D02*
X58470000Y-59069022D01*
X59070000Y-59080000D02*
X59070000Y-58955000D01*
X58775489Y-59374511D02*
X59070000Y-59080000D01*
X58775489Y-59374511D02*
X58775489Y-58899511D01*
X58775489Y-69535489D02*
X58775489Y-59374511D01*
X58990000Y-69750000D02*
X58775489Y-69535489D01*
X59825000Y-69750000D02*
X58990000Y-69750000D01*
D43*
X63120000Y-61380000D02*
X63620000Y-60880000D01*
X63620000Y-60880000D02*
X63620000Y-60680000D01*
X65215000Y-61875000D02*
X63820000Y-60480000D01*
X63820000Y-60480000D02*
X63720000Y-60480000D01*
X65225000Y-61875000D02*
X65215000Y-61875000D01*
X63620000Y-59880000D02*
X63620000Y-61280000D01*
X62520000Y-58780000D02*
X63620000Y-59880000D01*
D41*
%TO.N,GND*%
X63020000Y-66680000D02*
X63120000Y-66580000D01*
X63120000Y-66580000D02*
X63120000Y-66380000D01*
X63020000Y-66680000D02*
X65120000Y-66680000D01*
X62220000Y-66680000D02*
X63020000Y-66680000D01*
X61520000Y-65980000D02*
X62220000Y-66680000D01*
X61520000Y-61480000D02*
X61520000Y-65980000D01*
X60645000Y-60605000D02*
X61520000Y-61480000D01*
X59825000Y-60605000D02*
X60645000Y-60605000D01*
%TO.N,Net-(JP1-Pad1)*%
X59825000Y-68375000D02*
X59820000Y-68380000D01*
X59825000Y-66353000D02*
X59825000Y-68375000D01*
%TO.N,Net-(D1-Pad2)*%
X59825000Y-64475000D02*
X59820000Y-64480000D01*
X59825000Y-62355000D02*
X59825000Y-64475000D01*
D43*
%TO.N,ESP_Vcc*%
X70420000Y-66680000D02*
X70420000Y-66980000D01*
X70025000Y-66285000D02*
X70420000Y-66680000D01*
X69620000Y-66690000D02*
X69620000Y-67080000D01*
X70025000Y-66285000D02*
X69620000Y-66690000D01*
X70025000Y-66285000D02*
X70025000Y-63685000D01*
X70025000Y-67630000D02*
X70025000Y-66285000D01*
X69120000Y-62570000D02*
X69120000Y-62380000D01*
X70025000Y-63475000D02*
X69120000Y-62570000D01*
X70025000Y-63685000D02*
X70025000Y-63475000D01*
X70025000Y-63685000D02*
X70025000Y-62275000D01*
X70025000Y-63475000D02*
X70520000Y-62980000D01*
X70025000Y-62275000D02*
X70120000Y-62180000D01*
X65225000Y-61875000D02*
X65720000Y-61380000D01*
X65225000Y-62817500D02*
X65225000Y-61875000D01*
X65225000Y-61875000D02*
X65225000Y-61475000D01*
X65225000Y-61475000D02*
X65320000Y-61380000D01*
X63120000Y-61380000D02*
X68720000Y-61380000D01*
X62825000Y-61675000D02*
X63120000Y-61380000D01*
X62825000Y-62817500D02*
X62825000Y-61675000D01*
%TO.N,GND*%
X64720000Y-66380000D02*
X65120000Y-65980000D01*
X64720000Y-66380000D02*
X65120000Y-66380000D01*
X63520000Y-66380000D02*
X64720000Y-66380000D01*
X62825000Y-65685000D02*
X63520000Y-66380000D01*
X62825000Y-64542500D02*
X62825000Y-65685000D01*
X66320000Y-67580000D02*
X67720000Y-67580000D01*
X65225000Y-64542500D02*
X65225000Y-66485000D01*
X67720000Y-69980000D02*
X67720000Y-67580000D01*
X68220000Y-70480000D02*
X67720000Y-69980000D01*
X69162500Y-70480000D02*
X68220000Y-70480000D01*
%TO.N,Vin*%
X71620000Y-70480000D02*
X72320000Y-69780000D01*
X71620000Y-70480000D02*
X72220000Y-70480000D01*
X70887500Y-70480000D02*
X71620000Y-70480000D01*
X72220000Y-69080000D02*
X72320000Y-68980000D01*
X72220000Y-70480000D02*
X72220000Y-69080000D01*
X72220000Y-70480000D02*
X73120000Y-69580000D01*
%TO.N,GND*%
X53020000Y-62080000D02*
X50720000Y-59780000D01*
X54225000Y-62080000D02*
X53020000Y-62080000D01*
X50720000Y-59780000D02*
X49520000Y-59780000D01*
%TO.N,ESP_Vcc*%
X53520000Y-58780000D02*
X54320000Y-59580000D01*
X49550000Y-58780000D02*
X53520000Y-58780000D01*
D41*
%TO.N,/SCL*%
X51120000Y-56780000D02*
X51520000Y-56380000D01*
X49550000Y-56780000D02*
X51120000Y-56780000D01*
%TO.N,/SDA*%
X53445000Y-57780000D02*
X49520000Y-57780000D01*
X54225000Y-57000000D02*
X53445000Y-57780000D01*
X67320000Y-28380000D02*
X68520000Y-28380000D01*
X66020960Y-29679040D02*
X67320000Y-28380000D01*
X57089027Y-42118461D02*
X66020960Y-33186528D01*
X54720000Y-43487488D02*
X56089027Y-42118461D01*
X54720000Y-46214994D02*
X54720000Y-43487488D01*
X52920000Y-55695000D02*
X52920000Y-48014994D01*
X52920000Y-48014994D02*
X54720000Y-46214994D01*
X56089027Y-42118461D02*
X57089027Y-42118461D01*
X66020960Y-33186528D02*
X66020960Y-29679040D01*
X54225000Y-57000000D02*
X52920000Y-55695000D01*
%TO.N,/SCL*%
X53320000Y-53580000D02*
X54120000Y-54380000D01*
X53320000Y-48180000D02*
X53320000Y-53580000D01*
X55120000Y-46380000D02*
X53320000Y-48180000D01*
X55120000Y-43652494D02*
X55120000Y-46380000D01*
X56254513Y-42517981D02*
X55120000Y-43652494D01*
X57254514Y-42517980D02*
X56254513Y-42517981D01*
X66420480Y-33352014D02*
X57254514Y-42517980D01*
X66420480Y-30679520D02*
X66420480Y-33352014D01*
X67220000Y-29880000D02*
X66420480Y-30679520D01*
X68475000Y-29880000D02*
X67220000Y-29880000D01*
%TO.N,Net-(ESP1-Pad16)*%
X57420000Y-42917500D02*
X56420000Y-42917500D01*
X56420000Y-42917500D02*
X56120000Y-43217500D01*
X66820000Y-33517500D02*
X57420000Y-42917500D01*
X56120000Y-43217500D02*
X56120000Y-44217500D01*
X66820000Y-31917500D02*
X66820000Y-33517500D01*
X67357500Y-31380000D02*
X66820000Y-31917500D01*
X68475000Y-31380000D02*
X67357500Y-31380000D01*
%TO.N,/LED*%
X67220000Y-33117500D02*
X67220000Y-33689994D01*
X67220000Y-33689994D02*
X57220000Y-43689994D01*
X67457500Y-32880000D02*
X67220000Y-33117500D01*
X68475000Y-32880000D02*
X67457500Y-32880000D01*
%TO.N,Net-(ESP1-Pad14)*%
X58620000Y-42855000D02*
X58620000Y-43317500D01*
X68475000Y-34380000D02*
X67095000Y-34380000D01*
X67095000Y-34380000D02*
X58620000Y-42855000D01*
D42*
%TO.N,GND*%
X61785000Y-33070000D02*
X61495000Y-32780000D01*
X61785000Y-33480000D02*
X61785000Y-33070000D01*
X59585000Y-33090000D02*
X59895000Y-32780000D01*
X59585000Y-33480000D02*
X59585000Y-33090000D01*
X60495000Y-32780000D02*
X60695000Y-32980000D01*
X60095000Y-31980000D02*
X60095000Y-32780000D01*
X61235000Y-31920000D02*
X60155000Y-31920000D01*
X60095000Y-32780000D02*
X60495000Y-32780000D01*
X61235000Y-33480000D02*
X61235000Y-31920000D01*
X60155000Y-31920000D02*
X60095000Y-31980000D01*
X60135000Y-33480000D02*
X60135000Y-31940000D01*
X49720000Y-40380000D02*
X48120000Y-40380000D01*
X48120000Y-40380000D02*
X46320000Y-40380000D01*
X46320000Y-40380000D02*
X45820000Y-40880000D01*
X50975000Y-40380000D02*
X49720000Y-40380000D01*
D41*
%TO.N,/IO7*%
X49920000Y-35880000D02*
X48520000Y-37280000D01*
X50975000Y-35880000D02*
X49920000Y-35880000D01*
%TO.N,/PWR_STRIP*%
X59920000Y-47080000D02*
X59920000Y-48680000D01*
X59920000Y-48680000D02*
X58420000Y-50180000D01*
X59920000Y-42580000D02*
X59920000Y-47080000D01*
X66620000Y-35880000D02*
X59920000Y-42580000D01*
X58420000Y-50180000D02*
X58420000Y-53180000D01*
X68475000Y-35880000D02*
X66620000Y-35880000D01*
%TO.N,Net-(D2-Pad2)*%
X54832500Y-48905000D02*
X56607500Y-50680000D01*
X54200000Y-48905000D02*
X54820000Y-48905000D01*
X57312500Y-50680000D02*
X56620000Y-50680000D01*
%TO.N,Net-(ESP1-Pad14)*%
X58620000Y-44055000D02*
X58620000Y-43180000D01*
%TO.N,Net-(ESP1-Pad7)*%
X52725000Y-38385000D02*
X51720000Y-37380000D01*
X51720000Y-37380000D02*
X51020000Y-37380000D01*
X52725000Y-44117500D02*
X52725000Y-38385000D01*
D40*
%TO.N,ESP_Vcc*%
X47620000Y-29667500D02*
X47620000Y-28680000D01*
D45*
X77420000Y-57780000D02*
X77620000Y-57980000D01*
X70025000Y-61330000D02*
X73870000Y-61330000D01*
X73870000Y-61330000D02*
X77420000Y-57780000D01*
X77620000Y-61580000D02*
X77020000Y-62180000D01*
D42*
X50975000Y-28380000D02*
X52920000Y-28380000D01*
X52920000Y-28380000D02*
X54920000Y-28380000D01*
D45*
X73620000Y-62180000D02*
X72820000Y-61380000D01*
D42*
X50975000Y-28380000D02*
X45920000Y-28380000D01*
D45*
X77620000Y-57980000D02*
X77620000Y-61580000D01*
X77020000Y-62180000D02*
X73620000Y-62180000D01*
%TO.N,GND*%
X65675000Y-89705000D02*
X67095000Y-89705000D01*
D41*
X69420000Y-90980000D02*
X67620000Y-89180000D01*
D45*
X50975000Y-103380000D02*
X50975000Y-103535000D01*
X50975000Y-103535000D02*
X54220000Y-106780000D01*
X67095000Y-89705000D02*
X68820000Y-87980000D01*
D41*
X69420000Y-92467500D02*
X69420000Y-90980000D01*
D44*
%TO.N,Vin*%
X77820000Y-66980000D02*
X76820000Y-65980000D01*
X48320000Y-47530000D02*
X48320000Y-48280000D01*
D45*
X49400354Y-97380000D02*
X50975000Y-97380000D01*
D44*
X41820000Y-73280000D02*
X41820000Y-54780000D01*
D45*
X47007323Y-89780000D02*
X47007323Y-82967323D01*
D44*
X77820000Y-67580000D02*
X77820000Y-66980000D01*
X76820000Y-65980000D02*
X74820000Y-65980000D01*
X72325000Y-68485000D02*
X73020000Y-69180000D01*
X48320000Y-47530000D02*
X48320000Y-45780000D01*
X48320000Y-48280000D02*
X47070000Y-49530000D01*
D45*
X44620000Y-77980000D02*
X44620000Y-76080000D01*
X47007323Y-82967323D02*
X47007323Y-82767323D01*
D44*
X72325000Y-67630000D02*
X72325000Y-68485000D01*
X73420000Y-67380000D02*
X76220000Y-67380000D01*
D45*
X47420000Y-97780000D02*
X46620000Y-98580000D01*
X46220000Y-94199646D02*
X47007323Y-93412323D01*
D44*
X74820000Y-65980000D02*
X73420000Y-67380000D01*
D45*
X47007323Y-93412323D02*
X47007323Y-89780000D01*
D44*
X77820000Y-68180000D02*
X77820000Y-67580000D01*
D45*
X53920000Y-116480000D02*
X46220000Y-108780000D01*
D44*
X76820000Y-69180000D02*
X77820000Y-68180000D01*
X73975000Y-65980000D02*
X76820000Y-65980000D01*
D45*
X44620000Y-80380000D02*
X44620000Y-75780000D01*
X50975000Y-97380000D02*
X47020000Y-97380000D01*
D44*
X73020000Y-69180000D02*
X76820000Y-69180000D01*
X72325000Y-67630000D02*
X73975000Y-65980000D01*
D45*
X60825000Y-116480000D02*
X53920000Y-116480000D01*
D44*
X41820000Y-54780000D02*
X45820000Y-50780000D01*
X48320000Y-47530000D02*
X48320000Y-44780000D01*
X72325000Y-67630000D02*
X72325000Y-66675000D01*
D45*
X46220000Y-94199646D02*
X49400354Y-97380000D01*
D44*
X72325000Y-66675000D02*
X73020000Y-65980000D01*
X44620000Y-76080000D02*
X41820000Y-73280000D01*
X73020000Y-65980000D02*
X75020000Y-65980000D01*
D45*
X47007323Y-82767323D02*
X44620000Y-80380000D01*
D44*
X45820000Y-50780000D02*
X48320000Y-48280000D01*
D45*
X46220000Y-98180000D02*
X46220000Y-94199646D01*
X46220000Y-108780000D02*
X46220000Y-98180000D01*
%TO.N,Strip_-*%
X59375000Y-94935000D02*
X66020000Y-101580000D01*
X66020000Y-101580000D02*
X66020000Y-109180000D01*
X66020000Y-109180000D02*
X70825000Y-113985000D01*
X57170000Y-89780000D02*
X59375000Y-91985000D01*
X70825000Y-113985000D02*
X70825000Y-116480000D01*
X52007323Y-89780000D02*
X57170000Y-89780000D01*
X59375000Y-91985000D02*
X59375000Y-94935000D01*
D41*
%TO.N,~{Reset}*%
X47620000Y-31492500D02*
X49232500Y-29880000D01*
X49232500Y-29880000D02*
X50975000Y-29880000D01*
%TD*%
%TA.AperFunction,Conductor*%
%TO.N,GND*%
G36*
X62437121Y-32800002D02*
G01*
X62483614Y-32853658D01*
X62495000Y-32906000D01*
X62495000Y-35799749D01*
X62474998Y-35867870D01*
X62458095Y-35888844D01*
X62003844Y-36343095D01*
X61941532Y-36377121D01*
X61914749Y-36380000D01*
X59021000Y-36380000D01*
X58952879Y-36359998D01*
X58906386Y-36306342D01*
X58895000Y-36254000D01*
X58895000Y-32906000D01*
X58915002Y-32837879D01*
X58968658Y-32791386D01*
X59021000Y-32780000D01*
X62369000Y-32780000D01*
X62437121Y-32800002D01*
G37*
%TD.AperFunction*%
%TD*%
M02*
