%TF.GenerationSoftware,KiCad,Pcbnew,(6.0.1)*%
%TF.CreationDate,2022-02-05T18:26:11+11:00*%
%TF.ProjectId,ESP32_LED_Controller_v1,45535033-325f-44c4-9544-5f436f6e7472,rev?*%
%TF.SameCoordinates,Original*%
%TF.FileFunction,Paste,Top*%
%TF.FilePolarity,Positive*%
%FSLAX46Y46*%
G04 Gerber Fmt 4.6, Leading zero omitted, Abs format (unit mm)*
G04 Created by KiCad (PCBNEW (6.0.1)) date 2022-02-05 18:26:11*
%MOMM*%
%LPD*%
G01*
G04 APERTURE LIST*
G04 Aperture macros list*
%AMRoundRect*
0 Rectangle with rounded corners*
0 $1 Rounding radius*
0 $2 $3 $4 $5 $6 $7 $8 $9 X,Y pos of 4 corners*
0 Add a 4 corners polygon primitive as box body*
4,1,4,$2,$3,$4,$5,$6,$7,$8,$9,$2,$3,0*
0 Add four circle primitives for the rounded corners*
1,1,$1+$1,$2,$3*
1,1,$1+$1,$4,$5*
1,1,$1+$1,$6,$7*
1,1,$1+$1,$8,$9*
0 Add four rect primitives between the rounded corners*
20,1,$1+$1,$2,$3,$4,$5,0*
20,1,$1+$1,$4,$5,$6,$7,0*
20,1,$1+$1,$6,$7,$8,$9,0*
20,1,$1+$1,$8,$9,$2,$3,0*%
G04 Aperture macros list end*
%ADD10R,3.000000X4.000000*%
%ADD11RoundRect,0.237500X-0.237500X0.300000X-0.237500X-0.300000X0.237500X-0.300000X0.237500X0.300000X0*%
%ADD12RoundRect,0.237500X0.237500X-0.250000X0.237500X0.250000X-0.237500X0.250000X-0.237500X-0.250000X0*%
%ADD13RoundRect,0.237500X-0.237500X0.250000X-0.237500X-0.250000X0.237500X-0.250000X0.237500X0.250000X0*%
%ADD14R,1.500000X2.000000*%
%ADD15R,3.800000X2.000000*%
%ADD16RoundRect,0.237500X-0.237500X0.287500X-0.237500X-0.287500X0.237500X-0.287500X0.237500X0.287500X0*%
%ADD17R,3.050000X2.750000*%
%ADD18R,2.200000X1.200000*%
%ADD19RoundRect,0.237500X0.237500X-0.287500X0.237500X0.287500X-0.237500X0.287500X-0.237500X-0.287500X0*%
%ADD20RoundRect,0.237500X0.300000X0.237500X-0.300000X0.237500X-0.300000X-0.237500X0.300000X-0.237500X0*%
%ADD21R,0.750000X1.000000*%
%ADD22R,1.500000X0.900000*%
%ADD23R,0.700000X0.700000*%
%ADD24RoundRect,0.150000X0.625000X-0.150000X0.625000X0.150000X-0.625000X0.150000X-0.625000X-0.150000X0*%
%ADD25RoundRect,0.250000X0.650000X-0.350000X0.650000X0.350000X-0.650000X0.350000X-0.650000X-0.350000X0*%
G04 APERTURE END LIST*
D10*
%TO.C,J11*%
X72920000Y-38980000D03*
%TD*%
D11*
%TO.C,C2*%
X62825000Y-62817500D03*
X62825000Y-64542500D03*
%TD*%
D12*
%TO.C,R7*%
X69420000Y-94292500D03*
X69420000Y-92467500D03*
%TD*%
D13*
%TO.C,R1*%
X47620000Y-29667500D03*
X47620000Y-31492500D03*
%TD*%
D14*
%TO.C,U1*%
X67725000Y-67630000D03*
X70025000Y-67630000D03*
D15*
X70025000Y-61330000D03*
D14*
X72325000Y-67630000D03*
%TD*%
D16*
%TO.C,D1*%
X59825000Y-60605000D03*
X59825000Y-62355000D03*
%TD*%
D13*
%TO.C,R6*%
X58420000Y-53267500D03*
X58420000Y-55092500D03*
%TD*%
D17*
%TO.C,FET1*%
X57700000Y-93510000D03*
X61050000Y-90460000D03*
X57700000Y-90460000D03*
X61050000Y-93510000D03*
D18*
X65675000Y-94265000D03*
X65675000Y-89705000D03*
%TD*%
D19*
%TO.C,D2*%
X54225000Y-50655000D03*
X54225000Y-48905000D03*
%TD*%
D12*
%TO.C,R2*%
X59825000Y-66353000D03*
X59825000Y-64528000D03*
%TD*%
D13*
%TO.C,R8*%
X57225000Y-48867500D03*
X57225000Y-50692500D03*
%TD*%
D11*
%TO.C,C1*%
X65225000Y-62817500D03*
X65225000Y-64542500D03*
%TD*%
D12*
%TO.C,R3*%
X56120000Y-45942500D03*
X56120000Y-44117500D03*
%TD*%
D20*
%TO.C,C3*%
X70887500Y-70480000D03*
X69162500Y-70480000D03*
%TD*%
D21*
%TO.C,SW2*%
X52050000Y-70780000D03*
X52050000Y-64780000D03*
X55800000Y-70780000D03*
X55800000Y-64780000D03*
%TD*%
D12*
%TO.C,R5*%
X52725000Y-45942500D03*
X52725000Y-44117500D03*
%TD*%
D21*
%TO.C,SW1*%
X46250000Y-64780000D03*
X46250000Y-70780000D03*
X50000000Y-70780000D03*
X50000000Y-64780000D03*
%TD*%
D22*
%TO.C,ESP1*%
X50975000Y-28380000D03*
X50975000Y-29880000D03*
X50975000Y-31380000D03*
X50975000Y-32880000D03*
X50975000Y-34380000D03*
X50975000Y-35880000D03*
X50975000Y-37380000D03*
X50975000Y-38880000D03*
X50975000Y-40380000D03*
X68475000Y-40380000D03*
X68475000Y-38880000D03*
X68475000Y-37380000D03*
X68475000Y-35880000D03*
X68475000Y-34380000D03*
X68475000Y-32880000D03*
X68475000Y-31380000D03*
X68475000Y-29880000D03*
X68475000Y-28380000D03*
D23*
X61785000Y-33480000D03*
X60685000Y-34580000D03*
X60685000Y-33480000D03*
X59585000Y-33480000D03*
X61785000Y-34580000D03*
X60685000Y-35680000D03*
X59585000Y-35680000D03*
X59585000Y-34580000D03*
X61785000Y-35680000D03*
%TD*%
D12*
%TO.C,R4*%
X58620000Y-44055000D03*
X58620000Y-45880000D03*
%TD*%
D24*
%TO.C,J6*%
X49550000Y-59780000D03*
X49550000Y-58780000D03*
X49550000Y-57780000D03*
X49550000Y-56780000D03*
D25*
X47025000Y-55480000D03*
X47025000Y-61080000D03*
%TD*%
M02*
