M48
; DRILL file {KiCad (6.0.1)} date Sat Feb  5 19:41:41 2022
; FORMAT={3:3/ absolute / metric / suppress leading zeros}
; #@! TF.CreationDate,2022-02-05T19:41:41+11:00
; #@! TF.GenerationSoftware,Kicad,Pcbnew,(6.0.1)
; #@! TF.FileFunction,Plated,1,4,PTH
FMAT,2
METRIC,TZ
; #@! TA.AperFunction,Plated,PTH,ViaDrill
T1C0.400
; #@! TA.AperFunction,Plated,PTH,ComponentDrill
T2C0.400
; #@! TA.AperFunction,Plated,PTH,ViaDrill
T3C0.600
; #@! TA.AperFunction,Plated,PTH,ComponentDrill
T4C0.762
; #@! TA.AperFunction,Plated,PTH,ComponentDrill
T5C1.000
; #@! TA.AperFunction,Plated,PTH,ComponentDrill
T6C1.500
%
G90
G05
T1
X41825Y-79080
X44325Y-48980
X44925Y-64780
X45820Y-40880
X45820Y-42680
X45920Y-28380
X45920Y-29880
X45920Y-31680
X48120Y-40380
X48320Y-33280
X48320Y-35280
X48320Y-44380
X48320Y-46180
X48520Y-37280
X48920Y-28380
X49720Y-40380
X51499Y-47648
X51520Y-56380
X52313Y-47068
X52525Y-34780
X52920Y-28380
X53125Y-33380
X53621Y-31980
X54225Y-51780
X54320Y-42380
X54920Y-28380
X55525Y-47180
X55825Y-57580
X57725Y-56380
X58878Y-48733
X60135Y-31940
X61235Y-31920
X63025Y-70880
X64225Y-70880
X65425Y-70880
X67625Y-93380
X70075Y-41930
X74075Y-71280
X75725Y-82180
T2
X59535Y-34030
X59585Y-35130
X60135Y-33480
X60135Y-34580
X60135Y-35680
X60685Y-34030
X60685Y-35130
X61235Y-33480
X61235Y-34580
X61235Y-35680
X61785Y-34030
X61785Y-35130
T3
X43820Y-76780
X44620Y-75580
X44620Y-77980
X45420Y-76780
X53020Y-105580
X53220Y-106780
X54220Y-105780
X54220Y-107780
X55220Y-106780
X67620Y-89180
X67820Y-87980
X68820Y-86980
X68820Y-88980
X69820Y-87980
X75420Y-67580
X76320Y-58880
X76320Y-62080
X76620Y-66580
X76620Y-68580
X77420Y-58080
X77420Y-59680
X77420Y-61280
X77420Y-62880
X77820Y-67580
T4
X60745Y-73730
X60745Y-83890
X63285Y-73730
X63285Y-83890
X65825Y-73730
X65825Y-83890
X68365Y-73730
X68365Y-83890
X70905Y-73730
X70905Y-83890
X73445Y-73730
X73445Y-83890
T5
X47007Y-89780
X52007Y-89780
X54225Y-54460
X54225Y-57000
X54225Y-59540
X54225Y-62080
X64565Y-44260
X64565Y-46800
X64565Y-49340
X64565Y-51880
X64565Y-54420
X64565Y-56960
X64575Y-76325
X64575Y-78865
X64575Y-81405
X68365Y-76270
X68365Y-78810
X68365Y-81350
X69645Y-44260
X69645Y-46800
T6
X60825Y-116480
X65825Y-116480
X70825Y-116480
T5
G00X51275Y-97380
M15
G01X50675Y-97380
M16
G05
G00X51275Y-103380
M15
G01X50675Y-103380
M16
G05
G00X55675Y-100680
M15
G01X55675Y-100080
M16
G05
T0
M30
