%TF.GenerationSoftware,KiCad,Pcbnew,(6.0.1)*%
%TF.CreationDate,2022-02-05T18:26:11+11:00*%
%TF.ProjectId,ESP32_LED_Controller_v1,45535033-325f-44c4-9544-5f436f6e7472,rev?*%
%TF.SameCoordinates,Original*%
%TF.FileFunction,Copper,L2,Inr*%
%TF.FilePolarity,Positive*%
%FSLAX46Y46*%
G04 Gerber Fmt 4.6, Leading zero omitted, Abs format (unit mm)*
G04 Created by KiCad (PCBNEW (6.0.1)) date 2022-02-05 18:26:11*
%MOMM*%
%LPD*%
G01*
G04 APERTURE LIST*
%TA.AperFunction,ComponentPad*%
%ADD10R,1.700000X1.700000*%
%TD*%
%TA.AperFunction,ComponentPad*%
%ADD11O,1.700000X1.700000*%
%TD*%
%TA.AperFunction,ComponentPad*%
%ADD12R,2.500000X2.500000*%
%TD*%
%TA.AperFunction,ComponentPad*%
%ADD13R,2.000000X2.000000*%
%TD*%
%TA.AperFunction,ComponentPad*%
%ADD14C,2.000000*%
%TD*%
%TA.AperFunction,ComponentPad*%
%ADD15C,3.000000*%
%TD*%
%TA.AperFunction,ComponentPad*%
%ADD16C,1.524000*%
%TD*%
%TA.AperFunction,ComponentPad*%
%ADD17C,0.420000*%
%TD*%
%TA.AperFunction,ViaPad*%
%ADD18C,0.800000*%
%TD*%
%TA.AperFunction,ViaPad*%
%ADD19C,0.900000*%
%TD*%
G04 APERTURE END LIST*
D10*
%TO.N,GND*%
%TO.C,J4*%
X54225000Y-62080000D03*
D11*
%TO.N,ESP_Vcc*%
X54225000Y-59540000D03*
%TO.N,/SDA*%
X54225000Y-57000000D03*
%TO.N,/SCL*%
X54225000Y-54460000D03*
%TD*%
D12*
%TO.N,Vin*%
%TO.C,J3*%
X50975000Y-97380000D03*
%TO.N,GND*%
X50975000Y-103380000D03*
%TO.N,N/C*%
X55675000Y-100380000D03*
%TD*%
D13*
%TO.N,Vin*%
%TO.C,C4*%
X47007323Y-89780000D03*
D14*
%TO.N,Strip_-*%
X52007323Y-89780000D03*
%TD*%
D15*
%TO.N,Vin*%
%TO.C,J5*%
X60825000Y-116480000D03*
%TO.N,/Din_STRIP*%
X65825000Y-116480000D03*
%TO.N,Strip_-*%
X70825000Y-116480000D03*
%TD*%
D16*
%TO.N,unconnected-(LLC1-Pad1)*%
%TO.C,LLC1*%
X60745000Y-83890000D03*
%TO.N,/IO6*%
X63285000Y-83890000D03*
%TO.N,ESP_Vcc*%
X65825000Y-83890000D03*
%TO.N,GND*%
X68365000Y-83890000D03*
%TO.N,/3v3_Din_STRIP*%
X70905000Y-83890000D03*
%TO.N,unconnected-(LLC1-Pad6)*%
X73445000Y-83890000D03*
%TO.N,unconnected-(LLC1-Pad7)*%
X73445000Y-73730000D03*
%TO.N,/Hv_Din_STRIP*%
X70905000Y-73730000D03*
%TO.N,GND*%
X68365000Y-73730000D03*
%TO.N,Vin*%
X65825000Y-73730000D03*
%TO.N,/IO6_HV*%
X63285000Y-73730000D03*
%TO.N,unconnected-(LLC1-Pad12)*%
X60745000Y-73730000D03*
%TD*%
D17*
%TO.N,GND*%
%TO.C,ESP1*%
X61785000Y-34030000D03*
X59535000Y-34030000D03*
X59585000Y-35130000D03*
X60135000Y-33480000D03*
X60685000Y-35130000D03*
X61785000Y-35130000D03*
X60135000Y-34580000D03*
X61235000Y-33480000D03*
X61235000Y-34580000D03*
X61235000Y-35680000D03*
X60685000Y-34030000D03*
X60135000Y-35680000D03*
%TD*%
D10*
%TO.N,~{Reset}*%
%TO.C,J2*%
X69645000Y-44260000D03*
D11*
%TO.N,~{Flash}*%
X69645000Y-46800000D03*
%TD*%
D10*
%TO.N,GND*%
%TO.C,J1*%
X64565000Y-44260000D03*
D11*
%TO.N,/CTS*%
X64565000Y-46800000D03*
%TO.N,Vin*%
X64565000Y-49340000D03*
%TO.N,/TX_CON*%
X64565000Y-51880000D03*
%TO.N,/RX_CON*%
X64565000Y-54420000D03*
%TO.N,/DTR*%
X64565000Y-56960000D03*
%TD*%
D10*
%TO.N,GND*%
%TO.C,J7*%
X64575000Y-81405000D03*
D11*
%TO.N,Vin*%
X64575000Y-78865000D03*
%TO.N,/IO4*%
X64575000Y-76325000D03*
%TD*%
D10*
%TO.N,GND*%
%TO.C,J9*%
X68365000Y-81350000D03*
D11*
%TO.N,ESP_Vcc*%
X68365000Y-78810000D03*
%TO.N,/IO5*%
X68365000Y-76270000D03*
%TD*%
D18*
%TO.N,~{Flash}*%
X51499232Y-47648385D03*
%TO.N,/IO5*%
X70075000Y-41930000D03*
X74075000Y-71280000D03*
%TO.N,/3v3_Din_STRIP*%
X58877878Y-48732878D03*
%TO.N,Net-(FET1-Pad1)*%
X57725000Y-56380000D03*
X67625000Y-93380000D03*
%TO.N,/IO6_HV*%
X44325000Y-48980000D03*
X41825000Y-79080000D03*
%TO.N,/IO5*%
X53125000Y-33380000D03*
%TO.N,/IO6*%
X52525000Y-34780000D03*
%TO.N,/IO4*%
X53620980Y-31980000D03*
%TO.N,/3v3_Din_STRIP*%
X75725000Y-82180000D03*
%TO.N,GND*%
X64225000Y-70880000D03*
X63025000Y-70880000D03*
X65425000Y-70880000D03*
X44925000Y-64780000D03*
%TO.N,Vin*%
X55825000Y-57580000D03*
%TO.N,ESP_Vcc*%
X55525000Y-47180000D03*
X52312872Y-47067872D03*
%TO.N,GND*%
X54225000Y-51780000D03*
%TO.N,~{Reset}*%
X54320000Y-42380000D03*
%TO.N,/SCL*%
X51520000Y-56380000D03*
%TO.N,GND*%
X61235000Y-31920000D03*
X60135000Y-31940000D03*
X49720000Y-40380000D03*
X48120000Y-40380000D03*
%TO.N,/IO7*%
X48520000Y-37280000D03*
D19*
%TO.N,ESP_Vcc*%
X77420000Y-59680000D03*
D18*
X54920000Y-28380000D03*
X52920000Y-28380000D03*
X48920000Y-28380000D03*
X45920000Y-28380000D03*
D19*
X76320000Y-62080000D03*
X77420000Y-62880000D03*
D18*
X48320000Y-35280000D03*
D19*
X77420000Y-61280000D03*
X76320000Y-58880000D03*
X77420000Y-58080000D03*
D18*
X48320000Y-33280000D03*
%TO.N,GND*%
X45920000Y-31680000D03*
D19*
X68820000Y-86980000D03*
X54220000Y-107780000D03*
X68820000Y-88980000D03*
D18*
X45920000Y-29880000D03*
X45820000Y-42680000D03*
X45820000Y-40880000D03*
D19*
X67820000Y-87980000D03*
X53020000Y-105580000D03*
X69820000Y-87980000D03*
X67620000Y-89180000D03*
X53220000Y-106780000D03*
X54220000Y-105780000D03*
X55220000Y-106780000D03*
%TO.N,Vin*%
X44620000Y-75580000D03*
X77820000Y-67580000D03*
D18*
X48320000Y-46180000D03*
D19*
X44620000Y-77980000D03*
X43820000Y-76780000D03*
X45420000Y-76780000D03*
X76620000Y-66580000D03*
X75420000Y-67580000D03*
X76620000Y-68580000D03*
D18*
X48320000Y-44380000D03*
%TD*%
%TA.AperFunction,Conductor*%
%TO.N,GND*%
G36*
X45062629Y-27808002D02*
G01*
X45109122Y-27861658D01*
X45119226Y-27931932D01*
X45103628Y-27976998D01*
X45085473Y-28008444D01*
X45026458Y-28190072D01*
X45025768Y-28196633D01*
X45025768Y-28196635D01*
X45021720Y-28235151D01*
X45006496Y-28380000D01*
X45007186Y-28386565D01*
X45022993Y-28536956D01*
X45026458Y-28569928D01*
X45085473Y-28751556D01*
X45180960Y-28916944D01*
X45308747Y-29058866D01*
X45463248Y-29171118D01*
X45469276Y-29173802D01*
X45469278Y-29173803D01*
X45631681Y-29246109D01*
X45637712Y-29248794D01*
X45731113Y-29268647D01*
X45818056Y-29287128D01*
X45818061Y-29287128D01*
X45824513Y-29288500D01*
X46015487Y-29288500D01*
X46021939Y-29287128D01*
X46021944Y-29287128D01*
X46108887Y-29268647D01*
X46202288Y-29248794D01*
X46208319Y-29246109D01*
X46370722Y-29173803D01*
X46370724Y-29173802D01*
X46376752Y-29171118D01*
X46531253Y-29058866D01*
X46659040Y-28916944D01*
X46754527Y-28751556D01*
X46813542Y-28569928D01*
X46817008Y-28536956D01*
X46832814Y-28386565D01*
X46833504Y-28380000D01*
X46818280Y-28235151D01*
X46814232Y-28196635D01*
X46814232Y-28196633D01*
X46813542Y-28190072D01*
X46754527Y-28008444D01*
X46736372Y-27976998D01*
X46719635Y-27908004D01*
X46742856Y-27840912D01*
X46798663Y-27797025D01*
X46845492Y-27788000D01*
X47994508Y-27788000D01*
X48062629Y-27808002D01*
X48109122Y-27861658D01*
X48119226Y-27931932D01*
X48103628Y-27976998D01*
X48085473Y-28008444D01*
X48026458Y-28190072D01*
X48025768Y-28196633D01*
X48025768Y-28196635D01*
X48021720Y-28235151D01*
X48006496Y-28380000D01*
X48007186Y-28386565D01*
X48022993Y-28536956D01*
X48026458Y-28569928D01*
X48085473Y-28751556D01*
X48180960Y-28916944D01*
X48308747Y-29058866D01*
X48463248Y-29171118D01*
X48469276Y-29173802D01*
X48469278Y-29173803D01*
X48631681Y-29246109D01*
X48637712Y-29248794D01*
X48731113Y-29268647D01*
X48818056Y-29287128D01*
X48818061Y-29287128D01*
X48824513Y-29288500D01*
X49015487Y-29288500D01*
X49021939Y-29287128D01*
X49021944Y-29287128D01*
X49108887Y-29268647D01*
X49202288Y-29248794D01*
X49208319Y-29246109D01*
X49370722Y-29173803D01*
X49370724Y-29173802D01*
X49376752Y-29171118D01*
X49531253Y-29058866D01*
X49659040Y-28916944D01*
X49754527Y-28751556D01*
X49813542Y-28569928D01*
X49817008Y-28536956D01*
X49832814Y-28386565D01*
X49833504Y-28380000D01*
X49818280Y-28235151D01*
X49814232Y-28196635D01*
X49814232Y-28196633D01*
X49813542Y-28190072D01*
X49754527Y-28008444D01*
X49736372Y-27976998D01*
X49719635Y-27908004D01*
X49742856Y-27840912D01*
X49798663Y-27797025D01*
X49845492Y-27788000D01*
X51994508Y-27788000D01*
X52062629Y-27808002D01*
X52109122Y-27861658D01*
X52119226Y-27931932D01*
X52103628Y-27976998D01*
X52085473Y-28008444D01*
X52026458Y-28190072D01*
X52025768Y-28196633D01*
X52025768Y-28196635D01*
X52021720Y-28235151D01*
X52006496Y-28380000D01*
X52007186Y-28386565D01*
X52022993Y-28536956D01*
X52026458Y-28569928D01*
X52085473Y-28751556D01*
X52180960Y-28916944D01*
X52308747Y-29058866D01*
X52463248Y-29171118D01*
X52469276Y-29173802D01*
X52469278Y-29173803D01*
X52631681Y-29246109D01*
X52637712Y-29248794D01*
X52731113Y-29268647D01*
X52818056Y-29287128D01*
X52818061Y-29287128D01*
X52824513Y-29288500D01*
X53015487Y-29288500D01*
X53021939Y-29287128D01*
X53021944Y-29287128D01*
X53108887Y-29268647D01*
X53202288Y-29248794D01*
X53208319Y-29246109D01*
X53370722Y-29173803D01*
X53370724Y-29173802D01*
X53376752Y-29171118D01*
X53531253Y-29058866D01*
X53659040Y-28916944D01*
X53754527Y-28751556D01*
X53800167Y-28611090D01*
X53840241Y-28552486D01*
X53905637Y-28524849D01*
X53975594Y-28536956D01*
X54027900Y-28584962D01*
X54039832Y-28611089D01*
X54085473Y-28751556D01*
X54180960Y-28916944D01*
X54308747Y-29058866D01*
X54463248Y-29171118D01*
X54469276Y-29173802D01*
X54469278Y-29173803D01*
X54631681Y-29246109D01*
X54637712Y-29248794D01*
X54731113Y-29268647D01*
X54818056Y-29287128D01*
X54818061Y-29287128D01*
X54824513Y-29288500D01*
X55015487Y-29288500D01*
X55021939Y-29287128D01*
X55021944Y-29287128D01*
X55108887Y-29268647D01*
X55202288Y-29248794D01*
X55208319Y-29246109D01*
X55370722Y-29173803D01*
X55370724Y-29173802D01*
X55376752Y-29171118D01*
X55531253Y-29058866D01*
X55659040Y-28916944D01*
X55754527Y-28751556D01*
X55813542Y-28569928D01*
X55817008Y-28536956D01*
X55832814Y-28386565D01*
X55833504Y-28380000D01*
X55818280Y-28235151D01*
X55814232Y-28196635D01*
X55814232Y-28196633D01*
X55813542Y-28190072D01*
X55754527Y-28008444D01*
X55736372Y-27976998D01*
X55719635Y-27908004D01*
X55742856Y-27840912D01*
X55798663Y-27797025D01*
X55845492Y-27788000D01*
X75341052Y-27788000D01*
X75409173Y-27808002D01*
X75455666Y-27861658D01*
X75467052Y-27913990D01*
X75468646Y-47525162D01*
X75466901Y-47546069D01*
X75463579Y-47565811D01*
X75463426Y-47578350D01*
X75464116Y-47583168D01*
X75464226Y-47583937D01*
X75465377Y-47596295D01*
X75480630Y-47945641D01*
X75480812Y-47949813D01*
X75504714Y-48131364D01*
X75527065Y-48301134D01*
X75529344Y-48318448D01*
X75609820Y-48681451D01*
X75610648Y-48684076D01*
X75610649Y-48684081D01*
X75706023Y-48986565D01*
X75721628Y-49036059D01*
X75779679Y-49176206D01*
X75854682Y-49357279D01*
X75863916Y-49379573D01*
X76035601Y-49709378D01*
X76156631Y-49899357D01*
X76194641Y-49959020D01*
X76235378Y-50022965D01*
X76237042Y-50025133D01*
X76237050Y-50025145D01*
X76355746Y-50179832D01*
X76461726Y-50317947D01*
X76675386Y-50551114D01*
X76690719Y-50567847D01*
X76700465Y-50579894D01*
X76703338Y-50583930D01*
X76712096Y-50592904D01*
X76715988Y-50595821D01*
X76715995Y-50595827D01*
X76733678Y-50609079D01*
X76747458Y-50621059D01*
X84606561Y-58524373D01*
X84982277Y-58902203D01*
X84994674Y-58916721D01*
X85004041Y-58929543D01*
X85004044Y-58929546D01*
X85009339Y-58936794D01*
X85016456Y-58942265D01*
X85024783Y-58948666D01*
X85041352Y-58963945D01*
X85075245Y-59001340D01*
X85226947Y-59168717D01*
X85234791Y-59178276D01*
X85416933Y-59423867D01*
X85423803Y-59434148D01*
X85462710Y-59499060D01*
X85565696Y-59670880D01*
X85581005Y-59696422D01*
X85586832Y-59707323D01*
X85599812Y-59734767D01*
X85717573Y-59983754D01*
X85722303Y-59995174D01*
X85808988Y-60237438D01*
X85825313Y-60283064D01*
X85828901Y-60294891D01*
X85903205Y-60591527D01*
X85905612Y-60603633D01*
X85943424Y-60858537D01*
X85950480Y-60906106D01*
X85951691Y-60918407D01*
X85964805Y-61185331D01*
X85964890Y-61187068D01*
X85963541Y-61212637D01*
X85961814Y-61223730D01*
X85962978Y-61232632D01*
X85962978Y-61232635D01*
X85965936Y-61255251D01*
X85967000Y-61271589D01*
X85967000Y-80580672D01*
X85965500Y-80600056D01*
X85961814Y-80623730D01*
X85964274Y-80642539D01*
X85964341Y-80643050D01*
X85965253Y-80665570D01*
X85955324Y-80867685D01*
X85951693Y-80941590D01*
X85950482Y-80953890D01*
X85910654Y-81222389D01*
X85905615Y-81256358D01*
X85903206Y-81268473D01*
X85828905Y-81565100D01*
X85825315Y-81576933D01*
X85722304Y-81864826D01*
X85717573Y-81876249D01*
X85601412Y-82121854D01*
X85586835Y-82152674D01*
X85581009Y-82163574D01*
X85539124Y-82233454D01*
X85423804Y-82425852D01*
X85416934Y-82436133D01*
X85234787Y-82681731D01*
X85226943Y-82691289D01*
X85046313Y-82890584D01*
X85027279Y-82907711D01*
X85018206Y-82914339D01*
X84998274Y-82940268D01*
X84987733Y-82952311D01*
X83621533Y-84326196D01*
X76752928Y-91233439D01*
X76736664Y-91247235D01*
X76725041Y-91255510D01*
X76725038Y-91255513D01*
X76721071Y-91258337D01*
X76712096Y-91267096D01*
X76708718Y-91271603D01*
X76700802Y-91281147D01*
X76461725Y-91542053D01*
X76235378Y-91837035D01*
X76035601Y-92150622D01*
X75863915Y-92480427D01*
X75721627Y-92823941D01*
X75720801Y-92826561D01*
X75720798Y-92826569D01*
X75715600Y-92843056D01*
X75609819Y-93178548D01*
X75529343Y-93541552D01*
X75528985Y-93544272D01*
X75528984Y-93544277D01*
X75515175Y-93649167D01*
X75480811Y-93910187D01*
X75465718Y-94255883D01*
X75464871Y-94264402D01*
X75464845Y-94266507D01*
X75463464Y-94275380D01*
X75464628Y-94284281D01*
X75464628Y-94284286D01*
X75467583Y-94306881D01*
X75468647Y-94323227D01*
X75467812Y-106133068D01*
X75467005Y-117562178D01*
X75467003Y-117585489D01*
X75465504Y-117604857D01*
X75461814Y-117628556D01*
X75462978Y-117637457D01*
X75462978Y-117637462D01*
X75464580Y-117649709D01*
X75465542Y-117671107D01*
X75451105Y-118030349D01*
X75450293Y-118040435D01*
X75410613Y-118368150D01*
X75403321Y-118428371D01*
X75401705Y-118438347D01*
X75337882Y-118751866D01*
X75323750Y-118821289D01*
X75321334Y-118831116D01*
X75212903Y-119206554D01*
X75209708Y-119216155D01*
X75071504Y-119581673D01*
X75067548Y-119590987D01*
X74933773Y-119873806D01*
X74900454Y-119944246D01*
X74895763Y-119953212D01*
X74700867Y-120291912D01*
X74695472Y-120300473D01*
X74474024Y-120622445D01*
X74467960Y-120630545D01*
X74245821Y-120903669D01*
X74228601Y-120921072D01*
X74225352Y-120923772D01*
X74225350Y-120923774D01*
X74218450Y-120929508D01*
X74213436Y-120936948D01*
X74213435Y-120936950D01*
X74202436Y-120953273D01*
X74191604Y-120967148D01*
X66969662Y-128992152D01*
X63132763Y-133255704D01*
X63117588Y-133269990D01*
X63112797Y-133273805D01*
X63101641Y-133282687D01*
X63089499Y-133299916D01*
X63075615Y-133316413D01*
X62836722Y-133555361D01*
X62829070Y-133562407D01*
X62547596Y-133800852D01*
X62539406Y-133807227D01*
X62239217Y-134021600D01*
X62230498Y-134027298D01*
X61913632Y-134216143D01*
X61904477Y-134221099D01*
X61573086Y-134383133D01*
X61563561Y-134387311D01*
X61563551Y-134387315D01*
X61219933Y-134521416D01*
X61210083Y-134524798D01*
X60856563Y-134630062D01*
X60846466Y-134632619D01*
X60485437Y-134708331D01*
X60475169Y-134710045D01*
X60109121Y-134755679D01*
X60098769Y-134756537D01*
X59911784Y-134764272D01*
X59768633Y-134770194D01*
X59744043Y-134768802D01*
X59740147Y-134768196D01*
X59740146Y-134768196D01*
X59731270Y-134766814D01*
X59710360Y-134769548D01*
X59688824Y-134770504D01*
X59545577Y-134764578D01*
X59351242Y-134756538D01*
X59340863Y-134755678D01*
X59037810Y-134717898D01*
X58974835Y-134710047D01*
X58964563Y-134708332D01*
X58603534Y-134632620D01*
X58593437Y-134630063D01*
X58239917Y-134524799D01*
X58230067Y-134521417D01*
X58072088Y-134459764D01*
X57886438Y-134387312D01*
X57876913Y-134383134D01*
X57545524Y-134221100D01*
X57536368Y-134216144D01*
X57219499Y-134027297D01*
X57210783Y-134021601D01*
X57166889Y-133990255D01*
X56910593Y-133807227D01*
X56902403Y-133800852D01*
X56620929Y-133562407D01*
X56613277Y-133555361D01*
X56379665Y-133321695D01*
X56364036Y-133302657D01*
X56361840Y-133299374D01*
X56356851Y-133291914D01*
X56349971Y-133286156D01*
X56349969Y-133286154D01*
X56335213Y-133273805D01*
X56322422Y-133261465D01*
X53681146Y-130326485D01*
X57061854Y-130326485D01*
X57062156Y-130330320D01*
X57080108Y-130558417D01*
X57087370Y-130650695D01*
X57152206Y-130969378D01*
X57255398Y-131277784D01*
X57395405Y-131571316D01*
X57570141Y-131845597D01*
X57572584Y-131848560D01*
X57572585Y-131848562D01*
X57722308Y-132030190D01*
X57777001Y-132096538D01*
X58012902Y-132320399D01*
X58274326Y-132513843D01*
X58415851Y-132593914D01*
X58554019Y-132672086D01*
X58554023Y-132672088D01*
X58557376Y-132673985D01*
X58857832Y-132798438D01*
X58961288Y-132827129D01*
X59167500Y-132884317D01*
X59167508Y-132884319D01*
X59171216Y-132885347D01*
X59492856Y-132933416D01*
X59496154Y-132933560D01*
X59607918Y-132938440D01*
X59607922Y-132938440D01*
X59609294Y-132938500D01*
X59807598Y-132938500D01*
X60049605Y-132923698D01*
X60053388Y-132922997D01*
X60053395Y-132922996D01*
X60253459Y-132885916D01*
X60369372Y-132864433D01*
X60578682Y-132798438D01*
X60675860Y-132767798D01*
X60675863Y-132767797D01*
X60679532Y-132766640D01*
X60683029Y-132765046D01*
X60683035Y-132765044D01*
X60971954Y-132633376D01*
X60971958Y-132633374D01*
X60975462Y-132631777D01*
X61252751Y-132461854D01*
X61255755Y-132459464D01*
X61255760Y-132459461D01*
X61380008Y-132360629D01*
X61507264Y-132259405D01*
X61509958Y-132256664D01*
X61509962Y-132256660D01*
X61732513Y-132030190D01*
X61732517Y-132030185D01*
X61735208Y-132027447D01*
X61933185Y-131769439D01*
X62098242Y-131489227D01*
X62227920Y-131190988D01*
X62320285Y-130879169D01*
X62373961Y-130558417D01*
X62388146Y-130233515D01*
X62375388Y-130071410D01*
X62362932Y-129913140D01*
X62362932Y-129913137D01*
X62362630Y-129909305D01*
X62297794Y-129590622D01*
X62194602Y-129282216D01*
X62054595Y-128988684D01*
X61879859Y-128714403D01*
X61732470Y-128535606D01*
X61675442Y-128466425D01*
X61675438Y-128466420D01*
X61672999Y-128463462D01*
X61437098Y-128239601D01*
X61175674Y-128046157D01*
X60970781Y-127930234D01*
X60895981Y-127887914D01*
X60895977Y-127887912D01*
X60892624Y-127886015D01*
X60592168Y-127761562D01*
X60488712Y-127732871D01*
X60282500Y-127675683D01*
X60282492Y-127675681D01*
X60278784Y-127674653D01*
X59957144Y-127626584D01*
X59953846Y-127626440D01*
X59842082Y-127621560D01*
X59842078Y-127621560D01*
X59840706Y-127621500D01*
X59642402Y-127621500D01*
X59400395Y-127636302D01*
X59396612Y-127637003D01*
X59396605Y-127637004D01*
X59240511Y-127665935D01*
X59080628Y-127695567D01*
X58896058Y-127753762D01*
X58774140Y-127792202D01*
X58774137Y-127792203D01*
X58770468Y-127793360D01*
X58766971Y-127794954D01*
X58766965Y-127794956D01*
X58478046Y-127926624D01*
X58478042Y-127926626D01*
X58474538Y-127928223D01*
X58197249Y-128098146D01*
X58194245Y-128100536D01*
X58194240Y-128100539D01*
X58069993Y-128199370D01*
X57942736Y-128300595D01*
X57940042Y-128303336D01*
X57940038Y-128303340D01*
X57717487Y-128529810D01*
X57717483Y-128529815D01*
X57714792Y-128532553D01*
X57516815Y-128790561D01*
X57351758Y-129070773D01*
X57222080Y-129369012D01*
X57129715Y-129680831D01*
X57076039Y-130001583D01*
X57061854Y-130326485D01*
X53681146Y-130326485D01*
X52064264Y-128529810D01*
X47493852Y-123451180D01*
X53966500Y-123451180D01*
X53980939Y-123645478D01*
X53981968Y-123650026D01*
X53981969Y-123650032D01*
X54024147Y-123836427D01*
X54038623Y-123900403D01*
X54133353Y-124144003D01*
X54263049Y-124370924D01*
X54424862Y-124576183D01*
X54615237Y-124755269D01*
X54829991Y-124904250D01*
X54834181Y-124906316D01*
X54834184Y-124906318D01*
X55060219Y-125017786D01*
X55060222Y-125017787D01*
X55064407Y-125019851D01*
X55068850Y-125021273D01*
X55068852Y-125021274D01*
X55308877Y-125098106D01*
X55313335Y-125099533D01*
X55571307Y-125141547D01*
X55685058Y-125143036D01*
X55827978Y-125144907D01*
X55827981Y-125144907D01*
X55832655Y-125144968D01*
X56091638Y-125109722D01*
X56342567Y-125036583D01*
X56378862Y-125019851D01*
X56397112Y-125011437D01*
X56579928Y-124927158D01*
X56629976Y-124894345D01*
X56794596Y-124786416D01*
X56794601Y-124786412D01*
X56798509Y-124783850D01*
X56993506Y-124609808D01*
X57160637Y-124408856D01*
X57296229Y-124185407D01*
X57397303Y-123944371D01*
X57461641Y-123691043D01*
X57483500Y-123473959D01*
X57483500Y-120318472D01*
X57483327Y-120316141D01*
X57469407Y-120128826D01*
X57469406Y-120128822D01*
X57469061Y-120124174D01*
X57457725Y-120074074D01*
X57412408Y-119873806D01*
X57411377Y-119869249D01*
X57316647Y-119625649D01*
X57186951Y-119398728D01*
X57025138Y-119193469D01*
X56834763Y-119014383D01*
X56620009Y-118865402D01*
X56615816Y-118863334D01*
X56389781Y-118751866D01*
X56389778Y-118751865D01*
X56385593Y-118749801D01*
X56339449Y-118735030D01*
X56141123Y-118671546D01*
X56136665Y-118670119D01*
X55878693Y-118628105D01*
X55764942Y-118626616D01*
X55622022Y-118624745D01*
X55622019Y-118624745D01*
X55617345Y-118624684D01*
X55358362Y-118659930D01*
X55107433Y-118733069D01*
X55103180Y-118735029D01*
X55103179Y-118735030D01*
X55066659Y-118751866D01*
X54870072Y-118842494D01*
X54831067Y-118868067D01*
X54655404Y-118983236D01*
X54655399Y-118983240D01*
X54651491Y-118985802D01*
X54456494Y-119159844D01*
X54289363Y-119360796D01*
X54153771Y-119584245D01*
X54052697Y-119825281D01*
X53988359Y-120078609D01*
X53966500Y-120295693D01*
X53966500Y-123451180D01*
X47493852Y-123451180D01*
X45263573Y-120972899D01*
X45251052Y-120956451D01*
X45244679Y-120946475D01*
X45244677Y-120946473D01*
X45239846Y-120938911D01*
X45229077Y-120929508D01*
X45223777Y-120924880D01*
X45208896Y-120909470D01*
X44982041Y-120630546D01*
X44975977Y-120622446D01*
X44754528Y-120300473D01*
X44749133Y-120291912D01*
X44554237Y-119953212D01*
X44549546Y-119944246D01*
X44516228Y-119873806D01*
X44382452Y-119590987D01*
X44378496Y-119581673D01*
X44240292Y-119216155D01*
X44237097Y-119206554D01*
X44128666Y-118831116D01*
X44126250Y-118821289D01*
X44112118Y-118751866D01*
X44048295Y-118438347D01*
X44046679Y-118428371D01*
X44039388Y-118368150D01*
X43999707Y-118040435D01*
X43998895Y-118030349D01*
X43984758Y-117678579D01*
X43986156Y-117654133D01*
X43986805Y-117649968D01*
X43986805Y-117649965D01*
X43988186Y-117641096D01*
X43984060Y-117609546D01*
X43982997Y-117593226D01*
X43982997Y-117585489D01*
X43982917Y-116458918D01*
X58811917Y-116458918D01*
X58827682Y-116732320D01*
X58828507Y-116736525D01*
X58828508Y-116736533D01*
X58839127Y-116790657D01*
X58880405Y-117001053D01*
X58881792Y-117005103D01*
X58881793Y-117005108D01*
X58902605Y-117065895D01*
X58969112Y-117260144D01*
X59092160Y-117504799D01*
X59094586Y-117508328D01*
X59094589Y-117508334D01*
X59183337Y-117637462D01*
X59247274Y-117730490D01*
X59431582Y-117933043D01*
X59641675Y-118108707D01*
X59645316Y-118110991D01*
X59870024Y-118251951D01*
X59870028Y-118251953D01*
X59873664Y-118254234D01*
X59941544Y-118284883D01*
X60119345Y-118365164D01*
X60119349Y-118365166D01*
X60123257Y-118366930D01*
X60127377Y-118368150D01*
X60127376Y-118368150D01*
X60381723Y-118443491D01*
X60381727Y-118443492D01*
X60385836Y-118444709D01*
X60390070Y-118445357D01*
X60390075Y-118445358D01*
X60652298Y-118485483D01*
X60652300Y-118485483D01*
X60656540Y-118486132D01*
X60795912Y-118488322D01*
X60926071Y-118490367D01*
X60926077Y-118490367D01*
X60930362Y-118490434D01*
X61202235Y-118457534D01*
X61467127Y-118388041D01*
X61471087Y-118386401D01*
X61471092Y-118386399D01*
X61593632Y-118335641D01*
X61720136Y-118283241D01*
X61956582Y-118145073D01*
X62172089Y-117976094D01*
X62213809Y-117933043D01*
X62359686Y-117782509D01*
X62362669Y-117779431D01*
X62365202Y-117775983D01*
X62365206Y-117775978D01*
X62522257Y-117562178D01*
X62524795Y-117558723D01*
X62552154Y-117508334D01*
X62653418Y-117321830D01*
X62653419Y-117321828D01*
X62655468Y-117318054D01*
X62752269Y-117061877D01*
X62813407Y-116794933D01*
X62837751Y-116522161D01*
X62838193Y-116480000D01*
X62836756Y-116458918D01*
X63811917Y-116458918D01*
X63827682Y-116732320D01*
X63828507Y-116736525D01*
X63828508Y-116736533D01*
X63839127Y-116790657D01*
X63880405Y-117001053D01*
X63881792Y-117005103D01*
X63881793Y-117005108D01*
X63902605Y-117065895D01*
X63969112Y-117260144D01*
X64092160Y-117504799D01*
X64094586Y-117508328D01*
X64094589Y-117508334D01*
X64183337Y-117637462D01*
X64247274Y-117730490D01*
X64431582Y-117933043D01*
X64641675Y-118108707D01*
X64645316Y-118110991D01*
X64870024Y-118251951D01*
X64870028Y-118251953D01*
X64873664Y-118254234D01*
X64941544Y-118284883D01*
X65119345Y-118365164D01*
X65119349Y-118365166D01*
X65123257Y-118366930D01*
X65127377Y-118368150D01*
X65127376Y-118368150D01*
X65381723Y-118443491D01*
X65381727Y-118443492D01*
X65385836Y-118444709D01*
X65390070Y-118445357D01*
X65390075Y-118445358D01*
X65652298Y-118485483D01*
X65652300Y-118485483D01*
X65656540Y-118486132D01*
X65795912Y-118488322D01*
X65926071Y-118490367D01*
X65926077Y-118490367D01*
X65930362Y-118490434D01*
X66202235Y-118457534D01*
X66467127Y-118388041D01*
X66471087Y-118386401D01*
X66471092Y-118386399D01*
X66593632Y-118335641D01*
X66720136Y-118283241D01*
X66956582Y-118145073D01*
X67172089Y-117976094D01*
X67213809Y-117933043D01*
X67359686Y-117782509D01*
X67362669Y-117779431D01*
X67365202Y-117775983D01*
X67365206Y-117775978D01*
X67522257Y-117562178D01*
X67524795Y-117558723D01*
X67552154Y-117508334D01*
X67653418Y-117321830D01*
X67653419Y-117321828D01*
X67655468Y-117318054D01*
X67752269Y-117061877D01*
X67813407Y-116794933D01*
X67837751Y-116522161D01*
X67838193Y-116480000D01*
X67836756Y-116458918D01*
X68811917Y-116458918D01*
X68827682Y-116732320D01*
X68828507Y-116736525D01*
X68828508Y-116736533D01*
X68839127Y-116790657D01*
X68880405Y-117001053D01*
X68881792Y-117005103D01*
X68881793Y-117005108D01*
X68902605Y-117065895D01*
X68969112Y-117260144D01*
X69092160Y-117504799D01*
X69094586Y-117508328D01*
X69094589Y-117508334D01*
X69183337Y-117637462D01*
X69247274Y-117730490D01*
X69431582Y-117933043D01*
X69641675Y-118108707D01*
X69645316Y-118110991D01*
X69870024Y-118251951D01*
X69870028Y-118251953D01*
X69873664Y-118254234D01*
X69941544Y-118284883D01*
X70119345Y-118365164D01*
X70119349Y-118365166D01*
X70123257Y-118366930D01*
X70127377Y-118368150D01*
X70127376Y-118368150D01*
X70381723Y-118443491D01*
X70381727Y-118443492D01*
X70385836Y-118444709D01*
X70390070Y-118445357D01*
X70390075Y-118445358D01*
X70652298Y-118485483D01*
X70652300Y-118485483D01*
X70656540Y-118486132D01*
X70795912Y-118488322D01*
X70926071Y-118490367D01*
X70926077Y-118490367D01*
X70930362Y-118490434D01*
X71202235Y-118457534D01*
X71467127Y-118388041D01*
X71471087Y-118386401D01*
X71471092Y-118386399D01*
X71593632Y-118335641D01*
X71720136Y-118283241D01*
X71956582Y-118145073D01*
X72172089Y-117976094D01*
X72213809Y-117933043D01*
X72359686Y-117782509D01*
X72362669Y-117779431D01*
X72365202Y-117775983D01*
X72365206Y-117775978D01*
X72522257Y-117562178D01*
X72524795Y-117558723D01*
X72552154Y-117508334D01*
X72653418Y-117321830D01*
X72653419Y-117321828D01*
X72655468Y-117318054D01*
X72752269Y-117061877D01*
X72813407Y-116794933D01*
X72837751Y-116522161D01*
X72838193Y-116480000D01*
X72819567Y-116206778D01*
X72764032Y-115938612D01*
X72672617Y-115680465D01*
X72547013Y-115437112D01*
X72537040Y-115422921D01*
X72392008Y-115216562D01*
X72389545Y-115213057D01*
X72203125Y-115012445D01*
X72199810Y-115009731D01*
X72199806Y-115009728D01*
X71994523Y-114841706D01*
X71991205Y-114838990D01*
X71757704Y-114695901D01*
X71753768Y-114694173D01*
X71510873Y-114587549D01*
X71510869Y-114587548D01*
X71506945Y-114585825D01*
X71243566Y-114510800D01*
X71239324Y-114510196D01*
X71239318Y-114510195D01*
X71038834Y-114481662D01*
X70972443Y-114472213D01*
X70828589Y-114471460D01*
X70702877Y-114470802D01*
X70702871Y-114470802D01*
X70698591Y-114470780D01*
X70694347Y-114471339D01*
X70694343Y-114471339D01*
X70575302Y-114487011D01*
X70427078Y-114506525D01*
X70422938Y-114507658D01*
X70422936Y-114507658D01*
X70350008Y-114527609D01*
X70162928Y-114578788D01*
X70158980Y-114580472D01*
X69914982Y-114684546D01*
X69914978Y-114684548D01*
X69911030Y-114686232D01*
X69891125Y-114698145D01*
X69679725Y-114824664D01*
X69679721Y-114824667D01*
X69676043Y-114826868D01*
X69462318Y-114998094D01*
X69273808Y-115196742D01*
X69114002Y-115419136D01*
X68985857Y-115661161D01*
X68984385Y-115665184D01*
X68984383Y-115665188D01*
X68977314Y-115684506D01*
X68891743Y-115918337D01*
X68833404Y-116185907D01*
X68811917Y-116458918D01*
X67836756Y-116458918D01*
X67819567Y-116206778D01*
X67764032Y-115938612D01*
X67672617Y-115680465D01*
X67547013Y-115437112D01*
X67537040Y-115422921D01*
X67392008Y-115216562D01*
X67389545Y-115213057D01*
X67203125Y-115012445D01*
X67199810Y-115009731D01*
X67199806Y-115009728D01*
X66994523Y-114841706D01*
X66991205Y-114838990D01*
X66757704Y-114695901D01*
X66753768Y-114694173D01*
X66510873Y-114587549D01*
X66510869Y-114587548D01*
X66506945Y-114585825D01*
X66243566Y-114510800D01*
X66239324Y-114510196D01*
X66239318Y-114510195D01*
X66038834Y-114481662D01*
X65972443Y-114472213D01*
X65828589Y-114471460D01*
X65702877Y-114470802D01*
X65702871Y-114470802D01*
X65698591Y-114470780D01*
X65694347Y-114471339D01*
X65694343Y-114471339D01*
X65575302Y-114487011D01*
X65427078Y-114506525D01*
X65422938Y-114507658D01*
X65422936Y-114507658D01*
X65350008Y-114527609D01*
X65162928Y-114578788D01*
X65158980Y-114580472D01*
X64914982Y-114684546D01*
X64914978Y-114684548D01*
X64911030Y-114686232D01*
X64891125Y-114698145D01*
X64679725Y-114824664D01*
X64679721Y-114824667D01*
X64676043Y-114826868D01*
X64462318Y-114998094D01*
X64273808Y-115196742D01*
X64114002Y-115419136D01*
X63985857Y-115661161D01*
X63984385Y-115665184D01*
X63984383Y-115665188D01*
X63977314Y-115684506D01*
X63891743Y-115918337D01*
X63833404Y-116185907D01*
X63811917Y-116458918D01*
X62836756Y-116458918D01*
X62819567Y-116206778D01*
X62764032Y-115938612D01*
X62672617Y-115680465D01*
X62547013Y-115437112D01*
X62537040Y-115422921D01*
X62392008Y-115216562D01*
X62389545Y-115213057D01*
X62203125Y-115012445D01*
X62199810Y-115009731D01*
X62199806Y-115009728D01*
X61994523Y-114841706D01*
X61991205Y-114838990D01*
X61757704Y-114695901D01*
X61753768Y-114694173D01*
X61510873Y-114587549D01*
X61510869Y-114587548D01*
X61506945Y-114585825D01*
X61243566Y-114510800D01*
X61239324Y-114510196D01*
X61239318Y-114510195D01*
X61038834Y-114481662D01*
X60972443Y-114472213D01*
X60828589Y-114471460D01*
X60702877Y-114470802D01*
X60702871Y-114470802D01*
X60698591Y-114470780D01*
X60694347Y-114471339D01*
X60694343Y-114471339D01*
X60575302Y-114487011D01*
X60427078Y-114506525D01*
X60422938Y-114507658D01*
X60422936Y-114507658D01*
X60350008Y-114527609D01*
X60162928Y-114578788D01*
X60158980Y-114580472D01*
X59914982Y-114684546D01*
X59914978Y-114684548D01*
X59911030Y-114686232D01*
X59891125Y-114698145D01*
X59679725Y-114824664D01*
X59679721Y-114824667D01*
X59676043Y-114826868D01*
X59462318Y-114998094D01*
X59273808Y-115196742D01*
X59114002Y-115419136D01*
X58985857Y-115661161D01*
X58984385Y-115665184D01*
X58984383Y-115665188D01*
X58977314Y-115684506D01*
X58891743Y-115918337D01*
X58833404Y-116185907D01*
X58811917Y-116458918D01*
X43982917Y-116458918D01*
X43982085Y-104674669D01*
X49217001Y-104674669D01*
X49217371Y-104681490D01*
X49222895Y-104732352D01*
X49226521Y-104747604D01*
X49271676Y-104868054D01*
X49280214Y-104883649D01*
X49356715Y-104985724D01*
X49369276Y-104998285D01*
X49471351Y-105074786D01*
X49486946Y-105083324D01*
X49607394Y-105128478D01*
X49622649Y-105132105D01*
X49673514Y-105137631D01*
X49680328Y-105138000D01*
X50702885Y-105138000D01*
X50718124Y-105133525D01*
X50719329Y-105132135D01*
X50721000Y-105124452D01*
X50721000Y-105119884D01*
X51229000Y-105119884D01*
X51233475Y-105135123D01*
X51234865Y-105136328D01*
X51242548Y-105137999D01*
X52269669Y-105137999D01*
X52276490Y-105137629D01*
X52327352Y-105132105D01*
X52342604Y-105128479D01*
X52463054Y-105083324D01*
X52478649Y-105074786D01*
X52580724Y-104998285D01*
X52593285Y-104985724D01*
X52669786Y-104883649D01*
X52678324Y-104868054D01*
X52723478Y-104747606D01*
X52727105Y-104732351D01*
X52732631Y-104681486D01*
X52733000Y-104674672D01*
X52733000Y-104546354D01*
X59066500Y-104546354D01*
X59066673Y-104548679D01*
X59066673Y-104548685D01*
X59076036Y-104674669D01*
X59080939Y-104740652D01*
X59081968Y-104745200D01*
X59081969Y-104745206D01*
X59109767Y-104868054D01*
X59138623Y-104995577D01*
X59140315Y-104999929D01*
X59140316Y-104999931D01*
X59193864Y-105137629D01*
X59233353Y-105239177D01*
X59363049Y-105466098D01*
X59524862Y-105671357D01*
X59715237Y-105850443D01*
X59929991Y-105999424D01*
X59934181Y-106001490D01*
X59934184Y-106001492D01*
X60160219Y-106112960D01*
X60160222Y-106112961D01*
X60164407Y-106115025D01*
X60168850Y-106116447D01*
X60168852Y-106116448D01*
X60408877Y-106193280D01*
X60413335Y-106194707D01*
X60671307Y-106236721D01*
X60785058Y-106238210D01*
X60927978Y-106240081D01*
X60927981Y-106240081D01*
X60932655Y-106240142D01*
X61191638Y-106204896D01*
X61442567Y-106131757D01*
X61478862Y-106115025D01*
X61497112Y-106106611D01*
X61679928Y-106022332D01*
X61729976Y-105989519D01*
X61894596Y-105881590D01*
X61894601Y-105881586D01*
X61898509Y-105879024D01*
X62093506Y-105704982D01*
X62260637Y-105504030D01*
X62396229Y-105280581D01*
X62497303Y-105039545D01*
X62561641Y-104786217D01*
X62583500Y-104569133D01*
X62583500Y-104546354D01*
X69066500Y-104546354D01*
X69066673Y-104548679D01*
X69066673Y-104548685D01*
X69076036Y-104674669D01*
X69080939Y-104740652D01*
X69081968Y-104745200D01*
X69081969Y-104745206D01*
X69109767Y-104868054D01*
X69138623Y-104995577D01*
X69140315Y-104999929D01*
X69140316Y-104999931D01*
X69193864Y-105137629D01*
X69233353Y-105239177D01*
X69363049Y-105466098D01*
X69524862Y-105671357D01*
X69715237Y-105850443D01*
X69929991Y-105999424D01*
X69934181Y-106001490D01*
X69934184Y-106001492D01*
X70160219Y-106112960D01*
X70160222Y-106112961D01*
X70164407Y-106115025D01*
X70168850Y-106116447D01*
X70168852Y-106116448D01*
X70408877Y-106193280D01*
X70413335Y-106194707D01*
X70671307Y-106236721D01*
X70785058Y-106238210D01*
X70927978Y-106240081D01*
X70927981Y-106240081D01*
X70932655Y-106240142D01*
X71191638Y-106204896D01*
X71442567Y-106131757D01*
X71478862Y-106115025D01*
X71497112Y-106106611D01*
X71679928Y-106022332D01*
X71729976Y-105989519D01*
X71894596Y-105881590D01*
X71894601Y-105881586D01*
X71898509Y-105879024D01*
X72093506Y-105704982D01*
X72260637Y-105504030D01*
X72396229Y-105280581D01*
X72497303Y-105039545D01*
X72561641Y-104786217D01*
X72583500Y-104569133D01*
X72583500Y-101413646D01*
X72569061Y-101219348D01*
X72557725Y-101169248D01*
X72512408Y-100968980D01*
X72511377Y-100964423D01*
X72416647Y-100720823D01*
X72286951Y-100493902D01*
X72125138Y-100288643D01*
X71934763Y-100109557D01*
X71720009Y-99960576D01*
X71715816Y-99958508D01*
X71489781Y-99847040D01*
X71489778Y-99847039D01*
X71485593Y-99844975D01*
X71439449Y-99830204D01*
X71241123Y-99766720D01*
X71236665Y-99765293D01*
X70978693Y-99723279D01*
X70864942Y-99721790D01*
X70722022Y-99719919D01*
X70722019Y-99719919D01*
X70717345Y-99719858D01*
X70458362Y-99755104D01*
X70207433Y-99828243D01*
X70203180Y-99830203D01*
X70203179Y-99830204D01*
X70166659Y-99847040D01*
X69970072Y-99937668D01*
X69931067Y-99963241D01*
X69755404Y-100078410D01*
X69755399Y-100078414D01*
X69751491Y-100080976D01*
X69556494Y-100255018D01*
X69389363Y-100455970D01*
X69253771Y-100679419D01*
X69152697Y-100920455D01*
X69088359Y-101173783D01*
X69066500Y-101390867D01*
X69066500Y-104546354D01*
X62583500Y-104546354D01*
X62583500Y-101413646D01*
X62569061Y-101219348D01*
X62557725Y-101169248D01*
X62512408Y-100968980D01*
X62511377Y-100964423D01*
X62416647Y-100720823D01*
X62286951Y-100493902D01*
X62125138Y-100288643D01*
X61934763Y-100109557D01*
X61720009Y-99960576D01*
X61715816Y-99958508D01*
X61489781Y-99847040D01*
X61489778Y-99847039D01*
X61485593Y-99844975D01*
X61439449Y-99830204D01*
X61241123Y-99766720D01*
X61236665Y-99765293D01*
X60978693Y-99723279D01*
X60864942Y-99721790D01*
X60722022Y-99719919D01*
X60722019Y-99719919D01*
X60717345Y-99719858D01*
X60458362Y-99755104D01*
X60207433Y-99828243D01*
X60203180Y-99830203D01*
X60203179Y-99830204D01*
X60166659Y-99847040D01*
X59970072Y-99937668D01*
X59931067Y-99963241D01*
X59755404Y-100078410D01*
X59755399Y-100078414D01*
X59751491Y-100080976D01*
X59556494Y-100255018D01*
X59389363Y-100455970D01*
X59253771Y-100679419D01*
X59152697Y-100920455D01*
X59088359Y-101173783D01*
X59066500Y-101390867D01*
X59066500Y-104546354D01*
X52733000Y-104546354D01*
X52733000Y-103652115D01*
X52728525Y-103636876D01*
X52727135Y-103635671D01*
X52719452Y-103634000D01*
X51247115Y-103634000D01*
X51231876Y-103638475D01*
X51230671Y-103639865D01*
X51229000Y-103647548D01*
X51229000Y-105119884D01*
X50721000Y-105119884D01*
X50721000Y-103652115D01*
X50716525Y-103636876D01*
X50715135Y-103635671D01*
X50707452Y-103634000D01*
X49235116Y-103634000D01*
X49219877Y-103638475D01*
X49218672Y-103639865D01*
X49217001Y-103647548D01*
X49217001Y-104674669D01*
X43982085Y-104674669D01*
X43981974Y-103107885D01*
X49217000Y-103107885D01*
X49221475Y-103123124D01*
X49222865Y-103124329D01*
X49230548Y-103126000D01*
X50702885Y-103126000D01*
X50718124Y-103121525D01*
X50719329Y-103120135D01*
X50721000Y-103112452D01*
X50721000Y-103107885D01*
X51229000Y-103107885D01*
X51233475Y-103123124D01*
X51234865Y-103124329D01*
X51242548Y-103126000D01*
X52714884Y-103126000D01*
X52730123Y-103121525D01*
X52731328Y-103120135D01*
X52732999Y-103112452D01*
X52732999Y-102085331D01*
X52732629Y-102078510D01*
X52727105Y-102027648D01*
X52723479Y-102012396D01*
X52678324Y-101891946D01*
X52669786Y-101876351D01*
X52593285Y-101774276D01*
X52580724Y-101761715D01*
X52478649Y-101685214D01*
X52465717Y-101678134D01*
X53916500Y-101678134D01*
X53923255Y-101740316D01*
X53974385Y-101876705D01*
X54061739Y-101993261D01*
X54178295Y-102080615D01*
X54314684Y-102131745D01*
X54376866Y-102138500D01*
X56973134Y-102138500D01*
X57035316Y-102131745D01*
X57171705Y-102080615D01*
X57288261Y-101993261D01*
X57375615Y-101876705D01*
X57426745Y-101740316D01*
X57433500Y-101678134D01*
X57433500Y-99081866D01*
X57426745Y-99019684D01*
X57375615Y-98883295D01*
X57288261Y-98766739D01*
X57171705Y-98679385D01*
X57035316Y-98628255D01*
X56973134Y-98621500D01*
X54376866Y-98621500D01*
X54314684Y-98628255D01*
X54178295Y-98679385D01*
X54061739Y-98766739D01*
X53974385Y-98883295D01*
X53923255Y-99019684D01*
X53916500Y-99081866D01*
X53916500Y-101678134D01*
X52465717Y-101678134D01*
X52463054Y-101676676D01*
X52342606Y-101631522D01*
X52327351Y-101627895D01*
X52276486Y-101622369D01*
X52269672Y-101622000D01*
X51247115Y-101622000D01*
X51231876Y-101626475D01*
X51230671Y-101627865D01*
X51229000Y-101635548D01*
X51229000Y-103107885D01*
X50721000Y-103107885D01*
X50721000Y-101640116D01*
X50716525Y-101624877D01*
X50715135Y-101623672D01*
X50707452Y-101622001D01*
X49680331Y-101622001D01*
X49673510Y-101622371D01*
X49622648Y-101627895D01*
X49607396Y-101631521D01*
X49486946Y-101676676D01*
X49471351Y-101685214D01*
X49369276Y-101761715D01*
X49356715Y-101774276D01*
X49280214Y-101876351D01*
X49271676Y-101891946D01*
X49226522Y-102012394D01*
X49222895Y-102027649D01*
X49217369Y-102078514D01*
X49217000Y-102085328D01*
X49217000Y-103107885D01*
X43981974Y-103107885D01*
X43981905Y-102128971D01*
X43981661Y-98678134D01*
X49216500Y-98678134D01*
X49223255Y-98740316D01*
X49274385Y-98876705D01*
X49361739Y-98993261D01*
X49478295Y-99080615D01*
X49614684Y-99131745D01*
X49676866Y-99138500D01*
X52273134Y-99138500D01*
X52335316Y-99131745D01*
X52471705Y-99080615D01*
X52588261Y-98993261D01*
X52675615Y-98876705D01*
X52726745Y-98740316D01*
X52733500Y-98678134D01*
X52733500Y-96081866D01*
X52726745Y-96019684D01*
X52675615Y-95883295D01*
X52588261Y-95766739D01*
X52471705Y-95679385D01*
X52335316Y-95628255D01*
X52273134Y-95621500D01*
X49676866Y-95621500D01*
X49614684Y-95628255D01*
X49478295Y-95679385D01*
X49361739Y-95766739D01*
X49274385Y-95883295D01*
X49223255Y-96019684D01*
X49216500Y-96081866D01*
X49216500Y-98678134D01*
X43981661Y-98678134D01*
X43981354Y-94334844D01*
X43983100Y-94313934D01*
X43985614Y-94298991D01*
X43985615Y-94298981D01*
X43986421Y-94294189D01*
X43986574Y-94281650D01*
X43985774Y-94276063D01*
X43984623Y-94263705D01*
X43969309Y-93912947D01*
X43969308Y-93912936D01*
X43969188Y-93910187D01*
X43934824Y-93649167D01*
X43921015Y-93544277D01*
X43921014Y-93544272D01*
X43920656Y-93541552D01*
X43884841Y-93380000D01*
X66711496Y-93380000D01*
X66712186Y-93386565D01*
X66728476Y-93541552D01*
X66731458Y-93569928D01*
X66790473Y-93751556D01*
X66885960Y-93916944D01*
X66890378Y-93921851D01*
X66890379Y-93921852D01*
X66928220Y-93963879D01*
X67013747Y-94058866D01*
X67168248Y-94171118D01*
X67174276Y-94173802D01*
X67174278Y-94173803D01*
X67336681Y-94246109D01*
X67342712Y-94248794D01*
X67436112Y-94268647D01*
X67523056Y-94287128D01*
X67523061Y-94287128D01*
X67529513Y-94288500D01*
X67720487Y-94288500D01*
X67726939Y-94287128D01*
X67726944Y-94287128D01*
X67813888Y-94268647D01*
X67907288Y-94248794D01*
X67913319Y-94246109D01*
X68075722Y-94173803D01*
X68075724Y-94173802D01*
X68081752Y-94171118D01*
X68236253Y-94058866D01*
X68321780Y-93963879D01*
X68359621Y-93921852D01*
X68359622Y-93921851D01*
X68364040Y-93916944D01*
X68459527Y-93751556D01*
X68518542Y-93569928D01*
X68521525Y-93541552D01*
X68537814Y-93386565D01*
X68538504Y-93380000D01*
X68537814Y-93373435D01*
X68519232Y-93196635D01*
X68519232Y-93196633D01*
X68518542Y-93190072D01*
X68459527Y-93008444D01*
X68364040Y-92843056D01*
X68236253Y-92701134D01*
X68081752Y-92588882D01*
X68075724Y-92586198D01*
X68075722Y-92586197D01*
X67913319Y-92513891D01*
X67913318Y-92513891D01*
X67907288Y-92511206D01*
X67813888Y-92491353D01*
X67726944Y-92472872D01*
X67726939Y-92472872D01*
X67720487Y-92471500D01*
X67529513Y-92471500D01*
X67523061Y-92472872D01*
X67523056Y-92472872D01*
X67436112Y-92491353D01*
X67342712Y-92511206D01*
X67336682Y-92513891D01*
X67336681Y-92513891D01*
X67174278Y-92586197D01*
X67174276Y-92586198D01*
X67168248Y-92588882D01*
X67013747Y-92701134D01*
X66885960Y-92843056D01*
X66790473Y-93008444D01*
X66731458Y-93190072D01*
X66730768Y-93196633D01*
X66730768Y-93196635D01*
X66712186Y-93373435D01*
X66711496Y-93380000D01*
X43884841Y-93380000D01*
X43840180Y-93178549D01*
X43839351Y-93175919D01*
X43729201Y-92826569D01*
X43729198Y-92826561D01*
X43728372Y-92823941D01*
X43586084Y-92480427D01*
X43414399Y-92150622D01*
X43214622Y-91837035D01*
X43212958Y-91834867D01*
X43212950Y-91834855D01*
X43094254Y-91680168D01*
X42988274Y-91542053D01*
X42759278Y-91292149D01*
X42749535Y-91280106D01*
X42746662Y-91276070D01*
X42737904Y-91267096D01*
X42734012Y-91264179D01*
X42734005Y-91264173D01*
X42716322Y-91250921D01*
X42702540Y-91238939D01*
X42683966Y-91220260D01*
X42294034Y-90828134D01*
X45498823Y-90828134D01*
X45505578Y-90890316D01*
X45556708Y-91026705D01*
X45644062Y-91143261D01*
X45760618Y-91230615D01*
X45897007Y-91281745D01*
X45959189Y-91288500D01*
X48055457Y-91288500D01*
X48117639Y-91281745D01*
X48254028Y-91230615D01*
X48370584Y-91143261D01*
X48457938Y-91026705D01*
X48509068Y-90890316D01*
X48515823Y-90828134D01*
X48515823Y-89780000D01*
X50494158Y-89780000D01*
X50512788Y-90016711D01*
X50568218Y-90247594D01*
X50659083Y-90466963D01*
X50661669Y-90471183D01*
X50780564Y-90665202D01*
X50780568Y-90665208D01*
X50783147Y-90669416D01*
X50937354Y-90849969D01*
X51117907Y-91004176D01*
X51122115Y-91006755D01*
X51122121Y-91006759D01*
X51316140Y-91125654D01*
X51320360Y-91128240D01*
X51324930Y-91130133D01*
X51324934Y-91130135D01*
X51535156Y-91217211D01*
X51539729Y-91219105D01*
X51587672Y-91230615D01*
X51765799Y-91273380D01*
X51765805Y-91273381D01*
X51770612Y-91274535D01*
X52007323Y-91293165D01*
X52244034Y-91274535D01*
X52248841Y-91273381D01*
X52248847Y-91273380D01*
X52426974Y-91230615D01*
X52474917Y-91219105D01*
X52479490Y-91217211D01*
X52689712Y-91130135D01*
X52689716Y-91130133D01*
X52694286Y-91128240D01*
X52698506Y-91125654D01*
X52892525Y-91006759D01*
X52892531Y-91006755D01*
X52896739Y-91004176D01*
X53077292Y-90849969D01*
X53231499Y-90669416D01*
X53234078Y-90665208D01*
X53234082Y-90665202D01*
X53352977Y-90471183D01*
X53355563Y-90466963D01*
X53446428Y-90247594D01*
X53501858Y-90016711D01*
X53520488Y-89780000D01*
X53501858Y-89543289D01*
X53446428Y-89312406D01*
X53355563Y-89093037D01*
X53352977Y-89088817D01*
X53234082Y-88894798D01*
X53234078Y-88894792D01*
X53231499Y-88890584D01*
X53077292Y-88710031D01*
X52896739Y-88555824D01*
X52892531Y-88553245D01*
X52892525Y-88553241D01*
X52698506Y-88434346D01*
X52694286Y-88431760D01*
X52689716Y-88429867D01*
X52689712Y-88429865D01*
X52479490Y-88342789D01*
X52479488Y-88342788D01*
X52474917Y-88340895D01*
X52394714Y-88321640D01*
X52248847Y-88286620D01*
X52248841Y-88286619D01*
X52244034Y-88285465D01*
X52007323Y-88266835D01*
X51770612Y-88285465D01*
X51765805Y-88286619D01*
X51765799Y-88286620D01*
X51619932Y-88321640D01*
X51539729Y-88340895D01*
X51535158Y-88342788D01*
X51535156Y-88342789D01*
X51324934Y-88429865D01*
X51324930Y-88429867D01*
X51320360Y-88431760D01*
X51316140Y-88434346D01*
X51122121Y-88553241D01*
X51122115Y-88553245D01*
X51117907Y-88555824D01*
X50937354Y-88710031D01*
X50783147Y-88890584D01*
X50780568Y-88894792D01*
X50780564Y-88894798D01*
X50661669Y-89088817D01*
X50659083Y-89093037D01*
X50568218Y-89312406D01*
X50512788Y-89543289D01*
X50494158Y-89780000D01*
X48515823Y-89780000D01*
X48515823Y-88731866D01*
X48509068Y-88669684D01*
X48457938Y-88533295D01*
X48370584Y-88416739D01*
X48254028Y-88329385D01*
X48117639Y-88278255D01*
X48055457Y-88271500D01*
X45959189Y-88271500D01*
X45897007Y-88278255D01*
X45760618Y-88329385D01*
X45644062Y-88416739D01*
X45556708Y-88533295D01*
X45505578Y-88669684D01*
X45498823Y-88731866D01*
X45498823Y-90828134D01*
X42294034Y-90828134D01*
X35394711Y-83890000D01*
X59469647Y-83890000D01*
X59489022Y-84111463D01*
X59546560Y-84326196D01*
X59548882Y-84331177D01*
X59548883Y-84331178D01*
X59638186Y-84522689D01*
X59638189Y-84522694D01*
X59640512Y-84527676D01*
X59643668Y-84532183D01*
X59643669Y-84532185D01*
X59680107Y-84584223D01*
X59768023Y-84709781D01*
X59925219Y-84866977D01*
X59929727Y-84870134D01*
X59929730Y-84870136D01*
X60005495Y-84923187D01*
X60107323Y-84994488D01*
X60112305Y-84996811D01*
X60112310Y-84996814D01*
X60302810Y-85085645D01*
X60308804Y-85088440D01*
X60314112Y-85089862D01*
X60314114Y-85089863D01*
X60379949Y-85107503D01*
X60523537Y-85145978D01*
X60745000Y-85165353D01*
X60966463Y-85145978D01*
X61110051Y-85107503D01*
X61175886Y-85089863D01*
X61175888Y-85089862D01*
X61181196Y-85088440D01*
X61187190Y-85085645D01*
X61377690Y-84996814D01*
X61377695Y-84996811D01*
X61382677Y-84994488D01*
X61484505Y-84923187D01*
X61560270Y-84870136D01*
X61560273Y-84870134D01*
X61564781Y-84866977D01*
X61721977Y-84709781D01*
X61809894Y-84584223D01*
X61846331Y-84532185D01*
X61846332Y-84532183D01*
X61849488Y-84527676D01*
X61851811Y-84522694D01*
X61851814Y-84522689D01*
X61900805Y-84417627D01*
X61947723Y-84364342D01*
X62016000Y-84344881D01*
X62083960Y-84365423D01*
X62129195Y-84417627D01*
X62178186Y-84522689D01*
X62178189Y-84522694D01*
X62180512Y-84527676D01*
X62183668Y-84532183D01*
X62183669Y-84532185D01*
X62220107Y-84584223D01*
X62308023Y-84709781D01*
X62465219Y-84866977D01*
X62469727Y-84870134D01*
X62469730Y-84870136D01*
X62545495Y-84923187D01*
X62647323Y-84994488D01*
X62652305Y-84996811D01*
X62652310Y-84996814D01*
X62842810Y-85085645D01*
X62848804Y-85088440D01*
X62854112Y-85089862D01*
X62854114Y-85089863D01*
X62919949Y-85107503D01*
X63063537Y-85145978D01*
X63285000Y-85165353D01*
X63506463Y-85145978D01*
X63650051Y-85107503D01*
X63715886Y-85089863D01*
X63715888Y-85089862D01*
X63721196Y-85088440D01*
X63727190Y-85085645D01*
X63917690Y-84996814D01*
X63917695Y-84996811D01*
X63922677Y-84994488D01*
X64024505Y-84923187D01*
X64100270Y-84870136D01*
X64100273Y-84870134D01*
X64104781Y-84866977D01*
X64261977Y-84709781D01*
X64349894Y-84584223D01*
X64386331Y-84532185D01*
X64386332Y-84532183D01*
X64389488Y-84527676D01*
X64391811Y-84522694D01*
X64391814Y-84522689D01*
X64440805Y-84417627D01*
X64487723Y-84364342D01*
X64556000Y-84344881D01*
X64623960Y-84365423D01*
X64669195Y-84417627D01*
X64718186Y-84522689D01*
X64718189Y-84522694D01*
X64720512Y-84527676D01*
X64723668Y-84532183D01*
X64723669Y-84532185D01*
X64760107Y-84584223D01*
X64848023Y-84709781D01*
X65005219Y-84866977D01*
X65009727Y-84870134D01*
X65009730Y-84870136D01*
X65085495Y-84923187D01*
X65187323Y-84994488D01*
X65192305Y-84996811D01*
X65192310Y-84996814D01*
X65382810Y-85085645D01*
X65388804Y-85088440D01*
X65394112Y-85089862D01*
X65394114Y-85089863D01*
X65459949Y-85107503D01*
X65603537Y-85145978D01*
X65825000Y-85165353D01*
X66046463Y-85145978D01*
X66190051Y-85107503D01*
X66255886Y-85089863D01*
X66255888Y-85089862D01*
X66261196Y-85088440D01*
X66267190Y-85085645D01*
X66457690Y-84996814D01*
X66457695Y-84996811D01*
X66462677Y-84994488D01*
X66527959Y-84948777D01*
X67670777Y-84948777D01*
X67680074Y-84960793D01*
X67723069Y-84990898D01*
X67732555Y-84996376D01*
X67923993Y-85085645D01*
X67934285Y-85089391D01*
X68138309Y-85144059D01*
X68149104Y-85145962D01*
X68359525Y-85164372D01*
X68370475Y-85164372D01*
X68580896Y-85145962D01*
X68591691Y-85144059D01*
X68795715Y-85089391D01*
X68806007Y-85085645D01*
X68997445Y-84996376D01*
X69006931Y-84990898D01*
X69050764Y-84960207D01*
X69059139Y-84949729D01*
X69052071Y-84936281D01*
X68377812Y-84262022D01*
X68363868Y-84254408D01*
X68362035Y-84254539D01*
X68355420Y-84258790D01*
X67677207Y-84937003D01*
X67670777Y-84948777D01*
X66527959Y-84948777D01*
X66564505Y-84923187D01*
X66640270Y-84870136D01*
X66640273Y-84870134D01*
X66644781Y-84866977D01*
X66801977Y-84709781D01*
X66889894Y-84584223D01*
X66926331Y-84532185D01*
X66926332Y-84532183D01*
X66929488Y-84527676D01*
X66931811Y-84522694D01*
X66931814Y-84522689D01*
X66981081Y-84417035D01*
X67027999Y-84363750D01*
X67096276Y-84344289D01*
X67164236Y-84364831D01*
X67209471Y-84417035D01*
X67258623Y-84522441D01*
X67264103Y-84531932D01*
X67294794Y-84575765D01*
X67305271Y-84584140D01*
X67318718Y-84577072D01*
X67992978Y-83902812D01*
X67999356Y-83891132D01*
X68729408Y-83891132D01*
X68729539Y-83892965D01*
X68733790Y-83899580D01*
X69412003Y-84577793D01*
X69423777Y-84584223D01*
X69435793Y-84574926D01*
X69465897Y-84531932D01*
X69471377Y-84522441D01*
X69520529Y-84417035D01*
X69567447Y-84363750D01*
X69635724Y-84344289D01*
X69703684Y-84364831D01*
X69748919Y-84417035D01*
X69798186Y-84522689D01*
X69798189Y-84522694D01*
X69800512Y-84527676D01*
X69803668Y-84532183D01*
X69803669Y-84532185D01*
X69840107Y-84584223D01*
X69928023Y-84709781D01*
X70085219Y-84866977D01*
X70089727Y-84870134D01*
X70089730Y-84870136D01*
X70165495Y-84923187D01*
X70267323Y-84994488D01*
X70272305Y-84996811D01*
X70272310Y-84996814D01*
X70462810Y-85085645D01*
X70468804Y-85088440D01*
X70474112Y-85089862D01*
X70474114Y-85089863D01*
X70539949Y-85107503D01*
X70683537Y-85145978D01*
X70905000Y-85165353D01*
X71126463Y-85145978D01*
X71270051Y-85107503D01*
X71335886Y-85089863D01*
X71335888Y-85089862D01*
X71341196Y-85088440D01*
X71347190Y-85085645D01*
X71537690Y-84996814D01*
X71537695Y-84996811D01*
X71542677Y-84994488D01*
X71644505Y-84923187D01*
X71720270Y-84870136D01*
X71720273Y-84870134D01*
X71724781Y-84866977D01*
X71881977Y-84709781D01*
X71969894Y-84584223D01*
X72006331Y-84532185D01*
X72006332Y-84532183D01*
X72009488Y-84527676D01*
X72011811Y-84522694D01*
X72011814Y-84522689D01*
X72060805Y-84417627D01*
X72107723Y-84364342D01*
X72176000Y-84344881D01*
X72243960Y-84365423D01*
X72289195Y-84417627D01*
X72338186Y-84522689D01*
X72338189Y-84522694D01*
X72340512Y-84527676D01*
X72343668Y-84532183D01*
X72343669Y-84532185D01*
X72380107Y-84584223D01*
X72468023Y-84709781D01*
X72625219Y-84866977D01*
X72629727Y-84870134D01*
X72629730Y-84870136D01*
X72705495Y-84923187D01*
X72807323Y-84994488D01*
X72812305Y-84996811D01*
X72812310Y-84996814D01*
X73002810Y-85085645D01*
X73008804Y-85088440D01*
X73014112Y-85089862D01*
X73014114Y-85089863D01*
X73079949Y-85107503D01*
X73223537Y-85145978D01*
X73445000Y-85165353D01*
X73666463Y-85145978D01*
X73810051Y-85107503D01*
X73875886Y-85089863D01*
X73875888Y-85089862D01*
X73881196Y-85088440D01*
X73887190Y-85085645D01*
X74077690Y-84996814D01*
X74077695Y-84996811D01*
X74082677Y-84994488D01*
X74184505Y-84923187D01*
X74260270Y-84870136D01*
X74260273Y-84870134D01*
X74264781Y-84866977D01*
X74421977Y-84709781D01*
X74509894Y-84584223D01*
X74546331Y-84532185D01*
X74546332Y-84532183D01*
X74549488Y-84527676D01*
X74551811Y-84522694D01*
X74551814Y-84522689D01*
X74641117Y-84331178D01*
X74641118Y-84331177D01*
X74643440Y-84326196D01*
X74700978Y-84111463D01*
X74720353Y-83890000D01*
X74700978Y-83668537D01*
X74643440Y-83453804D01*
X74625148Y-83414577D01*
X74551814Y-83257311D01*
X74551811Y-83257306D01*
X74549488Y-83252324D01*
X74546331Y-83247815D01*
X74425136Y-83074730D01*
X74425134Y-83074727D01*
X74421977Y-83070219D01*
X74264781Y-82913023D01*
X74260273Y-82909866D01*
X74260270Y-82909864D01*
X74167589Y-82844968D01*
X74082677Y-82785512D01*
X74077695Y-82783189D01*
X74077690Y-82783186D01*
X73886178Y-82693883D01*
X73886177Y-82693882D01*
X73881196Y-82691560D01*
X73875888Y-82690138D01*
X73875886Y-82690137D01*
X73738498Y-82653324D01*
X73666463Y-82634022D01*
X73445000Y-82614647D01*
X73223537Y-82634022D01*
X73151502Y-82653324D01*
X73014114Y-82690137D01*
X73014112Y-82690138D01*
X73008804Y-82691560D01*
X73003823Y-82693882D01*
X73003822Y-82693883D01*
X72812311Y-82783186D01*
X72812306Y-82783189D01*
X72807324Y-82785512D01*
X72802817Y-82788668D01*
X72802815Y-82788669D01*
X72629730Y-82909864D01*
X72629727Y-82909866D01*
X72625219Y-82913023D01*
X72468023Y-83070219D01*
X72464866Y-83074727D01*
X72464864Y-83074730D01*
X72343669Y-83247815D01*
X72340512Y-83252324D01*
X72338189Y-83257306D01*
X72338186Y-83257311D01*
X72289195Y-83362373D01*
X72242277Y-83415658D01*
X72174000Y-83435119D01*
X72106040Y-83414577D01*
X72060805Y-83362373D01*
X72011814Y-83257311D01*
X72011811Y-83257306D01*
X72009488Y-83252324D01*
X72006331Y-83247815D01*
X71885136Y-83074730D01*
X71885134Y-83074727D01*
X71881977Y-83070219D01*
X71724781Y-82913023D01*
X71720273Y-82909866D01*
X71720270Y-82909864D01*
X71627589Y-82844968D01*
X71542677Y-82785512D01*
X71537695Y-82783189D01*
X71537690Y-82783186D01*
X71346178Y-82693883D01*
X71346177Y-82693882D01*
X71341196Y-82691560D01*
X71335888Y-82690138D01*
X71335886Y-82690137D01*
X71198498Y-82653324D01*
X71126463Y-82634022D01*
X70905000Y-82614647D01*
X70683537Y-82634022D01*
X70611502Y-82653324D01*
X70474114Y-82690137D01*
X70474112Y-82690138D01*
X70468804Y-82691560D01*
X70463823Y-82693882D01*
X70463822Y-82693883D01*
X70272311Y-82783186D01*
X70272306Y-82783189D01*
X70267324Y-82785512D01*
X70262817Y-82788668D01*
X70262815Y-82788669D01*
X70089730Y-82909864D01*
X70089727Y-82909866D01*
X70085219Y-82913023D01*
X69928023Y-83070219D01*
X69924866Y-83074727D01*
X69924864Y-83074730D01*
X69803669Y-83247815D01*
X69800512Y-83252324D01*
X69798189Y-83257306D01*
X69798186Y-83257311D01*
X69748919Y-83362965D01*
X69702001Y-83416250D01*
X69633724Y-83435711D01*
X69565764Y-83415169D01*
X69520529Y-83362965D01*
X69471377Y-83257559D01*
X69465897Y-83248068D01*
X69435206Y-83204235D01*
X69424729Y-83195860D01*
X69411282Y-83202928D01*
X68737022Y-83877188D01*
X68729408Y-83891132D01*
X67999356Y-83891132D01*
X68000592Y-83888868D01*
X68000461Y-83887035D01*
X67996210Y-83880420D01*
X67317997Y-83202207D01*
X67306223Y-83195777D01*
X67294207Y-83205074D01*
X67264103Y-83248068D01*
X67258623Y-83257559D01*
X67209471Y-83362965D01*
X67162553Y-83416250D01*
X67094276Y-83435711D01*
X67026316Y-83415169D01*
X66981081Y-83362965D01*
X66931814Y-83257311D01*
X66931811Y-83257306D01*
X66929488Y-83252324D01*
X66926331Y-83247815D01*
X66805136Y-83074730D01*
X66805134Y-83074727D01*
X66801977Y-83070219D01*
X66644781Y-82913023D01*
X66640273Y-82909866D01*
X66640270Y-82909864D01*
X66547589Y-82844968D01*
X66462677Y-82785512D01*
X66457695Y-82783189D01*
X66457690Y-82783186D01*
X66266178Y-82693883D01*
X66266177Y-82693882D01*
X66261196Y-82691560D01*
X66255888Y-82690138D01*
X66255886Y-82690137D01*
X66118498Y-82653324D01*
X66046463Y-82634022D01*
X65997713Y-82629757D01*
X65931595Y-82603893D01*
X65889956Y-82546390D01*
X65886015Y-82475503D01*
X65890713Y-82460006D01*
X65923478Y-82372606D01*
X65927105Y-82357351D01*
X65932631Y-82306486D01*
X65933000Y-82299672D01*
X65933000Y-82244669D01*
X67007001Y-82244669D01*
X67007371Y-82251490D01*
X67012895Y-82302352D01*
X67016521Y-82317604D01*
X67061676Y-82438054D01*
X67070214Y-82453649D01*
X67146715Y-82555724D01*
X67159276Y-82568285D01*
X67261351Y-82644786D01*
X67276946Y-82653324D01*
X67397394Y-82698478D01*
X67412649Y-82702105D01*
X67463514Y-82707631D01*
X67470328Y-82708000D01*
X67542458Y-82708000D01*
X67610579Y-82728002D01*
X67657072Y-82781658D01*
X67662410Y-82814196D01*
X67677928Y-82843718D01*
X68352188Y-83517978D01*
X68366132Y-83525592D01*
X68367965Y-83525461D01*
X68374580Y-83521210D01*
X69052793Y-82842997D01*
X69067103Y-82816792D01*
X69076495Y-82773615D01*
X69126697Y-82723412D01*
X69187083Y-82707999D01*
X69259669Y-82707999D01*
X69266490Y-82707629D01*
X69317352Y-82702105D01*
X69332604Y-82698479D01*
X69453054Y-82653324D01*
X69468649Y-82644786D01*
X69570724Y-82568285D01*
X69583285Y-82555724D01*
X69659786Y-82453649D01*
X69668324Y-82438054D01*
X69713478Y-82317606D01*
X69717105Y-82302351D01*
X69722631Y-82251486D01*
X69723000Y-82244672D01*
X69723000Y-82180000D01*
X74811496Y-82180000D01*
X74812186Y-82186565D01*
X74825959Y-82317604D01*
X74831458Y-82369928D01*
X74890473Y-82551556D01*
X74893776Y-82557278D01*
X74893777Y-82557279D01*
X74912550Y-82589794D01*
X74985960Y-82716944D01*
X74990378Y-82721851D01*
X74990379Y-82721852D01*
X75100108Y-82843718D01*
X75113747Y-82858866D01*
X75268248Y-82971118D01*
X75274276Y-82973802D01*
X75274278Y-82973803D01*
X75436681Y-83046109D01*
X75442712Y-83048794D01*
X75536113Y-83068647D01*
X75623056Y-83087128D01*
X75623061Y-83087128D01*
X75629513Y-83088500D01*
X75820487Y-83088500D01*
X75826939Y-83087128D01*
X75826944Y-83087128D01*
X75913887Y-83068647D01*
X76007288Y-83048794D01*
X76013319Y-83046109D01*
X76175722Y-82973803D01*
X76175724Y-82973802D01*
X76181752Y-82971118D01*
X76336253Y-82858866D01*
X76349892Y-82843718D01*
X76459621Y-82721852D01*
X76459622Y-82721851D01*
X76464040Y-82716944D01*
X76537450Y-82589794D01*
X76556223Y-82557279D01*
X76556224Y-82557278D01*
X76559527Y-82551556D01*
X76618542Y-82369928D01*
X76624042Y-82317604D01*
X76637814Y-82186565D01*
X76638504Y-82180000D01*
X76626520Y-82065977D01*
X76619232Y-81996635D01*
X76619232Y-81996633D01*
X76618542Y-81990072D01*
X76559527Y-81808444D01*
X76464040Y-81643056D01*
X76431464Y-81606876D01*
X76340675Y-81506045D01*
X76340674Y-81506044D01*
X76336253Y-81501134D01*
X76197257Y-81400147D01*
X76187094Y-81392763D01*
X76187093Y-81392762D01*
X76181752Y-81388882D01*
X76175724Y-81386198D01*
X76175722Y-81386197D01*
X76013319Y-81313891D01*
X76013318Y-81313891D01*
X76007288Y-81311206D01*
X75913888Y-81291353D01*
X75826944Y-81272872D01*
X75826939Y-81272872D01*
X75820487Y-81271500D01*
X75629513Y-81271500D01*
X75623061Y-81272872D01*
X75623056Y-81272872D01*
X75536112Y-81291353D01*
X75442712Y-81311206D01*
X75436682Y-81313891D01*
X75436681Y-81313891D01*
X75274278Y-81386197D01*
X75274276Y-81386198D01*
X75268248Y-81388882D01*
X75262907Y-81392762D01*
X75262906Y-81392763D01*
X75252743Y-81400147D01*
X75113747Y-81501134D01*
X75109326Y-81506044D01*
X75109325Y-81506045D01*
X75018537Y-81606876D01*
X74985960Y-81643056D01*
X74890473Y-81808444D01*
X74831458Y-81990072D01*
X74830768Y-81996633D01*
X74830768Y-81996635D01*
X74823480Y-82065977D01*
X74811496Y-82180000D01*
X69723000Y-82180000D01*
X69723000Y-81622115D01*
X69718525Y-81606876D01*
X69717135Y-81605671D01*
X69709452Y-81604000D01*
X67025116Y-81604000D01*
X67009877Y-81608475D01*
X67008672Y-81609865D01*
X67007001Y-81617548D01*
X67007001Y-82244669D01*
X65933000Y-82244669D01*
X65933000Y-81677115D01*
X65928525Y-81661876D01*
X65927135Y-81660671D01*
X65919452Y-81659000D01*
X64847115Y-81659000D01*
X64831876Y-81663475D01*
X64830671Y-81664865D01*
X64829000Y-81672548D01*
X64829000Y-82744884D01*
X64833475Y-82760123D01*
X64834865Y-82761328D01*
X64842548Y-82762999D01*
X64851053Y-82762999D01*
X64919174Y-82783001D01*
X64965667Y-82836657D01*
X64975771Y-82906931D01*
X64946277Y-82971511D01*
X64940148Y-82978094D01*
X64848023Y-83070219D01*
X64844866Y-83074727D01*
X64844864Y-83074730D01*
X64723669Y-83247815D01*
X64720512Y-83252324D01*
X64718189Y-83257306D01*
X64718186Y-83257311D01*
X64669195Y-83362373D01*
X64622277Y-83415658D01*
X64554000Y-83435119D01*
X64486040Y-83414577D01*
X64440805Y-83362373D01*
X64391814Y-83257311D01*
X64391811Y-83257306D01*
X64389488Y-83252324D01*
X64386331Y-83247815D01*
X64265136Y-83074730D01*
X64265134Y-83074727D01*
X64261977Y-83070219D01*
X64169852Y-82978094D01*
X64135827Y-82915783D01*
X64140892Y-82844968D01*
X64183439Y-82788132D01*
X64249959Y-82763321D01*
X64258948Y-82763000D01*
X64302885Y-82763000D01*
X64318124Y-82758525D01*
X64319329Y-82757135D01*
X64321000Y-82749452D01*
X64321000Y-81677115D01*
X64316525Y-81661876D01*
X64315135Y-81660671D01*
X64307452Y-81659000D01*
X63235116Y-81659000D01*
X63219877Y-81663475D01*
X63218672Y-81664865D01*
X63217001Y-81672548D01*
X63217001Y-82299669D01*
X63217371Y-82306490D01*
X63222895Y-82357352D01*
X63226521Y-82372603D01*
X63258017Y-82456618D01*
X63263200Y-82527425D01*
X63229280Y-82589794D01*
X63167024Y-82623923D01*
X63151019Y-82626368D01*
X63063537Y-82634022D01*
X62991502Y-82653324D01*
X62854114Y-82690137D01*
X62854112Y-82690138D01*
X62848804Y-82691560D01*
X62843823Y-82693882D01*
X62843822Y-82693883D01*
X62652311Y-82783186D01*
X62652306Y-82783189D01*
X62647324Y-82785512D01*
X62642817Y-82788668D01*
X62642815Y-82788669D01*
X62469730Y-82909864D01*
X62469727Y-82909866D01*
X62465219Y-82913023D01*
X62308023Y-83070219D01*
X62304866Y-83074727D01*
X62304864Y-83074730D01*
X62183669Y-83247815D01*
X62180512Y-83252324D01*
X62178189Y-83257306D01*
X62178186Y-83257311D01*
X62129195Y-83362373D01*
X62082277Y-83415658D01*
X62014000Y-83435119D01*
X61946040Y-83414577D01*
X61900805Y-83362373D01*
X61851814Y-83257311D01*
X61851811Y-83257306D01*
X61849488Y-83252324D01*
X61846331Y-83247815D01*
X61725136Y-83074730D01*
X61725134Y-83074727D01*
X61721977Y-83070219D01*
X61564781Y-82913023D01*
X61560273Y-82909866D01*
X61560270Y-82909864D01*
X61467589Y-82844968D01*
X61382677Y-82785512D01*
X61377695Y-82783189D01*
X61377690Y-82783186D01*
X61186178Y-82693883D01*
X61186177Y-82693882D01*
X61181196Y-82691560D01*
X61175888Y-82690138D01*
X61175886Y-82690137D01*
X61038498Y-82653324D01*
X60966463Y-82634022D01*
X60745000Y-82614647D01*
X60523537Y-82634022D01*
X60451502Y-82653324D01*
X60314114Y-82690137D01*
X60314112Y-82690138D01*
X60308804Y-82691560D01*
X60303823Y-82693882D01*
X60303822Y-82693883D01*
X60112311Y-82783186D01*
X60112306Y-82783189D01*
X60107324Y-82785512D01*
X60102817Y-82788668D01*
X60102815Y-82788669D01*
X59929730Y-82909864D01*
X59929727Y-82909866D01*
X59925219Y-82913023D01*
X59768023Y-83070219D01*
X59764866Y-83074727D01*
X59764864Y-83074730D01*
X59643669Y-83247815D01*
X59640512Y-83252324D01*
X59638189Y-83257306D01*
X59638186Y-83257311D01*
X59564852Y-83414577D01*
X59546560Y-83453804D01*
X59489022Y-83668537D01*
X59469647Y-83890000D01*
X35394711Y-83890000D01*
X34467723Y-82957797D01*
X34455326Y-82943279D01*
X34445959Y-82930457D01*
X34445956Y-82930454D01*
X34440661Y-82923206D01*
X34425218Y-82911334D01*
X34408648Y-82896055D01*
X34223053Y-82691283D01*
X34215209Y-82681724D01*
X34033067Y-82436133D01*
X34026197Y-82425852D01*
X33917601Y-82244672D01*
X33868993Y-82163573D01*
X33863166Y-82152673D01*
X33732427Y-81876246D01*
X33727696Y-81864823D01*
X33680565Y-81733102D01*
X33624684Y-81576928D01*
X33621097Y-81565103D01*
X33546795Y-81268473D01*
X33544386Y-81256358D01*
X33539348Y-81222389D01*
X33499519Y-80953889D01*
X33498308Y-80941588D01*
X33485134Y-80673415D01*
X34811888Y-80673415D01*
X34838193Y-80949130D01*
X34839278Y-80953564D01*
X34839279Y-80953570D01*
X34887181Y-81149329D01*
X34904024Y-81218159D01*
X34905736Y-81222385D01*
X34905737Y-81222389D01*
X34965566Y-81370098D01*
X35008002Y-81474868D01*
X35147948Y-81713878D01*
X35320931Y-81930182D01*
X35523327Y-82119250D01*
X35750896Y-82277120D01*
X35809924Y-82306486D01*
X35994784Y-82398453D01*
X35994787Y-82398454D01*
X35998871Y-82400486D01*
X36003210Y-82401908D01*
X36003209Y-82401908D01*
X36257724Y-82485343D01*
X36257730Y-82485344D01*
X36262057Y-82486763D01*
X36266548Y-82487543D01*
X36266549Y-82487543D01*
X36531160Y-82533487D01*
X36531168Y-82533488D01*
X36534941Y-82534143D01*
X36538778Y-82534334D01*
X36620887Y-82538422D01*
X36620895Y-82538422D01*
X36622458Y-82538500D01*
X36795356Y-82538500D01*
X36797624Y-82538335D01*
X36797636Y-82538335D01*
X36916791Y-82529689D01*
X37001241Y-82523561D01*
X37174348Y-82485343D01*
X37267235Y-82464836D01*
X37267239Y-82464835D01*
X37271695Y-82463851D01*
X37444310Y-82398453D01*
X37526426Y-82367342D01*
X37526429Y-82367341D01*
X37530696Y-82365724D01*
X37772820Y-82231236D01*
X37992993Y-82063205D01*
X38186604Y-81865151D01*
X38299583Y-81709933D01*
X38346909Y-81644914D01*
X38346911Y-81644911D01*
X38349596Y-81641222D01*
X38478556Y-81396110D01*
X38481109Y-81388882D01*
X38569261Y-81139256D01*
X38570782Y-81134949D01*
X38624341Y-80863210D01*
X38633563Y-80677971D01*
X38637885Y-80591154D01*
X38637885Y-80591148D01*
X38638112Y-80586585D01*
X38611807Y-80310870D01*
X38599836Y-80261946D01*
X38547061Y-80046275D01*
X38545976Y-80041841D01*
X38536201Y-80017706D01*
X38443711Y-79789361D01*
X38443711Y-79789360D01*
X38441998Y-79785132D01*
X38302052Y-79546122D01*
X38129069Y-79329818D01*
X37926673Y-79140750D01*
X37839102Y-79080000D01*
X40911496Y-79080000D01*
X40912186Y-79086565D01*
X40930604Y-79261798D01*
X40931458Y-79269928D01*
X40990473Y-79451556D01*
X40993776Y-79457278D01*
X40993777Y-79457279D01*
X40997578Y-79463863D01*
X41085960Y-79616944D01*
X41090378Y-79621851D01*
X41090379Y-79621852D01*
X41207694Y-79752144D01*
X41213747Y-79758866D01*
X41268213Y-79798438D01*
X41358300Y-79863890D01*
X41368248Y-79871118D01*
X41374276Y-79873802D01*
X41374278Y-79873803D01*
X41519328Y-79938383D01*
X41542712Y-79948794D01*
X41636113Y-79968647D01*
X41723056Y-79987128D01*
X41723061Y-79987128D01*
X41729513Y-79988500D01*
X41920487Y-79988500D01*
X41926939Y-79987128D01*
X41926944Y-79987128D01*
X42013887Y-79968647D01*
X42107288Y-79948794D01*
X42130672Y-79938383D01*
X42275722Y-79873803D01*
X42275724Y-79873802D01*
X42281752Y-79871118D01*
X42291701Y-79863890D01*
X42381787Y-79798438D01*
X42436253Y-79758866D01*
X42442306Y-79752144D01*
X42559621Y-79621852D01*
X42559622Y-79621851D01*
X42564040Y-79616944D01*
X42652422Y-79463863D01*
X42656223Y-79457279D01*
X42656224Y-79457278D01*
X42659527Y-79451556D01*
X42718542Y-79269928D01*
X42719397Y-79261798D01*
X42737814Y-79086565D01*
X42738504Y-79080000D01*
X42728569Y-78985476D01*
X42719232Y-78896635D01*
X42719232Y-78896633D01*
X42718542Y-78890072D01*
X42659527Y-78708444D01*
X42564040Y-78543056D01*
X42521908Y-78496263D01*
X42440675Y-78406045D01*
X42440674Y-78406044D01*
X42436253Y-78401134D01*
X42281752Y-78288882D01*
X42275724Y-78286198D01*
X42275722Y-78286197D01*
X42113319Y-78213891D01*
X42113318Y-78213891D01*
X42107288Y-78211206D01*
X41994646Y-78187263D01*
X41926944Y-78172872D01*
X41926939Y-78172872D01*
X41920487Y-78171500D01*
X41729513Y-78171500D01*
X41723061Y-78172872D01*
X41723056Y-78172872D01*
X41655354Y-78187263D01*
X41542712Y-78211206D01*
X41536682Y-78213891D01*
X41536681Y-78213891D01*
X41374278Y-78286197D01*
X41374276Y-78286198D01*
X41368248Y-78288882D01*
X41213747Y-78401134D01*
X41209326Y-78406044D01*
X41209325Y-78406045D01*
X41128093Y-78496263D01*
X41085960Y-78543056D01*
X40990473Y-78708444D01*
X40931458Y-78890072D01*
X40930768Y-78896633D01*
X40930768Y-78896635D01*
X40921431Y-78985476D01*
X40911496Y-79080000D01*
X37839102Y-79080000D01*
X37699104Y-78982880D01*
X37499934Y-78883794D01*
X37455216Y-78861547D01*
X37455213Y-78861546D01*
X37451129Y-78859514D01*
X37300088Y-78810000D01*
X37192276Y-78774657D01*
X37192270Y-78774656D01*
X37187943Y-78773237D01*
X37166069Y-78769439D01*
X36918840Y-78726513D01*
X36918832Y-78726512D01*
X36915059Y-78725857D01*
X36902996Y-78725256D01*
X36829113Y-78721578D01*
X36829105Y-78721578D01*
X36827542Y-78721500D01*
X36654644Y-78721500D01*
X36652376Y-78721665D01*
X36652364Y-78721665D01*
X36533209Y-78730311D01*
X36448759Y-78736439D01*
X36314347Y-78766114D01*
X36182765Y-78795164D01*
X36182761Y-78795165D01*
X36178305Y-78796149D01*
X36098032Y-78826562D01*
X35923574Y-78892658D01*
X35923571Y-78892659D01*
X35919304Y-78894276D01*
X35677180Y-79028764D01*
X35457007Y-79196795D01*
X35453814Y-79200061D01*
X35453812Y-79200063D01*
X35393462Y-79261798D01*
X35263396Y-79394849D01*
X35175401Y-79515742D01*
X35106292Y-79610689D01*
X35100404Y-79618778D01*
X34971444Y-79863890D01*
X34969926Y-79868188D01*
X34969924Y-79868193D01*
X34908603Y-80041841D01*
X34879218Y-80125051D01*
X34825659Y-80396790D01*
X34825432Y-80401347D01*
X34825432Y-80401348D01*
X34812552Y-80660080D01*
X34811888Y-80673415D01*
X33485134Y-80673415D01*
X33485110Y-80672928D01*
X33486459Y-80647361D01*
X33486805Y-80645142D01*
X33486805Y-80645140D01*
X33488186Y-80636270D01*
X33486547Y-80623730D01*
X33484064Y-80604749D01*
X33483000Y-80588411D01*
X33483000Y-76766552D01*
X42856956Y-76766552D01*
X42857472Y-76772696D01*
X42871087Y-76934829D01*
X42872685Y-76953865D01*
X42886368Y-77001583D01*
X42921955Y-77125689D01*
X42924497Y-77134555D01*
X42927312Y-77140032D01*
X42927313Y-77140035D01*
X42973384Y-77229680D01*
X43010418Y-77301740D01*
X43014241Y-77306564D01*
X43014244Y-77306568D01*
X43077703Y-77386632D01*
X43127177Y-77449052D01*
X43131871Y-77453047D01*
X43265340Y-77566638D01*
X43270324Y-77570880D01*
X43275702Y-77573886D01*
X43275704Y-77573887D01*
X43337381Y-77608357D01*
X43434409Y-77662584D01*
X43577627Y-77709118D01*
X43584293Y-77711284D01*
X43642899Y-77751357D01*
X43670536Y-77816754D01*
X43670572Y-77845162D01*
X43666758Y-77879169D01*
X43656956Y-77966552D01*
X43657472Y-77972696D01*
X43670883Y-78132401D01*
X43672685Y-78153865D01*
X43688734Y-78209834D01*
X43710631Y-78286197D01*
X43724497Y-78334555D01*
X43727312Y-78340032D01*
X43727313Y-78340035D01*
X43768900Y-78420954D01*
X43810418Y-78501740D01*
X43814241Y-78506564D01*
X43814244Y-78506568D01*
X43891935Y-78604588D01*
X43927177Y-78649052D01*
X43931871Y-78653047D01*
X44012395Y-78721578D01*
X44070324Y-78770880D01*
X44075702Y-78773886D01*
X44075704Y-78773887D01*
X44134320Y-78806646D01*
X44234409Y-78862584D01*
X44413180Y-78920670D01*
X44599830Y-78942927D01*
X44605965Y-78942455D01*
X44605967Y-78942455D01*
X44781105Y-78928979D01*
X44781109Y-78928978D01*
X44787247Y-78928506D01*
X44872378Y-78904737D01*
X44962350Y-78879616D01*
X44962353Y-78879615D01*
X44968294Y-78877956D01*
X44973798Y-78875176D01*
X44973800Y-78875175D01*
X45130574Y-78795983D01*
X45130576Y-78795982D01*
X45136075Y-78793204D01*
X45284199Y-78677477D01*
X45288225Y-78672813D01*
X45402994Y-78539852D01*
X45402995Y-78539850D01*
X45407023Y-78535184D01*
X45499870Y-78371744D01*
X45559203Y-78193382D01*
X45582762Y-78006892D01*
X45583138Y-77980000D01*
X45569562Y-77841545D01*
X45582821Y-77771798D01*
X45631684Y-77720291D01*
X45661077Y-77707892D01*
X45762350Y-77679616D01*
X45762353Y-77679615D01*
X45768294Y-77677956D01*
X45773798Y-77675176D01*
X45773800Y-77675175D01*
X45930574Y-77595983D01*
X45930576Y-77595982D01*
X45936075Y-77593204D01*
X46084199Y-77477477D01*
X46088225Y-77472813D01*
X46202994Y-77339852D01*
X46202995Y-77339850D01*
X46207023Y-77335184D01*
X46211965Y-77326485D01*
X48311854Y-77326485D01*
X48316328Y-77383327D01*
X48333488Y-77601364D01*
X48337370Y-77650695D01*
X48402206Y-77969378D01*
X48505398Y-78277784D01*
X48507052Y-78281253D01*
X48507053Y-78281254D01*
X48529651Y-78328631D01*
X48645405Y-78571316D01*
X48647467Y-78574553D01*
X48647470Y-78574558D01*
X48694928Y-78649052D01*
X48820141Y-78845597D01*
X48822584Y-78848560D01*
X48822585Y-78848562D01*
X49018780Y-79086565D01*
X49027001Y-79096538D01*
X49262902Y-79320399D01*
X49524326Y-79513843D01*
X49618417Y-79567077D01*
X49804019Y-79672086D01*
X49804023Y-79672088D01*
X49807376Y-79673985D01*
X50107832Y-79798438D01*
X50210088Y-79826796D01*
X50417500Y-79884317D01*
X50417508Y-79884319D01*
X50421216Y-79885347D01*
X50742856Y-79933416D01*
X50746154Y-79933560D01*
X50857918Y-79938440D01*
X50857922Y-79938440D01*
X50859294Y-79938500D01*
X51057598Y-79938500D01*
X51299605Y-79923698D01*
X51303388Y-79922997D01*
X51303395Y-79922996D01*
X51503459Y-79885916D01*
X51619372Y-79864433D01*
X51829706Y-79798115D01*
X51925860Y-79767798D01*
X51925863Y-79767797D01*
X51929532Y-79766640D01*
X51933029Y-79765046D01*
X51933035Y-79765044D01*
X52221954Y-79633376D01*
X52221958Y-79633374D01*
X52225462Y-79631777D01*
X52241658Y-79621852D01*
X52499473Y-79463863D01*
X52499476Y-79463861D01*
X52502751Y-79461854D01*
X52505755Y-79459464D01*
X52505760Y-79459461D01*
X52672666Y-79326697D01*
X52757264Y-79259405D01*
X52759958Y-79256664D01*
X52759962Y-79256660D01*
X52982513Y-79030190D01*
X52982517Y-79030185D01*
X52985208Y-79027447D01*
X53135414Y-78831695D01*
X63212251Y-78831695D01*
X63212548Y-78836848D01*
X63212548Y-78836851D01*
X63224812Y-79049547D01*
X63225110Y-79054715D01*
X63226247Y-79059761D01*
X63226248Y-79059767D01*
X63234535Y-79096538D01*
X63274222Y-79272639D01*
X63312461Y-79366811D01*
X63351054Y-79461854D01*
X63358266Y-79479616D01*
X63474987Y-79670088D01*
X63621250Y-79838938D01*
X63625225Y-79842238D01*
X63625231Y-79842244D01*
X63630425Y-79846556D01*
X63670059Y-79905460D01*
X63671555Y-79976441D01*
X63634439Y-80036962D01*
X63594168Y-80061480D01*
X63486946Y-80101676D01*
X63471351Y-80110214D01*
X63369276Y-80186715D01*
X63356715Y-80199276D01*
X63280214Y-80301351D01*
X63271676Y-80316946D01*
X63226522Y-80437394D01*
X63222895Y-80452649D01*
X63217369Y-80503514D01*
X63217000Y-80510328D01*
X63217000Y-81132885D01*
X63221475Y-81148124D01*
X63222865Y-81149329D01*
X63230548Y-81151000D01*
X65914884Y-81151000D01*
X65930123Y-81146525D01*
X65931328Y-81145135D01*
X65932999Y-81137452D01*
X65932999Y-80510331D01*
X65932629Y-80503510D01*
X65927105Y-80452648D01*
X65923479Y-80437396D01*
X65878324Y-80316946D01*
X65869786Y-80301351D01*
X65793285Y-80199276D01*
X65780724Y-80186715D01*
X65678649Y-80110214D01*
X65663054Y-80101676D01*
X65552813Y-80060348D01*
X65496049Y-80017706D01*
X65471349Y-79951145D01*
X65486557Y-79881796D01*
X65508104Y-79853115D01*
X65609430Y-79752144D01*
X65609440Y-79752132D01*
X65613096Y-79748489D01*
X65672594Y-79665689D01*
X65740435Y-79571277D01*
X65743453Y-79567077D01*
X65755573Y-79542555D01*
X65840136Y-79371453D01*
X65840137Y-79371451D01*
X65842430Y-79366811D01*
X65907370Y-79153069D01*
X65936529Y-78931590D01*
X65937480Y-78892658D01*
X65938074Y-78868365D01*
X65938074Y-78868361D01*
X65938156Y-78865000D01*
X65930896Y-78776695D01*
X67002251Y-78776695D01*
X67002548Y-78781848D01*
X67002548Y-78781851D01*
X67010989Y-78928240D01*
X67015110Y-78999715D01*
X67016247Y-79004761D01*
X67016248Y-79004767D01*
X67036930Y-79096538D01*
X67064222Y-79217639D01*
X67148266Y-79424616D01*
X67181970Y-79479616D01*
X67238140Y-79571277D01*
X67264987Y-79615088D01*
X67411250Y-79783938D01*
X67415225Y-79787238D01*
X67415231Y-79787244D01*
X67420425Y-79791556D01*
X67460059Y-79850460D01*
X67461555Y-79921441D01*
X67424439Y-79981962D01*
X67384168Y-80006480D01*
X67276946Y-80046676D01*
X67261351Y-80055214D01*
X67159276Y-80131715D01*
X67146715Y-80144276D01*
X67070214Y-80246351D01*
X67061676Y-80261946D01*
X67016522Y-80382394D01*
X67012895Y-80397649D01*
X67007369Y-80448514D01*
X67007000Y-80455328D01*
X67007000Y-81077885D01*
X67011475Y-81093124D01*
X67012865Y-81094329D01*
X67020548Y-81096000D01*
X69704884Y-81096000D01*
X69720123Y-81091525D01*
X69721328Y-81090135D01*
X69722999Y-81082452D01*
X69722999Y-80673415D01*
X80811888Y-80673415D01*
X80838193Y-80949130D01*
X80839278Y-80953564D01*
X80839279Y-80953570D01*
X80887181Y-81149329D01*
X80904024Y-81218159D01*
X80905736Y-81222385D01*
X80905737Y-81222389D01*
X80965566Y-81370098D01*
X81008002Y-81474868D01*
X81147948Y-81713878D01*
X81320931Y-81930182D01*
X81523327Y-82119250D01*
X81750896Y-82277120D01*
X81809924Y-82306486D01*
X81994784Y-82398453D01*
X81994787Y-82398454D01*
X81998871Y-82400486D01*
X82003210Y-82401908D01*
X82003209Y-82401908D01*
X82257724Y-82485343D01*
X82257730Y-82485344D01*
X82262057Y-82486763D01*
X82266548Y-82487543D01*
X82266549Y-82487543D01*
X82531160Y-82533487D01*
X82531168Y-82533488D01*
X82534941Y-82534143D01*
X82538778Y-82534334D01*
X82620887Y-82538422D01*
X82620895Y-82538422D01*
X82622458Y-82538500D01*
X82795356Y-82538500D01*
X82797624Y-82538335D01*
X82797636Y-82538335D01*
X82916791Y-82529689D01*
X83001241Y-82523561D01*
X83174348Y-82485343D01*
X83267235Y-82464836D01*
X83267239Y-82464835D01*
X83271695Y-82463851D01*
X83444310Y-82398453D01*
X83526426Y-82367342D01*
X83526429Y-82367341D01*
X83530696Y-82365724D01*
X83772820Y-82231236D01*
X83992993Y-82063205D01*
X84186604Y-81865151D01*
X84299583Y-81709933D01*
X84346909Y-81644914D01*
X84346911Y-81644911D01*
X84349596Y-81641222D01*
X84478556Y-81396110D01*
X84481109Y-81388882D01*
X84569261Y-81139256D01*
X84570782Y-81134949D01*
X84624341Y-80863210D01*
X84633563Y-80677971D01*
X84637885Y-80591154D01*
X84637885Y-80591148D01*
X84638112Y-80586585D01*
X84611807Y-80310870D01*
X84599836Y-80261946D01*
X84547061Y-80046275D01*
X84545976Y-80041841D01*
X84536201Y-80017706D01*
X84443711Y-79789361D01*
X84443711Y-79789360D01*
X84441998Y-79785132D01*
X84302052Y-79546122D01*
X84129069Y-79329818D01*
X83926673Y-79140750D01*
X83699104Y-78982880D01*
X83499934Y-78883794D01*
X83455216Y-78861547D01*
X83455213Y-78861546D01*
X83451129Y-78859514D01*
X83300088Y-78810000D01*
X83192276Y-78774657D01*
X83192270Y-78774656D01*
X83187943Y-78773237D01*
X83166069Y-78769439D01*
X82918840Y-78726513D01*
X82918832Y-78726512D01*
X82915059Y-78725857D01*
X82902996Y-78725256D01*
X82829113Y-78721578D01*
X82829105Y-78721578D01*
X82827542Y-78721500D01*
X82654644Y-78721500D01*
X82652376Y-78721665D01*
X82652364Y-78721665D01*
X82533209Y-78730311D01*
X82448759Y-78736439D01*
X82314347Y-78766114D01*
X82182765Y-78795164D01*
X82182761Y-78795165D01*
X82178305Y-78796149D01*
X82098032Y-78826562D01*
X81923574Y-78892658D01*
X81923571Y-78892659D01*
X81919304Y-78894276D01*
X81677180Y-79028764D01*
X81457007Y-79196795D01*
X81453814Y-79200061D01*
X81453812Y-79200063D01*
X81393462Y-79261798D01*
X81263396Y-79394849D01*
X81175401Y-79515742D01*
X81106292Y-79610689D01*
X81100404Y-79618778D01*
X80971444Y-79863890D01*
X80969926Y-79868188D01*
X80969924Y-79868193D01*
X80908603Y-80041841D01*
X80879218Y-80125051D01*
X80825659Y-80396790D01*
X80825432Y-80401347D01*
X80825432Y-80401348D01*
X80812552Y-80660080D01*
X80811888Y-80673415D01*
X69722999Y-80673415D01*
X69722999Y-80455331D01*
X69722629Y-80448510D01*
X69717105Y-80397648D01*
X69713479Y-80382396D01*
X69668324Y-80261946D01*
X69659786Y-80246351D01*
X69583285Y-80144276D01*
X69570724Y-80131715D01*
X69468649Y-80055214D01*
X69453054Y-80046676D01*
X69342813Y-80005348D01*
X69286049Y-79962706D01*
X69261349Y-79896145D01*
X69276557Y-79826796D01*
X69298104Y-79798115D01*
X69399430Y-79697144D01*
X69399440Y-79697132D01*
X69403096Y-79693489D01*
X69416051Y-79675461D01*
X69530435Y-79516277D01*
X69533453Y-79512077D01*
X69559458Y-79459461D01*
X69630136Y-79316453D01*
X69630137Y-79316451D01*
X69632430Y-79311811D01*
X69683453Y-79143874D01*
X69695865Y-79103023D01*
X69695865Y-79103021D01*
X69697370Y-79098069D01*
X69726529Y-78876590D01*
X69727626Y-78831695D01*
X69728074Y-78813365D01*
X69728074Y-78813361D01*
X69728156Y-78810000D01*
X69709852Y-78587361D01*
X69655431Y-78370702D01*
X69566354Y-78165840D01*
X69478124Y-78029457D01*
X69447822Y-77982617D01*
X69447820Y-77982614D01*
X69445014Y-77978277D01*
X69294670Y-77813051D01*
X69290619Y-77809852D01*
X69290615Y-77809848D01*
X69123414Y-77677800D01*
X69123410Y-77677798D01*
X69119359Y-77674598D01*
X69078053Y-77651796D01*
X69028084Y-77601364D01*
X69013312Y-77531921D01*
X69038428Y-77465516D01*
X69065780Y-77438909D01*
X69109603Y-77407650D01*
X69244860Y-77311173D01*
X69403096Y-77153489D01*
X69416702Y-77134555D01*
X69530435Y-76976277D01*
X69533453Y-76972077D01*
X69562582Y-76913140D01*
X69630136Y-76776453D01*
X69630137Y-76776451D01*
X69632430Y-76771811D01*
X69697370Y-76558069D01*
X69726529Y-76336590D01*
X69727626Y-76291695D01*
X69728074Y-76273365D01*
X69728074Y-76273361D01*
X69728156Y-76270000D01*
X69709852Y-76047361D01*
X69655431Y-75830702D01*
X69566354Y-75625840D01*
X69478124Y-75489457D01*
X69447822Y-75442617D01*
X69447820Y-75442614D01*
X69445014Y-75438277D01*
X69294670Y-75273051D01*
X69290619Y-75269852D01*
X69290615Y-75269848D01*
X69123414Y-75137800D01*
X69123410Y-75137798D01*
X69119359Y-75134598D01*
X68987641Y-75061886D01*
X68937671Y-75011454D01*
X68922899Y-74942012D01*
X68948015Y-74875606D01*
X68992816Y-74839379D01*
X68992673Y-74839131D01*
X68994248Y-74838221D01*
X68995284Y-74837384D01*
X68997440Y-74836379D01*
X69006931Y-74830898D01*
X69050764Y-74800207D01*
X69059139Y-74789729D01*
X69052071Y-74776281D01*
X68377812Y-74102022D01*
X68363868Y-74094408D01*
X68362035Y-74094539D01*
X68355420Y-74098790D01*
X67677207Y-74777003D01*
X67670777Y-74788777D01*
X67680074Y-74800793D01*
X67723069Y-74830898D01*
X67732555Y-74836376D01*
X67735292Y-74837652D01*
X67736295Y-74838535D01*
X67737327Y-74839131D01*
X67737207Y-74839338D01*
X67788577Y-74884570D01*
X67808038Y-74952847D01*
X67787496Y-75020807D01*
X67740226Y-75063607D01*
X67638607Y-75116507D01*
X67634474Y-75119610D01*
X67634471Y-75119612D01*
X67464100Y-75247530D01*
X67459965Y-75250635D01*
X67456393Y-75254373D01*
X67318127Y-75399060D01*
X67305629Y-75412138D01*
X67302715Y-75416410D01*
X67302714Y-75416411D01*
X67250280Y-75493277D01*
X67179743Y-75596680D01*
X67164003Y-75630590D01*
X67089747Y-75790561D01*
X67085688Y-75799305D01*
X67025989Y-76014570D01*
X67002251Y-76236695D01*
X67002548Y-76241848D01*
X67002548Y-76241851D01*
X67008011Y-76336590D01*
X67015110Y-76459715D01*
X67016247Y-76464761D01*
X67016248Y-76464767D01*
X67026340Y-76509547D01*
X67064222Y-76677639D01*
X67148266Y-76884616D01*
X67181970Y-76939616D01*
X67238140Y-77031277D01*
X67264987Y-77075088D01*
X67411250Y-77243938D01*
X67583126Y-77386632D01*
X67653595Y-77427811D01*
X67656445Y-77429476D01*
X67705169Y-77481114D01*
X67718240Y-77550897D01*
X67691509Y-77616669D01*
X67651055Y-77650027D01*
X67638607Y-77656507D01*
X67634474Y-77659610D01*
X67634471Y-77659612D01*
X67464100Y-77787530D01*
X67459965Y-77790635D01*
X67305629Y-77952138D01*
X67302715Y-77956410D01*
X67302714Y-77956411D01*
X67250280Y-78033277D01*
X67179743Y-78136680D01*
X67156263Y-78187263D01*
X67090643Y-78328631D01*
X67085688Y-78339305D01*
X67025989Y-78554570D01*
X67002251Y-78776695D01*
X65930896Y-78776695D01*
X65919852Y-78642361D01*
X65865431Y-78425702D01*
X65776354Y-78220840D01*
X65655014Y-78033277D01*
X65504670Y-77868051D01*
X65500619Y-77864852D01*
X65500615Y-77864848D01*
X65333414Y-77732800D01*
X65333410Y-77732798D01*
X65329359Y-77729598D01*
X65288053Y-77706796D01*
X65238084Y-77656364D01*
X65223312Y-77586921D01*
X65248428Y-77520516D01*
X65275780Y-77493909D01*
X65338667Y-77449052D01*
X65454860Y-77366173D01*
X65485958Y-77335184D01*
X65577523Y-77243938D01*
X65613096Y-77208489D01*
X65670480Y-77128631D01*
X65740435Y-77031277D01*
X65743453Y-77027077D01*
X65772929Y-76967438D01*
X65840136Y-76831453D01*
X65840137Y-76831451D01*
X65842430Y-76826811D01*
X65907370Y-76613069D01*
X65936529Y-76391590D01*
X65938156Y-76325000D01*
X65919852Y-76102361D01*
X65865431Y-75885702D01*
X65776354Y-75680840D01*
X65680423Y-75532553D01*
X65657822Y-75497617D01*
X65657820Y-75497614D01*
X65655014Y-75493277D01*
X65504670Y-75328051D01*
X65500619Y-75324852D01*
X65500615Y-75324848D01*
X65333414Y-75192800D01*
X65333410Y-75192798D01*
X65329359Y-75189598D01*
X65292260Y-75169118D01*
X65199309Y-75117807D01*
X65149338Y-75067374D01*
X65149317Y-75067277D01*
X65101626Y-75069549D01*
X65089274Y-75065874D01*
X64928091Y-75008796D01*
X64928083Y-75008794D01*
X64923212Y-75007069D01*
X64918119Y-75006162D01*
X64918116Y-75006161D01*
X64708373Y-74968800D01*
X64708367Y-74968799D01*
X64703284Y-74967894D01*
X64629452Y-74966992D01*
X64485081Y-74965228D01*
X64485079Y-74965228D01*
X64479911Y-74965165D01*
X64259091Y-74998955D01*
X64046756Y-75068357D01*
X63848607Y-75171507D01*
X63844474Y-75174610D01*
X63844471Y-75174612D01*
X63674100Y-75302530D01*
X63669965Y-75305635D01*
X63666393Y-75309373D01*
X63521669Y-75460818D01*
X63515629Y-75467138D01*
X63389743Y-75651680D01*
X63360911Y-75713793D01*
X63307460Y-75828945D01*
X63295688Y-75854305D01*
X63235989Y-76069570D01*
X63212251Y-76291695D01*
X63212548Y-76296848D01*
X63212548Y-76296851D01*
X63218930Y-76407535D01*
X63225110Y-76514715D01*
X63226247Y-76519761D01*
X63226248Y-76519767D01*
X63242736Y-76592926D01*
X63274222Y-76732639D01*
X63358266Y-76939616D01*
X63474987Y-77130088D01*
X63621250Y-77298938D01*
X63793126Y-77441632D01*
X63805824Y-77449052D01*
X63866445Y-77484476D01*
X63915169Y-77536114D01*
X63928240Y-77605897D01*
X63901509Y-77671669D01*
X63861055Y-77705027D01*
X63848607Y-77711507D01*
X63844474Y-77714610D01*
X63844471Y-77714612D01*
X63708276Y-77816870D01*
X63669965Y-77845635D01*
X63666393Y-77849373D01*
X63548543Y-77972696D01*
X63515629Y-78007138D01*
X63389743Y-78191680D01*
X63295688Y-78394305D01*
X63235989Y-78609570D01*
X63212251Y-78831695D01*
X53135414Y-78831695D01*
X53149479Y-78813365D01*
X53180835Y-78772502D01*
X53180837Y-78772498D01*
X53183185Y-78769439D01*
X53313166Y-78548774D01*
X53346289Y-78492543D01*
X53346291Y-78492540D01*
X53348242Y-78489227D01*
X53477920Y-78190988D01*
X53479024Y-78187263D01*
X53544681Y-77965607D01*
X53570285Y-77879169D01*
X53623961Y-77558417D01*
X53638146Y-77233515D01*
X53621534Y-77022438D01*
X53612932Y-76913140D01*
X53612932Y-76913137D01*
X53612630Y-76909305D01*
X53547794Y-76590622D01*
X53444602Y-76282216D01*
X53304595Y-75988684D01*
X53300033Y-75981522D01*
X53235964Y-75880954D01*
X53129859Y-75714403D01*
X53127415Y-75711438D01*
X52925442Y-75466425D01*
X52925438Y-75466420D01*
X52922999Y-75463462D01*
X52687098Y-75239601D01*
X52425674Y-75046157D01*
X52245033Y-74943955D01*
X52145981Y-74887914D01*
X52145977Y-74887912D01*
X52142624Y-74886015D01*
X52138972Y-74884502D01*
X51910169Y-74789729D01*
X51842168Y-74761562D01*
X51656732Y-74710136D01*
X51532500Y-74675683D01*
X51532492Y-74675681D01*
X51528784Y-74674653D01*
X51207144Y-74626584D01*
X51203846Y-74626440D01*
X51092082Y-74621560D01*
X51092078Y-74621560D01*
X51090706Y-74621500D01*
X50892402Y-74621500D01*
X50650395Y-74636302D01*
X50646612Y-74637003D01*
X50646605Y-74637004D01*
X50490512Y-74665934D01*
X50330628Y-74695567D01*
X50146058Y-74753762D01*
X50024140Y-74792202D01*
X50024137Y-74792203D01*
X50020468Y-74793360D01*
X50016971Y-74794954D01*
X50016965Y-74794956D01*
X49728046Y-74926624D01*
X49728042Y-74926626D01*
X49724538Y-74928223D01*
X49721259Y-74930233D01*
X49721256Y-74930234D01*
X49474188Y-75081638D01*
X49447249Y-75098146D01*
X49444245Y-75100536D01*
X49444240Y-75100539D01*
X49397397Y-75137800D01*
X49192736Y-75300595D01*
X49190042Y-75303336D01*
X49190038Y-75303340D01*
X48967487Y-75529810D01*
X48967483Y-75529815D01*
X48964792Y-75532553D01*
X48766815Y-75790561D01*
X48658714Y-75974080D01*
X48612509Y-76052522D01*
X48601758Y-76070773D01*
X48472080Y-76369012D01*
X48470986Y-76372706D01*
X48470984Y-76372711D01*
X48443716Y-76464767D01*
X48379715Y-76680831D01*
X48326039Y-77001583D01*
X48311854Y-77326485D01*
X46211965Y-77326485D01*
X46299870Y-77171744D01*
X46359203Y-76993382D01*
X46382762Y-76806892D01*
X46383138Y-76780000D01*
X46364795Y-76592926D01*
X46310465Y-76412977D01*
X46222218Y-76247008D01*
X46103415Y-76101340D01*
X46004738Y-76019707D01*
X45963329Y-75985450D01*
X45963324Y-75985447D01*
X45958580Y-75981522D01*
X45953161Y-75978592D01*
X45953158Y-75978590D01*
X45883671Y-75941019D01*
X45793231Y-75892119D01*
X45657002Y-75849949D01*
X45597844Y-75810699D01*
X45569297Y-75745695D01*
X45569257Y-75713793D01*
X45573420Y-75680840D01*
X45582762Y-75606892D01*
X45583138Y-75580000D01*
X45564795Y-75392926D01*
X45510465Y-75212977D01*
X45422218Y-75047008D01*
X45303415Y-74901340D01*
X45228517Y-74839379D01*
X45163329Y-74785450D01*
X45163324Y-74785447D01*
X45158580Y-74781522D01*
X45153161Y-74778592D01*
X45153158Y-74778590D01*
X45026553Y-74710136D01*
X44993231Y-74692119D01*
X44813666Y-74636534D01*
X44807541Y-74635890D01*
X44807540Y-74635890D01*
X44632852Y-74617529D01*
X44632851Y-74617529D01*
X44626724Y-74616885D01*
X44549673Y-74623897D01*
X44445665Y-74633363D01*
X44445662Y-74633364D01*
X44439526Y-74633922D01*
X44433620Y-74635660D01*
X44433616Y-74635661D01*
X44303067Y-74674084D01*
X44259202Y-74686994D01*
X44092621Y-74774080D01*
X43946128Y-74891864D01*
X43942170Y-74896582D01*
X43942167Y-74896584D01*
X43895610Y-74952069D01*
X43825302Y-75035859D01*
X43822338Y-75041251D01*
X43822335Y-75041255D01*
X43752042Y-75169118D01*
X43734746Y-75200580D01*
X43732885Y-75206447D01*
X43732884Y-75206449D01*
X43717682Y-75254373D01*
X43677909Y-75379752D01*
X43656956Y-75566552D01*
X43669372Y-75714403D01*
X43669847Y-75720063D01*
X43655615Y-75789619D01*
X43606039Y-75840439D01*
X43579864Y-75851480D01*
X43465120Y-75885251D01*
X43465109Y-75885256D01*
X43459202Y-75886994D01*
X43292621Y-75974080D01*
X43146128Y-76091864D01*
X43142170Y-76096582D01*
X43142167Y-76096584D01*
X43132989Y-76107522D01*
X43025302Y-76235859D01*
X43022338Y-76241251D01*
X43022335Y-76241255D01*
X42994606Y-76291695D01*
X42934746Y-76400580D01*
X42932885Y-76406447D01*
X42932884Y-76406449D01*
X42915987Y-76459715D01*
X42877909Y-76579752D01*
X42856956Y-76766552D01*
X33483000Y-76766552D01*
X33483000Y-72496354D01*
X34466500Y-72496354D01*
X34466673Y-72498679D01*
X34466673Y-72498685D01*
X34480424Y-72683718D01*
X34480939Y-72690652D01*
X34481968Y-72695200D01*
X34481969Y-72695206D01*
X34494337Y-72749864D01*
X34538623Y-72945577D01*
X34540315Y-72949929D01*
X34540316Y-72949931D01*
X34597629Y-73097311D01*
X34633353Y-73189177D01*
X34635670Y-73193231D01*
X34635671Y-73193233D01*
X34671350Y-73255658D01*
X34763049Y-73416098D01*
X34924862Y-73621357D01*
X35115237Y-73800443D01*
X35329991Y-73949424D01*
X35334181Y-73951490D01*
X35334184Y-73951492D01*
X35560219Y-74062960D01*
X35560222Y-74062961D01*
X35564407Y-74065025D01*
X35568850Y-74066447D01*
X35568852Y-74066448D01*
X35656200Y-74094408D01*
X35813335Y-74144707D01*
X36071307Y-74186721D01*
X36185058Y-74188210D01*
X36327978Y-74190081D01*
X36327981Y-74190081D01*
X36332655Y-74190142D01*
X36591638Y-74154896D01*
X36842567Y-74081757D01*
X36878862Y-74065025D01*
X36897112Y-74056611D01*
X37079928Y-73972332D01*
X37129976Y-73939519D01*
X37294596Y-73831590D01*
X37294601Y-73831586D01*
X37298509Y-73829024D01*
X37409456Y-73730000D01*
X59469647Y-73730000D01*
X59489022Y-73951463D01*
X59518898Y-74062960D01*
X59540420Y-74143280D01*
X59546560Y-74166196D01*
X59548882Y-74171177D01*
X59548883Y-74171178D01*
X59638186Y-74362689D01*
X59638189Y-74362694D01*
X59640512Y-74367676D01*
X59643668Y-74372183D01*
X59643669Y-74372185D01*
X59680107Y-74424223D01*
X59768023Y-74549781D01*
X59925219Y-74706977D01*
X59929727Y-74710134D01*
X59929730Y-74710136D01*
X60001703Y-74760532D01*
X60107323Y-74834488D01*
X60112305Y-74836811D01*
X60112310Y-74836814D01*
X60269613Y-74910165D01*
X60308804Y-74928440D01*
X60314112Y-74929862D01*
X60314114Y-74929863D01*
X60315499Y-74930234D01*
X60523537Y-74985978D01*
X60745000Y-75005353D01*
X60966463Y-74985978D01*
X61174501Y-74930234D01*
X61175886Y-74929863D01*
X61175888Y-74929862D01*
X61181196Y-74928440D01*
X61220387Y-74910165D01*
X61377690Y-74836814D01*
X61377695Y-74836811D01*
X61382677Y-74834488D01*
X61488297Y-74760532D01*
X61560270Y-74710136D01*
X61560273Y-74710134D01*
X61564781Y-74706977D01*
X61721977Y-74549781D01*
X61809894Y-74424223D01*
X61846331Y-74372185D01*
X61846332Y-74372183D01*
X61849488Y-74367676D01*
X61851811Y-74362694D01*
X61851814Y-74362689D01*
X61900805Y-74257627D01*
X61947723Y-74204342D01*
X62016000Y-74184881D01*
X62083960Y-74205423D01*
X62129195Y-74257627D01*
X62178186Y-74362689D01*
X62178189Y-74362694D01*
X62180512Y-74367676D01*
X62183668Y-74372183D01*
X62183669Y-74372185D01*
X62220107Y-74424223D01*
X62308023Y-74549781D01*
X62465219Y-74706977D01*
X62469727Y-74710134D01*
X62469730Y-74710136D01*
X62541703Y-74760532D01*
X62647323Y-74834488D01*
X62652305Y-74836811D01*
X62652310Y-74836814D01*
X62809613Y-74910165D01*
X62848804Y-74928440D01*
X62854112Y-74929862D01*
X62854114Y-74929863D01*
X62855499Y-74930234D01*
X63063537Y-74985978D01*
X63285000Y-75005353D01*
X63506463Y-74985978D01*
X63714501Y-74930234D01*
X63715886Y-74929863D01*
X63715888Y-74929862D01*
X63721196Y-74928440D01*
X63760387Y-74910165D01*
X63917690Y-74836814D01*
X63917695Y-74836811D01*
X63922677Y-74834488D01*
X64028297Y-74760532D01*
X64100270Y-74710136D01*
X64100273Y-74710134D01*
X64104781Y-74706977D01*
X64261977Y-74549781D01*
X64349894Y-74424223D01*
X64386331Y-74372185D01*
X64386332Y-74372183D01*
X64389488Y-74367676D01*
X64391811Y-74362694D01*
X64391814Y-74362689D01*
X64440805Y-74257627D01*
X64487723Y-74204342D01*
X64556000Y-74184881D01*
X64623960Y-74205423D01*
X64669195Y-74257627D01*
X64718186Y-74362689D01*
X64718189Y-74362694D01*
X64720512Y-74367676D01*
X64723668Y-74372183D01*
X64723669Y-74372185D01*
X64760107Y-74424223D01*
X64848023Y-74549781D01*
X65005219Y-74706977D01*
X65009727Y-74710134D01*
X65009730Y-74710136D01*
X65182196Y-74830898D01*
X65187323Y-74834488D01*
X65192310Y-74836814D01*
X65194334Y-74837982D01*
X65241620Y-74887575D01*
X65287551Y-74884502D01*
X65313452Y-74893303D01*
X65349613Y-74910165D01*
X65388804Y-74928440D01*
X65394112Y-74929862D01*
X65394114Y-74929863D01*
X65395499Y-74930234D01*
X65603537Y-74985978D01*
X65825000Y-75005353D01*
X66046463Y-74985978D01*
X66254501Y-74930234D01*
X66255886Y-74929863D01*
X66255888Y-74929862D01*
X66261196Y-74928440D01*
X66300387Y-74910165D01*
X66457690Y-74836814D01*
X66457695Y-74836811D01*
X66462677Y-74834488D01*
X66568297Y-74760532D01*
X66640270Y-74710136D01*
X66640273Y-74710134D01*
X66644781Y-74706977D01*
X66801977Y-74549781D01*
X66889894Y-74424223D01*
X66926331Y-74372185D01*
X66926332Y-74372183D01*
X66929488Y-74367676D01*
X66931811Y-74362694D01*
X66931814Y-74362689D01*
X66981081Y-74257035D01*
X67027999Y-74203750D01*
X67096276Y-74184289D01*
X67164236Y-74204831D01*
X67209471Y-74257035D01*
X67258623Y-74362441D01*
X67264103Y-74371932D01*
X67294794Y-74415765D01*
X67305271Y-74424140D01*
X67318718Y-74417072D01*
X67992978Y-73742812D01*
X67999356Y-73731132D01*
X68729408Y-73731132D01*
X68729539Y-73732965D01*
X68733790Y-73739580D01*
X69412003Y-74417793D01*
X69423777Y-74424223D01*
X69435793Y-74414926D01*
X69465897Y-74371932D01*
X69471377Y-74362441D01*
X69520529Y-74257035D01*
X69567447Y-74203750D01*
X69635724Y-74184289D01*
X69703684Y-74204831D01*
X69748919Y-74257035D01*
X69798186Y-74362689D01*
X69798189Y-74362694D01*
X69800512Y-74367676D01*
X69803668Y-74372183D01*
X69803669Y-74372185D01*
X69840107Y-74424223D01*
X69928023Y-74549781D01*
X70085219Y-74706977D01*
X70089727Y-74710134D01*
X70089730Y-74710136D01*
X70161703Y-74760532D01*
X70267323Y-74834488D01*
X70272305Y-74836811D01*
X70272310Y-74836814D01*
X70429613Y-74910165D01*
X70468804Y-74928440D01*
X70474112Y-74929862D01*
X70474114Y-74929863D01*
X70475499Y-74930234D01*
X70683537Y-74985978D01*
X70905000Y-75005353D01*
X71126463Y-74985978D01*
X71334501Y-74930234D01*
X71335886Y-74929863D01*
X71335888Y-74929862D01*
X71341196Y-74928440D01*
X71380387Y-74910165D01*
X71537690Y-74836814D01*
X71537695Y-74836811D01*
X71542677Y-74834488D01*
X71648297Y-74760532D01*
X71720270Y-74710136D01*
X71720273Y-74710134D01*
X71724781Y-74706977D01*
X71881977Y-74549781D01*
X71969894Y-74424223D01*
X72006331Y-74372185D01*
X72006332Y-74372183D01*
X72009488Y-74367676D01*
X72011811Y-74362694D01*
X72011814Y-74362689D01*
X72060805Y-74257627D01*
X72107723Y-74204342D01*
X72176000Y-74184881D01*
X72243960Y-74205423D01*
X72289195Y-74257627D01*
X72338186Y-74362689D01*
X72338189Y-74362694D01*
X72340512Y-74367676D01*
X72343668Y-74372183D01*
X72343669Y-74372185D01*
X72380107Y-74424223D01*
X72468023Y-74549781D01*
X72625219Y-74706977D01*
X72629727Y-74710134D01*
X72629730Y-74710136D01*
X72701703Y-74760532D01*
X72807323Y-74834488D01*
X72812305Y-74836811D01*
X72812310Y-74836814D01*
X72969613Y-74910165D01*
X73008804Y-74928440D01*
X73014112Y-74929862D01*
X73014114Y-74929863D01*
X73015499Y-74930234D01*
X73223537Y-74985978D01*
X73445000Y-75005353D01*
X73666463Y-74985978D01*
X73874501Y-74930234D01*
X73875886Y-74929863D01*
X73875888Y-74929862D01*
X73881196Y-74928440D01*
X73920387Y-74910165D01*
X74077690Y-74836814D01*
X74077695Y-74836811D01*
X74082677Y-74834488D01*
X74188297Y-74760532D01*
X74260270Y-74710136D01*
X74260273Y-74710134D01*
X74264781Y-74706977D01*
X74421977Y-74549781D01*
X74509894Y-74424223D01*
X74546331Y-74372185D01*
X74546332Y-74372183D01*
X74549488Y-74367676D01*
X74551811Y-74362694D01*
X74551814Y-74362689D01*
X74641117Y-74171178D01*
X74641118Y-74171177D01*
X74643440Y-74166196D01*
X74649581Y-74143280D01*
X74671102Y-74062960D01*
X74700978Y-73951463D01*
X74720353Y-73730000D01*
X74700978Y-73508537D01*
X74643440Y-73293804D01*
X74625148Y-73254577D01*
X74551814Y-73097311D01*
X74551811Y-73097306D01*
X74549488Y-73092324D01*
X74546331Y-73087815D01*
X74425136Y-72914730D01*
X74425134Y-72914727D01*
X74421977Y-72910219D01*
X74264781Y-72753023D01*
X74260273Y-72749866D01*
X74260270Y-72749864D01*
X74175706Y-72690652D01*
X74082677Y-72625512D01*
X74077695Y-72623189D01*
X74077690Y-72623186D01*
X73886178Y-72533883D01*
X73886177Y-72533882D01*
X73881196Y-72531560D01*
X73875888Y-72530138D01*
X73875886Y-72530137D01*
X73810051Y-72512497D01*
X73749806Y-72496354D01*
X81466500Y-72496354D01*
X81466673Y-72498679D01*
X81466673Y-72498685D01*
X81480424Y-72683718D01*
X81480939Y-72690652D01*
X81481968Y-72695200D01*
X81481969Y-72695206D01*
X81494337Y-72749864D01*
X81538623Y-72945577D01*
X81540315Y-72949929D01*
X81540316Y-72949931D01*
X81597629Y-73097311D01*
X81633353Y-73189177D01*
X81635670Y-73193231D01*
X81635671Y-73193233D01*
X81671350Y-73255658D01*
X81763049Y-73416098D01*
X81924862Y-73621357D01*
X82115237Y-73800443D01*
X82329991Y-73949424D01*
X82334181Y-73951490D01*
X82334184Y-73951492D01*
X82560219Y-74062960D01*
X82560222Y-74062961D01*
X82564407Y-74065025D01*
X82568850Y-74066447D01*
X82568852Y-74066448D01*
X82656200Y-74094408D01*
X82813335Y-74144707D01*
X83071307Y-74186721D01*
X83185058Y-74188210D01*
X83327978Y-74190081D01*
X83327981Y-74190081D01*
X83332655Y-74190142D01*
X83591638Y-74154896D01*
X83842567Y-74081757D01*
X83878862Y-74065025D01*
X83897112Y-74056611D01*
X84079928Y-73972332D01*
X84129976Y-73939519D01*
X84294596Y-73831590D01*
X84294601Y-73831586D01*
X84298509Y-73829024D01*
X84493506Y-73654982D01*
X84660637Y-73454030D01*
X84686117Y-73412040D01*
X84793804Y-73234578D01*
X84793806Y-73234574D01*
X84796229Y-73230581D01*
X84897303Y-72989545D01*
X84961641Y-72736217D01*
X84966928Y-72683718D01*
X84983184Y-72522271D01*
X84983500Y-72519133D01*
X84983500Y-69363646D01*
X84981574Y-69337729D01*
X84969407Y-69174000D01*
X84969406Y-69173996D01*
X84969061Y-69169348D01*
X84961331Y-69135184D01*
X84912408Y-68918980D01*
X84911377Y-68914423D01*
X84816647Y-68670823D01*
X84774836Y-68597668D01*
X84764737Y-68580000D01*
X84686951Y-68443902D01*
X84525138Y-68238643D01*
X84334763Y-68059557D01*
X84162474Y-67940035D01*
X84123851Y-67913241D01*
X84123848Y-67913239D01*
X84120009Y-67910576D01*
X84115816Y-67908508D01*
X83889781Y-67797040D01*
X83889778Y-67797039D01*
X83885593Y-67794975D01*
X83880617Y-67793382D01*
X83641123Y-67716720D01*
X83636665Y-67715293D01*
X83378693Y-67673279D01*
X83264942Y-67671790D01*
X83122022Y-67669919D01*
X83122019Y-67669919D01*
X83117345Y-67669858D01*
X82858362Y-67705104D01*
X82607433Y-67778243D01*
X82603180Y-67780203D01*
X82603179Y-67780204D01*
X82566659Y-67797040D01*
X82370072Y-67887668D01*
X82331067Y-67913241D01*
X82155404Y-68028410D01*
X82155399Y-68028414D01*
X82151491Y-68030976D01*
X81956494Y-68205018D01*
X81789363Y-68405970D01*
X81786934Y-68409973D01*
X81667441Y-68606892D01*
X81653771Y-68629419D01*
X81552697Y-68870455D01*
X81488359Y-69123783D01*
X81487891Y-69128434D01*
X81487890Y-69128438D01*
X81487211Y-69135184D01*
X81466500Y-69340867D01*
X81466500Y-72496354D01*
X73749806Y-72496354D01*
X73666463Y-72474022D01*
X73445000Y-72454647D01*
X73223537Y-72474022D01*
X73079949Y-72512497D01*
X73014114Y-72530137D01*
X73014112Y-72530138D01*
X73008804Y-72531560D01*
X73003823Y-72533882D01*
X73003822Y-72533883D01*
X72812311Y-72623186D01*
X72812306Y-72623189D01*
X72807324Y-72625512D01*
X72802817Y-72628668D01*
X72802815Y-72628669D01*
X72629730Y-72749864D01*
X72629727Y-72749866D01*
X72625219Y-72753023D01*
X72468023Y-72910219D01*
X72464866Y-72914727D01*
X72464864Y-72914730D01*
X72343669Y-73087815D01*
X72340512Y-73092324D01*
X72338189Y-73097306D01*
X72338186Y-73097311D01*
X72289195Y-73202373D01*
X72242277Y-73255658D01*
X72174000Y-73275119D01*
X72106040Y-73254577D01*
X72060805Y-73202373D01*
X72011814Y-73097311D01*
X72011811Y-73097306D01*
X72009488Y-73092324D01*
X72006331Y-73087815D01*
X71885136Y-72914730D01*
X71885134Y-72914727D01*
X71881977Y-72910219D01*
X71724781Y-72753023D01*
X71720273Y-72749866D01*
X71720270Y-72749864D01*
X71635706Y-72690652D01*
X71542677Y-72625512D01*
X71537695Y-72623189D01*
X71537690Y-72623186D01*
X71346178Y-72533883D01*
X71346177Y-72533882D01*
X71341196Y-72531560D01*
X71335888Y-72530138D01*
X71335886Y-72530137D01*
X71270051Y-72512497D01*
X71126463Y-72474022D01*
X70905000Y-72454647D01*
X70683537Y-72474022D01*
X70539949Y-72512497D01*
X70474114Y-72530137D01*
X70474112Y-72530138D01*
X70468804Y-72531560D01*
X70463823Y-72533882D01*
X70463822Y-72533883D01*
X70272311Y-72623186D01*
X70272306Y-72623189D01*
X70267324Y-72625512D01*
X70262817Y-72628668D01*
X70262815Y-72628669D01*
X70089730Y-72749864D01*
X70089727Y-72749866D01*
X70085219Y-72753023D01*
X69928023Y-72910219D01*
X69924866Y-72914727D01*
X69924864Y-72914730D01*
X69803669Y-73087815D01*
X69800512Y-73092324D01*
X69798189Y-73097306D01*
X69798186Y-73097311D01*
X69748919Y-73202965D01*
X69702001Y-73256250D01*
X69633724Y-73275711D01*
X69565764Y-73255169D01*
X69520529Y-73202965D01*
X69471377Y-73097559D01*
X69465897Y-73088068D01*
X69435206Y-73044235D01*
X69424729Y-73035860D01*
X69411282Y-73042928D01*
X68737022Y-73717188D01*
X68729408Y-73731132D01*
X67999356Y-73731132D01*
X68000592Y-73728868D01*
X68000461Y-73727035D01*
X67996210Y-73720420D01*
X67317997Y-73042207D01*
X67306223Y-73035777D01*
X67294207Y-73045074D01*
X67264103Y-73088068D01*
X67258623Y-73097559D01*
X67209471Y-73202965D01*
X67162553Y-73256250D01*
X67094276Y-73275711D01*
X67026316Y-73255169D01*
X66981081Y-73202965D01*
X66931814Y-73097311D01*
X66931811Y-73097306D01*
X66929488Y-73092324D01*
X66926331Y-73087815D01*
X66805136Y-72914730D01*
X66805134Y-72914727D01*
X66801977Y-72910219D01*
X66644781Y-72753023D01*
X66640273Y-72749866D01*
X66640270Y-72749864D01*
X66555706Y-72690652D01*
X66526599Y-72670271D01*
X67670860Y-72670271D01*
X67677928Y-72683718D01*
X68352188Y-73357978D01*
X68366132Y-73365592D01*
X68367965Y-73365461D01*
X68374580Y-73361210D01*
X69052793Y-72682997D01*
X69059223Y-72671223D01*
X69049926Y-72659207D01*
X69006931Y-72629102D01*
X68997445Y-72623624D01*
X68806007Y-72534355D01*
X68795715Y-72530609D01*
X68591691Y-72475941D01*
X68580896Y-72474038D01*
X68370475Y-72455628D01*
X68359525Y-72455628D01*
X68149104Y-72474038D01*
X68138309Y-72475941D01*
X67934285Y-72530609D01*
X67923993Y-72534355D01*
X67732559Y-72623623D01*
X67723068Y-72629103D01*
X67679235Y-72659794D01*
X67670860Y-72670271D01*
X66526599Y-72670271D01*
X66462677Y-72625512D01*
X66457695Y-72623189D01*
X66457690Y-72623186D01*
X66266178Y-72533883D01*
X66266177Y-72533882D01*
X66261196Y-72531560D01*
X66255888Y-72530138D01*
X66255886Y-72530137D01*
X66190051Y-72512497D01*
X66046463Y-72474022D01*
X65825000Y-72454647D01*
X65603537Y-72474022D01*
X65459949Y-72512497D01*
X65394114Y-72530137D01*
X65394112Y-72530138D01*
X65388804Y-72531560D01*
X65383823Y-72533882D01*
X65383822Y-72533883D01*
X65192311Y-72623186D01*
X65192306Y-72623189D01*
X65187324Y-72625512D01*
X65182817Y-72628668D01*
X65182815Y-72628669D01*
X65009730Y-72749864D01*
X65009727Y-72749866D01*
X65005219Y-72753023D01*
X64848023Y-72910219D01*
X64844866Y-72914727D01*
X64844864Y-72914730D01*
X64723669Y-73087815D01*
X64720512Y-73092324D01*
X64718189Y-73097306D01*
X64718186Y-73097311D01*
X64669195Y-73202373D01*
X64622277Y-73255658D01*
X64554000Y-73275119D01*
X64486040Y-73254577D01*
X64440805Y-73202373D01*
X64391814Y-73097311D01*
X64391811Y-73097306D01*
X64389488Y-73092324D01*
X64386331Y-73087815D01*
X64265136Y-72914730D01*
X64265134Y-72914727D01*
X64261977Y-72910219D01*
X64104781Y-72753023D01*
X64100273Y-72749866D01*
X64100270Y-72749864D01*
X64015706Y-72690652D01*
X63922677Y-72625512D01*
X63917695Y-72623189D01*
X63917690Y-72623186D01*
X63726178Y-72533883D01*
X63726177Y-72533882D01*
X63721196Y-72531560D01*
X63715888Y-72530138D01*
X63715886Y-72530137D01*
X63650051Y-72512497D01*
X63506463Y-72474022D01*
X63285000Y-72454647D01*
X63063537Y-72474022D01*
X62919949Y-72512497D01*
X62854114Y-72530137D01*
X62854112Y-72530138D01*
X62848804Y-72531560D01*
X62843823Y-72533882D01*
X62843822Y-72533883D01*
X62652311Y-72623186D01*
X62652306Y-72623189D01*
X62647324Y-72625512D01*
X62642817Y-72628668D01*
X62642815Y-72628669D01*
X62469730Y-72749864D01*
X62469727Y-72749866D01*
X62465219Y-72753023D01*
X62308023Y-72910219D01*
X62304866Y-72914727D01*
X62304864Y-72914730D01*
X62183669Y-73087815D01*
X62180512Y-73092324D01*
X62178189Y-73097306D01*
X62178186Y-73097311D01*
X62129195Y-73202373D01*
X62082277Y-73255658D01*
X62014000Y-73275119D01*
X61946040Y-73254577D01*
X61900805Y-73202373D01*
X61851814Y-73097311D01*
X61851811Y-73097306D01*
X61849488Y-73092324D01*
X61846331Y-73087815D01*
X61725136Y-72914730D01*
X61725134Y-72914727D01*
X61721977Y-72910219D01*
X61564781Y-72753023D01*
X61560273Y-72749866D01*
X61560270Y-72749864D01*
X61475706Y-72690652D01*
X61382677Y-72625512D01*
X61377695Y-72623189D01*
X61377690Y-72623186D01*
X61186178Y-72533883D01*
X61186177Y-72533882D01*
X61181196Y-72531560D01*
X61175888Y-72530138D01*
X61175886Y-72530137D01*
X61110051Y-72512497D01*
X60966463Y-72474022D01*
X60745000Y-72454647D01*
X60523537Y-72474022D01*
X60379949Y-72512497D01*
X60314114Y-72530137D01*
X60314112Y-72530138D01*
X60308804Y-72531560D01*
X60303823Y-72533882D01*
X60303822Y-72533883D01*
X60112311Y-72623186D01*
X60112306Y-72623189D01*
X60107324Y-72625512D01*
X60102817Y-72628668D01*
X60102815Y-72628669D01*
X59929730Y-72749864D01*
X59929727Y-72749866D01*
X59925219Y-72753023D01*
X59768023Y-72910219D01*
X59764866Y-72914727D01*
X59764864Y-72914730D01*
X59643669Y-73087815D01*
X59640512Y-73092324D01*
X59638189Y-73097306D01*
X59638186Y-73097311D01*
X59564852Y-73254577D01*
X59546560Y-73293804D01*
X59489022Y-73508537D01*
X59469647Y-73730000D01*
X37409456Y-73730000D01*
X37493506Y-73654982D01*
X37660637Y-73454030D01*
X37686117Y-73412040D01*
X37793804Y-73234578D01*
X37793806Y-73234574D01*
X37796229Y-73230581D01*
X37897303Y-72989545D01*
X37961641Y-72736217D01*
X37966928Y-72683718D01*
X37983184Y-72522271D01*
X37983500Y-72519133D01*
X37983500Y-71280000D01*
X73161496Y-71280000D01*
X73181458Y-71469928D01*
X73240473Y-71651556D01*
X73335960Y-71816944D01*
X73463747Y-71958866D01*
X73618248Y-72071118D01*
X73624276Y-72073802D01*
X73624278Y-72073803D01*
X73786681Y-72146109D01*
X73792712Y-72148794D01*
X73886112Y-72168647D01*
X73973056Y-72187128D01*
X73973061Y-72187128D01*
X73979513Y-72188500D01*
X74170487Y-72188500D01*
X74176939Y-72187128D01*
X74176944Y-72187128D01*
X74263888Y-72168647D01*
X74357288Y-72148794D01*
X74363319Y-72146109D01*
X74525722Y-72073803D01*
X74525724Y-72073802D01*
X74531752Y-72071118D01*
X74686253Y-71958866D01*
X74814040Y-71816944D01*
X74909527Y-71651556D01*
X74968542Y-71469928D01*
X74988504Y-71280000D01*
X74968542Y-71090072D01*
X74909527Y-70908444D01*
X74814040Y-70743056D01*
X74686253Y-70601134D01*
X74531752Y-70488882D01*
X74525724Y-70486198D01*
X74525722Y-70486197D01*
X74363319Y-70413891D01*
X74363318Y-70413891D01*
X74357288Y-70411206D01*
X74263888Y-70391353D01*
X74176944Y-70372872D01*
X74176939Y-70372872D01*
X74170487Y-70371500D01*
X73979513Y-70371500D01*
X73973061Y-70372872D01*
X73973056Y-70372872D01*
X73886112Y-70391353D01*
X73792712Y-70411206D01*
X73786682Y-70413891D01*
X73786681Y-70413891D01*
X73624278Y-70486197D01*
X73624276Y-70486198D01*
X73618248Y-70488882D01*
X73463747Y-70601134D01*
X73335960Y-70743056D01*
X73240473Y-70908444D01*
X73181458Y-71090072D01*
X73161496Y-71280000D01*
X37983500Y-71280000D01*
X37983500Y-69363646D01*
X37981574Y-69337729D01*
X37969407Y-69174000D01*
X37969406Y-69173996D01*
X37969061Y-69169348D01*
X37961331Y-69135184D01*
X37912408Y-68918980D01*
X37911377Y-68914423D01*
X37816647Y-68670823D01*
X37774836Y-68597668D01*
X37764737Y-68580000D01*
X37686951Y-68443902D01*
X37525138Y-68238643D01*
X37334763Y-68059557D01*
X37162474Y-67940035D01*
X37123851Y-67913241D01*
X37123848Y-67913239D01*
X37120009Y-67910576D01*
X37115816Y-67908508D01*
X36889781Y-67797040D01*
X36889778Y-67797039D01*
X36885593Y-67794975D01*
X36880617Y-67793382D01*
X36641123Y-67716720D01*
X36636665Y-67715293D01*
X36378693Y-67673279D01*
X36264942Y-67671790D01*
X36122022Y-67669919D01*
X36122019Y-67669919D01*
X36117345Y-67669858D01*
X35858362Y-67705104D01*
X35607433Y-67778243D01*
X35603180Y-67780203D01*
X35603179Y-67780204D01*
X35566659Y-67797040D01*
X35370072Y-67887668D01*
X35331067Y-67913241D01*
X35155404Y-68028410D01*
X35155399Y-68028414D01*
X35151491Y-68030976D01*
X34956494Y-68205018D01*
X34789363Y-68405970D01*
X34786934Y-68409973D01*
X34667441Y-68606892D01*
X34653771Y-68629419D01*
X34552697Y-68870455D01*
X34488359Y-69123783D01*
X34487891Y-69128434D01*
X34487890Y-69128438D01*
X34487211Y-69135184D01*
X34466500Y-69340867D01*
X34466500Y-72496354D01*
X33483000Y-72496354D01*
X33483000Y-67566552D01*
X74456956Y-67566552D01*
X74457472Y-67572696D01*
X74468538Y-67704474D01*
X74472685Y-67753865D01*
X74524497Y-67934555D01*
X74527312Y-67940032D01*
X74527313Y-67940035D01*
X74607603Y-68096263D01*
X74610418Y-68101740D01*
X74614241Y-68106564D01*
X74614244Y-68106568D01*
X74716391Y-68235443D01*
X74727177Y-68249052D01*
X74870324Y-68370880D01*
X74875702Y-68373886D01*
X74875704Y-68373887D01*
X74926674Y-68402373D01*
X75034409Y-68462584D01*
X75213180Y-68520670D01*
X75399830Y-68542927D01*
X75405965Y-68542455D01*
X75405967Y-68542455D01*
X75463394Y-68538036D01*
X75528580Y-68533020D01*
X75598034Y-68547737D01*
X75648506Y-68597668D01*
X75663804Y-68648105D01*
X75672685Y-68753865D01*
X75724497Y-68934555D01*
X75727312Y-68940032D01*
X75727313Y-68940035D01*
X75807603Y-69096263D01*
X75810418Y-69101740D01*
X75814241Y-69106564D01*
X75814244Y-69106568D01*
X75840625Y-69139852D01*
X75927177Y-69249052D01*
X76070324Y-69370880D01*
X76075702Y-69373886D01*
X76075704Y-69373887D01*
X76152367Y-69416732D01*
X76234409Y-69462584D01*
X76413180Y-69520670D01*
X76599830Y-69542927D01*
X76605965Y-69542455D01*
X76605967Y-69542455D01*
X76781105Y-69528979D01*
X76781109Y-69528978D01*
X76787247Y-69528506D01*
X76872378Y-69504737D01*
X76962350Y-69479616D01*
X76962353Y-69479615D01*
X76968294Y-69477956D01*
X76973798Y-69475176D01*
X76973800Y-69475175D01*
X77130574Y-69395983D01*
X77130576Y-69395982D01*
X77136075Y-69393204D01*
X77284199Y-69277477D01*
X77288225Y-69272813D01*
X77402994Y-69139852D01*
X77402995Y-69139850D01*
X77407023Y-69135184D01*
X77499870Y-68971744D01*
X77559203Y-68793382D01*
X77578262Y-68642514D01*
X77606644Y-68577437D01*
X77665703Y-68538036D01*
X77718186Y-68533192D01*
X77787110Y-68541410D01*
X77799830Y-68542927D01*
X77805965Y-68542455D01*
X77805967Y-68542455D01*
X77981105Y-68528979D01*
X77981109Y-68528978D01*
X77987247Y-68528506D01*
X78072378Y-68504737D01*
X78162350Y-68479616D01*
X78162353Y-68479615D01*
X78168294Y-68477956D01*
X78173798Y-68475176D01*
X78173800Y-68475175D01*
X78330574Y-68395983D01*
X78330576Y-68395982D01*
X78336075Y-68393204D01*
X78484199Y-68277477D01*
X78488225Y-68272813D01*
X78602994Y-68139852D01*
X78602995Y-68139850D01*
X78607023Y-68135184D01*
X78699870Y-67971744D01*
X78759203Y-67793382D01*
X78782762Y-67606892D01*
X78783138Y-67580000D01*
X78764795Y-67392926D01*
X78710465Y-67212977D01*
X78622218Y-67047008D01*
X78503415Y-66901340D01*
X78449603Y-66856823D01*
X78363329Y-66785450D01*
X78363324Y-66785447D01*
X78358580Y-66781522D01*
X78353161Y-66778592D01*
X78353158Y-66778590D01*
X78283671Y-66741019D01*
X78193231Y-66692119D01*
X78013666Y-66636534D01*
X78007541Y-66635890D01*
X78007540Y-66635890D01*
X77832852Y-66617529D01*
X77832851Y-66617529D01*
X77826724Y-66616885D01*
X77713486Y-66627191D01*
X77643833Y-66613446D01*
X77592668Y-66564225D01*
X77576667Y-66514005D01*
X77565397Y-66399061D01*
X77565396Y-66399056D01*
X77564795Y-66392926D01*
X77510465Y-66212977D01*
X77422218Y-66047008D01*
X77303415Y-65901340D01*
X77249603Y-65856823D01*
X77163329Y-65785450D01*
X77163324Y-65785447D01*
X77158580Y-65781522D01*
X77153161Y-65778592D01*
X77153158Y-65778590D01*
X77083671Y-65741019D01*
X76993231Y-65692119D01*
X76813666Y-65636534D01*
X76807541Y-65635890D01*
X76807540Y-65635890D01*
X76632852Y-65617529D01*
X76632851Y-65617529D01*
X76626724Y-65616885D01*
X76549673Y-65623897D01*
X76445665Y-65633363D01*
X76445662Y-65633364D01*
X76439526Y-65633922D01*
X76433620Y-65635660D01*
X76433616Y-65635661D01*
X76300278Y-65674905D01*
X76259202Y-65686994D01*
X76092621Y-65774080D01*
X75946128Y-65891864D01*
X75942170Y-65896582D01*
X75942167Y-65896584D01*
X75854797Y-66000708D01*
X75825302Y-66035859D01*
X75822338Y-66041251D01*
X75822335Y-66041255D01*
X75816176Y-66052459D01*
X75734746Y-66200580D01*
X75677909Y-66379752D01*
X75675743Y-66399061D01*
X75662641Y-66515871D01*
X75635170Y-66581338D01*
X75576666Y-66621560D01*
X75524255Y-66627136D01*
X75432852Y-66617529D01*
X75432851Y-66617529D01*
X75426724Y-66616885D01*
X75349673Y-66623897D01*
X75245665Y-66633363D01*
X75245662Y-66633364D01*
X75239526Y-66633922D01*
X75233620Y-66635660D01*
X75233616Y-66635661D01*
X75100278Y-66674905D01*
X75059202Y-66686994D01*
X74892621Y-66774080D01*
X74746128Y-66891864D01*
X74742170Y-66896582D01*
X74742167Y-66896584D01*
X74654797Y-67000708D01*
X74625302Y-67035859D01*
X74622338Y-67041251D01*
X74622335Y-67041255D01*
X74616176Y-67052459D01*
X74534746Y-67200580D01*
X74477909Y-67379752D01*
X74456956Y-67566552D01*
X33483000Y-67566552D01*
X33483000Y-61283207D01*
X33483818Y-61273415D01*
X34811888Y-61273415D01*
X34838193Y-61549130D01*
X34839278Y-61553564D01*
X34839279Y-61553570D01*
X34902939Y-61813725D01*
X34904024Y-61818159D01*
X34905736Y-61822385D01*
X34905737Y-61822389D01*
X34970091Y-61981271D01*
X35008002Y-62074868D01*
X35147948Y-62313878D01*
X35320931Y-62530182D01*
X35523327Y-62719250D01*
X35750896Y-62877120D01*
X35763765Y-62883522D01*
X35994784Y-62998453D01*
X35994787Y-62998454D01*
X35998871Y-63000486D01*
X36003210Y-63001908D01*
X36003209Y-63001908D01*
X36257724Y-63085343D01*
X36257730Y-63085344D01*
X36262057Y-63086763D01*
X36266548Y-63087543D01*
X36266549Y-63087543D01*
X36531160Y-63133487D01*
X36531168Y-63133488D01*
X36534941Y-63134143D01*
X36538778Y-63134334D01*
X36620887Y-63138422D01*
X36620895Y-63138422D01*
X36622458Y-63138500D01*
X36795356Y-63138500D01*
X36797624Y-63138335D01*
X36797636Y-63138335D01*
X36927219Y-63128932D01*
X37001241Y-63123561D01*
X37164383Y-63087543D01*
X37267235Y-63064836D01*
X37267239Y-63064835D01*
X37271695Y-63063851D01*
X37444310Y-62998453D01*
X37507087Y-62974669D01*
X52867001Y-62974669D01*
X52867371Y-62981490D01*
X52872895Y-63032352D01*
X52876521Y-63047604D01*
X52921676Y-63168054D01*
X52930214Y-63183649D01*
X53006715Y-63285724D01*
X53019276Y-63298285D01*
X53121351Y-63374786D01*
X53136946Y-63383324D01*
X53257394Y-63428478D01*
X53272649Y-63432105D01*
X53323514Y-63437631D01*
X53330328Y-63438000D01*
X53952885Y-63438000D01*
X53968124Y-63433525D01*
X53969329Y-63432135D01*
X53971000Y-63424452D01*
X53971000Y-63419884D01*
X54479000Y-63419884D01*
X54483475Y-63435123D01*
X54484865Y-63436328D01*
X54492548Y-63437999D01*
X55119669Y-63437999D01*
X55126490Y-63437629D01*
X55177352Y-63432105D01*
X55192604Y-63428479D01*
X55313054Y-63383324D01*
X55328649Y-63374786D01*
X55430724Y-63298285D01*
X55443285Y-63285724D01*
X55519786Y-63183649D01*
X55528324Y-63168054D01*
X55573478Y-63047606D01*
X55577105Y-63032351D01*
X55582631Y-62981486D01*
X55583000Y-62974672D01*
X55583000Y-62352115D01*
X55578525Y-62336876D01*
X55577135Y-62335671D01*
X55569452Y-62334000D01*
X54497115Y-62334000D01*
X54481876Y-62338475D01*
X54480671Y-62339865D01*
X54479000Y-62347548D01*
X54479000Y-63419884D01*
X53971000Y-63419884D01*
X53971000Y-62352115D01*
X53966525Y-62336876D01*
X53965135Y-62335671D01*
X53957452Y-62334000D01*
X52885116Y-62334000D01*
X52869877Y-62338475D01*
X52868672Y-62339865D01*
X52867001Y-62347548D01*
X52867001Y-62974669D01*
X37507087Y-62974669D01*
X37526426Y-62967342D01*
X37526429Y-62967341D01*
X37530696Y-62965724D01*
X37772820Y-62831236D01*
X37992993Y-62663205D01*
X38048360Y-62606568D01*
X38183409Y-62468419D01*
X38186604Y-62465151D01*
X38336082Y-62259789D01*
X38346909Y-62244914D01*
X38346911Y-62244911D01*
X38349596Y-62241222D01*
X38441495Y-62066552D01*
X75356956Y-62066552D01*
X75357472Y-62072696D01*
X75371284Y-62237177D01*
X75372685Y-62253865D01*
X75424497Y-62434555D01*
X75427312Y-62440032D01*
X75427313Y-62440035D01*
X75473642Y-62530182D01*
X75510418Y-62601740D01*
X75514241Y-62606564D01*
X75514244Y-62606568D01*
X75601080Y-62716126D01*
X75627177Y-62749052D01*
X75631871Y-62753047D01*
X75723743Y-62831236D01*
X75770324Y-62870880D01*
X75775702Y-62873886D01*
X75775704Y-62873887D01*
X75786642Y-62880000D01*
X75934409Y-62962584D01*
X76113180Y-63020670D01*
X76299830Y-63042927D01*
X76305965Y-63042455D01*
X76305968Y-63042455D01*
X76363425Y-63038034D01*
X76432879Y-63052752D01*
X76483351Y-63102682D01*
X76494210Y-63128932D01*
X76524497Y-63234555D01*
X76527312Y-63240032D01*
X76527313Y-63240035D01*
X76607603Y-63396263D01*
X76610418Y-63401740D01*
X76614241Y-63406564D01*
X76614244Y-63406568D01*
X76640625Y-63439852D01*
X76727177Y-63549052D01*
X76870324Y-63670880D01*
X76875702Y-63673886D01*
X76875704Y-63673887D01*
X76952366Y-63716732D01*
X77034409Y-63762584D01*
X77213180Y-63820670D01*
X77399830Y-63842927D01*
X77405965Y-63842455D01*
X77405967Y-63842455D01*
X77581105Y-63828979D01*
X77581109Y-63828978D01*
X77587247Y-63828506D01*
X77672378Y-63804737D01*
X77762350Y-63779616D01*
X77762353Y-63779615D01*
X77768294Y-63777956D01*
X77773798Y-63775176D01*
X77773800Y-63775175D01*
X77930574Y-63695983D01*
X77930576Y-63695982D01*
X77936075Y-63693204D01*
X78084199Y-63577477D01*
X78088225Y-63572813D01*
X78202994Y-63439852D01*
X78202995Y-63439850D01*
X78207023Y-63435184D01*
X78299870Y-63271744D01*
X78359203Y-63093382D01*
X78382762Y-62906892D01*
X78383138Y-62880000D01*
X78364795Y-62692926D01*
X78310465Y-62512977D01*
X78222218Y-62347008D01*
X78103415Y-62201340D01*
X78075661Y-62178380D01*
X78035923Y-62119546D01*
X78034300Y-62048568D01*
X78071309Y-61987981D01*
X78078396Y-61982011D01*
X78079343Y-61981271D01*
X78084199Y-61977477D01*
X78207023Y-61835184D01*
X78299870Y-61671744D01*
X78359203Y-61493382D01*
X78382762Y-61306892D01*
X78383138Y-61280000D01*
X78382492Y-61273415D01*
X80811888Y-61273415D01*
X80838193Y-61549130D01*
X80839278Y-61553564D01*
X80839279Y-61553570D01*
X80902939Y-61813725D01*
X80904024Y-61818159D01*
X80905736Y-61822385D01*
X80905737Y-61822389D01*
X80970091Y-61981271D01*
X81008002Y-62074868D01*
X81147948Y-62313878D01*
X81320931Y-62530182D01*
X81523327Y-62719250D01*
X81750896Y-62877120D01*
X81763765Y-62883522D01*
X81994784Y-62998453D01*
X81994787Y-62998454D01*
X81998871Y-63000486D01*
X82003210Y-63001908D01*
X82003209Y-63001908D01*
X82257724Y-63085343D01*
X82257730Y-63085344D01*
X82262057Y-63086763D01*
X82266548Y-63087543D01*
X82266549Y-63087543D01*
X82531160Y-63133487D01*
X82531168Y-63133488D01*
X82534941Y-63134143D01*
X82538778Y-63134334D01*
X82620887Y-63138422D01*
X82620895Y-63138422D01*
X82622458Y-63138500D01*
X82795356Y-63138500D01*
X82797624Y-63138335D01*
X82797636Y-63138335D01*
X82927219Y-63128932D01*
X83001241Y-63123561D01*
X83164383Y-63087543D01*
X83267235Y-63064836D01*
X83267239Y-63064835D01*
X83271695Y-63063851D01*
X83444310Y-62998453D01*
X83526426Y-62967342D01*
X83526429Y-62967341D01*
X83530696Y-62965724D01*
X83772820Y-62831236D01*
X83992993Y-62663205D01*
X84048360Y-62606568D01*
X84183409Y-62468419D01*
X84186604Y-62465151D01*
X84336082Y-62259789D01*
X84346909Y-62244914D01*
X84346911Y-62244911D01*
X84349596Y-62241222D01*
X84478556Y-61996110D01*
X84483797Y-61981271D01*
X84569261Y-61739256D01*
X84570782Y-61734949D01*
X84624341Y-61463210D01*
X84628085Y-61388001D01*
X84637885Y-61191154D01*
X84637885Y-61191148D01*
X84638112Y-61186585D01*
X84611807Y-60910870D01*
X84610642Y-60906106D01*
X84547061Y-60646275D01*
X84545976Y-60641841D01*
X84539619Y-60626145D01*
X84443711Y-60389361D01*
X84443711Y-60389360D01*
X84441998Y-60385132D01*
X84309604Y-60159020D01*
X84304362Y-60150067D01*
X84304361Y-60150066D01*
X84302052Y-60146122D01*
X84129069Y-59929818D01*
X83926673Y-59740750D01*
X83699104Y-59582880D01*
X83535649Y-59501562D01*
X83455216Y-59461547D01*
X83455213Y-59461546D01*
X83451129Y-59459514D01*
X83357565Y-59428842D01*
X83192276Y-59374657D01*
X83192270Y-59374656D01*
X83187943Y-59373237D01*
X83183451Y-59372457D01*
X82918840Y-59326513D01*
X82918832Y-59326512D01*
X82915059Y-59325857D01*
X82902996Y-59325256D01*
X82829113Y-59321578D01*
X82829105Y-59321578D01*
X82827542Y-59321500D01*
X82654644Y-59321500D01*
X82652376Y-59321665D01*
X82652364Y-59321665D01*
X82533209Y-59330311D01*
X82448759Y-59336439D01*
X82313532Y-59366294D01*
X82182765Y-59395164D01*
X82182761Y-59395165D01*
X82178305Y-59396149D01*
X82163548Y-59401740D01*
X81923574Y-59492658D01*
X81923571Y-59492659D01*
X81919304Y-59494276D01*
X81677180Y-59628764D01*
X81457007Y-59796795D01*
X81453814Y-59800061D01*
X81453812Y-59800063D01*
X81412371Y-59842455D01*
X81263396Y-59994849D01*
X81207426Y-60071744D01*
X81112806Y-60201740D01*
X81100404Y-60218778D01*
X80971444Y-60463890D01*
X80969926Y-60468188D01*
X80969924Y-60468193D01*
X80903379Y-60656632D01*
X80879218Y-60725051D01*
X80825659Y-60996790D01*
X80825432Y-61001347D01*
X80825432Y-61001348D01*
X80814289Y-61225193D01*
X80811888Y-61273415D01*
X78382492Y-61273415D01*
X78364795Y-61092926D01*
X78310465Y-60912977D01*
X78222218Y-60747008D01*
X78103415Y-60601340D01*
X78075661Y-60578380D01*
X78035923Y-60519546D01*
X78034300Y-60448568D01*
X78071309Y-60387981D01*
X78078396Y-60382011D01*
X78079343Y-60381271D01*
X78084199Y-60377477D01*
X78088225Y-60372813D01*
X78202994Y-60239852D01*
X78202995Y-60239850D01*
X78207023Y-60235184D01*
X78299870Y-60071744D01*
X78359203Y-59893382D01*
X78382762Y-59706892D01*
X78383138Y-59680000D01*
X78364795Y-59492926D01*
X78310465Y-59312977D01*
X78222218Y-59147008D01*
X78103415Y-59001340D01*
X78075661Y-58978380D01*
X78035923Y-58919546D01*
X78034300Y-58848568D01*
X78071309Y-58787981D01*
X78078396Y-58782011D01*
X78079343Y-58781271D01*
X78084199Y-58777477D01*
X78163271Y-58685871D01*
X78202994Y-58639852D01*
X78202995Y-58639850D01*
X78207023Y-58635184D01*
X78299870Y-58471744D01*
X78359203Y-58293382D01*
X78382762Y-58106892D01*
X78383138Y-58080000D01*
X78364795Y-57892926D01*
X78350971Y-57847137D01*
X78329555Y-57776206D01*
X78310465Y-57712977D01*
X78222218Y-57547008D01*
X78103415Y-57401340D01*
X78049603Y-57356823D01*
X77963329Y-57285450D01*
X77963324Y-57285447D01*
X77958580Y-57281522D01*
X77953161Y-57278592D01*
X77953158Y-57278590D01*
X77883671Y-57241019D01*
X77793231Y-57192119D01*
X77613666Y-57136534D01*
X77607541Y-57135890D01*
X77607540Y-57135890D01*
X77432852Y-57117529D01*
X77432851Y-57117529D01*
X77426724Y-57116885D01*
X77349673Y-57123897D01*
X77245665Y-57133363D01*
X77245662Y-57133364D01*
X77239526Y-57133922D01*
X77233620Y-57135660D01*
X77233616Y-57135661D01*
X77168700Y-57154767D01*
X77059202Y-57186994D01*
X77053742Y-57189848D01*
X77053743Y-57189848D01*
X76932900Y-57253023D01*
X76892621Y-57274080D01*
X76746128Y-57391864D01*
X76742170Y-57396582D01*
X76742167Y-57396584D01*
X76683540Y-57466453D01*
X76625302Y-57535859D01*
X76622338Y-57541251D01*
X76622335Y-57541255D01*
X76582005Y-57614616D01*
X76534746Y-57700580D01*
X76532885Y-57706447D01*
X76532884Y-57706449D01*
X76492704Y-57833112D01*
X76453040Y-57891996D01*
X76387838Y-57920088D01*
X76359433Y-57920323D01*
X76326724Y-57916885D01*
X76249673Y-57923897D01*
X76145665Y-57933363D01*
X76145662Y-57933364D01*
X76139526Y-57933922D01*
X76133620Y-57935660D01*
X76133616Y-57935661D01*
X76003563Y-57973938D01*
X75959202Y-57986994D01*
X75792621Y-58074080D01*
X75646128Y-58191864D01*
X75642170Y-58196582D01*
X75642167Y-58196584D01*
X75569356Y-58283357D01*
X75525302Y-58335859D01*
X75522338Y-58341251D01*
X75522335Y-58341255D01*
X75462461Y-58450166D01*
X75434746Y-58500580D01*
X75377909Y-58679752D01*
X75356956Y-58866552D01*
X75372685Y-59053865D01*
X75378544Y-59074297D01*
X75406932Y-59173297D01*
X75424497Y-59234555D01*
X75427312Y-59240032D01*
X75427313Y-59240035D01*
X75507603Y-59396263D01*
X75510418Y-59401740D01*
X75514241Y-59406564D01*
X75514244Y-59406568D01*
X75617344Y-59536646D01*
X75627177Y-59549052D01*
X75631871Y-59553047D01*
X75664541Y-59580851D01*
X75770324Y-59670880D01*
X75775702Y-59673886D01*
X75775704Y-59673887D01*
X75786642Y-59680000D01*
X75934409Y-59762584D01*
X76113180Y-59820670D01*
X76299830Y-59842927D01*
X76305965Y-59842455D01*
X76305968Y-59842455D01*
X76363425Y-59838034D01*
X76432879Y-59852752D01*
X76483351Y-59902682D01*
X76494210Y-59928932D01*
X76524497Y-60034555D01*
X76527312Y-60040032D01*
X76527313Y-60040035D01*
X76588463Y-60159020D01*
X76610418Y-60201740D01*
X76614241Y-60206564D01*
X76614244Y-60206568D01*
X76679498Y-60288897D01*
X76727177Y-60349052D01*
X76764943Y-60381193D01*
X76767101Y-60383030D01*
X76806014Y-60442413D01*
X76806645Y-60513407D01*
X76764390Y-60577181D01*
X76746128Y-60591864D01*
X76625302Y-60735859D01*
X76622338Y-60741251D01*
X76622335Y-60741255D01*
X76598169Y-60785214D01*
X76534746Y-60900580D01*
X76532885Y-60906447D01*
X76532884Y-60906449D01*
X76492704Y-61033112D01*
X76453040Y-61091996D01*
X76387838Y-61120088D01*
X76359433Y-61120323D01*
X76326724Y-61116885D01*
X76249673Y-61123897D01*
X76145665Y-61133363D01*
X76145662Y-61133364D01*
X76139526Y-61133922D01*
X76133620Y-61135660D01*
X76133616Y-61135661D01*
X76000278Y-61174905D01*
X75959202Y-61186994D01*
X75792621Y-61274080D01*
X75646128Y-61391864D01*
X75525302Y-61535859D01*
X75522338Y-61541251D01*
X75522335Y-61541255D01*
X75518006Y-61549130D01*
X75434746Y-61700580D01*
X75432885Y-61706447D01*
X75432884Y-61706449D01*
X75423843Y-61734949D01*
X75377909Y-61879752D01*
X75356956Y-62066552D01*
X38441495Y-62066552D01*
X38478556Y-61996110D01*
X38483797Y-61981271D01*
X38569261Y-61739256D01*
X38570782Y-61734949D01*
X38624341Y-61463210D01*
X38628085Y-61388001D01*
X38637885Y-61191154D01*
X38637885Y-61191148D01*
X38638112Y-61186585D01*
X38611807Y-60910870D01*
X38610642Y-60906106D01*
X38547061Y-60646275D01*
X38545976Y-60641841D01*
X38539619Y-60626145D01*
X38443711Y-60389361D01*
X38443711Y-60389360D01*
X38441998Y-60385132D01*
X38309604Y-60159020D01*
X38304362Y-60150067D01*
X38304361Y-60150066D01*
X38302052Y-60146122D01*
X38129069Y-59929818D01*
X37926673Y-59740750D01*
X37699104Y-59582880D01*
X37545967Y-59506695D01*
X52862251Y-59506695D01*
X52862548Y-59511848D01*
X52862548Y-59511851D01*
X52873497Y-59701733D01*
X52875110Y-59729715D01*
X52876247Y-59734761D01*
X52876248Y-59734767D01*
X52890227Y-59796795D01*
X52924222Y-59947639D01*
X52976793Y-60077107D01*
X53003369Y-60142555D01*
X53008266Y-60154616D01*
X53010965Y-60159020D01*
X53086981Y-60283067D01*
X53124987Y-60345088D01*
X53271250Y-60513938D01*
X53275225Y-60517238D01*
X53275231Y-60517244D01*
X53280425Y-60521556D01*
X53320059Y-60580460D01*
X53321555Y-60651441D01*
X53284439Y-60711962D01*
X53244168Y-60736480D01*
X53136946Y-60776676D01*
X53121351Y-60785214D01*
X53019276Y-60861715D01*
X53006715Y-60874276D01*
X52930214Y-60976351D01*
X52921676Y-60991946D01*
X52876522Y-61112394D01*
X52872895Y-61127649D01*
X52867369Y-61178514D01*
X52867000Y-61185328D01*
X52867000Y-61807885D01*
X52871475Y-61823124D01*
X52872865Y-61824329D01*
X52880548Y-61826000D01*
X55564884Y-61826000D01*
X55580123Y-61821525D01*
X55581328Y-61820135D01*
X55582999Y-61812452D01*
X55582999Y-61185331D01*
X55582629Y-61178510D01*
X55577105Y-61127648D01*
X55573479Y-61112396D01*
X55528324Y-60991946D01*
X55519786Y-60976351D01*
X55443285Y-60874276D01*
X55430724Y-60861715D01*
X55328649Y-60785214D01*
X55313054Y-60776676D01*
X55202813Y-60735348D01*
X55146049Y-60692706D01*
X55121349Y-60626145D01*
X55136557Y-60556796D01*
X55158104Y-60528115D01*
X55259430Y-60427144D01*
X55259440Y-60427132D01*
X55263096Y-60423489D01*
X55313714Y-60353047D01*
X55390435Y-60246277D01*
X55393453Y-60242077D01*
X55492430Y-60041811D01*
X55553077Y-59842198D01*
X55555865Y-59833023D01*
X55555865Y-59833021D01*
X55557370Y-59828069D01*
X55586529Y-59606590D01*
X55588156Y-59540000D01*
X55569852Y-59317361D01*
X55515431Y-59100702D01*
X55426354Y-58895840D01*
X55356577Y-58787981D01*
X55307822Y-58712617D01*
X55307820Y-58712614D01*
X55305014Y-58708277D01*
X55154670Y-58543051D01*
X55150619Y-58539852D01*
X55150615Y-58539848D01*
X54983414Y-58407800D01*
X54983410Y-58407798D01*
X54979359Y-58404598D01*
X54938053Y-58381796D01*
X54888084Y-58331364D01*
X54873312Y-58261921D01*
X54898428Y-58195516D01*
X54925780Y-58168909D01*
X54960254Y-58144319D01*
X55027327Y-58121046D01*
X55096336Y-58137729D01*
X55127058Y-58162588D01*
X55192063Y-58234783D01*
X55213747Y-58258866D01*
X55368248Y-58371118D01*
X55374276Y-58373802D01*
X55374278Y-58373803D01*
X55536681Y-58446109D01*
X55542712Y-58448794D01*
X55623147Y-58465891D01*
X55723056Y-58487128D01*
X55723061Y-58487128D01*
X55729513Y-58488500D01*
X55920487Y-58488500D01*
X55926939Y-58487128D01*
X55926944Y-58487128D01*
X56026853Y-58465891D01*
X56107288Y-58448794D01*
X56113319Y-58446109D01*
X56275722Y-58373803D01*
X56275724Y-58373802D01*
X56281752Y-58371118D01*
X56436253Y-58258866D01*
X56440675Y-58253955D01*
X56559621Y-58121852D01*
X56559622Y-58121851D01*
X56564040Y-58116944D01*
X56646605Y-57973938D01*
X56656223Y-57957279D01*
X56656224Y-57957278D01*
X56659527Y-57951556D01*
X56718542Y-57769928D01*
X56729878Y-57662077D01*
X56737814Y-57586565D01*
X56738504Y-57580000D01*
X56722076Y-57423698D01*
X56719232Y-57396635D01*
X56719232Y-57396633D01*
X56718542Y-57390072D01*
X56659527Y-57208444D01*
X56564040Y-57043056D01*
X56539447Y-57015742D01*
X56440675Y-56906045D01*
X56440674Y-56906044D01*
X56436253Y-56901134D01*
X56281752Y-56788882D01*
X56275724Y-56786198D01*
X56275722Y-56786197D01*
X56113319Y-56713891D01*
X56113318Y-56713891D01*
X56107288Y-56711206D01*
X56013888Y-56691353D01*
X55926944Y-56672872D01*
X55926939Y-56672872D01*
X55920487Y-56671500D01*
X55729513Y-56671500D01*
X55723058Y-56672872D01*
X55723049Y-56672873D01*
X55671513Y-56683828D01*
X55600722Y-56678427D01*
X55544089Y-56635611D01*
X55523111Y-56591277D01*
X55516692Y-56565722D01*
X55516692Y-56565721D01*
X55515431Y-56560702D01*
X55436859Y-56380000D01*
X56811496Y-56380000D01*
X56812186Y-56386565D01*
X56826812Y-56525720D01*
X56831458Y-56569928D01*
X56890473Y-56751556D01*
X56893776Y-56757278D01*
X56893777Y-56757279D01*
X56896386Y-56761798D01*
X56985960Y-56916944D01*
X56990378Y-56921851D01*
X56990379Y-56921852D01*
X57087673Y-57029908D01*
X57113747Y-57058866D01*
X57268248Y-57171118D01*
X57274276Y-57173802D01*
X57274278Y-57173803D01*
X57366200Y-57214729D01*
X57442712Y-57248794D01*
X57532118Y-57267798D01*
X57623056Y-57287128D01*
X57623061Y-57287128D01*
X57629513Y-57288500D01*
X57820487Y-57288500D01*
X57826939Y-57287128D01*
X57826944Y-57287128D01*
X57917882Y-57267798D01*
X58007288Y-57248794D01*
X58083800Y-57214729D01*
X58175722Y-57173803D01*
X58175724Y-57173802D01*
X58181752Y-57171118D01*
X58336253Y-57058866D01*
X58362327Y-57029908D01*
X58455260Y-56926695D01*
X63202251Y-56926695D01*
X63202548Y-56931848D01*
X63202548Y-56931851D01*
X63209872Y-57058866D01*
X63215110Y-57149715D01*
X63216247Y-57154761D01*
X63216248Y-57154767D01*
X63228345Y-57208444D01*
X63264222Y-57367639D01*
X63302461Y-57461811D01*
X63332529Y-57535859D01*
X63348266Y-57574616D01*
X63372778Y-57614616D01*
X63429719Y-57707535D01*
X63464987Y-57765088D01*
X63611250Y-57933938D01*
X63783126Y-58076632D01*
X63976000Y-58189338D01*
X63980825Y-58191180D01*
X63980826Y-58191181D01*
X64044370Y-58215446D01*
X64184692Y-58269030D01*
X64189760Y-58270061D01*
X64189763Y-58270062D01*
X64297017Y-58291883D01*
X64403597Y-58313567D01*
X64408772Y-58313757D01*
X64408774Y-58313757D01*
X64621673Y-58321564D01*
X64621677Y-58321564D01*
X64626837Y-58321753D01*
X64631957Y-58321097D01*
X64631959Y-58321097D01*
X64843288Y-58294025D01*
X64843289Y-58294025D01*
X64848416Y-58293368D01*
X64868765Y-58287263D01*
X65057429Y-58230661D01*
X65057434Y-58230659D01*
X65062384Y-58229174D01*
X65262994Y-58130896D01*
X65444860Y-58001173D01*
X65472191Y-57973938D01*
X65554419Y-57891996D01*
X65603096Y-57843489D01*
X65651444Y-57776206D01*
X65730435Y-57666277D01*
X65733453Y-57662077D01*
X65759276Y-57609829D01*
X65830136Y-57466453D01*
X65830137Y-57466451D01*
X65832430Y-57461811D01*
X65897370Y-57248069D01*
X65926529Y-57026590D01*
X65926794Y-57015742D01*
X65928074Y-56963365D01*
X65928074Y-56963361D01*
X65928156Y-56960000D01*
X65909852Y-56737361D01*
X65855431Y-56520702D01*
X65766354Y-56315840D01*
X65668420Y-56164457D01*
X65647822Y-56132617D01*
X65647820Y-56132614D01*
X65645014Y-56128277D01*
X65494670Y-55963051D01*
X65490619Y-55959852D01*
X65490615Y-55959848D01*
X65323414Y-55827800D01*
X65323410Y-55827798D01*
X65319359Y-55824598D01*
X65278053Y-55801796D01*
X65228084Y-55751364D01*
X65213312Y-55681921D01*
X65238428Y-55615516D01*
X65265780Y-55588909D01*
X65309603Y-55557650D01*
X65444860Y-55461173D01*
X65472191Y-55433938D01*
X65599435Y-55307137D01*
X65603096Y-55303489D01*
X65662594Y-55220689D01*
X65730435Y-55126277D01*
X65733453Y-55122077D01*
X65759276Y-55069829D01*
X65830136Y-54926453D01*
X65830137Y-54926451D01*
X65832430Y-54921811D01*
X65861392Y-54826485D01*
X68311854Y-54826485D01*
X68319356Y-54921811D01*
X68334753Y-55117438D01*
X68337370Y-55150695D01*
X68402206Y-55469378D01*
X68505398Y-55777784D01*
X68507052Y-55781253D01*
X68507053Y-55781254D01*
X68536531Y-55843056D01*
X68645405Y-56071316D01*
X68647467Y-56074553D01*
X68647470Y-56074558D01*
X68693246Y-56146411D01*
X68820141Y-56345597D01*
X68822584Y-56348560D01*
X68822585Y-56348562D01*
X69010241Y-56576206D01*
X69027001Y-56596538D01*
X69262902Y-56820399D01*
X69524326Y-57013843D01*
X69595224Y-57053955D01*
X69804019Y-57172086D01*
X69804023Y-57172088D01*
X69807376Y-57173985D01*
X69810937Y-57175460D01*
X69810939Y-57175461D01*
X69851155Y-57192119D01*
X70107832Y-57298438D01*
X70211288Y-57327129D01*
X70417500Y-57384317D01*
X70417508Y-57384319D01*
X70421216Y-57385347D01*
X70742856Y-57433416D01*
X70746154Y-57433560D01*
X70857918Y-57438440D01*
X70857922Y-57438440D01*
X70859294Y-57438500D01*
X71057598Y-57438500D01*
X71299605Y-57423698D01*
X71303388Y-57422997D01*
X71303395Y-57422996D01*
X71471367Y-57391864D01*
X71619372Y-57364433D01*
X71828682Y-57298438D01*
X71925860Y-57267798D01*
X71925863Y-57267797D01*
X71929532Y-57266640D01*
X71933029Y-57265046D01*
X71933035Y-57265044D01*
X72221954Y-57133376D01*
X72221958Y-57133374D01*
X72225462Y-57131777D01*
X72248713Y-57117529D01*
X72499473Y-56963863D01*
X72499476Y-56963861D01*
X72502751Y-56961854D01*
X72505755Y-56959464D01*
X72505760Y-56959461D01*
X72630008Y-56860629D01*
X72757264Y-56759405D01*
X72759958Y-56756664D01*
X72759962Y-56756660D01*
X72982513Y-56530190D01*
X72982517Y-56530185D01*
X72985208Y-56527447D01*
X73166353Y-56291375D01*
X73180835Y-56272502D01*
X73180837Y-56272498D01*
X73183185Y-56269439D01*
X73333220Y-56014729D01*
X73346289Y-55992543D01*
X73346291Y-55992540D01*
X73348242Y-55989227D01*
X73477920Y-55690988D01*
X73488428Y-55655516D01*
X73524621Y-55533327D01*
X73570285Y-55379169D01*
X73623961Y-55058417D01*
X73638146Y-54733515D01*
X73621597Y-54523240D01*
X73612932Y-54413140D01*
X73612932Y-54413137D01*
X73612630Y-54409305D01*
X73547794Y-54090622D01*
X73444602Y-53782216D01*
X73304595Y-53488684D01*
X73286225Y-53459848D01*
X73198470Y-53322101D01*
X73129859Y-53214403D01*
X73122724Y-53205747D01*
X72925442Y-52966425D01*
X72925438Y-52966420D01*
X72922999Y-52963462D01*
X72687098Y-52739601D01*
X72425674Y-52546157D01*
X72220781Y-52430234D01*
X72145981Y-52387914D01*
X72145977Y-52387912D01*
X72142624Y-52386015D01*
X71842168Y-52261562D01*
X71738712Y-52232871D01*
X71532500Y-52175683D01*
X71532492Y-52175681D01*
X71528784Y-52174653D01*
X71207144Y-52126584D01*
X71203846Y-52126440D01*
X71092082Y-52121560D01*
X71092078Y-52121560D01*
X71090706Y-52121500D01*
X70892402Y-52121500D01*
X70650395Y-52136302D01*
X70646612Y-52137003D01*
X70646605Y-52137004D01*
X70506674Y-52162939D01*
X70330628Y-52195567D01*
X70146058Y-52253762D01*
X70024140Y-52292202D01*
X70024137Y-52292203D01*
X70020468Y-52293360D01*
X70016971Y-52294954D01*
X70016965Y-52294956D01*
X69728046Y-52426624D01*
X69728042Y-52426626D01*
X69724538Y-52428223D01*
X69721259Y-52430233D01*
X69721256Y-52430234D01*
X69609008Y-52499020D01*
X69447249Y-52598146D01*
X69444245Y-52600536D01*
X69444240Y-52600539D01*
X69343478Y-52680689D01*
X69192736Y-52800595D01*
X69190042Y-52803336D01*
X69190038Y-52803340D01*
X68967487Y-53029810D01*
X68967483Y-53029815D01*
X68964792Y-53032553D01*
X68834962Y-53201750D01*
X68771391Y-53284598D01*
X68766815Y-53290561D01*
X68688773Y-53423051D01*
X68609046Y-53558401D01*
X68601758Y-53570773D01*
X68472080Y-53869012D01*
X68470986Y-53872706D01*
X68470984Y-53872711D01*
X68436448Y-53989305D01*
X68379715Y-54180831D01*
X68326039Y-54501583D01*
X68311854Y-54826485D01*
X65861392Y-54826485D01*
X65897370Y-54708069D01*
X65926529Y-54486590D01*
X65926611Y-54483240D01*
X65928074Y-54423365D01*
X65928074Y-54423361D01*
X65928156Y-54420000D01*
X65909852Y-54197361D01*
X65855431Y-53980702D01*
X65766354Y-53775840D01*
X65668420Y-53624457D01*
X65647822Y-53592617D01*
X65647820Y-53592614D01*
X65645014Y-53588277D01*
X65494670Y-53423051D01*
X65490619Y-53419852D01*
X65490615Y-53419848D01*
X65323414Y-53287800D01*
X65323410Y-53287798D01*
X65319359Y-53284598D01*
X65278053Y-53261796D01*
X65228084Y-53211364D01*
X65213312Y-53141921D01*
X65238428Y-53075516D01*
X65265780Y-53048909D01*
X65309603Y-53017650D01*
X65444860Y-52921173D01*
X65603096Y-52763489D01*
X65662594Y-52680689D01*
X65730435Y-52586277D01*
X65733453Y-52582077D01*
X65750073Y-52548450D01*
X65830136Y-52386453D01*
X65830137Y-52386451D01*
X65832430Y-52381811D01*
X65868965Y-52261562D01*
X65895865Y-52173023D01*
X65895865Y-52173021D01*
X65897370Y-52168069D01*
X65926529Y-51946590D01*
X65928156Y-51880000D01*
X65909852Y-51657361D01*
X65855431Y-51440702D01*
X65766354Y-51235840D01*
X65645014Y-51048277D01*
X65494670Y-50883051D01*
X65490619Y-50879852D01*
X65490615Y-50879848D01*
X65323414Y-50747800D01*
X65323410Y-50747798D01*
X65319359Y-50744598D01*
X65278053Y-50721796D01*
X65228084Y-50671364D01*
X65213312Y-50601921D01*
X65238428Y-50535516D01*
X65265780Y-50508909D01*
X65309603Y-50477650D01*
X65444860Y-50381173D01*
X65603096Y-50223489D01*
X65662594Y-50140689D01*
X65730435Y-50046277D01*
X65733453Y-50042077D01*
X65741822Y-50025145D01*
X65830136Y-49846453D01*
X65830137Y-49846451D01*
X65832430Y-49841811D01*
X65889505Y-49653955D01*
X65895865Y-49633023D01*
X65895865Y-49633021D01*
X65897370Y-49628069D01*
X65926529Y-49406590D01*
X65928156Y-49340000D01*
X65909852Y-49117361D01*
X65855431Y-48900702D01*
X65766354Y-48695840D01*
X65676460Y-48556885D01*
X65647822Y-48512617D01*
X65647820Y-48512614D01*
X65645014Y-48508277D01*
X65494670Y-48343051D01*
X65490619Y-48339852D01*
X65490615Y-48339848D01*
X65323414Y-48207800D01*
X65323410Y-48207798D01*
X65319359Y-48204598D01*
X65278053Y-48181796D01*
X65228084Y-48131364D01*
X65213312Y-48061921D01*
X65238428Y-47995516D01*
X65265780Y-47968909D01*
X65314747Y-47933981D01*
X65444860Y-47841173D01*
X65603096Y-47683489D01*
X65662594Y-47600689D01*
X65730435Y-47506277D01*
X65733453Y-47502077D01*
X65761588Y-47445151D01*
X65830136Y-47306453D01*
X65830137Y-47306451D01*
X65832430Y-47301811D01*
X65897370Y-47088069D01*
X65926529Y-46866590D01*
X65926757Y-46857267D01*
X65928074Y-46803365D01*
X65928074Y-46803361D01*
X65928156Y-46800000D01*
X65925418Y-46766695D01*
X68282251Y-46766695D01*
X68282548Y-46771848D01*
X68282548Y-46771851D01*
X68294038Y-46971118D01*
X68295110Y-46989715D01*
X68296247Y-46994761D01*
X68296248Y-46994767D01*
X68307819Y-47046109D01*
X68344222Y-47207639D01*
X68428266Y-47414616D01*
X68443471Y-47439428D01*
X68539599Y-47596295D01*
X68544987Y-47605088D01*
X68691250Y-47773938D01*
X68863126Y-47916632D01*
X69056000Y-48029338D01*
X69264692Y-48109030D01*
X69269760Y-48110061D01*
X69269763Y-48110062D01*
X69374466Y-48131364D01*
X69483597Y-48153567D01*
X69488772Y-48153757D01*
X69488774Y-48153757D01*
X69701673Y-48161564D01*
X69701677Y-48161564D01*
X69706837Y-48161753D01*
X69711957Y-48161097D01*
X69711959Y-48161097D01*
X69923288Y-48134025D01*
X69923289Y-48134025D01*
X69928416Y-48133368D01*
X69993336Y-48113891D01*
X70137429Y-48070661D01*
X70137434Y-48070659D01*
X70142384Y-48069174D01*
X70342994Y-47970896D01*
X70524860Y-47841173D01*
X70683096Y-47683489D01*
X70742594Y-47600689D01*
X70810435Y-47506277D01*
X70813453Y-47502077D01*
X70841588Y-47445151D01*
X70910136Y-47306453D01*
X70910137Y-47306451D01*
X70912430Y-47301811D01*
X70977370Y-47088069D01*
X71006529Y-46866590D01*
X71006757Y-46857267D01*
X71008074Y-46803365D01*
X71008074Y-46803361D01*
X71008156Y-46800000D01*
X70989852Y-46577361D01*
X70935431Y-46360702D01*
X70846354Y-46155840D01*
X70739114Y-45990072D01*
X70727822Y-45972617D01*
X70727820Y-45972614D01*
X70725014Y-45968277D01*
X70721532Y-45964450D01*
X70577798Y-45806488D01*
X70546746Y-45742642D01*
X70555141Y-45672143D01*
X70600317Y-45617375D01*
X70626761Y-45603706D01*
X70733297Y-45563767D01*
X70741705Y-45560615D01*
X70858261Y-45473261D01*
X70945615Y-45356705D01*
X70996745Y-45220316D01*
X71003500Y-45158134D01*
X71003500Y-43361866D01*
X70996745Y-43299684D01*
X70945615Y-43163295D01*
X70858261Y-43046739D01*
X70741705Y-42959385D01*
X70733296Y-42956233D01*
X70733295Y-42956232D01*
X70606231Y-42908598D01*
X70549466Y-42865957D01*
X70524766Y-42799395D01*
X70539973Y-42730046D01*
X70576399Y-42688680D01*
X70597204Y-42673564D01*
X70686253Y-42608866D01*
X70814040Y-42466944D01*
X70909527Y-42301556D01*
X70968542Y-42119928D01*
X70988504Y-41930000D01*
X70968542Y-41740072D01*
X70909527Y-41558444D01*
X70814040Y-41393056D01*
X70686253Y-41251134D01*
X70531752Y-41138882D01*
X70525724Y-41136198D01*
X70525722Y-41136197D01*
X70363319Y-41063891D01*
X70363318Y-41063891D01*
X70357288Y-41061206D01*
X70263888Y-41041353D01*
X70176944Y-41022872D01*
X70176939Y-41022872D01*
X70170487Y-41021500D01*
X69979513Y-41021500D01*
X69973061Y-41022872D01*
X69973056Y-41022872D01*
X69886112Y-41041353D01*
X69792712Y-41061206D01*
X69786682Y-41063891D01*
X69786681Y-41063891D01*
X69624278Y-41136197D01*
X69624276Y-41136198D01*
X69618248Y-41138882D01*
X69463747Y-41251134D01*
X69335960Y-41393056D01*
X69240473Y-41558444D01*
X69181458Y-41740072D01*
X69161496Y-41930000D01*
X69181458Y-42119928D01*
X69240473Y-42301556D01*
X69335960Y-42466944D01*
X69463747Y-42608866D01*
X69469089Y-42612747D01*
X69469091Y-42612749D01*
X69552796Y-42673564D01*
X69596150Y-42729786D01*
X69602225Y-42800523D01*
X69569094Y-42863314D01*
X69507273Y-42898226D01*
X69478735Y-42901500D01*
X68746866Y-42901500D01*
X68684684Y-42908255D01*
X68548295Y-42959385D01*
X68431739Y-43046739D01*
X68344385Y-43163295D01*
X68293255Y-43299684D01*
X68286500Y-43361866D01*
X68286500Y-45158134D01*
X68293255Y-45220316D01*
X68344385Y-45356705D01*
X68431739Y-45473261D01*
X68548295Y-45560615D01*
X68556704Y-45563767D01*
X68556705Y-45563768D01*
X68665451Y-45604535D01*
X68722216Y-45647176D01*
X68746916Y-45713738D01*
X68731709Y-45783087D01*
X68712316Y-45809568D01*
X68585629Y-45942138D01*
X68459743Y-46126680D01*
X68426774Y-46197706D01*
X68391328Y-46274069D01*
X68365688Y-46329305D01*
X68305989Y-46544570D01*
X68282251Y-46766695D01*
X65925418Y-46766695D01*
X65909852Y-46577361D01*
X65855431Y-46360702D01*
X65766354Y-46155840D01*
X65659114Y-45990072D01*
X65647822Y-45972617D01*
X65647820Y-45972614D01*
X65645014Y-45968277D01*
X65641540Y-45964459D01*
X65641533Y-45964450D01*
X65497435Y-45806088D01*
X65466383Y-45742242D01*
X65474779Y-45671744D01*
X65519956Y-45616976D01*
X65546400Y-45603307D01*
X65653052Y-45563325D01*
X65668649Y-45554786D01*
X65770724Y-45478285D01*
X65783285Y-45465724D01*
X65859786Y-45363649D01*
X65868324Y-45348054D01*
X65913478Y-45227606D01*
X65917105Y-45212351D01*
X65922631Y-45161486D01*
X65923000Y-45154672D01*
X65923000Y-44532115D01*
X65918525Y-44516876D01*
X65917135Y-44515671D01*
X65909452Y-44514000D01*
X63225116Y-44514000D01*
X63209877Y-44518475D01*
X63208672Y-44519865D01*
X63207001Y-44527548D01*
X63207001Y-45154669D01*
X63207371Y-45161490D01*
X63212895Y-45212352D01*
X63216521Y-45227604D01*
X63261676Y-45348054D01*
X63270214Y-45363649D01*
X63346715Y-45465724D01*
X63359276Y-45478285D01*
X63461351Y-45554786D01*
X63476946Y-45563324D01*
X63585827Y-45604142D01*
X63642591Y-45646784D01*
X63667291Y-45713345D01*
X63652083Y-45782694D01*
X63632691Y-45809175D01*
X63509200Y-45938401D01*
X63505629Y-45942138D01*
X63379743Y-46126680D01*
X63346774Y-46197706D01*
X63311328Y-46274069D01*
X63285688Y-46329305D01*
X63225989Y-46544570D01*
X63202251Y-46766695D01*
X63202548Y-46771848D01*
X63202548Y-46771851D01*
X63214038Y-46971118D01*
X63215110Y-46989715D01*
X63216247Y-46994761D01*
X63216248Y-46994767D01*
X63227819Y-47046109D01*
X63264222Y-47207639D01*
X63348266Y-47414616D01*
X63363471Y-47439428D01*
X63459599Y-47596295D01*
X63464987Y-47605088D01*
X63611250Y-47773938D01*
X63783126Y-47916632D01*
X63817410Y-47936666D01*
X63856445Y-47959476D01*
X63905169Y-48011114D01*
X63918240Y-48080897D01*
X63891509Y-48146669D01*
X63851055Y-48180027D01*
X63838607Y-48186507D01*
X63834474Y-48189610D01*
X63834471Y-48189612D01*
X63679397Y-48306045D01*
X63659965Y-48320635D01*
X63505629Y-48482138D01*
X63379743Y-48666680D01*
X63349015Y-48732878D01*
X63309035Y-48819009D01*
X63285688Y-48869305D01*
X63225989Y-49084570D01*
X63202251Y-49306695D01*
X63202548Y-49311848D01*
X63202548Y-49311851D01*
X63208011Y-49406590D01*
X63215110Y-49529715D01*
X63216247Y-49534761D01*
X63216248Y-49534767D01*
X63240275Y-49641378D01*
X63264222Y-49747639D01*
X63348266Y-49954616D01*
X63464987Y-50145088D01*
X63611250Y-50313938D01*
X63783126Y-50456632D01*
X63853595Y-50497811D01*
X63856445Y-50499476D01*
X63905169Y-50551114D01*
X63918240Y-50620897D01*
X63891509Y-50686669D01*
X63851055Y-50720027D01*
X63838607Y-50726507D01*
X63834474Y-50729610D01*
X63834471Y-50729612D01*
X63810247Y-50747800D01*
X63659965Y-50860635D01*
X63505629Y-51022138D01*
X63379743Y-51206680D01*
X63285688Y-51409305D01*
X63225989Y-51624570D01*
X63202251Y-51846695D01*
X63202548Y-51851848D01*
X63202548Y-51851851D01*
X63208011Y-51946590D01*
X63215110Y-52069715D01*
X63216247Y-52074761D01*
X63216248Y-52074767D01*
X63227926Y-52126584D01*
X63264222Y-52287639D01*
X63348266Y-52494616D01*
X63464987Y-52685088D01*
X63611250Y-52853938D01*
X63783126Y-52996632D01*
X63839904Y-53029810D01*
X63856445Y-53039476D01*
X63905169Y-53091114D01*
X63918240Y-53160897D01*
X63891509Y-53226669D01*
X63851055Y-53260027D01*
X63838607Y-53266507D01*
X63834474Y-53269610D01*
X63834471Y-53269612D01*
X63756972Y-53327800D01*
X63659965Y-53400635D01*
X63505629Y-53562138D01*
X63502715Y-53566410D01*
X63502714Y-53566411D01*
X63497333Y-53574299D01*
X63379743Y-53746680D01*
X63285688Y-53949305D01*
X63225989Y-54164570D01*
X63202251Y-54386695D01*
X63202548Y-54391848D01*
X63202548Y-54391851D01*
X63208011Y-54486590D01*
X63215110Y-54609715D01*
X63216247Y-54614761D01*
X63216248Y-54614767D01*
X63225263Y-54654767D01*
X63264222Y-54827639D01*
X63348266Y-55034616D01*
X63464987Y-55225088D01*
X63611250Y-55393938D01*
X63783126Y-55536632D01*
X63845922Y-55573327D01*
X63856445Y-55579476D01*
X63905169Y-55631114D01*
X63918240Y-55700897D01*
X63891509Y-55766669D01*
X63851055Y-55800027D01*
X63838607Y-55806507D01*
X63834474Y-55809610D01*
X63834471Y-55809612D01*
X63756972Y-55867800D01*
X63659965Y-55940635D01*
X63505629Y-56102138D01*
X63502715Y-56106410D01*
X63502714Y-56106411D01*
X63417556Y-56231249D01*
X63379743Y-56286680D01*
X63285688Y-56489305D01*
X63225989Y-56704570D01*
X63202251Y-56926695D01*
X58455260Y-56926695D01*
X58459621Y-56921852D01*
X58459622Y-56921851D01*
X58464040Y-56916944D01*
X58553614Y-56761798D01*
X58556223Y-56757279D01*
X58556224Y-56757278D01*
X58559527Y-56751556D01*
X58618542Y-56569928D01*
X58623189Y-56525720D01*
X58637814Y-56386565D01*
X58638504Y-56380000D01*
X58618542Y-56190072D01*
X58559527Y-56008444D01*
X58543472Y-55980635D01*
X58467341Y-55848774D01*
X58464040Y-55843056D01*
X58450304Y-55827800D01*
X58340675Y-55706045D01*
X58340674Y-55706044D01*
X58336253Y-55701134D01*
X58223861Y-55619476D01*
X58187094Y-55592763D01*
X58187093Y-55592762D01*
X58181752Y-55588882D01*
X58175724Y-55586198D01*
X58175722Y-55586197D01*
X58013319Y-55513891D01*
X58013318Y-55513891D01*
X58007288Y-55511206D01*
X57913888Y-55491353D01*
X57826944Y-55472872D01*
X57826939Y-55472872D01*
X57820487Y-55471500D01*
X57629513Y-55471500D01*
X57623061Y-55472872D01*
X57623056Y-55472872D01*
X57536112Y-55491353D01*
X57442712Y-55511206D01*
X57436682Y-55513891D01*
X57436681Y-55513891D01*
X57274278Y-55586197D01*
X57274276Y-55586198D01*
X57268248Y-55588882D01*
X57262907Y-55592762D01*
X57262906Y-55592763D01*
X57226139Y-55619476D01*
X57113747Y-55701134D01*
X57109326Y-55706044D01*
X57109325Y-55706045D01*
X56999697Y-55827800D01*
X56985960Y-55843056D01*
X56982659Y-55848774D01*
X56906529Y-55980635D01*
X56890473Y-56008444D01*
X56831458Y-56190072D01*
X56811496Y-56380000D01*
X55436859Y-56380000D01*
X55426354Y-56355840D01*
X55319114Y-56190072D01*
X55307822Y-56172617D01*
X55307820Y-56172614D01*
X55305014Y-56168277D01*
X55154670Y-56003051D01*
X55150619Y-55999852D01*
X55150615Y-55999848D01*
X54983414Y-55867800D01*
X54983410Y-55867798D01*
X54979359Y-55864598D01*
X54938053Y-55841796D01*
X54888084Y-55791364D01*
X54873312Y-55721921D01*
X54898428Y-55655516D01*
X54925780Y-55628909D01*
X54985660Y-55586197D01*
X55104860Y-55501173D01*
X55263096Y-55343489D01*
X55289218Y-55307137D01*
X55390435Y-55166277D01*
X55393453Y-55162077D01*
X55399079Y-55150695D01*
X55490136Y-54966453D01*
X55490137Y-54966451D01*
X55492430Y-54961811D01*
X55557370Y-54748069D01*
X55586529Y-54526590D01*
X55587425Y-54489908D01*
X55588074Y-54463365D01*
X55588074Y-54463361D01*
X55588156Y-54460000D01*
X55569852Y-54237361D01*
X55515431Y-54020702D01*
X55426354Y-53815840D01*
X55305014Y-53628277D01*
X55154670Y-53463051D01*
X55150619Y-53459852D01*
X55150615Y-53459848D01*
X54983414Y-53327800D01*
X54983410Y-53327798D01*
X54979359Y-53324598D01*
X54783789Y-53216638D01*
X54778920Y-53214914D01*
X54778916Y-53214912D01*
X54578087Y-53143795D01*
X54578083Y-53143794D01*
X54573212Y-53142069D01*
X54568119Y-53141162D01*
X54568116Y-53141161D01*
X54358373Y-53103800D01*
X54358367Y-53103799D01*
X54353284Y-53102894D01*
X54279452Y-53101992D01*
X54135081Y-53100228D01*
X54135079Y-53100228D01*
X54129911Y-53100165D01*
X53909091Y-53133955D01*
X53696756Y-53203357D01*
X53669305Y-53217647D01*
X53522852Y-53293886D01*
X53498607Y-53306507D01*
X53494474Y-53309610D01*
X53494471Y-53309612D01*
X53338298Y-53426870D01*
X53319965Y-53440635D01*
X53316393Y-53444373D01*
X53192233Y-53574299D01*
X53165629Y-53602138D01*
X53039743Y-53786680D01*
X53024003Y-53820590D01*
X52966435Y-53944610D01*
X52945688Y-53989305D01*
X52885989Y-54204570D01*
X52862251Y-54426695D01*
X52862548Y-54431848D01*
X52862548Y-54431851D01*
X52868011Y-54526590D01*
X52875110Y-54649715D01*
X52876247Y-54654761D01*
X52876248Y-54654767D01*
X52888261Y-54708069D01*
X52924222Y-54867639D01*
X53008266Y-55074616D01*
X53124987Y-55265088D01*
X53271250Y-55433938D01*
X53443126Y-55576632D01*
X53464136Y-55588909D01*
X53516445Y-55619476D01*
X53565169Y-55671114D01*
X53578240Y-55740897D01*
X53551509Y-55806669D01*
X53511055Y-55840027D01*
X53498607Y-55846507D01*
X53494474Y-55849610D01*
X53494471Y-55849612D01*
X53338298Y-55966870D01*
X53319965Y-55980635D01*
X53301605Y-55999848D01*
X53199771Y-56106411D01*
X53165629Y-56142138D01*
X53039743Y-56326680D01*
X52992715Y-56427993D01*
X52947968Y-56524394D01*
X52945688Y-56529305D01*
X52885989Y-56744570D01*
X52862251Y-56966695D01*
X52862548Y-56971848D01*
X52862548Y-56971851D01*
X52872044Y-57136534D01*
X52875110Y-57189715D01*
X52876247Y-57194761D01*
X52876248Y-57194767D01*
X52894123Y-57274080D01*
X52924222Y-57407639D01*
X53008266Y-57614616D01*
X53124987Y-57805088D01*
X53271250Y-57973938D01*
X53443126Y-58116632D01*
X53490507Y-58144319D01*
X53516445Y-58159476D01*
X53565169Y-58211114D01*
X53578240Y-58280897D01*
X53551509Y-58346669D01*
X53511055Y-58380027D01*
X53498607Y-58386507D01*
X53494474Y-58389610D01*
X53494471Y-58389612D01*
X53338859Y-58506449D01*
X53319965Y-58520635D01*
X53165629Y-58682138D01*
X53039743Y-58866680D01*
X53024003Y-58900590D01*
X52955706Y-59047724D01*
X52945688Y-59069305D01*
X52885989Y-59284570D01*
X52862251Y-59506695D01*
X37545967Y-59506695D01*
X37535649Y-59501562D01*
X37455216Y-59461547D01*
X37455213Y-59461546D01*
X37451129Y-59459514D01*
X37357565Y-59428842D01*
X37192276Y-59374657D01*
X37192270Y-59374656D01*
X37187943Y-59373237D01*
X37183451Y-59372457D01*
X36918840Y-59326513D01*
X36918832Y-59326512D01*
X36915059Y-59325857D01*
X36902996Y-59325256D01*
X36829113Y-59321578D01*
X36829105Y-59321578D01*
X36827542Y-59321500D01*
X36654644Y-59321500D01*
X36652376Y-59321665D01*
X36652364Y-59321665D01*
X36533209Y-59330311D01*
X36448759Y-59336439D01*
X36313532Y-59366294D01*
X36182765Y-59395164D01*
X36182761Y-59395165D01*
X36178305Y-59396149D01*
X36163548Y-59401740D01*
X35923574Y-59492658D01*
X35923571Y-59492659D01*
X35919304Y-59494276D01*
X35677180Y-59628764D01*
X35457007Y-59796795D01*
X35453814Y-59800061D01*
X35453812Y-59800063D01*
X35412371Y-59842455D01*
X35263396Y-59994849D01*
X35207426Y-60071744D01*
X35112806Y-60201740D01*
X35100404Y-60218778D01*
X34971444Y-60463890D01*
X34969926Y-60468188D01*
X34969924Y-60468193D01*
X34903379Y-60656632D01*
X34879218Y-60725051D01*
X34825659Y-60996790D01*
X34825432Y-61001347D01*
X34825432Y-61001348D01*
X34814289Y-61225193D01*
X34811888Y-61273415D01*
X33483818Y-61273415D01*
X33484746Y-61262303D01*
X33487264Y-61247335D01*
X33488071Y-61242539D01*
X33488224Y-61230000D01*
X33486048Y-61214804D01*
X33484927Y-61190763D01*
X33485133Y-61186585D01*
X33498308Y-60918404D01*
X33499519Y-60906105D01*
X33501379Y-60893567D01*
X33544387Y-60603633D01*
X33546794Y-60591527D01*
X33621097Y-60294894D01*
X33624685Y-60283067D01*
X33727696Y-59995174D01*
X33732427Y-59983751D01*
X33837030Y-59762584D01*
X33863167Y-59707322D01*
X33868991Y-59696426D01*
X33979622Y-59511851D01*
X34026196Y-59434148D01*
X34033066Y-59423867D01*
X34215213Y-59178269D01*
X34223057Y-59168711D01*
X34403687Y-58969416D01*
X34422721Y-58952289D01*
X34424543Y-58950958D01*
X34431794Y-58945661D01*
X34451726Y-58919732D01*
X34462268Y-58907688D01*
X34478374Y-58891492D01*
X36786951Y-56569928D01*
X36975817Y-56380000D01*
X50606496Y-56380000D01*
X50607186Y-56386565D01*
X50621812Y-56525720D01*
X50626458Y-56569928D01*
X50685473Y-56751556D01*
X50688776Y-56757278D01*
X50688777Y-56757279D01*
X50691386Y-56761798D01*
X50780960Y-56916944D01*
X50785378Y-56921851D01*
X50785379Y-56921852D01*
X50882673Y-57029908D01*
X50908747Y-57058866D01*
X51063248Y-57171118D01*
X51069276Y-57173802D01*
X51069278Y-57173803D01*
X51161200Y-57214729D01*
X51237712Y-57248794D01*
X51327118Y-57267798D01*
X51418056Y-57287128D01*
X51418061Y-57287128D01*
X51424513Y-57288500D01*
X51615487Y-57288500D01*
X51621939Y-57287128D01*
X51621944Y-57287128D01*
X51712882Y-57267798D01*
X51802288Y-57248794D01*
X51878800Y-57214729D01*
X51970722Y-57173803D01*
X51970724Y-57173802D01*
X51976752Y-57171118D01*
X52131253Y-57058866D01*
X52157327Y-57029908D01*
X52254621Y-56921852D01*
X52254622Y-56921851D01*
X52259040Y-56916944D01*
X52348614Y-56761798D01*
X52351223Y-56757279D01*
X52351224Y-56757278D01*
X52354527Y-56751556D01*
X52413542Y-56569928D01*
X52418189Y-56525720D01*
X52432814Y-56386565D01*
X52433504Y-56380000D01*
X52413542Y-56190072D01*
X52354527Y-56008444D01*
X52338472Y-55980635D01*
X52262341Y-55848774D01*
X52259040Y-55843056D01*
X52245304Y-55827800D01*
X52135675Y-55706045D01*
X52135674Y-55706044D01*
X52131253Y-55701134D01*
X52018861Y-55619476D01*
X51982094Y-55592763D01*
X51982093Y-55592762D01*
X51976752Y-55588882D01*
X51970724Y-55586198D01*
X51970722Y-55586197D01*
X51808319Y-55513891D01*
X51808318Y-55513891D01*
X51802288Y-55511206D01*
X51708888Y-55491353D01*
X51621944Y-55472872D01*
X51621939Y-55472872D01*
X51615487Y-55471500D01*
X51424513Y-55471500D01*
X51418061Y-55472872D01*
X51418056Y-55472872D01*
X51331112Y-55491353D01*
X51237712Y-55511206D01*
X51231682Y-55513891D01*
X51231681Y-55513891D01*
X51069278Y-55586197D01*
X51069276Y-55586198D01*
X51063248Y-55588882D01*
X51057907Y-55592762D01*
X51057906Y-55592763D01*
X51021139Y-55619476D01*
X50908747Y-55701134D01*
X50904326Y-55706044D01*
X50904325Y-55706045D01*
X50794697Y-55827800D01*
X50780960Y-55843056D01*
X50777659Y-55848774D01*
X50701529Y-55980635D01*
X50685473Y-56008444D01*
X50626458Y-56190072D01*
X50606496Y-56380000D01*
X36975817Y-56380000D01*
X42697072Y-50626561D01*
X42713336Y-50612765D01*
X42724959Y-50604490D01*
X42724962Y-50604487D01*
X42728929Y-50601663D01*
X42737904Y-50592904D01*
X42741282Y-50588397D01*
X42749198Y-50578853D01*
X42988275Y-50317947D01*
X42991352Y-50313938D01*
X43199957Y-50042077D01*
X43214622Y-50022965D01*
X43414399Y-49709378D01*
X43456861Y-49627810D01*
X43506057Y-49576624D01*
X43575118Y-49560160D01*
X43642117Y-49583646D01*
X43662249Y-49601672D01*
X43713747Y-49658866D01*
X43868248Y-49771118D01*
X43874276Y-49773802D01*
X43874278Y-49773803D01*
X44036681Y-49846109D01*
X44042712Y-49848794D01*
X44136113Y-49868647D01*
X44223056Y-49887128D01*
X44223061Y-49887128D01*
X44229513Y-49888500D01*
X44420487Y-49888500D01*
X44426939Y-49887128D01*
X44426944Y-49887128D01*
X44513887Y-49868647D01*
X44607288Y-49848794D01*
X44613319Y-49846109D01*
X44775722Y-49773803D01*
X44775724Y-49773802D01*
X44781752Y-49771118D01*
X44936253Y-49658866D01*
X45057194Y-49524547D01*
X45059621Y-49521852D01*
X45059622Y-49521851D01*
X45064040Y-49516944D01*
X45159527Y-49351556D01*
X45218542Y-49169928D01*
X45224595Y-49112342D01*
X45237814Y-48986565D01*
X45238504Y-48980000D01*
X45226376Y-48864610D01*
X45219232Y-48796635D01*
X45219232Y-48796633D01*
X45218542Y-48790072D01*
X45199958Y-48732878D01*
X57964374Y-48732878D01*
X57965064Y-48739443D01*
X57979238Y-48874297D01*
X57984336Y-48922806D01*
X58043351Y-49104434D01*
X58138838Y-49269822D01*
X58143256Y-49274729D01*
X58143257Y-49274730D01*
X58237658Y-49379573D01*
X58266625Y-49411744D01*
X58321929Y-49451925D01*
X58403550Y-49511226D01*
X58421126Y-49523996D01*
X58427154Y-49526680D01*
X58427156Y-49526681D01*
X58589559Y-49598987D01*
X58595590Y-49601672D01*
X58688991Y-49621525D01*
X58775934Y-49640006D01*
X58775939Y-49640006D01*
X58782391Y-49641378D01*
X58973365Y-49641378D01*
X58979817Y-49640006D01*
X58979822Y-49640006D01*
X59066765Y-49621525D01*
X59160166Y-49601672D01*
X59166197Y-49598987D01*
X59328600Y-49526681D01*
X59328602Y-49526680D01*
X59334630Y-49523996D01*
X59352207Y-49511226D01*
X59433827Y-49451925D01*
X59489131Y-49411744D01*
X59518098Y-49379573D01*
X59612499Y-49274730D01*
X59612500Y-49274729D01*
X59616918Y-49269822D01*
X59712405Y-49104434D01*
X59771420Y-48922806D01*
X59776519Y-48874297D01*
X59790692Y-48739443D01*
X59791382Y-48732878D01*
X59772885Y-48556885D01*
X59772110Y-48549513D01*
X59772110Y-48549511D01*
X59771420Y-48542950D01*
X59712405Y-48361322D01*
X59691073Y-48324373D01*
X59620219Y-48201652D01*
X59616918Y-48195934D01*
X59611789Y-48190237D01*
X59493553Y-48058923D01*
X59493552Y-48058922D01*
X59489131Y-48054012D01*
X59371997Y-47968909D01*
X59339972Y-47945641D01*
X59339971Y-47945640D01*
X59334630Y-47941760D01*
X59328602Y-47939076D01*
X59328600Y-47939075D01*
X59166197Y-47866769D01*
X59166196Y-47866769D01*
X59160166Y-47864084D01*
X59038924Y-47838313D01*
X58979822Y-47825750D01*
X58979817Y-47825750D01*
X58973365Y-47824378D01*
X58782391Y-47824378D01*
X58775939Y-47825750D01*
X58775934Y-47825750D01*
X58716832Y-47838313D01*
X58595590Y-47864084D01*
X58589560Y-47866769D01*
X58589559Y-47866769D01*
X58427156Y-47939075D01*
X58427154Y-47939076D01*
X58421126Y-47941760D01*
X58415785Y-47945640D01*
X58415784Y-47945641D01*
X58383759Y-47968909D01*
X58266625Y-48054012D01*
X58262204Y-48058922D01*
X58262203Y-48058923D01*
X58143968Y-48190237D01*
X58138838Y-48195934D01*
X58135537Y-48201652D01*
X58064684Y-48324373D01*
X58043351Y-48361322D01*
X57984336Y-48542950D01*
X57983646Y-48549511D01*
X57983646Y-48549513D01*
X57982871Y-48556885D01*
X57964374Y-48732878D01*
X45199958Y-48732878D01*
X45159527Y-48608444D01*
X45064040Y-48443056D01*
X45057347Y-48435622D01*
X44940675Y-48306045D01*
X44940674Y-48306044D01*
X44936253Y-48301134D01*
X44803383Y-48204598D01*
X44787094Y-48192763D01*
X44787093Y-48192762D01*
X44781752Y-48188882D01*
X44775724Y-48186198D01*
X44775722Y-48186197D01*
X44613319Y-48113891D01*
X44613318Y-48113891D01*
X44607288Y-48111206D01*
X44504982Y-48089460D01*
X44426944Y-48072872D01*
X44426939Y-48072872D01*
X44420487Y-48071500D01*
X44229513Y-48071500D01*
X44223061Y-48072872D01*
X44223056Y-48072872D01*
X44119603Y-48094862D01*
X44048812Y-48089460D01*
X43992179Y-48046643D01*
X43967686Y-47980005D01*
X43968484Y-47955172D01*
X43968827Y-47952562D01*
X43968828Y-47952552D01*
X43969189Y-47949813D01*
X43982349Y-47648385D01*
X50585728Y-47648385D01*
X50586418Y-47654950D01*
X50604370Y-47825750D01*
X50605690Y-47838313D01*
X50664705Y-48019941D01*
X50760192Y-48185329D01*
X50764610Y-48190236D01*
X50764611Y-48190237D01*
X50769741Y-48195934D01*
X50887979Y-48327251D01*
X51042480Y-48439503D01*
X51048508Y-48442187D01*
X51048510Y-48442188D01*
X51210913Y-48514494D01*
X51216944Y-48517179D01*
X51308651Y-48536672D01*
X51397288Y-48555513D01*
X51397293Y-48555513D01*
X51403745Y-48556885D01*
X51594719Y-48556885D01*
X51601171Y-48555513D01*
X51601176Y-48555513D01*
X51689813Y-48536672D01*
X51781520Y-48517179D01*
X51787551Y-48514494D01*
X51949954Y-48442188D01*
X51949956Y-48442187D01*
X51955984Y-48439503D01*
X52110485Y-48327251D01*
X52228723Y-48195934D01*
X52233853Y-48190237D01*
X52233854Y-48190236D01*
X52238272Y-48185329D01*
X52294176Y-48088500D01*
X52324046Y-48036765D01*
X52375429Y-47987772D01*
X52408671Y-47977841D01*
X52408359Y-47976372D01*
X52595160Y-47936666D01*
X52601191Y-47933981D01*
X52763594Y-47861675D01*
X52763596Y-47861674D01*
X52769624Y-47858990D01*
X52789443Y-47844591D01*
X52825029Y-47818736D01*
X52924125Y-47746738D01*
X52928547Y-47741827D01*
X53047493Y-47609724D01*
X53047494Y-47609723D01*
X53051912Y-47604816D01*
X53113907Y-47497438D01*
X53144095Y-47445151D01*
X53144096Y-47445150D01*
X53147399Y-47439428D01*
X53206414Y-47257800D01*
X53214591Y-47180000D01*
X54611496Y-47180000D01*
X54612186Y-47186565D01*
X54624787Y-47306453D01*
X54631458Y-47369928D01*
X54690473Y-47551556D01*
X54693776Y-47557278D01*
X54693777Y-47557279D01*
X54710371Y-47586021D01*
X54785960Y-47716944D01*
X54790378Y-47721851D01*
X54790379Y-47721852D01*
X54900894Y-47844591D01*
X54913747Y-47858866D01*
X54988706Y-47913327D01*
X55035126Y-47947053D01*
X55068248Y-47971118D01*
X55074276Y-47973802D01*
X55074278Y-47973803D01*
X55203152Y-48031181D01*
X55242712Y-48048794D01*
X55327870Y-48066895D01*
X55423056Y-48087128D01*
X55423061Y-48087128D01*
X55429513Y-48088500D01*
X55620487Y-48088500D01*
X55626939Y-48087128D01*
X55626944Y-48087128D01*
X55722130Y-48066895D01*
X55807288Y-48048794D01*
X55846848Y-48031181D01*
X55975722Y-47973803D01*
X55975724Y-47973802D01*
X55981752Y-47971118D01*
X56014875Y-47947053D01*
X56061294Y-47913327D01*
X56136253Y-47858866D01*
X56149106Y-47844591D01*
X56259621Y-47721852D01*
X56259622Y-47721851D01*
X56264040Y-47716944D01*
X56339629Y-47586021D01*
X56356223Y-47557279D01*
X56356224Y-47557278D01*
X56359527Y-47551556D01*
X56418542Y-47369928D01*
X56425214Y-47306453D01*
X56437814Y-47186565D01*
X56438504Y-47180000D01*
X56430782Y-47106533D01*
X56419232Y-46996635D01*
X56419232Y-46996633D01*
X56418542Y-46990072D01*
X56359527Y-46808444D01*
X56352716Y-46796646D01*
X56294790Y-46696316D01*
X56264040Y-46643056D01*
X56158661Y-46526020D01*
X56140675Y-46506045D01*
X56140674Y-46506044D01*
X56136253Y-46501134D01*
X55981752Y-46388882D01*
X55975724Y-46386198D01*
X55975722Y-46386197D01*
X55813319Y-46313891D01*
X55813318Y-46313891D01*
X55807288Y-46311206D01*
X55713887Y-46291353D01*
X55626944Y-46272872D01*
X55626939Y-46272872D01*
X55620487Y-46271500D01*
X55429513Y-46271500D01*
X55423061Y-46272872D01*
X55423056Y-46272872D01*
X55336112Y-46291353D01*
X55242712Y-46311206D01*
X55236682Y-46313891D01*
X55236681Y-46313891D01*
X55074278Y-46386197D01*
X55074276Y-46386198D01*
X55068248Y-46388882D01*
X54913747Y-46501134D01*
X54909326Y-46506044D01*
X54909325Y-46506045D01*
X54891340Y-46526020D01*
X54785960Y-46643056D01*
X54755210Y-46696316D01*
X54697285Y-46796646D01*
X54690473Y-46808444D01*
X54631458Y-46990072D01*
X54630768Y-46996633D01*
X54630768Y-46996635D01*
X54619218Y-47106533D01*
X54611496Y-47180000D01*
X53214591Y-47180000D01*
X53226376Y-47067872D01*
X53218889Y-46996635D01*
X53207104Y-46884507D01*
X53207104Y-46884505D01*
X53206414Y-46877944D01*
X53147399Y-46696316D01*
X53051912Y-46530928D01*
X53025086Y-46501134D01*
X52928547Y-46393917D01*
X52928546Y-46393916D01*
X52924125Y-46389006D01*
X52825029Y-46317008D01*
X52774966Y-46280635D01*
X52774965Y-46280634D01*
X52769624Y-46276754D01*
X52763596Y-46274070D01*
X52763594Y-46274069D01*
X52601191Y-46201763D01*
X52601190Y-46201763D01*
X52595160Y-46199078D01*
X52501760Y-46179225D01*
X52414816Y-46160744D01*
X52414811Y-46160744D01*
X52408359Y-46159372D01*
X52217385Y-46159372D01*
X52210933Y-46160744D01*
X52210928Y-46160744D01*
X52123984Y-46179225D01*
X52030584Y-46199078D01*
X52024554Y-46201763D01*
X52024553Y-46201763D01*
X51862150Y-46274069D01*
X51862148Y-46274070D01*
X51856120Y-46276754D01*
X51850779Y-46280634D01*
X51850778Y-46280635D01*
X51800715Y-46317008D01*
X51701619Y-46389006D01*
X51697198Y-46393916D01*
X51697197Y-46393917D01*
X51600659Y-46501134D01*
X51573832Y-46530928D01*
X51558618Y-46557279D01*
X51488058Y-46679492D01*
X51436675Y-46728485D01*
X51403433Y-46738416D01*
X51403745Y-46739885D01*
X51216944Y-46779591D01*
X51210914Y-46782276D01*
X51210913Y-46782276D01*
X51048510Y-46854582D01*
X51048508Y-46854583D01*
X51042480Y-46857267D01*
X51037139Y-46861147D01*
X51037138Y-46861148D01*
X50987075Y-46897521D01*
X50887979Y-46969519D01*
X50883558Y-46974429D01*
X50883557Y-46974430D01*
X50776776Y-47093023D01*
X50760192Y-47111441D01*
X50756891Y-47117159D01*
X50679481Y-47251237D01*
X50664705Y-47276829D01*
X50605690Y-47458457D01*
X50605000Y-47465018D01*
X50605000Y-47465020D01*
X50589791Y-47609724D01*
X50585728Y-47648385D01*
X43982349Y-47648385D01*
X43983974Y-47611168D01*
X43985600Y-47595766D01*
X43986421Y-47590889D01*
X43986574Y-47578350D01*
X43984091Y-47561013D01*
X43982627Y-47550788D01*
X43981354Y-47532916D01*
X43981464Y-46180000D01*
X47406496Y-46180000D01*
X47426458Y-46369928D01*
X47485473Y-46551556D01*
X47488776Y-46557278D01*
X47488777Y-46557279D01*
X47503351Y-46582522D01*
X47580960Y-46716944D01*
X47585378Y-46721851D01*
X47585379Y-46721852D01*
X47639785Y-46782276D01*
X47708747Y-46858866D01*
X47723945Y-46869908D01*
X47855703Y-46965636D01*
X47863248Y-46971118D01*
X47869276Y-46973802D01*
X47869278Y-46973803D01*
X47920560Y-46996635D01*
X48037712Y-47048794D01*
X48131112Y-47068647D01*
X48218056Y-47087128D01*
X48218061Y-47087128D01*
X48224513Y-47088500D01*
X48415487Y-47088500D01*
X48421939Y-47087128D01*
X48421944Y-47087128D01*
X48508888Y-47068647D01*
X48602288Y-47048794D01*
X48719440Y-46996635D01*
X48770722Y-46973803D01*
X48770724Y-46973802D01*
X48776752Y-46971118D01*
X48784298Y-46965636D01*
X48916055Y-46869908D01*
X48931253Y-46858866D01*
X49000215Y-46782276D01*
X49054621Y-46721852D01*
X49054622Y-46721851D01*
X49059040Y-46716944D01*
X49136649Y-46582522D01*
X49151223Y-46557279D01*
X49151224Y-46557278D01*
X49154527Y-46551556D01*
X49213542Y-46369928D01*
X49233504Y-46180000D01*
X49213542Y-45990072D01*
X49154527Y-45808444D01*
X49138472Y-45780635D01*
X49062341Y-45648774D01*
X49059040Y-45643056D01*
X49035558Y-45616976D01*
X48935675Y-45506045D01*
X48935674Y-45506044D01*
X48931253Y-45501134D01*
X48776752Y-45388882D01*
X48774674Y-45387957D01*
X48726788Y-45337733D01*
X48713354Y-45268019D01*
X48739743Y-45202109D01*
X48774195Y-45172256D01*
X48776752Y-45171118D01*
X48789948Y-45161531D01*
X48844992Y-45121539D01*
X48931253Y-45058866D01*
X49059040Y-44916944D01*
X49154527Y-44751556D01*
X49213542Y-44569928D01*
X49233504Y-44380000D01*
X49213542Y-44190072D01*
X49154527Y-44008444D01*
X49142657Y-43987885D01*
X63207000Y-43987885D01*
X63211475Y-44003124D01*
X63212865Y-44004329D01*
X63220548Y-44006000D01*
X64292885Y-44006000D01*
X64308124Y-44001525D01*
X64309329Y-44000135D01*
X64311000Y-43992452D01*
X64311000Y-43987885D01*
X64819000Y-43987885D01*
X64823475Y-44003124D01*
X64824865Y-44004329D01*
X64832548Y-44006000D01*
X65904884Y-44006000D01*
X65920123Y-44001525D01*
X65921328Y-44000135D01*
X65922999Y-43992452D01*
X65922999Y-43365331D01*
X65922629Y-43358510D01*
X65917105Y-43307648D01*
X65913479Y-43292396D01*
X65868324Y-43171946D01*
X65859786Y-43156351D01*
X65783285Y-43054276D01*
X65770724Y-43041715D01*
X65668649Y-42965214D01*
X65653054Y-42956676D01*
X65532606Y-42911522D01*
X65517351Y-42907895D01*
X65466486Y-42902369D01*
X65459672Y-42902000D01*
X64837115Y-42902000D01*
X64821876Y-42906475D01*
X64820671Y-42907865D01*
X64819000Y-42915548D01*
X64819000Y-43987885D01*
X64311000Y-43987885D01*
X64311000Y-42920116D01*
X64306525Y-42904877D01*
X64305135Y-42903672D01*
X64297452Y-42902001D01*
X63670331Y-42902001D01*
X63663510Y-42902371D01*
X63612648Y-42907895D01*
X63597396Y-42911521D01*
X63476946Y-42956676D01*
X63461351Y-42965214D01*
X63359276Y-43041715D01*
X63346715Y-43054276D01*
X63270214Y-43156351D01*
X63261676Y-43171946D01*
X63216522Y-43292394D01*
X63212895Y-43307649D01*
X63207369Y-43358514D01*
X63207000Y-43365328D01*
X63207000Y-43987885D01*
X49142657Y-43987885D01*
X49059040Y-43843056D01*
X48931253Y-43701134D01*
X48776752Y-43588882D01*
X48770724Y-43586198D01*
X48770722Y-43586197D01*
X48608319Y-43513891D01*
X48608318Y-43513891D01*
X48602288Y-43511206D01*
X48508887Y-43491353D01*
X48421944Y-43472872D01*
X48421939Y-43472872D01*
X48415487Y-43471500D01*
X48224513Y-43471500D01*
X48218061Y-43472872D01*
X48218056Y-43472872D01*
X48131113Y-43491353D01*
X48037712Y-43511206D01*
X48031682Y-43513891D01*
X48031681Y-43513891D01*
X47869278Y-43586197D01*
X47869276Y-43586198D01*
X47863248Y-43588882D01*
X47708747Y-43701134D01*
X47580960Y-43843056D01*
X47485473Y-44008444D01*
X47426458Y-44190072D01*
X47406496Y-44380000D01*
X47426458Y-44569928D01*
X47485473Y-44751556D01*
X47580960Y-44916944D01*
X47708747Y-45058866D01*
X47795008Y-45121539D01*
X47850053Y-45161531D01*
X47863248Y-45171118D01*
X47865326Y-45172043D01*
X47913212Y-45222267D01*
X47926646Y-45291981D01*
X47900257Y-45357891D01*
X47865805Y-45387744D01*
X47863248Y-45388882D01*
X47708747Y-45501134D01*
X47704326Y-45506044D01*
X47704325Y-45506045D01*
X47604443Y-45616976D01*
X47580960Y-45643056D01*
X47577659Y-45648774D01*
X47501529Y-45780635D01*
X47485473Y-45808444D01*
X47426458Y-45990072D01*
X47406496Y-46180000D01*
X43981464Y-46180000D01*
X43981773Y-42380000D01*
X53406496Y-42380000D01*
X53426458Y-42569928D01*
X53485473Y-42751556D01*
X53580960Y-42916944D01*
X53585378Y-42921851D01*
X53585379Y-42921852D01*
X53624422Y-42965214D01*
X53708747Y-43058866D01*
X53807843Y-43130864D01*
X53852481Y-43163295D01*
X53863248Y-43171118D01*
X53869276Y-43173802D01*
X53869278Y-43173803D01*
X54031681Y-43246109D01*
X54037712Y-43248794D01*
X54131113Y-43268647D01*
X54218056Y-43287128D01*
X54218061Y-43287128D01*
X54224513Y-43288500D01*
X54415487Y-43288500D01*
X54421939Y-43287128D01*
X54421944Y-43287128D01*
X54508887Y-43268647D01*
X54602288Y-43248794D01*
X54608319Y-43246109D01*
X54770722Y-43173803D01*
X54770724Y-43173802D01*
X54776752Y-43171118D01*
X54787520Y-43163295D01*
X54832157Y-43130864D01*
X54931253Y-43058866D01*
X55015578Y-42965214D01*
X55054621Y-42921852D01*
X55054622Y-42921851D01*
X55059040Y-42916944D01*
X55154527Y-42751556D01*
X55213542Y-42569928D01*
X55233504Y-42380000D01*
X55213542Y-42190072D01*
X55154527Y-42008444D01*
X55059040Y-41843056D01*
X54931253Y-41701134D01*
X54776752Y-41588882D01*
X54770724Y-41586198D01*
X54770722Y-41586197D01*
X54608319Y-41513891D01*
X54608318Y-41513891D01*
X54602288Y-41511206D01*
X54508887Y-41491353D01*
X54421944Y-41472872D01*
X54421939Y-41472872D01*
X54415487Y-41471500D01*
X54224513Y-41471500D01*
X54218061Y-41472872D01*
X54218056Y-41472872D01*
X54131113Y-41491353D01*
X54037712Y-41511206D01*
X54031682Y-41513891D01*
X54031681Y-41513891D01*
X53869278Y-41586197D01*
X53869276Y-41586198D01*
X53863248Y-41588882D01*
X53708747Y-41701134D01*
X53580960Y-41843056D01*
X53485473Y-42008444D01*
X53426458Y-42190072D01*
X53406496Y-42380000D01*
X43981773Y-42380000D01*
X43982350Y-35280000D01*
X47406496Y-35280000D01*
X47407186Y-35286565D01*
X47424612Y-35452361D01*
X47426458Y-35469928D01*
X47485473Y-35651556D01*
X47488776Y-35657278D01*
X47488777Y-35657279D01*
X47506803Y-35688500D01*
X47580960Y-35816944D01*
X47585378Y-35821851D01*
X47585379Y-35821852D01*
X47676846Y-35923436D01*
X47708747Y-35958866D01*
X47863248Y-36071118D01*
X47869276Y-36073802D01*
X47869278Y-36073803D01*
X48031681Y-36146109D01*
X48037712Y-36148794D01*
X48192701Y-36181738D01*
X48255174Y-36215467D01*
X48289496Y-36277616D01*
X48284768Y-36348455D01*
X48242492Y-36405493D01*
X48217753Y-36420092D01*
X48069278Y-36486197D01*
X48069276Y-36486198D01*
X48063248Y-36488882D01*
X47908747Y-36601134D01*
X47780960Y-36743056D01*
X47685473Y-36908444D01*
X47626458Y-37090072D01*
X47606496Y-37280000D01*
X47626458Y-37469928D01*
X47685473Y-37651556D01*
X47780960Y-37816944D01*
X47908747Y-37958866D01*
X48063248Y-38071118D01*
X48069276Y-38073802D01*
X48069278Y-38073803D01*
X48231681Y-38146109D01*
X48237712Y-38148794D01*
X48331112Y-38168647D01*
X48418056Y-38187128D01*
X48418061Y-38187128D01*
X48424513Y-38188500D01*
X48615487Y-38188500D01*
X48621939Y-38187128D01*
X48621944Y-38187128D01*
X48708888Y-38168647D01*
X48802288Y-38148794D01*
X48808319Y-38146109D01*
X48970722Y-38073803D01*
X48970724Y-38073802D01*
X48976752Y-38071118D01*
X49131253Y-37958866D01*
X49259040Y-37816944D01*
X49354527Y-37651556D01*
X49413542Y-37469928D01*
X49433504Y-37280000D01*
X49413542Y-37090072D01*
X49354527Y-36908444D01*
X49259040Y-36743056D01*
X49131253Y-36601134D01*
X48976752Y-36488882D01*
X48970724Y-36486198D01*
X48970722Y-36486197D01*
X48808319Y-36413891D01*
X48808318Y-36413891D01*
X48802288Y-36411206D01*
X48647299Y-36378262D01*
X48584826Y-36344533D01*
X48568920Y-36315731D01*
X59801873Y-36315731D01*
X59807422Y-36323144D01*
X59815820Y-36327386D01*
X59953599Y-36378625D01*
X59967185Y-36382012D01*
X60112887Y-36401454D01*
X60126883Y-36401747D01*
X60273265Y-36388424D01*
X60286992Y-36385607D01*
X60426786Y-36340185D01*
X60439538Y-36334400D01*
X60457105Y-36323928D01*
X60464705Y-36315731D01*
X60901873Y-36315731D01*
X60907422Y-36323144D01*
X60915820Y-36327386D01*
X61053599Y-36378625D01*
X61067185Y-36382012D01*
X61212887Y-36401454D01*
X61226883Y-36401747D01*
X61373265Y-36388424D01*
X61386992Y-36385607D01*
X61526786Y-36340185D01*
X61539538Y-36334400D01*
X61557105Y-36323928D01*
X61566694Y-36313586D01*
X61563189Y-36305173D01*
X61247808Y-35989793D01*
X61233870Y-35982182D01*
X61232034Y-35982314D01*
X61225422Y-35986563D01*
X60908632Y-36303352D01*
X60901873Y-36315731D01*
X60464705Y-36315731D01*
X60466694Y-36313586D01*
X60463189Y-36305173D01*
X60147808Y-35989793D01*
X60133870Y-35982182D01*
X60132034Y-35982314D01*
X60125422Y-35986563D01*
X59808632Y-36303352D01*
X59801873Y-36315731D01*
X48568920Y-36315731D01*
X48550504Y-36282384D01*
X48555232Y-36211545D01*
X48597508Y-36154507D01*
X48622247Y-36139908D01*
X48770722Y-36073803D01*
X48770724Y-36073802D01*
X48776752Y-36071118D01*
X48931253Y-35958866D01*
X48963154Y-35923436D01*
X49054621Y-35821852D01*
X49054622Y-35821851D01*
X49059040Y-35816944D01*
X49088608Y-35765731D01*
X59251873Y-35765731D01*
X59257422Y-35773144D01*
X59265828Y-35777390D01*
X59374536Y-35817818D01*
X59431412Y-35860310D01*
X59450174Y-35896143D01*
X59476869Y-35976388D01*
X59482741Y-35989097D01*
X59490774Y-36002361D01*
X59501182Y-36011876D01*
X59509802Y-36008214D01*
X59825207Y-35692808D01*
X59831584Y-35681130D01*
X60437182Y-35681130D01*
X60437314Y-35682966D01*
X60441563Y-35689578D01*
X60672189Y-35920205D01*
X60686132Y-35927818D01*
X60687966Y-35927687D01*
X60694579Y-35923436D01*
X60925207Y-35692808D01*
X60931584Y-35681130D01*
X61537182Y-35681130D01*
X61537314Y-35682966D01*
X61541563Y-35689578D01*
X61858690Y-36006706D01*
X61869983Y-36012872D01*
X61879170Y-36005583D01*
X61880143Y-36003690D01*
X61923539Y-35889447D01*
X61966427Y-35832869D01*
X62002391Y-35814357D01*
X62076787Y-35790185D01*
X62089538Y-35784400D01*
X62107105Y-35773928D01*
X62116694Y-35763586D01*
X62113189Y-35755173D01*
X61797808Y-35439793D01*
X61783870Y-35432182D01*
X61782034Y-35432314D01*
X61775421Y-35436564D01*
X61694489Y-35517495D01*
X61694488Y-35517496D01*
X61544793Y-35667192D01*
X61537182Y-35681130D01*
X60931584Y-35681130D01*
X60932818Y-35678870D01*
X60932686Y-35677034D01*
X60928437Y-35670421D01*
X60775510Y-35517494D01*
X60697808Y-35439793D01*
X60683872Y-35432183D01*
X60682034Y-35432314D01*
X60675420Y-35436565D01*
X60594489Y-35517495D01*
X60594488Y-35517496D01*
X60444793Y-35667192D01*
X60437182Y-35681130D01*
X59831584Y-35681130D01*
X59832818Y-35678870D01*
X59832686Y-35677034D01*
X59828437Y-35670421D01*
X59675510Y-35517494D01*
X59597808Y-35439793D01*
X59583872Y-35432183D01*
X59582034Y-35432314D01*
X59575420Y-35436565D01*
X59258632Y-35753352D01*
X59251873Y-35765731D01*
X49088608Y-35765731D01*
X49133197Y-35688500D01*
X49151223Y-35657279D01*
X49151224Y-35657278D01*
X49154527Y-35651556D01*
X49213542Y-35469928D01*
X49215389Y-35452361D01*
X49232814Y-35286565D01*
X49233504Y-35280000D01*
X49220606Y-35157279D01*
X49214232Y-35096635D01*
X49214232Y-35096633D01*
X49213542Y-35090072D01*
X49154527Y-34908444D01*
X49080370Y-34780000D01*
X51611496Y-34780000D01*
X51612186Y-34786565D01*
X51630759Y-34963273D01*
X51631458Y-34969928D01*
X51690473Y-35151556D01*
X51785960Y-35316944D01*
X51790378Y-35321851D01*
X51790379Y-35321852D01*
X51909325Y-35453955D01*
X51913747Y-35458866D01*
X52068248Y-35571118D01*
X52074276Y-35573802D01*
X52074278Y-35573803D01*
X52234799Y-35645271D01*
X52242712Y-35648794D01*
X52329267Y-35667192D01*
X52423056Y-35687128D01*
X52423061Y-35687128D01*
X52429513Y-35688500D01*
X52620487Y-35688500D01*
X52626939Y-35687128D01*
X52626944Y-35687128D01*
X52720733Y-35667192D01*
X52807288Y-35648794D01*
X52815201Y-35645271D01*
X52975722Y-35573803D01*
X52975724Y-35573802D01*
X52981752Y-35571118D01*
X53136253Y-35458866D01*
X53140675Y-35453955D01*
X53259621Y-35321852D01*
X53259622Y-35321851D01*
X53264040Y-35316944D01*
X53359527Y-35151556D01*
X53367530Y-35126925D01*
X58863215Y-35126925D01*
X58877559Y-35273216D01*
X58880470Y-35286911D01*
X58926869Y-35426388D01*
X58932741Y-35439097D01*
X58940774Y-35452361D01*
X58951182Y-35461876D01*
X58959802Y-35458214D01*
X59275207Y-35142808D01*
X59281584Y-35131130D01*
X59887182Y-35131130D01*
X59887314Y-35132966D01*
X59891564Y-35139579D01*
X60008492Y-35256508D01*
X60122191Y-35370206D01*
X60136130Y-35377817D01*
X60137967Y-35377686D01*
X60144577Y-35373438D01*
X60261508Y-35256508D01*
X60375206Y-35142809D01*
X60381583Y-35131130D01*
X60987182Y-35131130D01*
X60987314Y-35132966D01*
X60991564Y-35139579D01*
X61108492Y-35256508D01*
X61222191Y-35370206D01*
X61236130Y-35377817D01*
X61237967Y-35377686D01*
X61244577Y-35373438D01*
X61361508Y-35256508D01*
X61475206Y-35142809D01*
X61481583Y-35131130D01*
X62087182Y-35131130D01*
X62087314Y-35132966D01*
X62091563Y-35139578D01*
X62408690Y-35456706D01*
X62419983Y-35462872D01*
X62429170Y-35455583D01*
X62430143Y-35453690D01*
X62482341Y-35316275D01*
X62485823Y-35302714D01*
X62506710Y-35154099D01*
X62507316Y-35146213D01*
X62507488Y-35133962D01*
X62507101Y-35126062D01*
X62490372Y-34976920D01*
X62487272Y-34963273D01*
X62438928Y-34824446D01*
X62432882Y-34811827D01*
X62429897Y-34807051D01*
X62419358Y-34797681D01*
X62410308Y-34801676D01*
X62094793Y-35117192D01*
X62087182Y-35131130D01*
X61481583Y-35131130D01*
X61482817Y-35128870D01*
X61482686Y-35127033D01*
X61478438Y-35120423D01*
X61318116Y-34960100D01*
X61318115Y-34960099D01*
X61247810Y-34889795D01*
X61233869Y-34882183D01*
X61232034Y-34882314D01*
X61225420Y-34886565D01*
X61151884Y-34960100D01*
X61151883Y-34960101D01*
X60994793Y-35117192D01*
X60987182Y-35131130D01*
X60381583Y-35131130D01*
X60382817Y-35128870D01*
X60382686Y-35127033D01*
X60378438Y-35120423D01*
X60218116Y-34960100D01*
X60218115Y-34960099D01*
X60147810Y-34889795D01*
X60133869Y-34882183D01*
X60132034Y-34882314D01*
X60125420Y-34886565D01*
X60051884Y-34960100D01*
X60051883Y-34960101D01*
X59894793Y-35117192D01*
X59887182Y-35131130D01*
X59281584Y-35131130D01*
X59282818Y-35128870D01*
X59282686Y-35127034D01*
X59278437Y-35120422D01*
X58961962Y-34803946D01*
X58949583Y-34797187D01*
X58941364Y-34803340D01*
X58935399Y-34815355D01*
X58885125Y-34953481D01*
X58881833Y-34967090D01*
X58863411Y-35112918D01*
X58863215Y-35126925D01*
X53367530Y-35126925D01*
X53418542Y-34969928D01*
X53419242Y-34963273D01*
X53437814Y-34786565D01*
X53438504Y-34780000D01*
X53418542Y-34590072D01*
X53407514Y-34556132D01*
X59312182Y-34556132D01*
X59312313Y-34557966D01*
X59316564Y-34564579D01*
X59572192Y-34820207D01*
X59586130Y-34827818D01*
X59587966Y-34827686D01*
X59594579Y-34823437D01*
X59800207Y-34617809D01*
X59807818Y-34603870D01*
X59807687Y-34602034D01*
X59803436Y-34595421D01*
X59789145Y-34581130D01*
X60437182Y-34581130D01*
X60437314Y-34582966D01*
X60441564Y-34589579D01*
X60525316Y-34673332D01*
X60672192Y-34820207D01*
X60686130Y-34827818D01*
X60687966Y-34827686D01*
X60694579Y-34823437D01*
X60844685Y-34673331D01*
X60925207Y-34592808D01*
X60931584Y-34581130D01*
X61537182Y-34581130D01*
X61537314Y-34582966D01*
X61541564Y-34589579D01*
X61625316Y-34673332D01*
X61772192Y-34820207D01*
X61786130Y-34827818D01*
X61787966Y-34827686D01*
X61794578Y-34823437D01*
X62025205Y-34592811D01*
X62032818Y-34578868D01*
X62032687Y-34577034D01*
X62028436Y-34570421D01*
X61797808Y-34339793D01*
X61783870Y-34332182D01*
X61782034Y-34332314D01*
X61775421Y-34336564D01*
X61703540Y-34408444D01*
X61703539Y-34408445D01*
X61544793Y-34567192D01*
X61537182Y-34581130D01*
X60931584Y-34581130D01*
X60932817Y-34578872D01*
X60932686Y-34577034D01*
X60928435Y-34570420D01*
X60766460Y-34408444D01*
X60766459Y-34408443D01*
X60697810Y-34339795D01*
X60683869Y-34332183D01*
X60682034Y-34332314D01*
X60675420Y-34336565D01*
X60603540Y-34408444D01*
X60603539Y-34408445D01*
X60444793Y-34567192D01*
X60437182Y-34581130D01*
X59789145Y-34581130D01*
X59547808Y-34339793D01*
X59533870Y-34332182D01*
X59532034Y-34332314D01*
X59525422Y-34336563D01*
X59319795Y-34542189D01*
X59312182Y-34556132D01*
X53407514Y-34556132D01*
X53384791Y-34486197D01*
X53361568Y-34414724D01*
X53361566Y-34414720D01*
X53359527Y-34408444D01*
X53358500Y-34406665D01*
X53349291Y-34337969D01*
X53379400Y-34273673D01*
X53422584Y-34241984D01*
X53575719Y-34173805D01*
X53575726Y-34173801D01*
X53581752Y-34171118D01*
X53736253Y-34058866D01*
X53758677Y-34033962D01*
X53765013Y-34026925D01*
X58813215Y-34026925D01*
X58827559Y-34173216D01*
X58830470Y-34186911D01*
X58876869Y-34326388D01*
X58882741Y-34339097D01*
X58890774Y-34352361D01*
X58901182Y-34361876D01*
X58909802Y-34358214D01*
X59225207Y-34042808D01*
X59231583Y-34031132D01*
X59887182Y-34031132D01*
X59887313Y-34032966D01*
X59891564Y-34039579D01*
X60122192Y-34270207D01*
X60136130Y-34277818D01*
X60137966Y-34277686D01*
X60144579Y-34273437D01*
X60375205Y-34042811D01*
X60381583Y-34031130D01*
X60987182Y-34031130D01*
X60987314Y-34032966D01*
X60991564Y-34039579D01*
X61053118Y-34101134D01*
X61222192Y-34270207D01*
X61236130Y-34277818D01*
X61237966Y-34277686D01*
X61244579Y-34273437D01*
X61475205Y-34042811D01*
X61481583Y-34031130D01*
X62087182Y-34031130D01*
X62087314Y-34032966D01*
X62091563Y-34039578D01*
X62408690Y-34356706D01*
X62419983Y-34362872D01*
X62429170Y-34355583D01*
X62430143Y-34353690D01*
X62482341Y-34216275D01*
X62485823Y-34202714D01*
X62506710Y-34054099D01*
X62507316Y-34046213D01*
X62507488Y-34033962D01*
X62507101Y-34026062D01*
X62490372Y-33876920D01*
X62487272Y-33863273D01*
X62438928Y-33724446D01*
X62432882Y-33711827D01*
X62429897Y-33707051D01*
X62419358Y-33697681D01*
X62410308Y-33701676D01*
X62094793Y-34017192D01*
X62087182Y-34031130D01*
X61481583Y-34031130D01*
X61482817Y-34028869D01*
X61482686Y-34027034D01*
X61478435Y-34020420D01*
X61318116Y-33860100D01*
X61318115Y-33860099D01*
X61247810Y-33789795D01*
X61233869Y-33782183D01*
X61232034Y-33782314D01*
X61225420Y-33786565D01*
X61151884Y-33860100D01*
X61151883Y-33860101D01*
X60994793Y-34017192D01*
X60987182Y-34031130D01*
X60381583Y-34031130D01*
X60382817Y-34028869D01*
X60382686Y-34027034D01*
X60378435Y-34020420D01*
X60218116Y-33860100D01*
X60218115Y-33860099D01*
X60147810Y-33789795D01*
X60133869Y-33782183D01*
X60132034Y-33782314D01*
X60125420Y-33786565D01*
X59894795Y-34017189D01*
X59887182Y-34031132D01*
X59231583Y-34031132D01*
X59232818Y-34028870D01*
X59232686Y-34027034D01*
X59228437Y-34020422D01*
X58911962Y-33703946D01*
X58899583Y-33697187D01*
X58891364Y-33703340D01*
X58885399Y-33715355D01*
X58835125Y-33853481D01*
X58831833Y-33867090D01*
X58813411Y-34012918D01*
X58813215Y-34026925D01*
X53765013Y-34026925D01*
X53859621Y-33921852D01*
X53859622Y-33921851D01*
X53864040Y-33916944D01*
X53941769Y-33782314D01*
X53956223Y-33757279D01*
X53956224Y-33757278D01*
X53959527Y-33751556D01*
X54018542Y-33569928D01*
X54028306Y-33477034D01*
X54036830Y-33395925D01*
X59202915Y-33395925D01*
X59206740Y-33404756D01*
X59522192Y-33720207D01*
X59536130Y-33727818D01*
X59537966Y-33727686D01*
X59544578Y-33723437D01*
X59786886Y-33481130D01*
X60437182Y-33481130D01*
X60437314Y-33482966D01*
X60441564Y-33489579D01*
X60521912Y-33569928D01*
X60672192Y-33720207D01*
X60686130Y-33727818D01*
X60687966Y-33727686D01*
X60694579Y-33723437D01*
X60848089Y-33569927D01*
X60925207Y-33492808D01*
X60931584Y-33481130D01*
X61537182Y-33481130D01*
X61537314Y-33482966D01*
X61541564Y-33489579D01*
X61621912Y-33569928D01*
X61772192Y-33720207D01*
X61786130Y-33727818D01*
X61787966Y-33727686D01*
X61794578Y-33723437D01*
X62110765Y-33407251D01*
X62117524Y-33394872D01*
X62111430Y-33386732D01*
X62107686Y-33384355D01*
X62095110Y-33378222D01*
X61997619Y-33343506D01*
X61940156Y-33301811D01*
X61920896Y-33266244D01*
X61888931Y-33174454D01*
X61882882Y-33161827D01*
X61879897Y-33157051D01*
X61869358Y-33147681D01*
X61860308Y-33151676D01*
X61544793Y-33467192D01*
X61537182Y-33481130D01*
X60931584Y-33481130D01*
X60932817Y-33478872D01*
X60932686Y-33477034D01*
X60928435Y-33470420D01*
X60697811Y-33239795D01*
X60683868Y-33232182D01*
X60682034Y-33232313D01*
X60675421Y-33236564D01*
X60444793Y-33467192D01*
X60437182Y-33481130D01*
X59786886Y-33481130D01*
X59800205Y-33467811D01*
X59807818Y-33453868D01*
X59807687Y-33452034D01*
X59803436Y-33445420D01*
X59511963Y-33153947D01*
X59499583Y-33147187D01*
X59491364Y-33153340D01*
X59485399Y-33165355D01*
X59454937Y-33249049D01*
X59412843Y-33306220D01*
X59377142Y-33325232D01*
X59234023Y-33373954D01*
X59221358Y-33379914D01*
X59212357Y-33385452D01*
X59202915Y-33395925D01*
X54036830Y-33395925D01*
X54037814Y-33386565D01*
X54038504Y-33380000D01*
X54023768Y-33239795D01*
X54019232Y-33196635D01*
X54019232Y-33196633D01*
X54018542Y-33190072D01*
X53959527Y-33008444D01*
X53944666Y-32982704D01*
X53927928Y-32913709D01*
X53951148Y-32846617D01*
X53951994Y-32845925D01*
X59802915Y-32845925D01*
X59806740Y-32854756D01*
X60122192Y-33170207D01*
X60136130Y-33177818D01*
X60137966Y-33177686D01*
X60144578Y-33173437D01*
X60460765Y-32857251D01*
X60466949Y-32845925D01*
X60902915Y-32845925D01*
X60906740Y-32854756D01*
X61222192Y-33170207D01*
X61236130Y-33177818D01*
X61237966Y-33177686D01*
X61244578Y-33173437D01*
X61560765Y-32857251D01*
X61567524Y-32844872D01*
X61561430Y-32836732D01*
X61557686Y-32834355D01*
X61545108Y-32828221D01*
X61406634Y-32778912D01*
X61392995Y-32775713D01*
X61247037Y-32758309D01*
X61233040Y-32758211D01*
X61086850Y-32773576D01*
X61073177Y-32776582D01*
X60934023Y-32823954D01*
X60921358Y-32829914D01*
X60912357Y-32835452D01*
X60902915Y-32845925D01*
X60466949Y-32845925D01*
X60467524Y-32844872D01*
X60461430Y-32836732D01*
X60457686Y-32834355D01*
X60445108Y-32828221D01*
X60306634Y-32778912D01*
X60292995Y-32775713D01*
X60147037Y-32758309D01*
X60133040Y-32758211D01*
X59986850Y-32773576D01*
X59973177Y-32776582D01*
X59834023Y-32823954D01*
X59821358Y-32829914D01*
X59812357Y-32835452D01*
X59802915Y-32845925D01*
X53951994Y-32845925D01*
X54002537Y-32804597D01*
X54071699Y-32773805D01*
X54071706Y-32773801D01*
X54077732Y-32771118D01*
X54232233Y-32658866D01*
X54297666Y-32586195D01*
X54355601Y-32521852D01*
X54355602Y-32521851D01*
X54360020Y-32516944D01*
X54455507Y-32351556D01*
X54514522Y-32169928D01*
X54534484Y-31980000D01*
X54514522Y-31790072D01*
X54455507Y-31608444D01*
X54360020Y-31443056D01*
X54232233Y-31301134D01*
X54077732Y-31188882D01*
X54071704Y-31186198D01*
X54071702Y-31186197D01*
X53909299Y-31113891D01*
X53909298Y-31113891D01*
X53903268Y-31111206D01*
X53809868Y-31091353D01*
X53722924Y-31072872D01*
X53722919Y-31072872D01*
X53716467Y-31071500D01*
X53525493Y-31071500D01*
X53519041Y-31072872D01*
X53519036Y-31072872D01*
X53432092Y-31091353D01*
X53338692Y-31111206D01*
X53332662Y-31113891D01*
X53332661Y-31113891D01*
X53170258Y-31186197D01*
X53170256Y-31186198D01*
X53164228Y-31188882D01*
X53009727Y-31301134D01*
X52881940Y-31443056D01*
X52786453Y-31608444D01*
X52727438Y-31790072D01*
X52707476Y-31980000D01*
X52727438Y-32169928D01*
X52786453Y-32351556D01*
X52789756Y-32357278D01*
X52789757Y-32357279D01*
X52801314Y-32377296D01*
X52818052Y-32446291D01*
X52794832Y-32513383D01*
X52743443Y-32555403D01*
X52674281Y-32586195D01*
X52674274Y-32586199D01*
X52668248Y-32588882D01*
X52662907Y-32592762D01*
X52662906Y-32592763D01*
X52644625Y-32606045D01*
X52513747Y-32701134D01*
X52509326Y-32706044D01*
X52509325Y-32706045D01*
X52392807Y-32835452D01*
X52385960Y-32843056D01*
X52290473Y-33008444D01*
X52231458Y-33190072D01*
X52230768Y-33196633D01*
X52230768Y-33196635D01*
X52226232Y-33239795D01*
X52211496Y-33380000D01*
X52212186Y-33386565D01*
X52221695Y-33477034D01*
X52231458Y-33569928D01*
X52233498Y-33576206D01*
X52288431Y-33745271D01*
X52290473Y-33751556D01*
X52291500Y-33753335D01*
X52300709Y-33822031D01*
X52270600Y-33886327D01*
X52227416Y-33918016D01*
X52074281Y-33986195D01*
X52074274Y-33986199D01*
X52068248Y-33988882D01*
X52062907Y-33992762D01*
X52062906Y-33992763D01*
X52015736Y-34027034D01*
X51913747Y-34101134D01*
X51785960Y-34243056D01*
X51690473Y-34408444D01*
X51631458Y-34590072D01*
X51611496Y-34780000D01*
X49080370Y-34780000D01*
X49059040Y-34743056D01*
X48996260Y-34673331D01*
X48935675Y-34606045D01*
X48935674Y-34606044D01*
X48931253Y-34601134D01*
X48776752Y-34488882D01*
X48770724Y-34486198D01*
X48770722Y-34486197D01*
X48608319Y-34413891D01*
X48608318Y-34413891D01*
X48602288Y-34411206D01*
X48564844Y-34403247D01*
X48502371Y-34369518D01*
X48468049Y-34307369D01*
X48472777Y-34236530D01*
X48515053Y-34179492D01*
X48564844Y-34156753D01*
X48602288Y-34148794D01*
X48608319Y-34146109D01*
X48770722Y-34073803D01*
X48770724Y-34073802D01*
X48776752Y-34071118D01*
X48793616Y-34058866D01*
X48846529Y-34020422D01*
X48931253Y-33958866D01*
X48964581Y-33921852D01*
X49054621Y-33821852D01*
X49054622Y-33821851D01*
X49059040Y-33816944D01*
X49154527Y-33651556D01*
X49213542Y-33469928D01*
X49233504Y-33280000D01*
X49224052Y-33190072D01*
X49214232Y-33096635D01*
X49214232Y-33096633D01*
X49213542Y-33090072D01*
X49154527Y-32908444D01*
X49059040Y-32743056D01*
X48931253Y-32601134D01*
X48776752Y-32488882D01*
X48770724Y-32486198D01*
X48770722Y-32486197D01*
X48608319Y-32413891D01*
X48608318Y-32413891D01*
X48602288Y-32411206D01*
X48508887Y-32391353D01*
X48421944Y-32372872D01*
X48421939Y-32372872D01*
X48415487Y-32371500D01*
X48224513Y-32371500D01*
X48218061Y-32372872D01*
X48218056Y-32372872D01*
X48131113Y-32391353D01*
X48037712Y-32411206D01*
X48031682Y-32413891D01*
X48031681Y-32413891D01*
X47869278Y-32486197D01*
X47869276Y-32486198D01*
X47863248Y-32488882D01*
X47708747Y-32601134D01*
X47580960Y-32743056D01*
X47485473Y-32908444D01*
X47426458Y-33090072D01*
X47425768Y-33096633D01*
X47425768Y-33096635D01*
X47415948Y-33190072D01*
X47406496Y-33280000D01*
X47426458Y-33469928D01*
X47485473Y-33651556D01*
X47580960Y-33816944D01*
X47585378Y-33821851D01*
X47585379Y-33821852D01*
X47675419Y-33921852D01*
X47708747Y-33958866D01*
X47793471Y-34020422D01*
X47846385Y-34058866D01*
X47863248Y-34071118D01*
X47869276Y-34073802D01*
X47869278Y-34073803D01*
X48031681Y-34146109D01*
X48037712Y-34148794D01*
X48075156Y-34156753D01*
X48137629Y-34190482D01*
X48171951Y-34252631D01*
X48167223Y-34323470D01*
X48124947Y-34380508D01*
X48075156Y-34403247D01*
X48037712Y-34411206D01*
X48031682Y-34413891D01*
X48031681Y-34413891D01*
X47869278Y-34486197D01*
X47869276Y-34486198D01*
X47863248Y-34488882D01*
X47708747Y-34601134D01*
X47704326Y-34606044D01*
X47704325Y-34606045D01*
X47643741Y-34673331D01*
X47580960Y-34743056D01*
X47485473Y-34908444D01*
X47426458Y-35090072D01*
X47425768Y-35096633D01*
X47425768Y-35096635D01*
X47419394Y-35157279D01*
X47406496Y-35280000D01*
X43982350Y-35280000D01*
X43982949Y-27913990D01*
X44002957Y-27845871D01*
X44056616Y-27799382D01*
X44108949Y-27788000D01*
X44994508Y-27788000D01*
X45062629Y-27808002D01*
G37*
%TD.AperFunction*%
%TD*%
M02*
